<svg xmlns="http://www.w3.org/2000/svg" xmlns:xlink="http://www.w3.org/1999/xlink" width="500" zoomAndPan="magnify" viewBox="0 0 375 374.999991" height="500" preserveAspectRatio="xMidYMid meet" version="1.0"><defs><clipPath id="e674c50467"><path d="M 9.554688 56 L 365.804688 56 L 365.804688 291 L 9.554688 291 Z M 9.554688 56 " clip-rule="nonzero"/></clipPath><clipPath id="5e2b98c6df"><path d="M 9.554688 270 L 345 270 L 345 323.925781 L 9.554688 323.925781 Z M 9.554688 270 " clip-rule="nonzero"/></clipPath><clipPath id="a60198c986"><path d="M 9.554688 73 L 345 73 L 345 314 L 9.554688 314 Z M 9.554688 73 " clip-rule="nonzero"/></clipPath></defs><g clip-path="url(#e674c50467)"><path fill="#9dc48e" d="M 9.570312 75.066406 L 353.5 56.480469 L 365.445312 272.683594 L 31.136719 290.625 L 28.007812 286.03125 L 22.898438 286.308594 L 20.949219 280.761719 Z M 9.570312 75.066406 " fill-opacity="1" fill-rule="evenodd"/></g><g clip-path="url(#5e2b98c6df)"><path fill="#f9f5f1" d="M 9.5625 270.046875 L 18.945312 277.386719 L 344.816406 270.046875 L 344.816406 310.625 L 339.191406 310.625 L 331.296875 313.285156 L 320.722656 311.160156 L 316.078125 318.039062 L 307.878906 322.695312 L 304.390625 313.285156 L 298.511719 315.910156 L 289.363281 313.285156 L 277.347656 310.625 L 269.636719 320.035156 L 265.160156 323.980469 L 256.730469 320.035156 L 250.882812 315.910156 L 242.988281 320.035156 L 239.550781 313.285156 L 235.417969 315.910156 L 230.492188 320.035156 L 221.675781 315.910156 L 218.707031 315.285156 L 209.25 320.035156 L 204.53125 320.035156 L 201.871094 311.160156 L 195.507812 320.035156 L 189.519531 315.285156 L 184.265625 310.625 L 174.847656 310.625 L 171.195312 305.878906 L 166.148438 310.625 L 149.5 310.625 L 144.6875 314.574219 L 137.816406 314.574219 L 134.183594 320.070312 L 126.789062 318.703125 L 116.796875 318.703125 L 116.113281 313.953125 L 109.296875 318.703125 L 109.296875 308.457031 L 101.640625 311.953125 L 99.496094 308.457031 L 85.132812 308.457031 L 79.386719 310.503906 L 72.511719 310.503906 L 72.511719 308.457031 L 68.503906 304.660156 L 67.023438 308.457031 C 66.476562 319.050781 65.070312 311.957031 63.765625 310.503906 L 56.546875 313.203125 L 55.671875 308.457031 L 48.425781 313.203125 L 40.457031 308.457031 L 34.683594 313.203125 L 34.683594 307.089844 L 27.460938 310.625 L 25.167969 305.878906 L 21.839844 304.660156 L 18.945312 310.503906 L 16.148438 305.878906 L 11.167969 305.878906 L 9.5625 300.382812 Z M 9.5625 270.046875 " fill-opacity="1" fill-rule="evenodd"/></g><g clip-path="url(#a60198c986)"><path fill="#bcd6b2" d="M 9.5625 73.859375 L 344.808594 73.859375 L 344.808594 289.308594 L 339.183594 289.308594 L 331.289062 291.96875 L 320.714844 289.835938 L 316.070312 296.714844 L 307.871094 301.375 L 304.382812 291.96875 L 298.507812 294.589844 L 289.355469 291.96875 L 277.339844 289.308594 L 269.632812 298.714844 L 265.152344 302.660156 L 256.726562 298.714844 L 250.878906 294.589844 L 242.980469 298.714844 L 239.546875 291.96875 L 235.410156 294.589844 L 230.484375 298.714844 L 221.667969 294.589844 L 218.699219 293.964844 L 209.246094 298.714844 L 204.527344 298.714844 L 201.867188 289.835938 L 195.5 298.714844 L 189.511719 293.964844 L 184.261719 289.308594 L 174.84375 289.308594 L 171.191406 284.558594 L 166.140625 304.210938 L 149.496094 304.210938 L 144.683594 308.15625 L 137.8125 308.15625 L 134.175781 313.648438 L 126.785156 312.277344 L 116.792969 312.277344 L 116.109375 307.53125 L 109.296875 312.277344 L 109.296875 302.035156 L 101.636719 305.535156 L 99.496094 302.035156 L 85.132812 302.035156 L 79.382812 304.082031 L 72.507812 304.082031 L 72.507812 302.035156 L 68.5 298.238281 L 67.019531 302.035156 C 66.472656 312.628906 65.070312 305.539062 63.765625 304.082031 L 56.542969 306.789062 L 55.671875 302.035156 L 48.421875 306.789062 L 40.457031 302.035156 L 34.679688 306.789062 L 34.679688 300.671875 L 27.457031 304.210938 L 25.167969 299.460938 L 21.839844 298.238281 L 18.945312 304.082031 L 16.148438 299.460938 L 11.164062 299.460938 L 9.5625 293.964844 Z M 9.5625 73.859375 " fill-opacity="1" fill-rule="evenodd"/></g><path fill="#97c087" d="M 45.132812 73.378906 C 45.5625 70.03125 46.269531 66.722656 48.460938 64.125 C 50.871094 61.265625 54.324219 59.476562 58.050781 59.15625 L 58.058594 59.15625 C 61.785156 58.839844 65.492188 60.019531 68.351562 62.425781 C 71.203125 64.828125 72.984375 68.253906 73.320312 71.964844 C 73.320312 71.972656 74.285156 115.546875 74.285156 115.546875 C 74.289062 115.574219 74.285156 115.609375 74.289062 115.636719 C 74.542969 118.605469 73.609375 121.550781 71.6875 123.832031 C 69.769531 126.105469 67.023438 127.53125 64.058594 127.78125 C 61.089844 128.035156 58.144531 127.097656 55.863281 125.179688 C 53.585938 123.257812 52.164062 120.515625 51.910156 117.546875 L 50.277344 98.378906 C 50.15625 96.964844 48.910156 95.910156 47.492188 96.03125 C 46.078125 96.152344 45.023438 97.402344 45.144531 98.820312 C 45.796875 106.480469 46.367188 113.128906 46.78125 117.984375 C 47.148438 122.3125 49.226562 126.316406 52.546875 129.121094 C 55.867188 131.917969 60.167969 133.285156 64.496094 132.914062 C 68.824219 132.542969 72.828125 130.46875 75.628906 127.148438 C 78.417969 123.835938 79.785156 119.554688 79.429688 115.242188 C 79.429688 115.246094 79.789062 71.59375 79.789062 71.59375 C 79.785156 71.550781 79.78125 71.511719 79.78125 71.472656 C 79.316406 66.035156 76.710938 60.996094 72.53125 57.476562 C 68.351562 53.953125 62.945312 52.234375 57.507812 52.699219 L 57.5 52.699219 C 52.058594 53.164062 47.023438 55.773438 43.503906 59.953125 C 40.3125 63.738281 38.941406 68.535156 38.65625 73.445312 C 38.636719 73.710938 45.121094 73.492188 45.132812 73.378906 Z M 45.132812 73.378906 " fill-opacity="1" fill-rule="evenodd"/></svg>