<svg xmlns="http://www.w3.org/2000/svg" xmlns:xlink="http://www.w3.org/1999/xlink" width="500" zoomAndPan="magnify" viewBox="0 0 375 374.999991" height="500" preserveAspectRatio="xMidYMid meet" version="1.0"><path fill="#afb6c0" d="M 284.535156 308.371094 C 284.535156 308.371094 284.535156 308.367188 284.535156 308.367188 C 284.535156 308.367188 284.535156 308.371094 284.535156 308.371094 C 284.535156 308.371094 284.535156 308.371094 284.535156 308.375 C 284.535156 308.371094 284.535156 308.371094 284.535156 308.371094 Z M 273.648438 349.867188 C 267.035156 357.175781 257.820312 360.671875 247.160156 362.625 C 224.558594 366.773438 201.183594 366.6875 178.613281 362.375 C 169.550781 360.644531 160.523438 358.179688 152.203125 354.125 C 148.21875 352.179688 141.554688 349.683594 139.148438 345.699219 C 136.042969 340.558594 136.148438 330.828125 135.066406 324.921875 C 132.3125 309.949219 129.5625 294.972656 126.8125 279.996094 C 123.882812 264.042969 120.953125 248.089844 118.023438 232.132812 C 116.527344 223.992188 115.035156 215.855469 113.539062 207.714844 C 112.605469 202.632812 107.105469 189.847656 115.277344 191.367188 C 118.679688 192.003906 122.074219 192.570312 125.519531 192.914062 C 138.703125 194.230469 152.0625 193.089844 165.015625 190.449219 C 183.050781 186.773438 200.375 180.253906 217.464844 173.410156 C 242.730469 163.292969 269.03125 151.347656 284.464844 128.929688 C 285.09375 136.355469 284.179688 144.21875 284.265625 148.929688 C 284.414062 157.230469 284.542969 165.53125 284.652344 173.828125 C 284.867188 190.433594 284.988281 207.035156 285.023438 223.636719 C 285.066406 243.5625 284.980469 263.484375 284.761719 283.40625 C 284.566406 301.59375 287.269531 322.734375 279.964844 339.84375 C 278.269531 343.808594 276.144531 347.109375 273.648438 349.867188 Z M 109.003906 181.34375 C 105.4375 179.101562 102.015625 175.511719 102.222656 171.628906 C 102.523438 165.976562 109.394531 167.992188 113.460938 167.769531 C 126.535156 167.039062 139.367188 163.339844 151.140625 157.683594 C 166.949219 150.085938 180.914062 139.0625 193.425781 126.769531 C 207.859375 112.585938 220.652344 96.394531 228.695312 77.824219 C 236.738281 59.253906 239.777344 38.125 234.738281 18.527344 C 248.386719 25.824219 254.855469 42.660156 253.730469 58.097656 C 252.605469 73.53125 245.214844 87.792969 236.898438 100.847656 C 212.851562 138.597656 175.550781 175.097656 129.9375 183.472656 C 124.324219 184.503906 118.421875 185.046875 113 183.269531 C 111.78125 182.871094 110.382812 182.207031 109.003906 181.34375 Z M 99.535156 158.628906 C 99.542969 158.628906 99.546875 158.628906 99.550781 158.628906 C 99.527344 158.617188 99.503906 158.605469 99.476562 158.597656 C 99.464844 158.59375 99.453125 158.585938 99.441406 158.582031 C 98.589844 158.175781 97.753906 157.75 96.941406 157.269531 C 96.535156 156.988281 96.140625 156.703125 95.746094 156.402344 C 95.339844 156.046875 94.953125 155.667969 94.566406 155.28125 C 94.425781 155.113281 94.285156 154.941406 94.140625 154.761719 C 94.160156 154.792969 94.191406 154.828125 94.210938 154.859375 C 94.125 154.753906 94.046875 154.640625 93.972656 154.527344 C 93.632812 153.992188 93.304688 153.460938 92.992188 152.914062 C 92.492188 151.898438 92.058594 150.851562 91.65625 149.804688 C 91.269531 148.730469 90.902344 147.667969 90.617188 146.574219 C 90.429688 145.539062 90.316406 144.5 90.203125 143.460938 C 90.035156 141.070312 89.941406 138.675781 89.996094 136.28125 C 90.070312 135.367188 90.175781 134.46875 90.308594 133.566406 C 90.871094 130.699219 91.671875 127.894531 92.539062 125.113281 C 93.398438 122.511719 94.273438 119.929688 95.292969 117.394531 C 96.261719 114.972656 97.328125 112.585938 98.421875 110.203125 C 99.0625 108.855469 99.714844 107.496094 100.429688 106.179688 C 101.113281 104.925781 101.882812 103.714844 102.652344 102.5 C 102.625 102.542969 102.601562 102.585938 102.578125 102.625 C 102.9375 102.058594 103.285156 101.492188 103.652344 100.929688 C 103.652344 100.917969 103.664062 100.902344 103.671875 100.890625 C 103.726562 100.804688 103.785156 100.710938 103.839844 100.628906 C 103.832031 100.636719 103.820312 100.65625 103.8125 100.664062 C 103.832031 100.636719 103.851562 100.609375 103.867188 100.578125 C 103.878906 100.5625 103.886719 100.542969 103.898438 100.523438 C 104.066406 100.277344 104.226562 100.023438 104.378906 99.777344 C 104.398438 99.757812 104.40625 99.742188 104.417969 99.722656 C 104.445312 99.683594 104.472656 99.636719 104.5 99.589844 C 104.492188 99.597656 104.492188 99.597656 104.492188 99.597656 C 104.5 99.582031 104.511719 99.5625 104.527344 99.554688 L 104.519531 99.554688 C 104.527344 99.535156 104.546875 99.515625 104.558594 99.503906 C 104.554688 99.503906 104.554688 99.503906 104.554688 99.503906 C 104.5625 99.492188 104.570312 99.480469 104.574219 99.457031 C 104.585938 99.449219 104.59375 99.441406 104.59375 99.429688 C 104.605469 99.421875 104.605469 99.421875 104.605469 99.421875 C 106.828125 95.925781 109.050781 92.417969 111.285156 88.949219 C 113.453125 85.59375 115.859375 82.445312 118.375 79.363281 L 118.363281 79.371094 C 121.097656 76.132812 123.765625 72.851562 126.449219 69.582031 L 126.449219 69.589844 C 126.613281 69.402344 126.753906 69.210938 126.902344 69.042969 C 126.980469 68.941406 127.0625 68.847656 127.148438 68.742188 C 127.140625 68.75 127.140625 68.75 127.128906 68.761719 C 127.167969 68.722656 127.195312 68.675781 127.234375 68.636719 C 127.300781 68.554688 127.367188 68.476562 127.421875 68.402344 C 127.402344 68.433594 127.375 68.46875 127.355469 68.5 C 127.414062 68.433594 127.480469 68.355469 127.535156 68.28125 C 127.535156 68.289062 127.523438 68.289062 127.523438 68.300781 C 128.042969 67.667969 128.570312 67.039062 129.097656 66.414062 C 131.578125 63.550781 134.21875 60.84375 136.78125 58.0625 C 139.410156 55.21875 142.039062 52.363281 144.660156 49.5 C 147.148438 46.773438 149.722656 44.144531 152.378906 41.589844 C 155.148438 38.914062 157.890625 36.21875 160.691406 33.578125 C 164.046875 30.523438 167.609375 27.765625 171.257812 25.078125 C 171.246094 25.078125 171.246094 25.085938 171.238281 25.085938 C 171.246094 25.078125 171.257812 25.078125 171.265625 25.070312 C 171.285156 25.058594 171.292969 25.046875 171.3125 25.03125 C 173.386719 23.539062 175.460938 22.0625 177.710938 20.835938 C 179.765625 19.820312 181.867188 18.933594 184 18.074219 C 187.355469 16.871094 190.773438 15.859375 194.234375 14.992188 C 197.816406 14.230469 201.40625 13.691406 205.042969 13.324219 C 208.484375 13.015625 211.90625 12.804688 215.355469 12.871094 C 217.464844 12.996094 219.566406 13.230469 221.652344 13.578125 C 222.273438 13.703125 222.894531 13.816406 223.5 13.984375 C 223.507812 13.992188 223.527344 14.011719 223.535156 14.023438 C 224.035156 14.464844 224.628906 14.757812 225.242188 14.898438 C 225.515625 15.152344 225.789062 15.398438 226.050781 15.660156 C 226.0625 15.671875 226.0625 15.671875 226.0625 15.679688 C 226.0625 15.671875 226.0625 15.671875 226.0625 15.671875 C 226.0625 15.671875 226.0625 15.671875 226.070312 15.671875 C 226.371094 16.21875 226.703125 16.734375 227.015625 17.265625 C 227.03125 17.320312 227.0625 17.367188 227.078125 17.425781 C 227.144531 17.605469 227.203125 17.792969 227.25 17.992188 C 227.589844 19.488281 228.03125 20.957031 228.390625 22.445312 C 228.570312 23.210938 228.636719 24 228.765625 24.765625 C 228.964844 25.917969 229.183594 27.054688 229.304688 28.207031 C 229.425781 29.667969 229.503906 31.121094 229.691406 32.570312 C 229.898438 34.152344 230.085938 35.746094 230.246094 37.328125 C 230.273438 37.71875 230.285156 38.09375 230.273438 38.480469 C 230.132812 40.976562 229.824219 43.476562 229.519531 45.953125 C 229.125 49.109375 228.785156 52.277344 228.285156 55.425781 C 227.664062 58.546875 226.722656 61.617188 225.789062 64.660156 C 223.902344 70.382812 221.5 75.941406 218.964844 81.402344 C 217.316406 84.90625 215.460938 88.261719 213.433594 91.550781 C 212.441406 93.085938 211.464844 94.644531 210.371094 96.113281 C 209.277344 97.601562 208.125 99.042969 206.988281 100.496094 C 204.660156 103.464844 202.320312 106.421875 199.9375 109.355469 C 197.214844 112.523438 194.441406 115.621094 191.511719 118.609375 C 188.523438 121.652344 185.496094 124.679688 182.40625 127.621094 C 177.308594 132.160156 171.917969 136.402344 166.394531 140.429688 C 162.425781 143.144531 158.296875 145.648438 154.074219 147.929688 C 148.84375 150.617188 143.40625 152.886719 137.929688 155.027344 C 133.378906 156.714844 128.761719 158.316406 124.039062 159.476562 C 120.34375 160.230469 116.59375 160.644531 112.851562 161.019531 C 112.027344 161.074219 111.230469 161.109375 110.410156 161.121094 C 108.875 161.03125 107.375 160.832031 105.859375 160.578125 C 104.480469 160.304688 103.132812 159.976562 101.804688 159.570312 C 101.144531 159.316406 100.484375 159.050781 99.835938 158.769531 C 99.730469 158.722656 99.636719 158.675781 99.535156 158.628906 Z M 256.878906 84.171875 C 258.503906 82.957031 260.753906 82.597656 264.726562 83.3125 C 271.457031 84.527344 277.609375 89.199219 280.609375 95.332031 C 285.148438 104.609375 283.355469 116.078125 278.054688 124.941406 C 272.75 133.804688 264.386719 140.421875 255.617188 145.886719 C 241.21875 154.859375 226.949219 161.882812 211.214844 168.023438 C 192.65625 175.273438 173.128906 184.101562 153.011719 185.734375 C 151.460938 185.859375 149.914062 186.015625 148.402344 185.878906 C 157.046875 181.382812 166.570312 178.589844 175.167969 173.65625 C 186.328125 167.246094 196.226562 159.351562 205.542969 150.527344 C 223.515625 133.777344 239.730469 112.898438 251.976562 91.589844 C 253.933594 88.183594 254.980469 85.59375 256.878906 84.171875 Z M 292.035156 199.894531 C 291.824219 173.90625 291.496094 147.921875 291.742188 121.925781 C 291.84375 111.265625 291.054688 100.203125 285.996094 90.816406 C 282.492188 84.3125 276.496094 78.738281 269.367188 76.507812 C 266.992188 75.765625 261.394531 76.457031 259.816406 74.699219 C 257.636719 72.28125 260.96875 66.613281 261.359375 64.027344 C 262.222656 58.300781 262.089844 52.4375 261.054688 46.746094 C 259.027344 35.609375 253.496094 25.035156 245.011719 17.464844 C 225.457031 0.00390625 198.460938 3.324219 176.382812 13.4375 C 167.738281 17.382812 160.660156 24.472656 153.621094 30.800781 C 145.847656 37.785156 138.371094 45.101562 131.28125 52.78125 C 117.15625 68.089844 104.5625 84.875 94.480469 103.125 C 89.25 112.59375 84.636719 122.632812 83.21875 133.359375 C 81.84375 143.777344 84.960938 151.878906 89.523438 160.949219 C 92.730469 167.328125 95.820312 173.765625 98.789062 180.261719 C 101.875 187.007812 102.914062 192.097656 104.132812 199.265625 C 105.753906 208.839844 108.605469 218.335938 110.320312 228.046875 C 112.328125 239.429688 114.339844 250.816406 116.347656 262.203125 C 120.3125 284.648438 124.273438 307.089844 128.238281 329.539062 C 129.304688 335.589844 129.734375 342.996094 132.214844 348.65625 C 134.257812 353.316406 138.941406 354.402344 143.285156 356.792969 C 152.570312 361.894531 162.453125 365.898438 172.660156 368.746094 C 195.082031 374.992188 217.894531 374.515625 240.679688 371.34375 C 251.105469 369.894531 261.640625 367.464844 270.539062 361.847656 C 283.175781 353.867188 287.675781 341.148438 289.066406 326.90625 C 293.171875 284.863281 292.371094 242.132812 292.035156 199.894531 " fill-opacity="1" fill-rule="nonzero"/><path fill="#afb6c0" d="M 142.320312 96.414062 C 142.300781 96.386719 142.28125 96.355469 142.273438 96.328125 C 142.308594 96.386719 142.347656 96.441406 142.382812 96.488281 C 142.441406 96.5625 142.488281 96.628906 142.546875 96.703125 C 142.535156 96.695312 142.527344 96.6875 142.515625 96.675781 C 142.875 97.1875 143.234375 97.703125 143.535156 98.242188 C 144.15625 99.351562 145.382812 99.929688 146.609375 99.929688 C 147.277344 99.929688 147.945312 99.757812 148.519531 99.402344 C 150.265625 98.308594 150.632812 96.132812 149.679688 94.40625 C 148.964844 93.125 148.011719 91.953125 147.144531 90.769531 C 146.589844 90.003906 146.0625 89.210938 145.597656 88.390625 C 145.523438 88.230469 145.457031 88.074219 145.390625 87.921875 C 145.296875 87.648438 145.222656 87.375 145.15625 87.09375 C 145.050781 86.542969 144.957031 85.988281 144.882812 85.433594 C 144.882812 85.347656 144.871094 85.265625 144.871094 85.175781 C 144.921875 84.820312 144.96875 84.472656 145.023438 84.125 C 145.203125 83.152344 145.402344 82.199219 145.65625 81.246094 C 145.824219 80.777344 146.003906 80.304688 146.203125 79.835938 C 146.363281 79.511719 146.523438 79.195312 146.710938 78.882812 C 147.558594 77.589844 148.453125 76.320312 149.386719 75.085938 C 149.925781 74.453125 150.480469 73.839844 151.066406 73.246094 C 151.433594 72.90625 151.808594 72.578125 152.195312 72.257812 C 152.628906 71.964844 153.074219 71.691406 153.523438 71.425781 C 154.195312 71.089844 154.871094 70.777344 155.570312 70.484375 C 155.816406 70.410156 156.058594 70.332031 156.304688 70.269531 C 156.691406 70.203125 157.070312 70.15625 157.457031 70.109375 C 157.757812 70.089844 158.058594 70.078125 158.371094 70.070312 C 159.339844 70.144531 160.292969 70.285156 161.242188 70.4375 C 162.027344 70.597656 162.789062 70.777344 163.554688 71.003906 C 164.296875 71.257812 165.042969 71.542969 165.769531 71.851562 C 166.125 72.03125 166.484375 72.207031 166.832031 72.417969 C 167.039062 72.558594 167.238281 72.710938 167.464844 72.832031 C 168.050781 73.140625 168.679688 73.285156 169.339844 73.285156 C 171.308594 73.285156 172.921875 71.523438 172.875 69.589844 C 172.835938 68.269531 172.109375 67.160156 171.046875 66.546875 C 171.007812 66.527344 170.96875 66.5 170.933594 66.46875 C 170.914062 66.46875 170.902344 66.460938 170.886719 66.449219 C 170.894531 66.460938 170.914062 66.46875 170.933594 66.480469 C 170.507812 66.261719 170.035156 66.113281 169.539062 66.066406 C 169.574219 66.066406 169.605469 66.066406 169.640625 66.066406 C 169.792969 66.09375 169.953125 66.121094 170.105469 66.148438 L 170.09375 66.148438 C 170.234375 66.195312 170.367188 66.246094 170.507812 66.28125 C 170.648438 66.339844 170.792969 66.402344 170.933594 66.46875 C 169.386719 65.5 167.757812 64.78125 166.023438 64.199219 C 164.503906 63.679688 162.929688 63.359375 161.339844 63.132812 C 159.914062 62.925781 158.511719 62.773438 157.070312 62.886719 C 152.589844 63.230469 148.546875 65.488281 145.4375 68.648438 C 144.148438 69.96875 143.035156 71.445312 141.988281 72.953125 C 140.894531 74.527344 139.898438 76.085938 139.191406 77.867188 C 138.511719 79.558594 138.164062 81.371094 137.851562 83.171875 C 137.484375 85.300781 137.746094 87.421875 138.304688 89.496094 C 139.011719 92.113281 140.734375 94.265625 142.320312 96.414062 " fill-opacity="1" fill-rule="nonzero"/><path fill="#afb6c0" d="M 87.769531 158.898438 C 87.761719 158.878906 87.753906 158.859375 87.746094 158.84375 C 87.746094 158.839844 87.746094 158.839844 87.746094 158.839844 C 87.753906 158.859375 87.761719 158.878906 87.769531 158.898438 " fill-opacity="1" fill-rule="nonzero"/><path fill="#afb6c0" d="M 161.695312 335.535156 C 161.695312 335.542969 161.703125 335.5625 161.703125 335.582031 C 161.382812 332.238281 161 328.890625 160.667969 325.542969 C 160.339844 321.847656 160.074219 318.136719 159.726562 314.433594 C 159.394531 310.859375 158.925781 307.289062 158.585938 303.707031 C 158.585938 303.714844 158.585938 303.714844 158.585938 303.726562 C 158.019531 297.367188 157.5 291.003906 156.945312 284.640625 C 156.398438 278.457031 155.796875 272.273438 155.191406 266.101562 C 155.191406 266.101562 155.191406 266.09375 155.191406 266.09375 C 155.191406 266.046875 155.183594 266.007812 155.183594 265.96875 C 155.183594 265.980469 155.183594 265.980469 155.183594 265.988281 C 154.710938 259.996094 154.609375 253.972656 154.382812 247.96875 C 154.164062 241.964844 153.710938 235.988281 153.15625 230.023438 C 153.164062 230.183594 153.183594 230.34375 153.195312 230.511719 C 152.808594 226.234375 152.355469 221.964844 151.742188 217.714844 C 151.414062 215.445312 151.082031 213.171875 150.753906 210.910156 C 150.613281 209.902344 150.460938 208.894531 150.308594 207.894531 C 150.179688 206.980469 150.085938 206.039062 149.839844 205.140625 C 149.066406 202.316406 145.097656 201.710938 143.441406 204.070312 C 143.070312 204.605469 142.828125 205.199219 142.761719 205.851562 C 142.714844 206.328125 142.761719 206.792969 142.894531 207.234375 C 143.242188 209.042969 143.441406 210.890625 143.703125 212.699219 C 144.015625 214.839844 144.324219 216.988281 144.636719 219.128906 C 145.191406 222.964844 145.578125 226.8125 145.957031 230.664062 C 145.957031 230.644531 145.957031 230.628906 145.957031 230.609375 C 145.964844 230.675781 145.964844 230.742188 145.976562 230.804688 C 145.984375 230.871094 145.984375 230.949219 145.992188 231.011719 C 145.992188 231.011719 145.992188 231.011719 145.992188 231.023438 C 145.992188 231.03125 145.992188 231.042969 146.003906 231.050781 C 146.046875 231.640625 146.097656 232.226562 146.15625 232.816406 C 146.808594 240.132812 147.136719 247.457031 147.390625 254.800781 C 147.511719 258.617188 147.644531 262.433594 147.953125 266.246094 C 148.257812 270.023438 148.707031 273.800781 149.066406 277.582031 C 149.054688 277.421875 149.039062 277.261719 149.027344 277.089844 C 149.59375 283.566406 150.160156 290.039062 150.714844 296.507812 C 150.988281 299.703125 151.226562 302.886719 151.546875 306.074219 C 151.855469 309.097656 152.25 312.113281 152.542969 315.148438 C 152.542969 315.140625 152.535156 315.128906 152.535156 315.121094 C 152.855469 318.628906 153.109375 322.144531 153.421875 325.660156 C 153.722656 328.964844 154.128906 332.253906 154.449219 335.5625 C 154.65625 337.835938 154.851562 340.105469 155.105469 342.378906 C 155.257812 343.773438 155.484375 345.15625 155.636719 346.550781 C 155.644531 346.636719 155.644531 346.722656 155.652344 346.816406 C 155.804688 348.75 157.257812 350.351562 159.273438 350.351562 C 159.300781 350.351562 159.328125 350.351562 159.359375 350.351562 C 161.242188 350.304688 163.042969 348.617188 162.894531 346.648438 C 162.761719 344.949219 162.488281 343.265625 162.289062 341.578125 C 162.0625 339.570312 161.882812 337.542969 161.695312 335.535156 " fill-opacity="1" fill-rule="nonzero"/><path fill="#afb6c0" d="M 197.589844 335.921875 C 197.15625 332.160156 196.734375 328.398438 196.25 324.636719 C 195.78125 320.859375 195.273438 317.078125 194.886719 313.28125 C 194.121094 305.703125 193.246094 298.128906 192.5 290.539062 C 191.90625 283.613281 191.453125 276.675781 190.738281 269.746094 C 190.011719 262.785156 189.125 255.835938 188.429688 248.863281 C 188.4375 249.023438 188.457031 249.191406 188.46875 249.351562 C 187.996094 243.78125 187.601562 238.214844 187.082031 232.652344 C 186.582031 227.253906 185.980469 221.859375 185.480469 216.460938 C 185.214844 212.960938 184.925781 209.476562 184.90625 205.980469 C 184.933594 205.859375 184.953125 205.734375 184.960938 205.601562 C 185.019531 205.011719 185.046875 204.398438 185.019531 203.800781 C 184.933594 202.34375 184.09375 201.050781 182.710938 200.511719 C 181.523438 200.050781 180.078125 200.25 179.097656 201.085938 C 177.496094 202.464844 177.601562 204.726562 177.65625 206.65625 C 177.703125 208.109375 177.761719 209.558594 177.84375 211.011719 C 178.015625 213.847656 178.242188 216.6875 178.515625 219.523438 C 179.050781 225.214844 179.664062 230.910156 180.203125 236.609375 C 180.191406 236.535156 180.183594 236.46875 180.171875 236.394531 C 180.730469 242.839844 181.164062 249.285156 181.917969 255.707031 C 182.679688 262.320312 183.414062 268.945312 184.046875 275.5625 C 184.472656 280.546875 184.820312 285.546875 185.246094 290.53125 C 185.667969 295.382812 186.289062 300.21875 186.800781 305.054688 C 187.214844 309.011719 187.582031 312.972656 188.015625 316.917969 C 188.4375 320.671875 188.957031 324.402344 189.402344 328.144531 C 190.183594 334.777344 190.910156 341.414062 191.625 348.058594 C 191.824219 349.839844 193.527344 351.113281 195.253906 351.113281 C 195.421875 351.113281 195.601562 351.09375 195.773438 351.066406 C 197.796875 350.734375 198.984375 348.878906 198.777344 346.917969 C 198.382812 343.253906 198.003906 339.585938 197.589844 335.921875 " fill-opacity="1" fill-rule="nonzero"/><path fill="#afb6c0" d="M 232.632812 325.082031 C 232.632812 325.101562 232.632812 325.109375 232.632812 325.121094 C 232.199219 320.199219 231.839844 315.28125 231.472656 310.351562 C 231.097656 305.28125 230.851562 300.210938 230.597656 295.128906 C 230.183594 287.136719 229.625 279.164062 229.023438 271.191406 C 228.457031 263.640625 227.796875 256.089844 227.421875 248.535156 C 227.023438 240.597656 226.730469 232.664062 226.363281 224.734375 C 226.15625 220.363281 225.960938 216 225.761719 211.636719 C 225.675781 209.65625 225.6875 207.667969 225.648438 205.691406 C 225.621094 204.113281 225.722656 202.53125 225.78125 200.957031 C 225.875 200.089844 225.949219 199.222656 226.0625 198.355469 C 226.300781 197.941406 226.46875 197.46875 226.523438 196.953125 C 226.730469 195.027344 225.289062 193.132812 223.320312 192.957031 C 222.613281 192.898438 221.953125 192.984375 221.292969 193.277344 C 219.75 193.964844 219.164062 195.554688 218.929688 197.121094 C 218.65625 198.949219 218.5625 200.769531 218.496094 202.605469 C 218.382812 205.875 218.410156 209.15625 218.5625 212.425781 C 218.898438 220.34375 219.269531 228.261719 219.605469 236.167969 C 219.957031 244.492188 220.390625 252.792969 221 261.097656 C 221.585938 268.957031 222.207031 276.816406 222.746094 284.679688 C 223.273438 292.40625 223.539062 300.152344 224.046875 307.890625 C 224.292969 311.679688 224.613281 315.46875 224.902344 319.257812 C 225.1875 323.007812 225.496094 326.769531 225.910156 330.519531 C 226.703125 337.691406 227.796875 344.828125 228.558594 352.007812 C 228.75 353.789062 230.464844 355.0625 232.1875 355.0625 C 232.359375 355.0625 232.539062 355.042969 232.707031 355.015625 C 234.722656 354.683594 235.910156 352.828125 235.703125 350.867188 C 234.789062 342.253906 233.453125 333.707031 232.632812 325.082031 " fill-opacity="1" fill-rule="nonzero"/><path fill="#afb6c0" d="M 273.519531 342.816406 C 273.527344 342.851562 273.527344 342.898438 273.539062 342.9375 C 273.1875 339.140625 272.832031 335.339844 272.453125 331.535156 C 272.453125 331.535156 272.453125 331.535156 272.464844 331.535156 C 272.453125 331.523438 272.453125 331.515625 272.453125 331.496094 C 272.445312 331.347656 272.425781 331.207031 272.414062 331.050781 C 272.414062 331.101562 272.425781 331.148438 272.425781 331.195312 C 272.238281 329.121094 272.058594 327.046875 271.917969 324.976562 C 271.652344 321.195312 271.539062 317.417969 271.351562 313.644531 C 271.171875 309.941406 270.964844 306.238281 270.785156 302.542969 C 270.605469 298.679688 270.472656 294.824219 270.304688 290.960938 C 270.125 287.152344 269.871094 283.335938 269.785156 279.519531 C 269.605469 271.695312 269.222656 263.890625 268.777344 256.078125 C 268.34375 248.386719 267.777344 240.707031 267.65625 233.007812 C 267.535156 225.355469 267.441406 217.710938 267.234375 210.058594 C 267.121094 205.910156 267.023438 201.753906 266.875 197.605469 C 266.742188 193.820312 266.636719 190.046875 266.714844 186.257812 C 266.761719 185.683594 266.800781 185.109375 266.855469 184.523438 C 267.023438 182.566406 265.648438 180.757812 263.652344 180.527344 C 261.726562 180.320312 259.824219 181.765625 259.65625 183.734375 C 259.175781 189.238281 259.578125 194.761719 259.730469 200.285156 C 259.9375 208.125 260.152344 215.96875 260.257812 223.816406 C 260.359375 231.59375 260.558594 239.359375 261.019531 247.125 C 261.503906 255.097656 261.972656 263.070312 262.304688 271.046875 C 262.464844 274.738281 262.480469 278.433594 262.625 282.121094 C 262.765625 285.945312 263.007812 289.753906 263.171875 293.582031 C 263.480469 301.128906 263.914062 308.679688 264.226562 316.238281 C 264.367188 319.902344 264.535156 323.570312 264.839844 327.226562 C 265.167969 331.117188 265.574219 335.011719 265.941406 338.90625 C 265.933594 338.839844 265.921875 338.773438 265.914062 338.707031 C 266.121094 341.089844 266.328125 343.484375 266.5625 345.878906 C 266.734375 347.671875 268.476562 348.921875 270.183594 348.921875 C 270.359375 348.921875 270.53125 348.914062 270.710938 348.886719 C 271.652344 348.734375 272.511719 348.207031 273.066406 347.433594 C 273.648438 346.625 273.800781 345.707031 273.707031 344.738281 C 273.640625 344.097656 273.574219 343.457031 273.519531 342.816406 " fill-opacity="1" fill-rule="nonzero"/><path fill="#afb6c0" d="M 102.445312 115.925781 C 103.066406 114.195312 103.761719 112.519531 104.476562 110.828125 C 104.464844 110.847656 104.453125 110.871094 104.441406 110.894531 C 105.496094 108.433594 106.554688 105.972656 107.703125 103.550781 C 108.765625 101.277344 109.878906 99.007812 111.144531 96.847656 C 111.132812 96.859375 111.125 96.871094 111.117188 96.886719 C 111.691406 95.957031 112.285156 95.035156 112.925781 94.164062 C 113.609375 93.21875 114.304688 92.292969 115.007812 91.371094 C 116.234375 89.796875 117.4375 88.210938 118.664062 86.632812 C 118.636719 86.667969 118.605469 86.707031 118.570312 86.753906 C 120.277344 84.585938 122.019531 82.457031 123.792969 80.34375 C 124.574219 79.421875 125.355469 78.488281 126.050781 77.5 C 126.316406 77.132812 126.515625 76.753906 126.648438 76.3125 C 126.835938 75.691406 126.542969 75 125.902344 74.777344 C 125.300781 74.570312 124.554688 74.890625 124.367188 75.519531 C 124.324219 75.644531 124.289062 75.757812 124.246094 75.871094 C 123.996094 76.261719 123.699219 76.628906 123.414062 76.996094 C 123.417969 76.992188 123.421875 76.988281 123.421875 76.980469 C 121.914062 78.914062 120.304688 80.753906 118.765625 82.644531 C 117.234375 84.539062 115.753906 86.476562 114.269531 88.398438 C 114.269531 88.398438 114.269531 88.394531 114.269531 88.394531 C 112.746094 90.363281 111.207031 92.316406 109.832031 94.398438 C 108.464844 96.492188 107.355469 98.734375 106.261719 100.976562 C 105.128906 103.289062 104.082031 105.632812 103.066406 107.988281 C 102.046875 110.355469 101.03125 112.710938 100.164062 115.132812 C 99.9375 115.746094 100.285156 116.453125 100.90625 116.667969 C 101.035156 116.714844 101.160156 116.734375 101.289062 116.734375 C 101.789062 116.734375 102.261719 116.414062 102.445312 115.925781 " fill-opacity="1" fill-rule="nonzero"/><path fill="#afb6c0" d="M 96.996094 121.828125 C 96.683594 122.289062 96.484375 122.863281 96.257812 123.371094 C 95.835938 124.324219 95.429688 125.277344 95.070312 126.253906 C 94.355469 128.207031 93.6875 130.175781 93.328125 132.210938 C 92.980469 134.230469 92.660156 136.277344 92.886719 138.320312 C 93.121094 140.582031 93.347656 142.855469 93.808594 145.085938 C 93.925781 145.65625 94.4375 146.054688 94.996094 146.054688 C 95.074219 146.054688 95.152344 146.046875 95.230469 146.027344 C 95.871094 145.898438 96.304688 145.246094 96.175781 144.605469 C 96.050781 144.050781 95.949219 143.484375 95.855469 142.929688 C 95.855469 142.9375 95.855469 142.945312 95.855469 142.953125 C 95.722656 141.945312 95.605469 140.941406 95.484375 139.933594 C 95.367188 138.894531 95.234375 137.851562 95.207031 136.800781 C 95.25 135.980469 95.320312 135.179688 95.414062 134.375 C 95.414062 134.371094 95.414062 134.371094 95.414062 134.371094 C 95.417969 134.320312 95.425781 134.269531 95.429688 134.21875 C 95.429688 134.257812 95.425781 134.289062 95.421875 134.324219 C 95.519531 133.722656 95.613281 133.117188 95.730469 132.523438 C 95.871094 131.832031 96.027344 131.144531 96.203125 130.460938 C 96.738281 128.71875 97.335938 126.992188 98.039062 125.3125 C 98.25 124.816406 98.46875 124.320312 98.691406 123.816406 C 98.800781 123.589844 98.898438 123.34375 99.023438 123.125 C 99.359375 122.59375 99.203125 121.863281 98.671875 121.496094 C 98.125 121.128906 97.371094 121.28125 96.996094 121.828125 " fill-opacity="1" fill-rule="nonzero"/><path fill="#afb6c0" d="M 167.675781 130.707031 C 167.683594 130.707031 167.6875 130.703125 167.691406 130.699219 C 167.671875 130.714844 167.652344 130.730469 167.628906 130.746094 C 167.609375 130.765625 167.589844 130.777344 167.566406 130.796875 C 167.570312 130.792969 167.574219 130.789062 167.578125 130.785156 C 165.597656 132.273438 163.621094 133.761719 161.648438 135.242188 C 160.59375 136.042969 159.527344 136.816406 158.453125 137.589844 C 157.496094 138.269531 156.488281 138.878906 155.488281 139.5 C 154.988281 139.785156 154.488281 140.074219 153.96875 140.34375 C 153.472656 140.597656 152.964844 140.824219 152.449219 141.046875 C 152.464844 141.039062 152.480469 141.03125 152.496094 141.023438 C 151.773438 141.324219 150.820312 141.585938 150.339844 142.253906 C 149.953125 142.785156 150.132812 143.566406 150.660156 143.933594 C 150.863281 144.070312 151.09375 144.136719 151.316406 144.136719 C 151.640625 144.136719 151.957031 144.003906 152.195312 143.769531 C 152.183594 143.785156 152.171875 143.800781 152.160156 143.816406 C 152.136719 143.832031 152.117188 143.847656 152.09375 143.867188 C 152.113281 143.851562 152.132812 143.835938 152.152344 143.820312 C 152.148438 143.828125 152.144531 143.832031 152.140625 143.839844 C 152.144531 143.832031 152.148438 143.828125 152.152344 143.820312 C 152.207031 143.785156 152.261719 143.75 152.3125 143.71875 C 152.40625 143.667969 152.503906 143.625 152.601562 143.585938 C 153.28125 143.3125 153.964844 143.054688 154.617188 142.71875 C 155.324219 142.359375 156.011719 141.972656 156.703125 141.585938 C 158 140.839844 159.253906 139.972656 160.480469 139.097656 C 161.847656 138.128906 163.1875 137.109375 164.523438 136.089844 C 165.703125 135.195312 166.898438 134.3125 168.078125 133.421875 C 169.132812 132.632812 170.167969 131.824219 171.1875 131.003906 C 172.074219 130.277344 172.914062 129.484375 173.75 128.703125 C 175.617188 126.957031 177.503906 125.261719 179.414062 123.578125 C 181.273438 121.9375 183.117188 120.296875 184.796875 118.457031 C 186.617188 116.46875 188.398438 114.445312 190.179688 112.40625 C 190.613281 111.917969 190.566406 111.144531 190.074219 110.703125 C 189.585938 110.269531 188.800781 110.3125 188.367188 110.816406 C 186.097656 113.40625 183.835938 116.015625 181.421875 118.484375 C 181.460938 118.449219 181.496094 118.421875 181.535156 118.382812 C 179.273438 120.570312 176.851562 122.585938 174.523438 124.707031 C 173.316406 125.800781 172.140625 126.929688 170.933594 128.023438 C 169.882812 128.972656 168.78125 129.839844 167.675781 130.707031 " fill-opacity="1" fill-rule="nonzero"/><path fill="#afb6c0" d="M 198.023438 100.304688 C 198.414062 100.304688 198.804688 100.128906 199.023438 99.777344 C 199.0625 99.710938 199.105469 99.648438 199.152344 99.582031 C 199.707031 98.941406 200.324219 98.351562 200.925781 97.742188 C 201.492188 97.167969 202.027344 96.5625 202.574219 95.96875 C 203.742188 94.6875 204.914062 93.398438 206.042969 92.078125 C 206.863281 91.105469 207.691406 90.152344 208.476562 89.15625 C 209.285156 88.136719 210.058594 87.101562 210.800781 86.046875 C 211.507812 85.035156 212.21875 84.035156 212.886719 83.019531 C 213.621094 81.878906 214.328125 80.738281 215.035156 79.585938 C 216.34375 77.429688 217.4375 75.152344 218.425781 72.820312 C 219.445312 70.425781 220.417969 67.996094 221.414062 65.59375 C 221.667969 64.980469 221.265625 64.253906 220.671875 64.058594 C 220.019531 63.828125 219.386719 64.1875 219.132812 64.792969 C 218.234375 66.964844 217.347656 69.125 216.457031 71.296875 C 216.472656 71.261719 216.484375 71.230469 216.503906 71.203125 C 215.976562 72.417969 215.457031 73.632812 214.875 74.820312 C 214.300781 75.972656 213.695312 77.09375 213.050781 78.199219 C 213.054688 78.199219 213.054688 78.195312 213.054688 78.195312 C 212.09375 79.777344 211.105469 81.339844 210.066406 82.886719 C 209.101562 84.300781 208.09375 85.679688 207.074219 87.050781 C 207.078125 87.046875 207.082031 87.039062 207.089844 87.035156 C 207.074219 87.050781 207.0625 87.070312 207.046875 87.085938 C 207.03125 87.109375 207.011719 87.132812 206.996094 87.15625 C 207 87.148438 207.003906 87.140625 207.011719 87.132812 C 205.375 89.179688 203.667969 91.175781 201.914062 93.113281 C 201.027344 94.082031 200.160156 95.074219 199.25 96.007812 C 198.785156 96.476562 198.332031 96.941406 197.882812 97.402344 C 197.570312 97.722656 197.25 98.042969 197.023438 98.429688 C 196.675781 98.984375 196.777344 99.71875 197.34375 100.105469 C 197.542969 100.238281 197.785156 100.304688 198.023438 100.304688 " fill-opacity="1" fill-rule="nonzero"/><path fill="#afb6c0" d="M 112.410156 191.339844 C 112.410156 191.28125 112.410156 191.226562 112.417969 191.179688 C 112.410156 191.253906 112.390625 191.328125 112.371094 191.40625 C 112.382812 191.375 112.390625 191.359375 112.410156 191.339844 " fill-opacity="1" fill-rule="nonzero"/><path fill="#afb6c0" d="M 112.417969 191.066406 C 112.429688 191.046875 112.429688 191.039062 112.429688 191.027344 C 112.429688 191.019531 112.417969 191.007812 112.417969 191 C 112.417969 191.019531 112.417969 191.039062 112.417969 191.066406 " fill-opacity="1" fill-rule="nonzero"/><path fill="#afb6c0" d="M 114.832031 203.410156 C 114.828125 203.371094 114.824219 203.332031 114.816406 203.296875 C 114.8125 203.28125 114.808594 203.265625 114.804688 203.25 C 114.816406 203.304688 114.824219 203.351562 114.832031 203.410156 " fill-opacity="1" fill-rule="nonzero"/><path fill="#afb6c0" d="M 120.808594 221.097656 C 120.5625 219.929688 120.347656 218.742188 120.128906 217.5625 C 120.140625 217.621094 120.148438 217.667969 120.160156 217.722656 C 120.136719 217.609375 120.117188 217.496094 120.097656 217.378906 C 119.882812 216.136719 119.722656 214.894531 119.546875 213.644531 C 119.375 212.476562 119.167969 211.308594 118.914062 210.148438 C 118.632812 208.867188 118.320312 207.601562 118.007812 206.332031 C 117.726562 205.199219 117.417969 204.078125 117.191406 202.9375 C 117.175781 202.855469 117.160156 202.769531 117.144531 202.683594 C 117.152344 202.710938 117.15625 202.742188 117.160156 202.765625 C 117.011719 201.929688 116.886719 201.070312 116.765625 200.222656 C 116.707031 199.800781 116.652344 199.375 116.578125 198.953125 C 116.558594 198.835938 116.53125 198.726562 116.53125 198.601562 C 116.53125 198.65625 116.53125 198.707031 116.53125 198.753906 C 116.53125 198.09375 116.019531 197.535156 115.351562 197.519531 C 114.710938 197.5 114.117188 198.035156 114.117188 198.695312 C 114.117188 198.855469 114.144531 198.996094 114.171875 199.148438 C 114.25 199.589844 114.304688 200.042969 114.371094 200.488281 C 114.507812 201.429688 114.644531 202.363281 114.816406 203.296875 C 115.078125 204.75 115.488281 206.1875 115.84375 207.621094 C 116.226562 209.164062 116.589844 210.71875 116.882812 212.28125 C 117.199219 214.109375 117.402344 215.964844 117.726562 217.796875 C 118.019531 219.40625 118.320312 221.015625 118.667969 222.617188 C 119 224.136719 119.335938 225.660156 119.617188 227.203125 C 119.910156 228.839844 120.15625 230.476562 120.375 232.125 C 120.457031 232.746094 120.972656 233.207031 121.582031 233.207031 C 121.625 233.207031 121.664062 233.203125 121.703125 233.199219 C 122.355469 233.125 122.863281 232.511719 122.769531 231.863281 C 122.457031 229.4375 122.082031 227.019531 121.574219 224.625 C 121.328125 223.457031 121.0625 222.277344 120.808594 221.097656 " fill-opacity="1" fill-rule="nonzero"/><path fill="#afb6c0" d="M 117.730469 217.800781 C 117.726562 217.796875 117.726562 217.796875 117.726562 217.796875 C 117.726562 217.792969 117.726562 217.792969 117.726562 217.792969 C 117.726562 217.792969 117.726562 217.796875 117.730469 217.800781 " fill-opacity="1" fill-rule="nonzero"/><path fill="#afb6c0" d="M 128.699219 259.6875 C 128.292969 257.265625 127.671875 254.871094 127.113281 252.476562 C 126.535156 249.964844 125.964844 247.453125 125.476562 244.917969 C 125.429688 244.625 125.367188 244.332031 125.34375 244.039062 C 125.34375 244.03125 125.34375 244.027344 125.34375 244.023438 C 125.34375 243.363281 124.824219 242.796875 124.164062 242.789062 C 123.511719 242.769531 122.929688 243.304688 122.929688 243.964844 C 122.929688 244.410156 123.023438 244.84375 123.097656 245.277344 C 123.203125 245.917969 123.34375 246.546875 123.476562 247.179688 C 123.777344 248.640625 124.089844 250.09375 124.417969 251.535156 C 125.078125 254.386719 125.785156 257.234375 126.320312 260.113281 C 126.867188 263.367188 127.347656 266.628906 127.90625 269.886719 C 128.414062 272.917969 128.960938 275.964844 129.300781 279.027344 C 129.371094 279.632812 129.898438 280.101562 130.496094 280.101562 C 130.539062 280.101562 130.585938 280.097656 130.628906 280.09375 C 131.289062 280.015625 131.769531 279.414062 131.703125 278.761719 C 131.527344 277.207031 131.328125 275.644531 131.054688 274.105469 C 130.195312 269.308594 129.5 264.496094 128.699219 259.6875 " fill-opacity="1" fill-rule="nonzero"/><path fill="#afb6c0" d="M 124.941406 332.355469 C 124.914062 332.226562 124.894531 332.101562 124.867188 331.972656 C 124.765625 331.390625 124.664062 330.804688 124.554688 330.230469 C 124.558594 330.265625 124.566406 330.300781 124.574219 330.339844 C 124.085938 327.59375 123.523438 324.871094 123.027344 322.136719 C 122.488281 319.058594 122.03125 315.96875 121.546875 312.882812 C 121.292969 311.261719 121.027344 309.632812 120.800781 308 C 120.574219 306.40625 120.378906 304.804688 120.179688 303.195312 C 119.539062 298.285156 118.777344 293.382812 117.917969 288.5 C 117.457031 285.890625 117.042969 283.261719 116.609375 280.640625 C 116.402344 279.40625 116.210938 278.164062 116.035156 276.917969 C 115.941406 276.304688 115.855469 275.703125 115.761719 275.097656 C 115.695312 274.683594 115.609375 274.257812 115.582031 273.835938 C 115.582031 273.863281 115.582031 273.898438 115.582031 273.929688 C 115.582031 273.269531 115.070312 272.707031 114.402344 272.695312 C 113.761719 272.675781 113.167969 273.214844 113.167969 273.875 C 113.167969 273.875 113.167969 273.882812 113.167969 273.890625 C 113.167969 273.914062 113.167969 273.9375 113.171875 273.957031 C 113.179688 274.285156 113.238281 274.609375 113.292969 274.929688 C 113.386719 275.515625 113.480469 276.097656 113.5625 276.683594 C 113.742188 277.933594 113.933594 279.1875 114.128906 280.433594 C 114.515625 282.828125 114.902344 285.210938 115.316406 287.597656 C 115.730469 289.992188 116.15625 292.382812 116.53125 294.789062 C 116.902344 297.046875 117.222656 299.320312 117.53125 301.601562 C 117.863281 304.03125 118.125 306.480469 118.492188 308.914062 C 118.859375 311.394531 119.257812 313.863281 119.644531 316.332031 C 120.019531 318.78125 120.40625 321.234375 120.859375 323.664062 C 121.285156 326.003906 121.765625 328.339844 122.1875 330.675781 C 122.179688 330.621094 122.167969 330.5625 122.160156 330.515625 C 122.1875 330.648438 122.207031 330.78125 122.234375 330.921875 C 122.234375 330.910156 122.230469 330.898438 122.230469 330.886719 C 122.328125 331.445312 122.433594 332.011719 122.53125 332.566406 C 122.53125 332.554688 122.53125 332.546875 122.527344 332.535156 C 122.621094 333.019531 122.710938 333.511719 122.792969 334.007812 C 123.011719 335.214844 123.210938 336.425781 123.386719 337.644531 C 123.464844 338.246094 123.96875 338.714844 124.578125 338.714844 C 124.621094 338.714844 124.667969 338.710938 124.714844 338.707031 C 125.355469 338.632812 125.871094 338.027344 125.777344 337.367188 C 125.539062 335.671875 125.234375 333.992188 124.933594 332.308594 C 124.933594 332.324219 124.9375 332.339844 124.941406 332.355469 " fill-opacity="1" fill-rule="nonzero"/><path fill="#afb6c0" d="M 281.328125 147.570312 C 281.808594 147.125 281.800781 146.324219 281.347656 145.863281 C 280.875 145.382812 280.121094 145.402344 279.640625 145.84375 C 278.980469 146.449219 278.332031 147.0625 277.660156 147.644531 C 277.699219 147.609375 277.738281 147.578125 277.773438 147.542969 C 275.429688 149.539062 273.003906 151.472656 270.640625 153.460938 C 268.28125 155.433594 265.832031 157.285156 263.289062 159.007812 C 263.3125 158.992188 263.339844 158.980469 263.363281 158.964844 C 262.335938 159.632812 261.320312 160.304688 260.292969 160.953125 C 259.300781 161.585938 258.3125 162.226562 257.292969 162.789062 C 255.203125 163.96875 253.070312 165.0625 250.914062 166.109375 C 250.960938 166.082031 251.007812 166.0625 251.054688 166.035156 C 249.753906 166.648438 248.445312 167.238281 247.125 167.804688 C 245.898438 168.324219 244.644531 168.765625 243.394531 169.199219 C 240.921875 170.050781 238.4375 170.867188 235.957031 171.695312 C 236.011719 171.679688 236.070312 171.660156 236.117188 171.640625 C 234.214844 172.246094 232.300781 172.839844 230.378906 173.382812 C 229.40625 173.65625 228.4375 173.933594 227.476562 174.242188 C 226.671875 174.507812 225.898438 174.804688 225.097656 175.070312 C 225.121094 175.066406 225.148438 175.058594 225.175781 175.054688 C 224.859375 175.152344 224.539062 175.25 224.214844 175.332031 C 224.195312 175.335938 224.175781 175.335938 224.15625 175.335938 C 224.171875 175.335938 224.1875 175.335938 224.203125 175.335938 C 224.203125 175.335938 224.199219 175.335938 224.199219 175.335938 C 223.550781 175.347656 223.007812 175.851562 222.988281 176.511719 C 222.980469 177.164062 223.507812 177.75 224.167969 177.75 C 224.769531 177.75 225.355469 177.523438 225.917969 177.332031 C 226.738281 177.058594 227.550781 176.75 228.371094 176.476562 C 228.324219 176.496094 228.265625 176.511719 228.21875 176.535156 C 228.707031 176.382812 229.199219 176.230469 229.6875 176.089844 C 232.082031 175.390625 234.496094 174.734375 236.863281 173.933594 C 239.273438 173.121094 241.6875 172.328125 244.089844 171.507812 C 245.296875 171.09375 246.503906 170.6875 247.679688 170.191406 C 248.898438 169.671875 250.105469 169.144531 251.292969 168.585938 C 253.554688 167.53125 255.777344 166.410156 257.953125 165.195312 C 260.214844 163.921875 262.375 162.480469 264.550781 161.066406 C 265.636719 160.359375 266.683594 159.605469 267.71875 158.84375 C 268.71875 158.097656 269.707031 157.351562 270.667969 156.570312 C 271.5625 155.84375 272.441406 155.082031 273.324219 154.347656 C 274.363281 153.496094 275.410156 152.660156 276.445312 151.800781 C 278.113281 150.433594 279.742188 149.03125 281.328125 147.570312 " fill-opacity="1" fill-rule="nonzero"/><path fill="#afb6c0" d="M 206.390625 181.992188 C 206.410156 181.988281 206.425781 181.984375 206.445312 181.984375 C 206.480469 181.984375 206.511719 181.984375 206.546875 181.984375 C 206.492188 181.984375 206.441406 181.988281 206.390625 181.992188 Z M 213.585938 179.523438 C 212.25 180.113281 210.902344 180.675781 209.523438 181.15625 C 208.5 181.460938 207.460938 181.761719 206.414062 181.984375 C 206.378906 181.992188 206.347656 181.996094 206.3125 182.003906 C 205.761719 182.109375 205.328125 182.574219 205.3125 183.160156 C 205.304688 183.800781 205.839844 184.394531 206.492188 184.394531 C 206.71875 184.394531 206.925781 184.339844 207.140625 184.292969 C 207.847656 184.121094 208.554688 183.945312 209.261719 183.746094 C 211.0625 183.246094 212.785156 182.519531 214.492188 181.757812 C 215.085938 181.492188 215.40625 180.8125 215.160156 180.191406 C 214.917969 179.597656 214.191406 179.25 213.585938 179.523438 " fill-opacity="1" fill-rule="nonzero"/><path fill="#afb6c0" d="M 117.015625 191.875 C 116.96875 191.867188 116.925781 191.855469 116.878906 191.847656 C 116.871094 191.847656 116.863281 191.847656 116.855469 191.847656 C 116.914062 191.855469 116.960938 191.863281 117.015625 191.875 " fill-opacity="1" fill-rule="nonzero"/><path fill="#afb6c0" d="M 118.851562 172.230469 C 118.851562 172.230469 118.847656 172.230469 118.84375 172.230469 C 119.039062 172.207031 119.234375 172.1875 119.425781 172.164062 C 119.457031 172.160156 119.488281 172.15625 119.519531 172.152344 C 119.507812 172.152344 119.496094 172.15625 119.480469 172.15625 C 119.511719 172.152344 119.539062 172.148438 119.570312 172.144531 C 119.558594 172.148438 119.546875 172.148438 119.539062 172.148438 C 121.15625 171.964844 122.785156 171.761719 124.394531 171.542969 C 125.300781 171.417969 126.195312 171.277344 127.089844 171.117188 C 127.910156 170.964844 128.710938 170.785156 129.523438 170.617188 C 131.113281 170.289062 132.6875 169.882812 134.253906 169.441406 C 135.796875 168.996094 137.308594 168.449219 138.804688 167.894531 C 139.425781 167.667969 139.796875 167.027344 139.589844 166.375 C 139.398438 165.773438 138.691406 165.367188 138.070312 165.59375 C 136.796875 166.066406 135.527344 166.566406 134.214844 166.941406 C 133.109375 167.261719 132.003906 167.566406 130.890625 167.851562 C 130.894531 167.847656 130.902344 167.847656 130.90625 167.847656 C 130.898438 167.847656 130.886719 167.851562 130.875 167.855469 C 130.851562 167.859375 130.832031 167.863281 130.8125 167.871094 C 130.820312 167.867188 130.832031 167.863281 130.84375 167.859375 C 128.875 168.316406 126.890625 168.734375 124.90625 169.03125 C 123 169.316406 121.097656 169.535156 119.191406 169.769531 C 119.203125 169.765625 119.214844 169.765625 119.226562 169.761719 C 119.152344 169.769531 119.078125 169.78125 119.003906 169.789062 C 119.007812 169.785156 119.011719 169.785156 119.015625 169.785156 C 118.820312 169.808594 118.625 169.832031 118.433594 169.855469 C 116.945312 170.023438 115.457031 170.15625 113.953125 170.210938 C 112.492188 170.277344 111.019531 170.347656 109.550781 170.339844 C 109.257812 170.324219 108.964844 170.304688 108.671875 170.277344 C 108.605469 170.265625 108.542969 170.25 108.476562 170.230469 C 108.523438 170.25 108.570312 170.261719 108.617188 170.277344 C 108.035156 170.109375 107.429688 169.917969 106.863281 170.277344 C 106.308594 170.628906 106.148438 171.398438 106.496094 171.949219 C 106.75 172.335938 107.195312 172.53125 107.632812 172.492188 C 107.644531 172.496094 107.652344 172.5 107.664062 172.5 C 107.65625 172.5 107.644531 172.496094 107.636719 172.492188 C 107.914062 172.574219 108.191406 172.65625 108.484375 172.691406 C 108.984375 172.738281 109.484375 172.746094 109.992188 172.746094 C 110.097656 172.746094 110.203125 172.746094 110.308594 172.746094 C 111.203125 172.746094 112.105469 172.714844 113 172.671875 C 113.941406 172.632812 114.894531 172.605469 115.847656 172.53125 C 116.855469 172.453125 117.855469 172.351562 118.851562 172.230469 " fill-opacity="1" fill-rule="nonzero"/><path fill="#afb6c0" d="M 150.339844 163.234375 C 150.558594 163.234375 150.785156 163.171875 150.980469 163.039062 C 151.109375 162.960938 151.230469 162.882812 151.355469 162.804688 C 151.332031 162.820312 151.304688 162.832031 151.28125 162.84375 C 151.3125 162.824219 151.34375 162.8125 151.375 162.792969 C 151.390625 162.785156 151.40625 162.777344 151.421875 162.765625 C 151.40625 162.777344 151.394531 162.785156 151.378906 162.792969 C 152.167969 162.390625 152.972656 162.035156 153.757812 161.636719 C 154.8125 161.109375 155.851562 160.550781 156.878906 159.988281 C 157.90625 159.414062 158.933594 158.835938 159.933594 158.214844 C 160.894531 157.621094 161.835938 157.019531 162.789062 156.421875 C 164.636719 155.246094 166.472656 154.050781 168.292969 152.832031 C 169.53125 152.003906 170.734375 151.128906 171.9375 150.238281 C 172.085938 150.125 172.234375 150.023438 172.371094 149.910156 C 172.890625 149.507812 172.929688 148.695312 172.515625 148.214844 C 172.070312 147.699219 171.328125 147.667969 170.808594 148.074219 C 170.769531 148.101562 170.734375 148.140625 170.6875 148.167969 C 170.734375 148.140625 170.769531 148.101562 170.816406 148.074219 C 170.375 148.394531 169.941406 148.734375 169.5 149.066406 C 169.535156 149.035156 169.582031 148.996094 169.621094 148.96875 C 167.433594 150.582031 165.132812 152.050781 162.84375 153.519531 C 161.609375 154.3125 160.367188 155.09375 159.121094 155.878906 C 157.921875 156.628906 156.707031 157.316406 155.480469 158.003906 C 155.488281 157.996094 155.492188 157.992188 155.503906 157.988281 C 154.804688 158.375 154.109375 158.761719 153.402344 159.121094 C 152.722656 159.460938 152.035156 159.789062 151.355469 160.121094 C 150.78125 160.390625 150.207031 160.65625 149.679688 161.015625 C 149.132812 161.371094 148.953125 162.117188 149.320312 162.683594 C 149.542969 163.035156 149.941406 163.234375 150.339844 163.234375 " fill-opacity="1" fill-rule="nonzero"/><path fill="#afb6c0" d="M 172.0625 150.148438 C 172.019531 150.179688 171.976562 150.207031 171.9375 150.238281 C 171.933594 150.238281 171.933594 150.242188 171.929688 150.242188 C 171.976562 150.214844 172.015625 150.175781 172.0625 150.148438 " fill-opacity="1" fill-rule="nonzero"/></svg>