<svg xmlns="http://www.w3.org/2000/svg" xmlns:xlink="http://www.w3.org/1999/xlink" width="1152" zoomAndPan="magnify" viewBox="0 0 864 863.999991" height="1152" preserveAspectRatio="xMidYMid meet" version="1.0"><path fill="#f9d5aa" d="M 324.753906 267.296875 C 338.691406 298.164062 352.300781 330.765625 354.546875 364.246094 C 362.394531 481.371094 330.40625 600.582031 264.425781 700.113281 C 254.8125 714.613281 244.039062 731.234375 249.136719 747.640625 C 254.375 764.492188 273.910156 773.007812 291.574219 778.597656 C 311.6875 784.929688 332.074219 790.191406 352.738281 794.390625 C 373.402344 798.585938 394.226562 801.695312 415.214844 803.714844 C 436.203125 805.734375 457.238281 806.652344 478.324219 806.46875 C 499.40625 806.289062 520.425781 805.007812 541.375 802.628906 C 554.050781 801.179688 567.015625 799.222656 578.074219 793.207031 C 589.132812 787.195312 598.019531 776.25 597.683594 764.222656 C 597.402344 754.117188 590.945312 745.226562 584.96875 736.832031 C 527.019531 655.4375 500.832031 559.859375 502.5625 461.859375 C 504.289062 363.855469 545.09375 271.671875 618.117188 201.878906 C 570.976562 171.140625 483.730469 165.222656 421.5 163.472656 C 390.550781 162.601562 341.375 166.738281 310.421875 166.003906 C 298.753906 165.726562 236.703125 169.492188 260.261719 193.859375 C 280.066406 214.351562 312.914062 241.039062 324.753906 267.296875 Z M 324.753906 267.296875 " fill-opacity="1" fill-rule="nonzero"/><path fill="#592b08" d="M 450.320312 17.683594 C 449.425781 13.25 448.167969 8.441406 444.15625 5.644531 C 440.34375 2.976562 435.066406 2.855469 430.195312 2.847656 C 416.792969 2.832031 398.21875 0.0390625 392.921875 3.765625 C 387.09375 7.871094 397.507812 20.675781 402.652344 29.121094 C 423.421875 63.195312 434.121094 101.972656 433.414062 140.632812 C 433.351562 144.082031 433.210938 147.597656 434.320312 150.902344 C 435.363281 154.007812 438.652344 158.902344 442.941406 156.316406 C 446.539062 154.144531 446.789062 146.972656 447.636719 143.523438 C 450.097656 133.496094 452.015625 123.367188 453.394531 113.136719 C 456.152344 92.691406 456.710938 72.179688 455.074219 51.613281 C 454.164062 40.207031 452.582031 28.898438 450.320312 17.683594 Z M 450.320312 17.683594 " fill-opacity="1" fill-rule="nonzero"/><path fill="#f25c2f" d="M 377.710938 112.578125 C 401.414062 112.800781 424.78125 117.941406 448.460938 118.988281 C 482.933594 120.511719 518.1875 113.386719 551.632812 121.410156 C 598.132812 132.5625 650.445312 212.960938 634.550781 220.496094 C 628.421875 223.402344 601.929688 203.398438 585.621094 194.847656 C 573.785156 188.644531 559.722656 182.289062 547.296875 187.367188 C 538.09375 191.128906 532.378906 200.371094 523.113281 203.984375 C 510.53125 208.890625 496.574219 201.925781 485.007812 195.15625 C 473.441406 188.386719 459.574219 181.339844 446.921875 186.085938 C 439.710938 188.792969 434.632812 194.828125 428.699219 199.554688 C 422.769531 204.277344 414.316406 207.851562 407.394531 204.535156 C 401.855469 201.882812 398.5 195.3125 392.328125 194.644531 C 383.390625 193.683594 378.933594 205.390625 370.441406 208.183594 C 364.480469 210.140625 357.917969 207.1875 353.125 203.316406 C 348.332031 199.445312 344.390625 194.566406 338.957031 191.539062 C 328.472656 185.699219 315.234375 188.054688 303.355469 190.582031 C 293.640625 192.652344 283.917969 194.722656 274.335938 197.292969 C 266.601562 199.371094 257.941406 203.996094 249.742188 201.996094 C 243.773438 200.542969 238.027344 195.835938 238.070312 189.644531 C 238.121094 183.136719 245.171875 176.402344 249.230469 171.59375 C 268.953125 148.21875 295.957031 130.355469 325.914062 120.652344 C 342.742188 115.164062 360.007812 112.472656 377.710938 112.578125 Z M 377.710938 112.578125 " fill-opacity="1" fill-rule="nonzero"/><path fill="#f25c2f" d="M 221.589844 726.820312 C 213.453125 736.414062 215.519531 750.324219 219.011719 762.15625 C 226.792969 788.503906 240.105469 814.140625 261.769531 832.339844 C 283.433594 850.539062 314.390625 860.242188 342.347656 852.894531 C 358.472656 848.65625 387.753906 845.648438 404.484375 846.347656 C 417.660156 846.898438 429.59375 850.011719 442.105469 853.945312 C 474.351562 864.074219 513.109375 860.835938 549.597656 844.660156 C 586.085938 828.484375 609.152344 803.691406 619.667969 767.007812 C 621.53125 760.511719 621.582031 751.554688 614.851562 749.316406 C 606.4375 746.515625 599.867188 758.007812 590.972656 758.667969 C 580.667969 759.433594 575.871094 746.351562 566.574219 742.089844 C 556.648438 737.539062 545.097656 744.320312 537.441406 751.816406 C 529.789062 759.316406 522.246094 768.46875 511.3125 769.929688 C 500.679688 771.351562 490.652344 764.761719 483.542969 757.175781 C 476.429688 749.589844 470.824219 740.597656 462.289062 734.457031 C 453.757812 728.320312 440.675781 725.933594 432.652344 732.664062 C 428.054688 736.523438 426.160156 742.414062 422.878906 747.324219 C 417.511719 755.355469 408 760.792969 397.960938 761.566406 C 387.921875 762.339844 377.59375 758.429688 370.917969 751.320312 C 365.691406 745.757812 362.789062 738.632812 358.570312 732.351562 C 354.347656 726.074219 347.910156 720.242188 340.023438 719.988281 C 328.425781 719.621094 320.742188 730.753906 311.066406 736.789062 C 298.570312 744.582031 282.5 742.261719 270.523438 734.808594 C 260.683594 728.6875 255.292969 721.097656 242.640625 719.707031 C 234.890625 718.863281 226.628906 720.882812 221.589844 726.820312 Z M 221.589844 726.820312 " fill-opacity="1" fill-rule="nonzero"/><path fill="#e5a565" d="M 338.058594 230.902344 C 416.878906 366.386719 410.871094 544.476562 322.847656 674.867188 C 386.765625 534.667969 392.339844 374.6875 338.058594 230.902344 Z M 338.058594 230.902344 " fill-opacity="1" fill-rule="nonzero"/><path fill="#e5a565" d="M 530.023438 246.292969 C 499.371094 337.347656 477.722656 429.699219 476.457031 525.570312 C 452.457031 431.15625 476.28125 328.089844 530.023438 246.292969 Z M 530.023438 246.292969 " fill-opacity="1" fill-rule="nonzero"/><path fill="#e5a565" d="M 478.488281 553.25 C 491.800781 587.113281 506.039062 628.414062 519.988281 662.074219 C 524.871094 674.054688 529.925781 686.058594 534.378906 698.867188 C 513.242188 680.796875 498.804688 656.988281 488.984375 632.007812 C 479.609375 606.871094 474.550781 579.882812 478.488281 553.253906 Z M 478.488281 553.25 " fill-opacity="1" fill-rule="nonzero"/><path fill="#e5a565" d="M 413.5 730.285156 C 411.8125 718.015625 410.738281 705.691406 410.28125 693.3125 C 409.824219 680.933594 409.984375 668.566406 410.761719 656.203125 C 411.539062 643.84375 412.933594 631.550781 414.9375 619.328125 C 416.941406 607.105469 419.550781 595.011719 422.761719 583.050781 C 424.449219 595.320312 425.523438 607.644531 425.980469 620.023438 C 426.4375 632.402344 426.277344 644.769531 425.5 657.132812 C 424.71875 669.492188 423.328125 681.785156 421.324219 694.007812 C 419.320312 706.230469 416.710938 718.324219 413.5 730.285156 Z M 413.5 730.285156 " fill-opacity="1" fill-rule="nonzero"/><path fill="#e5a565" d="M 415.902344 222.238281 C 420.71875 238.789062 424.523438 255.570312 427.3125 272.582031 C 430.105469 289.59375 431.859375 306.710938 432.582031 323.933594 C 433.300781 341.15625 432.984375 358.359375 431.625 375.542969 C 430.265625 392.730469 427.875 409.769531 424.457031 426.664062 C 418.589844 361.164062 415.601562 287.976562 415.902344 222.238281 Z M 415.902344 222.238281 " fill-opacity="1" fill-rule="nonzero"/><path fill="#e5a565" d="M 462.34375 322.777344 C 460.589844 314.707031 459.472656 306.550781 458.984375 298.308594 C 458.496094 290.0625 458.652344 281.832031 459.445312 273.613281 C 460.238281 265.390625 461.660156 257.28125 463.714844 249.285156 C 465.765625 241.285156 468.425781 233.492188 471.6875 225.90625 C 470.714844 258.402344 467.601562 290.695312 462.34375 322.777344 Z M 462.34375 322.777344 " fill-opacity="1" fill-rule="nonzero"/><path fill="#e5a565" d="M 424.480469 537.242188 C 422.8125 532.03125 421.523438 526.726562 420.609375 521.332031 C 419.699219 515.9375 419.171875 510.503906 419.027344 505.035156 C 418.886719 499.566406 419.132812 494.113281 419.765625 488.675781 C 420.398438 483.242188 421.410156 477.878906 422.804688 472.589844 C 424.472656 477.800781 425.761719 483.101562 426.675781 488.5 C 427.589844 493.894531 428.117188 499.324219 428.257812 504.796875 C 428.402344 510.265625 428.15625 515.71875 427.523438 521.152344 C 426.890625 526.589844 425.875 531.953125 424.480469 537.242188 Z M 424.480469 537.242188 " fill-opacity="1" fill-rule="nonzero"/><path fill="#e5a565" d="M 502.277344 751.566406 C 471.617188 720.335938 458.867188 675.058594 461.574219 633.210938 C 471.582031 674.429688 482.09375 713.601562 502.277344 751.566406 Z M 502.277344 751.566406 " fill-opacity="1" fill-rule="nonzero"/><path fill="#e5a565" d="M 349.238281 708.605469 C 355.511719 683.183594 364.601562 658.8125 376.507812 635.496094 C 376.507812 661.933594 366.75 687.960938 349.238281 708.605469 Z M 349.238281 708.605469 " fill-opacity="1" fill-rule="nonzero"/><path fill="#ffbb61" d="M 573.238281 146.414062 C 575.042969 148.277344 576.734375 150.324219 577.554688 152.722656 C 578.378906 155.125 578.199219 157.949219 576.53125 159.917969 C 573.867188 163.058594 568.773438 162.890625 564.617188 161.976562 C 557.257812 160.359375 550.472656 157.421875 544.261719 153.160156 C 538.824219 149.421875 531.386719 143.714844 530.59375 136.96875 C 529.171875 124.855469 546.820312 130.714844 553 133.183594 C 560.691406 136.148438 567.4375 140.554688 573.238281 146.414062 Z M 573.238281 146.414062 " fill-opacity="1" fill-rule="nonzero"/><path fill="#ffbb61" d="M 527.894531 165.605469 C 528.128906 166.460938 528.234375 167.332031 528.203125 168.222656 C 528.175781 169.109375 528.015625 169.972656 527.726562 170.8125 C 527.4375 171.652344 527.027344 172.429688 526.503906 173.144531 C 525.976562 173.859375 525.359375 174.484375 524.644531 175.011719 C 517.496094 180.300781 502.679688 174.769531 507.582031 165.296875 C 511.453125 157.824219 525.175781 156.535156 527.894531 165.605469 Z M 527.894531 165.605469 " fill-opacity="1" fill-rule="nonzero"/><path fill="#ffbb61" d="M 490.800781 147.265625 C 488.382812 146.761719 486.121094 145.867188 484.019531 144.578125 C 482.992188 143.953125 482.132812 143.152344 481.433594 142.171875 C 480.738281 141.195312 480.261719 140.117188 480.007812 138.945312 C 479.5 135.820312 481.414062 132.679688 484.105469 130.792969 C 486.792969 128.910156 490.144531 128.074219 493.445312 127.519531 C 503.132812 125.894531 520.082031 128.113281 518.9375 140.933594 C 517.921875 152.296875 498.257812 149.097656 490.800781 147.265625 Z M 490.800781 147.265625 " fill-opacity="1" fill-rule="nonzero"/><path fill="#c43316" d="M 258.082031 767.59375 C 261.492188 767.921875 264.753906 768.804688 267.863281 770.25 C 270.972656 771.691406 273.753906 773.609375 276.210938 776.003906 C 278.527344 778.171875 280.160156 780.773438 281.097656 783.808594 C 281.539062 785.304688 281.636719 786.820312 281.390625 788.359375 C 281.148438 789.898438 280.582031 791.308594 279.699219 792.59375 C 277.578125 795.472656 273.832031 796.921875 270.15625 797.464844 C 268.382812 797.71875 266.605469 797.796875 264.816406 797.703125 C 263.03125 797.605469 261.269531 797.335938 259.539062 796.890625 C 257.804688 796.445312 256.132812 795.835938 254.519531 795.058594 C 252.90625 794.28125 251.386719 793.355469 249.957031 792.28125 C 245.023438 788.472656 239.949219 781.171875 240.671875 774.835938 C 241.492188 767.621094 252.226562 767.023438 258.082031 767.59375 Z M 258.082031 767.59375 " fill-opacity="1" fill-rule="nonzero"/><path fill="#c43316" d="M 303.277344 792.113281 C 307.015625 790.648438 311.464844 789.925781 314.996094 791.785156 C 318.34375 793.542969 320.09375 797.34375 319.964844 800.957031 C 319.835938 804.566406 318.078125 807.972656 315.804688 810.878906 C 312.015625 815.714844 306.324219 819.585938 299.953125 819.914062 C 293.703125 820.234375 283.453125 814.859375 286.429688 807.847656 C 289.402344 800.835938 295.949219 794.988281 303.277344 792.113281 Z M 303.277344 792.113281 " fill-opacity="1" fill-rule="nonzero"/><path fill="#c43316" d="M 304.484375 765.734375 C 301.929688 763.511719 298.269531 762.714844 294.796875 762.839844 C 292.082031 762.933594 289.136719 763.6875 287.605469 765.800781 C 286.257812 767.65625 286.332031 770.175781 287.1875 772.277344 C 287.535156 773.082031 287.972656 773.839844 288.496094 774.542969 C 289.023438 775.25 289.621094 775.882812 290.292969 776.449219 C 290.96875 777.011719 291.695312 777.492188 292.480469 777.886719 C 293.265625 778.285156 294.085938 778.582031 294.941406 778.785156 C 295.8125 778.992188 296.695312 779.097656 297.59375 779.105469 C 298.488281 779.113281 299.375 779.019531 300.25 778.832031 C 301.125 778.640625 301.96875 778.355469 302.777344 777.976562 C 303.589844 777.597656 304.351562 777.136719 305.058594 776.585938 L 306.433594 774.65625 C 308.148438 771.800781 307.039062 767.953125 304.484375 765.734375 Z M 304.484375 765.734375 " fill-opacity="1" fill-rule="nonzero"/><path fill="#c43316" d="M 386.117188 841.707031 C 378.625 843.675781 374.777344 844.128906 366.992188 844.058594 C 365.234375 844.046875 363.332031 843.832031 362.058594 842.6875 C 360.523438 841.308594 360.421875 838.945312 361.246094 837.101562 C 366.820312 824.632812 387.960938 819.007812 400.730469 818.046875 C 415.597656 816.933594 430.960938 820.808594 442.867188 829.363281 C 446.398438 831.90625 449.738281 834.957031 451.289062 838.882812 C 451.757812 839.964844 452.015625 841.09375 452.054688 842.273438 C 452.089844 843.453125 451.910156 844.597656 451.507812 845.707031 C 451.28125 846.265625 450.980469 846.785156 450.605469 847.261719 C 450.234375 847.738281 449.804688 848.152344 449.3125 848.507812 C 448.824219 848.863281 448.296875 849.144531 447.726562 849.351562 C 447.15625 849.558594 446.570312 849.683594 445.96875 849.726562 C 443.171875 849.820312 439.675781 847.949219 437.175781 846.769531 C 426.425781 841.703125 417.765625 838.652344 405.824219 839.171875 C 400.691406 839.398438 391.046875 840.410156 386.117188 841.707031 Z M 386.117188 841.707031 " fill-opacity="1" fill-rule="nonzero"/><path fill="#ea8f2d" d="M 433.265625 68.367188 C 431.878906 64.359375 430.492188 60.351562 429.109375 56.339844 C 425.210938 45.066406 421.25 33.660156 414.402344 23.53125 C 412.183594 20.246094 407.433594 13.394531 412.585938 10.265625 C 415.996094 8.191406 420.703125 10.972656 422.757812 13.398438 C 426.273438 17.558594 427.375 24.269531 428.738281 29.21875 C 430.371094 35.15625 431.578125 41.175781 432.355469 47.285156 C 433.246094 54.285156 433.546875 61.316406 433.265625 68.367188 Z M 433.265625 68.367188 " fill-opacity="1" fill-rule="nonzero"/></svg>