<svg xmlns="http://www.w3.org/2000/svg" xmlns:xlink="http://www.w3.org/1999/xlink" width="1152" zoomAndPan="magnify" viewBox="0 0 864 863.999991" height="1152" preserveAspectRatio="xMidYMid meet" version="1.0"><path fill="#e8ebf5" d="M 744.15625 268.746094 C 758.816406 276.421875 757.621094 324.003906 748.054688 339.515625 C 729.75 369.214844 737.699219 404.527344 707.636719 415.824219 C 688.542969 422.984375 657.25 424.804688 650.699219 450.21875 C 645.566406 470.125 621.707031 442.011719 644.261719 507.683594 C 647.902344 518.261719 647.296875 556.167969 654.160156 579.8125 C 659.421875 597.921875 651.988281 624.179688 664.441406 638.898438 C 677.742188 654.632812 642.144531 728.546875 612.417969 747.371094 C 600.496094 754.933594 510.296875 819.082031 503.730469 825.777344 C 477.992188 851.980469 425.433594 858.699219 394.96875 839.5625 C 389.5625 836.15625 367.523438 830.875 362.609375 815.308594 C 326.753906 828.777344 341.839844 825.980469 304.257812 809.050781 C 285.085938 800.402344 256.515625 796.171875 252.433594 783.234375 C 244.558594 758.320312 192.957031 777.367188 155.226562 709.28125 C 144.207031 689.390625 56.160156 619.339844 68.539062 592.824219 C 76.011719 576.832031 116.925781 542.828125 133.203125 523.175781 C 153.515625 498.667969 167.515625 520.675781 147.460938 457.300781 C 143.984375 446.261719 117.164062 389.164062 127.871094 383.292969 C 154.527344 368.644531 159.089844 360.824219 190.859375 348.902344 C 252.304688 325.808594 192.753906 281.648438 280.25 258.71875 C 287.679688 256.785156 318.863281 272.667969 336.210938 251.175781 C 349.070312 235.257812 378.300781 209.347656 399.367188 214.648438 C 437.003906 224.105469 467.542969 155.488281 494.808594 188.796875 C 508.054688 204.96875 509.15625 187.085938 533.734375 199.449219 C 534.140625 199.671875 567.214844 226.644531 577.609375 232.699219 C 600.476562 246.058594 655.5 272.300781 681.441406 272.371094 C 692.867188 272.390625 738.894531 266.003906 744.15625 268.746094 Z M 744.15625 268.746094 " fill-opacity="1" fill-rule="evenodd"/><path fill="#c7d5f2" d="M 471.371094 845.082031 C 428.964844 847.75 418.71875 833.324219 414.597656 820.296875 C 370.832031 681.957031 404.554688 773.207031 293.972656 673.457031 C 247.484375 631.503906 324.308594 591.351562 222.851562 531.179688 C 202.929688 519.347656 179.140625 505.933594 156.53125 490.753906 C 160.175781 512.613281 148.472656 504.757812 133.203125 523.175781 C 116.925781 542.828125 76.011719 576.832031 68.539062 592.824219 C 56.160156 619.339844 144.207031 689.390625 155.226562 709.28125 C 192.957031 777.367188 244.558594 758.320312 252.433594 783.234375 C 256.515625 796.171875 285.085938 800.402344 304.257812 809.050781 C 341.839844 825.980469 326.753906 828.777344 362.609375 815.308594 C 367.523438 830.875 389.5625 836.15625 394.96875 839.5625 C 415.410156 852.386719 445.816406 853.601562 471.371094 845.082031 Z M 471.371094 845.082031 " fill-opacity="1" fill-rule="evenodd"/><path fill="#c1d6f1" d="M 551.230469 213.34375 C 540.320312 214.132812 524.277344 207.65625 497.992188 218.753906 C 474.019531 228.890625 491.808594 188.703125 418.976562 233.75 C 377.859375 259.199219 388.917969 232.847656 350.375 297.582031 C 324.65625 340.804688 253.1875 282.660156 238.269531 366.804688 C 230.761719 409.109375 152.152344 382.132812 174.707031 435.347656 C 177.082031 440.941406 163.964844 451.6875 149.761719 464.644531 C 149.042969 462.324219 148.289062 459.894531 147.460938 457.300781 C 143.984375 446.261719 117.164062 389.164062 127.871094 383.292969 C 154.527344 368.644531 159.089844 360.824219 190.859375 348.902344 C 252.304688 325.808594 192.753906 281.644531 280.25 258.71875 C 287.679688 256.785156 318.863281 272.667969 336.210938 251.175781 C 349.070312 235.257812 378.300781 209.347656 399.367188 214.648438 C 437.003906 224.105469 467.542969 155.488281 494.808594 188.796875 C 508.054688 204.96875 509.15625 187.085938 533.734375 199.449219 C 533.9375 199.558594 541.902344 206.039062 551.230469 213.34375 Z M 551.230469 213.34375 " fill-opacity="1" fill-rule="evenodd"/><path fill="#d1d7eb" d="M 402.660156 773.003906 C 406.394531 786.804688 438 778.894531 454.1875 777.824219 C 527.757812 772.96875 438.402344 725.695312 487.835938 687.917969 C 532.816406 653.546875 502.828125 653.324219 545.34375 630.105469 C 660.542969 567.210938 497.769531 628.28125 549.355469 527.132812 C 627.042969 374.773438 498.320312 413.765625 544.351562 342.128906 C 582.761719 282.328125 451.703125 253.84375 442.230469 291.25 C 417.726562 388.058594 351.167969 398.824219 280.25 432.976562 C 278.410156 440.484375 307.015625 469.832031 289.390625 533.664062 C 279.238281 570.449219 327.527344 589.21875 318.511719 624.675781 C 309.332031 660.667969 429.1875 699.804688 398.410156 765.40625 C 397.214844 767.980469 406.667969 787.78125 402.660156 773.003906 Z M 402.660156 773.003906 " fill-opacity="1" fill-rule="evenodd"/><path fill="#76b9f9" d="M 783.726562 146.199219 C 779.441406 148.921875 793.402344 169.660156 739.023438 184.101562 C 714.886719 190.507812 642.644531 159.371094 621.246094 147.707031 C 597.109375 134.53125 558.753906 121.578125 572.992188 100.324219 C 573.691406 99.292969 586.074219 73.753906 608.515625 86.800781 C 629.855469 99.21875 656.257812 106.195312 678.054688 122 C 689.09375 129.988281 707.34375 134.144531 720.847656 137.109375 C 745.847656 142.574219 742.832031 142.628906 767.113281 143.769531 C 769.890625 143.898438 779.496094 145 781.921875 145.683594 Z M 783.726562 146.199219 " fill-opacity="1" fill-rule="evenodd"/><path fill="#3a6de4" d="M 798.8125 122.71875 C 793.660156 156.648438 777.820312 145.386719 752.984375 150.652344 C 732.582031 154.957031 670.898438 138.15625 652.761719 124.042969 C 639.882812 114.03125 590.523438 102.699219 580.222656 89.984375 C 577.316406 86.394531 584.710938 58.242188 598.820312 55.757812 C 613.246094 53.21875 654.472656 83.855469 664.921875 94.378906 C 681.460938 111.035156 733.355469 122.054688 757.34375 122.109375 C 774.894531 122.148438 778.464844 130.355469 798.8125 122.71875 Z M 798.8125 122.71875 " fill-opacity="1" fill-rule="evenodd"/><path fill="#c7fcff" d="M 802.933594 95.042969 C 807.292969 107.261719 807.585938 125.863281 791.414062 132.269531 C 779.035156 137.179688 697.371094 121.796875 682.507812 113.941406 C 670.679688 107.683594 672.222656 114.824219 659.421875 101.886719 C 640.304688 82.550781 595.492188 78.371094 594.757812 56.050781 C 594.039062 33.953125 618.265625 16.046875 629.175781 14.742188 C 636.113281 13.914062 640.636719 21.699219 646.652344 26.023438 C 650.441406 28.746094 680.707031 38.792969 692.128906 46.132812 C 720.441406 64.351562 758.339844 70.644531 785.914062 90.589844 C 789.375 93.09375 802.859375 94.878906 802.933594 95.042969 Z M 802.933594 95.042969 " fill-opacity="1" fill-rule="evenodd"/><path fill="#aac8e6" d="M 768.566406 172.328125 C 775.722656 180.882812 774.324219 198.804688 762.347656 205.910156 C 735.453125 221.863281 694.871094 217.058594 668.839844 202.761719 C 641.058594 187.488281 622.296875 190.066406 604.746094 181.050781 C 585.925781 171.386719 549.851562 153.742188 555.699219 129.929688 C 557.59375 122.238281 567.640625 110.09375 570.675781 113.703125 C 580.703125 125.570312 599.539062 119.480469 605.167969 125.625 C 612.730469 133.832031 651.453125 150.375 662.65625 153.832031 C 678.40625 158.671875 684.125 164.597656 703.902344 169.089844 C 711.683594 170.855469 766.359375 169.695312 768.566406 172.328125 Z M 768.566406 172.328125 " fill-opacity="1" fill-rule="evenodd"/><path fill="#29a1ed" d="M 762.164062 203 C 768.21875 209.109375 754.273438 223.886719 748.679688 229.128906 C 740.679688 236.636719 738.820312 253.585938 713.726562 254.210938 C 677.925781 255.113281 663.78125 253.898438 631.476562 240.796875 C 622.128906 237.023438 609.125 227.199219 598.988281 225.027344 C 588.6875 222.800781 550.769531 185.980469 543.449219 174.113281 C 530.902344 153.832031 529.910156 165.003906 555.699219 129.929688 C 564.179688 118.414062 569 133.738281 578.695312 142.316406 C 608.886719 168.996094 616.757812 186.828125 663.578125 186.992188 C 671.96875 187.027344 696.472656 214.613281 734.09375 204.085938 C 737.128906 203.222656 761.59375 202.449219 762.164062 203 Z M 762.164062 203 " fill-opacity="1" fill-rule="evenodd"/><path fill="#0d6fdd" d="M 748.679688 229.128906 C 749.988281 229.058594 759.386719 259.769531 744.15625 268.746094 C 710.507812 288.621094 708.152344 286.726562 668.710938 280.121094 C 619.40625 271.855469 602.941406 259.769531 564.585938 231.855469 C 548.914062 220.445312 507.152344 217.980469 517.546875 194.757812 C 520.582031 188.023438 525.125 141.855469 542.179688 151.9375 C 549.925781 156.519531 566.332031 200.425781 586.847656 208.300781 C 600.957031 213.710938 597.425781 219.488281 624.246094 224.84375 C 636.183594 227.234375 640.34375 236.195312 656.570312 239.730469 C 691.429688 247.308594 707.839844 251.0625 739.023438 233.527344 C 743.160156 231.191406 744.285156 229.371094 748.679688 229.128906 Z M 748.679688 229.128906 " fill-opacity="1" fill-rule="evenodd"/><path fill="#90c1f0" d="M 656.441406 430.160156 C 647.019531 435.367188 560.207031 432.109375 540.742188 426.773438 C 508.070312 417.851562 479.960938 375.96875 466.605469 346.695312 C 458.84375 329.636719 423.722656 294.453125 402.953125 301.113281 C 391.824219 304.683594 353.097656 303.820312 350.617188 295.980469 C 348.390625 288.953125 337.277344 248.488281 353.171875 277.195312 C 366.621094 301.484375 425.25 260.632812 440.796875 296.753906 C 447.34375 312.007812 479.960938 322.3125 492.066406 354.660156 C 497.492188 369.105469 524.113281 303.230469 521.554688 368.8125 C 520.304688 401.234375 553.730469 388.886719 583.921875 401.105469 C 622.683594 416.78125 594.167969 410.617188 648.417969 410.101562 C 663.246094 409.972656 674.707031 414.59375 657.839844 428.539062 Z M 656.441406 430.160156 " fill-opacity="1" fill-rule="evenodd"/><path fill="#b1bfe5" d="M 727.320312 366.695312 C 720.679688 397.074219 707.710938 409.054688 677.890625 417.464844 C 675.296875 418.199219 656.054688 398.695312 661.460938 395.75 C 680.648438 385.28125 668.929688 327.628906 686.351562 387.523438 C 693.398438 411.757812 722.519531 361.046875 723.570312 360.824219 C 724.636719 360.621094 727.671875 365.148438 727.320312 366.695312 Z M 727.320312 366.695312 " fill-opacity="1" fill-rule="evenodd"/><path fill="#8bc1ee" d="M 709.753906 295.761719 C 703.71875 354.257812 700.703125 319.570312 660.890625 327.574219 C 660.746094 327.613281 637.621094 309.632812 644.167969 300.359375 C 644.371094 300.085938 648.546875 271.324219 654.214844 286.503906 C 658.113281 297.011719 669.574219 321.132812 681.679688 308.050781 C 684.660156 304.8125 695.460938 295.574219 685.597656 291.894531 C 678.9375 289.410156 710.949219 284.242188 709.753906 295.761719 Z M 709.753906 295.761719 " fill-opacity="1" fill-rule="evenodd"/><path fill="#9acaf1" d="M 650.828125 383.441406 C 649.449219 389.808594 651.269531 410.636719 639.992188 393.433594 C 628.109375 375.308594 633.207031 399.964844 626.820312 377.148438 C 617.054688 342.242188 607.285156 426.625 602.371094 380.84375 C 599.925781 358.027344 619.71875 359.207031 609.988281 332.636719 C 607.855469 326.820312 622.941406 322.3125 610.796875 291.710938 C 606.695312 281.390625 613.539062 249.5 620.308594 292.28125 C 625.421875 324.484375 643.820312 304.886719 634.21875 335.230469 C 630.058594 348.386719 685.597656 319.257812 654.601562 356.871094 C 651.492188 360.640625 655.097656 363.878906 650.828125 383.441406 Z M 650.828125 383.441406 " fill-opacity="1" fill-rule="evenodd"/><path fill="#a1cceb" d="M 588.28125 274.195312 C 580.316406 274.839844 511.21875 249.628906 506.230469 233.839844 C 502.867188 223.207031 486.601562 192.328125 505.699219 202.226562 C 523.617188 211.519531 510.554688 221.4375 542.695312 224.878906 C 549.261719 241.476562 560.519531 243.777344 568.300781 248.324219 C 574.078125 251.691406 598.472656 273.382812 588.28125 274.195312 Z M 588.28125 274.195312 " fill-opacity="1" fill-rule="evenodd"/><path fill="#bddfff" d="M 614.257812 682.601562 C 571.761719 648.671875 533.753906 621.015625 486.988281 590.488281 C 445.964844 563.730469 472.640625 543.4375 430.347656 505.457031 C 409.558594 486.796875 412.042969 418.824219 387.152344 389.621094 C 386.929688 389.363281 352.4375 295.925781 372.066406 318.117188 C 375.449219 321.945312 378.082031 350.246094 399.441406 372.730469 C 426.042969 400.71875 413.570312 443.152344 455.9375 475.148438 C 474.332031 489.023438 458.75 507.257812 492.453125 521.1875 C 529.722656 536.609375 526.726562 587.027344 575.402344 613.894531 C 577.867188 615.253906 621.320312 665.710938 621.542969 665.507812 C 619.078125 639.636719 632.449219 640.222656 617.789062 598.050781 C 617.753906 597.921875 617.972656 578.285156 613.152344 563.085938 C 601.304688 525.640625 605.976562 527.8125 600.71875 504.902344 C 600.203125 502.679688 591.886719 462.289062 592.492188 457.265625 C 592.878906 453.988281 600.148438 482.011719 605.277344 489.613281 C 605.867188 490.496094 623.96875 563.695312 623.75 524.796875 C 623.695312 516.734375 615.414062 463.335938 616.226562 462.582031 C 624.78125 454.484375 635.910156 510.957031 635.007812 523.820312 C 633.648438 542.9375 647.351562 562.386719 645.402344 583.015625 C 642.3125 615.621094 658.8125 641.476562 646.433594 674.082031 C 640.492188 689.722656 644.738281 706.945312 614.257812 682.601562 Z M 614.257812 682.601562 " fill-opacity="1" fill-rule="evenodd"/><path fill="#a9d0f5" d="M 545.175781 630.195312 C 526.746094 616.984375 507.722656 604.03125 486.988281 590.488281 C 445.964844 563.730469 472.640625 543.4375 430.347656 505.457031 C 409.558594 486.796875 412.042969 418.824219 387.152344 389.621094 C 387.097656 389.585938 385.972656 386.53125 384.226562 381.710938 C 388.898438 378.34375 393.367188 374.71875 397.65625 370.78125 C 398.246094 371.441406 398.832031 372.085938 399.441406 372.730469 C 426.042969 400.71875 413.570312 443.152344 455.9375 475.148438 C 474.332031 489.023438 458.75 507.257812 492.453125 521.1875 C 529.429688 536.480469 526.78125 586.21875 574.261719 613.25 C 567.640625 617.589844 558.238281 623.054688 545.34375 630.105469 Z M 545.175781 630.195312 " fill-opacity="1" fill-rule="evenodd"/><path fill="#c7d5f2" d="M 632.597656 713.019531 C 595.878906 708.472656 558.847656 688.269531 526.746094 672.296875 C 505.128906 661.53125 472.34375 658.277344 463.035156 653.621094 C 456.007812 650.105469 465.886719 638.992188 464.34375 626.164062 C 464.046875 623.683594 420.429688 599.375 411.746094 591.921875 C 388.605469 572.050781 390.074219 570.6875 365.148438 557.550781 C 363.457031 556.648438 341.949219 539.847656 347.726562 537.675781 C 365.976562 530.832031 376.425781 561.726562 406.117188 565.847656 C 421.644531 568 421.332031 589.730469 452.074219 599.464844 C 469.238281 604.914062 472.070312 651.742188 544.074219 666.425781 C 557.796875 669.242188 565.46875 678.441406 540.6875 656.75 C 523.617188 641.789062 504.722656 636.875 490.429688 616.230469 C 487.042969 611.335938 475.546875 604.875 477.40625 604.378906 C 481.195312 603.347656 498.488281 609.253906 513.480469 612.769531 C 522.789062 614.941406 525.457031 631.667969 527.8125 636.066406 C 527.941406 636.304688 576.949219 670.199219 584.785156 678.589844 C 596.984375 691.65625 621.78125 694.378906 632.597656 713.019531 Z M 632.597656 713.019531 " fill-opacity="1" fill-rule="evenodd"/><path fill="#b6c8ed" d="M 524.132812 644.734375 C 512.117188 637.097656 500.199219 630.324219 490.429688 616.230469 C 487.042969 611.335938 475.546875 604.875 477.40625 604.378906 C 481.195312 603.347656 498.488281 609.253906 513.480469 612.769531 C 522.789062 614.941406 525.457031 631.667969 527.8125 636.066406 C 527.828125 636.101562 529.152344 637.039062 531.398438 638.625 C 528.269531 640.851562 525.933594 642.855469 524.132812 644.734375 Z M 511.015625 666.113281 C 491.679688 660.003906 470.265625 657.226562 463.035156 653.621094 C 456.007812 650.105469 465.886719 638.992188 464.34375 626.164062 C 464.046875 623.683594 420.429688 599.375 411.746094 591.921875 C 388.605469 572.050781 390.074219 570.6875 365.148438 557.550781 C 363.457031 556.648438 341.949219 539.847656 347.726562 537.675781 C 365.976562 530.832031 376.425781 561.726562 406.117188 565.847656 C 421.644531 568 421.332031 589.730469 452.074219 599.464844 C 466.660156 604.085938 470.890625 638.605469 516.039062 657.890625 C 514.839844 660.335938 513.332031 662.984375 511.015625 666.113281 Z M 511.015625 666.113281 " fill-opacity="1" fill-rule="evenodd"/><path fill="#aebddf" d="M 446.5 551.183594 C 439.949219 548.808594 372.671875 466.445312 357 460.429688 C 345.1875 455.882812 313.324219 424.878906 305.121094 410.820312 C 295.316406 394.003906 276.402344 366.621094 268.953125 347.980469 C 264.207031 336.078125 216.230469 256.585938 262.9375 317.621094 C 273.460938 331.328125 300.171875 383.164062 289.960938 324.925781 C 288.492188 316.554688 307.550781 339.683594 312.570312 355.5625 C 319.964844 378.933594 333.597656 411.1875 351.277344 426.921875 C 361.394531 435.917969 346.917969 442.140625 382.054688 458.128906 C 388.164062 460.90625 421.71875 510.128906 428.324219 519.332031 C 432.921875 518.574219 443.316406 550.023438 446.5 551.183594 Z M 446.5 551.183594 " fill-opacity="1" fill-rule="evenodd"/><path fill="#9fafd6" d="M 446.5 551.183594 C 439.949219 548.808594 372.671875 466.445312 357 460.429688 C 347.175781 456.640625 323.460938 434.539062 311.042969 419.121094 C 319.5625 415.457031 327.914062 411.886719 336.046875 408.246094 C 340.699219 415.566406 345.796875 422.027344 351.277344 426.921875 C 361.394531 435.917969 346.917969 442.140625 382.054688 458.128906 C 388.164062 460.90625 421.71875 510.128906 428.324219 519.332031 C 432.921875 518.574219 443.316406 550.023438 446.5 551.183594 Z M 446.5 551.183594 " fill-opacity="1" fill-rule="evenodd"/><path fill="#b0cdf8" d="M 300.796875 524.226562 C 239.886719 502.863281 151.675781 548.972656 136.773438 545.074219 C 131.933594 529.765625 200.976562 516.222656 198.789062 509.285156 C 190.34375 482.582031 188.15625 504.664062 177.761719 471.820312 C 176.214844 466.941406 156.605469 445.5625 147.242188 415.953125 C 121.171875 333.574219 177.0625 462.492188 189.738281 417.609375 C 192.367188 408.28125 200.664062 416.617188 203.480469 425.523438 C 216.816406 467.660156 198.679688 467.515625 249.929688 468.378906 C 250.886719 468.398438 278.59375 456.894531 268.253906 479.640625 C 266.433594 483.613281 292.59375 508.75 301.71875 508.785156 C 323.589844 508.898438 339.171875 569.125 356.042969 580.714844 C 357.902344 581.984375 389.707031 635.386719 346.640625 590.082031 C 324.621094 566.933594 334.222656 580.570312 316.746094 551.972656 C 311.855469 543.96875 300.667969 547.777344 300.796875 524.226562 Z M 300.796875 524.226562 " fill-opacity="1" fill-rule="evenodd"/><path fill="#a7c2eb" d="M 300.796875 524.226562 C 298 523.25 295.148438 522.421875 292.242188 521.703125 C 293.347656 516.238281 294.101562 511.050781 294.578125 506.117188 C 297.394531 507.773438 299.894531 508.785156 301.71875 508.785156 C 323.589844 508.898438 339.171875 569.125 356.042969 580.714844 C 357.902344 581.984375 389.707031 635.386719 346.640625 590.082031 C 324.621094 566.933594 334.222656 580.570312 316.746094 551.972656 C 311.855469 543.96875 300.667969 547.777344 300.796875 524.226562 Z M 300.796875 524.226562 " fill-opacity="1" fill-rule="evenodd"/><path fill="#a6b4df" d="M 341.085938 477.578125 C 318.753906 440.574219 293.824219 488.121094 285.140625 457.394531 C 282.144531 446.722656 249.839844 462.417969 237.9375 415.476562 C 237.882812 415.238281 181.699219 364.617188 212.015625 382.59375 C 224.140625 389.808594 232.75 403.753906 244.410156 385.90625 C 257.382812 366.070312 261.097656 408.945312 274.527344 412.699219 C 304.898438 421.199219 289.742188 443.539062 315.128906 444.863281 C 325.0625 445.378906 394.636719 510.3125 380.179688 511.953125 C 360.183594 514.195312 353.226562 489.117188 341.878906 479.308594 Z M 341.085938 477.578125 " fill-opacity="1" fill-rule="evenodd"/><path fill="#90a0cf" d="M 341.085938 477.578125 C 323.242188 448.007812 303.742188 472.425781 292.1875 467.753906 C 287.570312 448.007812 279.238281 437.132812 280.25 432.976562 C 284.921875 430.730469 289.558594 428.597656 294.175781 426.515625 C 299.234375 435.164062 299.417969 444.035156 315.128906 444.863281 C 325.0625 445.378906 394.636719 510.3125 380.179688 511.953125 C 360.183594 514.195312 353.226562 489.117188 341.878906 479.308594 Z M 341.085938 477.578125 " fill-opacity="1" fill-rule="evenodd"/><path fill="#80bcfa" d="M 387.683594 542.699219 C 336.230469 528.621094 360.054688 525.992188 317.851562 495.300781 C 298 480.871094 308.304688 470.089844 330.582031 493.644531 C 340.332031 503.929688 339.78125 493.386719 360.84375 518.410156 C 372.011719 531.660156 427.109375 536.40625 445.285156 574.660156 C 451.335938 587.378906 449.957031 582.390625 432.792969 573.851562 C 430.824219 572.878906 414.582031 551.144531 394.582031 546.160156 C 392.890625 545.734375 389.523438 543.195312 387.683594 542.699219 Z M 387.683594 542.699219 " fill-opacity="1" fill-rule="evenodd"/><path fill="#80bcfa" d="M 419.199219 399.890625 C 420.707031 384.414062 436.914062 326.011719 425.488281 313.019531 C 419.308594 320.839844 409.835938 375.105469 414.710938 390.523438 C 415.554688 393.210938 419.382812 397.941406 419.199219 399.890625 Z M 419.199219 399.890625 " fill-opacity="1" fill-rule="evenodd"/><path fill="#74b1ed" d="M 419.199219 399.890625 C 420.375 387.839844 430.457031 349.75 429.480469 327.355469 C 425.359375 336.003906 420.742188 343.695312 415.703125 350.613281 C 413.347656 366.566406 412.355469 383.070312 414.710938 390.523438 C 415.554688 393.210938 419.382812 397.941406 419.199219 399.890625 Z M 419.199219 399.890625 " fill-opacity="1" fill-rule="evenodd"/><path fill="#80bcfa" d="M 573.195312 327.300781 C 564.511719 316.9375 471.296875 277.265625 564.367188 303.136719 C 570.75 304.90625 573.507812 317.363281 588.464844 327.851562 C 606.363281 340.4375 579.414062 334.714844 573.195312 327.300781 Z M 573.195312 327.300781 " fill-opacity="1" fill-rule="evenodd"/><path fill="#73afeb" d="M 550.21875 312.800781 C 529.429688 301.28125 507.152344 289.339844 540.191406 296.882812 C 544.976562 301.554688 548.507812 306.890625 550.21875 312.800781 Z M 550.21875 312.800781 " fill-opacity="1" fill-rule="evenodd"/><path fill="#dad8e2" d="M 514.511719 795.105469 C 503.527344 793.136719 454.960938 762.957031 434.652344 755.175781 C 413.476562 747.042969 319.96875 709.6875 304.570312 687.828125 C 312.828125 682.949219 409.136719 716.714844 421.9375 726.027344 C 455.566406 750.519531 509.25 768.957031 523.121094 786.089844 C 530.183594 794.808594 517.710938 795.675781 514.511719 795.105469 Z M 514.511719 795.105469 " fill-opacity="1" fill-rule="evenodd"/><path fill="#d2d0d9" d="M 473.210938 774.660156 C 458.640625 766.710938 443.792969 758.671875 434.652344 755.175781 C 428.765625 752.910156 417.285156 748.382812 403.449219 742.570312 C 403.136719 731.988281 399.144531 722.164062 393.039062 712.945312 C 407.019531 718.371094 418.148438 723.265625 421.9375 726.027344 C 440.132812 739.277344 464.195312 750.757812 484.652344 761.210938 C 484.820312 767.042969 482.003906 771.699219 473.210938 774.660156 Z M 473.210938 774.660156 " fill-opacity="1" fill-rule="evenodd"/><path fill="#80bcfa" d="M 590.15625 736.9375 C 580.976562 726.761719 570.582031 718.226562 558.9375 704.941406 C 507.539062 646.332031 582.027344 714.949219 591.980469 723.101562 C 595.03125 725.605469 590.671875 737.507812 590.15625 736.9375 Z M 590.15625 736.9375 " fill-opacity="1" fill-rule="evenodd"/><path fill="#afbae6" d="M 576.066406 759.113281 C 562.839844 755.691406 533.089844 731.640625 503.988281 727.589844 C 482.792969 724.628906 430.089844 703.082031 402.457031 697.488281 C 392.414062 695.445312 389.304688 692.113281 379.71875 682.65625 C 376.847656 679.824219 404.113281 683.207031 421.9375 690.347656 C 422.949219 690.753906 437.226562 686.945312 439.746094 688.601562 C 439.359375 688.65625 390.132812 659.304688 352.601562 663.152344 C 320.410156 666.464844 180.667969 605.316406 256.628906 619.558594 C 280.890625 624.105469 263.582031 603.644531 251.070312 598.839844 C 211.757812 583.808594 146.910156 512.484375 219.207031 562.71875 C 222.1875 564.78125 307.972656 610.269531 308.378906 610.101562 C 309.5 591.773438 281.574219 569.730469 308.488281 581.636719 C 317.300781 585.535156 337.242188 633.671875 345.207031 630.066406 C 356.320312 625.042969 381.835938 636.414062 378.707031 628.375 C 377.289062 624.730469 362.777344 618.804688 366.105469 617.683594 C 374.605469 614.847656 386.582031 611.28125 393.996094 613.449219 C 400.78125 615.421875 396.421875 623.828125 400.433594 631.0625 C 410.699219 649.664062 433.933594 653.546875 440.113281 672.167969 C 441.4375 676.144531 466.347656 686.117188 477.664062 698.019531 C 496.960938 718.316406 591.335938 721.28125 576.066406 759.113281 Z M 576.066406 759.113281 " fill-opacity="1" fill-rule="evenodd"/><path fill="#a2aedb" d="M 472.160156 719 C 448.632812 711.363281 420.320312 701.09375 402.457031 697.488281 C 392.414062 695.445312 389.304688 692.113281 379.71875 682.65625 C 376.847656 679.824219 404.113281 683.207031 421.9375 690.347656 C 422.949219 690.753906 437.226562 686.945312 439.746094 688.601562 C 439.359375 688.65625 390.132812 659.304688 352.601562 663.152344 C 349.84375 663.445312 346.253906 663.242188 342.078125 662.65625 C 326.773438 649.074219 315.441406 636.691406 318.511719 624.675781 C 323.019531 606.898438 313.160156 593.320312 303.445312 579.574219 C 304.863281 580.089844 306.539062 580.769531 308.488281 581.636719 C 317.300781 585.535156 337.242188 633.671875 345.207031 630.066406 C 356.320312 625.042969 381.835938 636.414062 378.707031 628.375 C 377.289062 624.730469 362.777344 618.804688 366.105469 617.683594 C 374.605469 614.847656 386.582031 611.28125 393.996094 613.449219 C 400.78125 615.421875 396.421875 623.828125 400.433594 631.0625 C 410.699219 649.664062 433.933594 653.546875 440.113281 672.167969 C 441.4375 676.144531 466.347656 686.117188 477.664062 698.019531 L 477.792969 698.132812 C 472.972656 705.03125 471.648438 712.078125 472.160156 719 Z M 472.160156 719 " fill-opacity="1" fill-rule="evenodd"/><path fill="#75a0cd" d="M 489.566406 823.550781 C 474.976562 829.035156 424.128906 863.921875 418.941406 839.652344 C 414.820312 820.425781 390.703125 818.96875 396.441406 796.152344 C 397.710938 791.128906 366.621094 781.617188 358.15625 754.84375 C 345.925781 716.203125 267.8125 701.554688 272.171875 697.691406 C 278.59375 692.003906 322.304688 707.367188 329.773438 716.589844 C 346.863281 737.65625 363.035156 709.320312 378.210938 766.011719 C 379.753906 771.789062 412.335938 765.460938 419.160156 791.019531 C 420.007812 794.183594 427.367188 800.109375 430.347656 814.8125 C 432.09375 823.441406 442.101562 813.578125 452.164062 825.246094 C 454.132812 827.546875 534.914062 793.007812 497.070312 820.515625 C 495.582031 821.601562 491.496094 822.835938 489.566406 823.550781 Z M 489.566406 823.550781 " fill-opacity="1" fill-rule="evenodd"/><path fill="#669ae3" d="M 349.933594 812.972656 C 345.445312 806.53125 349.714844 769.011719 337.480469 806.992188 C 331.484375 825.578125 329.386719 793.964844 319.855469 795.195312 C 306.628906 796.90625 322.910156 784.304688 301.847656 785.683594 C 287.808594 786.585938 310.785156 771.148438 321.421875 789.050781 C 325.910156 796.613281 324.144531 763.199219 350.488281 783.308594 C 355.378906 787.042969 350.46875 799.90625 359.242188 798.65625 C 375.5625 796.355469 373.167969 820.128906 378.488281 798.03125 C 381.335938 786.144531 399.3125 833.894531 388.308594 821.636719 C 383.488281 816.265625 359.078125 809.53125 352.125 812.144531 Z M 349.933594 812.972656 " fill-opacity="1" fill-rule="evenodd"/><path fill="#4d79da" d="M 373.925781 796.171875 C 359.648438 784.210938 363.308594 780.863281 350.597656 773.90625 C 339.15625 767.648438 350.265625 766.417969 324.105469 755.949219 C 305.285156 748.421875 305.636719 712.59375 292.335938 753.445312 C 292.113281 754.105469 275.574219 772.25 271.328125 758.800781 C 266.339844 743.03125 242.515625 780.496094 236.171875 760.492188 C 245.589844 756.960938 279.144531 733.128906 251.015625 721.960938 C 236.703125 716.273438 202.46875 643.445312 221.929688 672.203125 C 238.855469 697.230469 246.234375 671.835938 257.878906 712.871094 C 264.023438 734.601562 279.070312 700.394531 288.820312 714.746094 C 295.003906 723.820312 306.777344 707.113281 316.617188 731.417969 C 317.207031 732.871094 324.527344 728.953125 330.800781 737.507812 C 350.117188 763.824219 359.484375 750.519531 373.925781 796.171875 Z M 373.925781 796.171875 " fill-opacity="1" fill-rule="evenodd"/><path fill="#99a3d4" d="M 198.328125 734.070312 C 182.15625 725.84375 135.355469 676.714844 120.769531 660.796875 C 94.535156 632.164062 108.867188 631.960938 87.359375 606.164062 C 76.082031 592.640625 96.394531 581.839844 108.40625 562.683594 C 115.910156 550.722656 122.222656 579.464844 114.789062 597.644531 C 109.289062 611.152344 140.105469 627.066406 144.664062 648.578125 C 150.238281 674.800781 252.027344 736.09375 236.59375 741.890625 C 226.660156 745.625 202.414062 736.148438 198.328125 734.070312 Z M 198.328125 734.070312 " fill-opacity="1" fill-rule="evenodd"/><path fill="#bbcced" d="M 231.425781 661.714844 C 200.445312 648.414062 91.167969 513.921875 151.710938 570.925781 C 167.347656 585.648438 250.777344 658.882812 269.671875 666.355469 C 302.066406 679.179688 274.472656 684 255.375 667.585938 C 252.46875 665.101562 235.746094 663.574219 231.425781 661.714844 Z M 231.425781 661.714844 " fill-opacity="1" fill-rule="evenodd"/><path fill="#bad0ed" d="M 589.328125 503.761719 C 588.023438 505.273438 558.476562 523.101562 528.214844 520.730469 C 512.136719 519.460938 509.746094 513.625 484.265625 497.949219 C 481.765625 496.402344 499.773438 493.203125 532.90625 494.175781 C 545.96875 494.582031 533.332031 463.003906 577.777344 491.582031 C 588.980469 498.796875 589.625 503.414062 589.328125 503.761719 Z M 589.328125 503.761719 " fill-opacity="1" fill-rule="evenodd"/><path fill="#7aa7d1" d="M 382.476562 267.605469 C 383.988281 264.644531 428.082031 248.726562 432.957031 241.109375 C 436.621094 235.367188 402.804688 242.085938 396.238281 239.546875 C 389.25 236.820312 409.320312 225.082031 409.246094 225.0625 C 393.128906 219.671875 371.257812 234.578125 359.777344 244.898438 C 353.042969 250.933594 365.222656 258.039062 366.914062 263.394531 C 368.128906 267.238281 359.042969 272.042969 362.207031 273.585938 C 364.652344 274.765625 379 274.453125 382.476562 267.605469 Z M 382.476562 267.605469 " fill-opacity="1" fill-rule="evenodd"/><path fill="#c4e2fc" d="M 791.875 105.917969 C 765.953125 113.757812 690.214844 99.71875 672.867188 81.390625 C 658.867188 66.613281 647.019531 66.910156 634.125 42.453125 C 622.5 20.335938 618.359375 14.980469 651.75 5.117188 C 669.003906 0.0195312 725.335938 14.90625 741.136719 26.847656 C 761.320312 42.105469 797.339844 70.035156 802.933594 95.042969 C 803.0625 95.707031 798.535156 103.894531 791.875 105.917969 Z M 791.875 105.917969 " fill-opacity="1" fill-rule="evenodd"/><path fill="#4a81c1" d="M 783.375 92.429688 C 756.664062 69.667969 719.46875 47.828125 702.46875 41.476562 C 692.867188 37.890625 672.167969 30.53125 654.140625 29.554688 C 641.355469 28.875 626.746094 28.433594 634.125 42.453125 C 647.019531 66.910156 658.867188 66.613281 672.867188 81.390625 C 687.199219 96.515625 741.285156 108.714844 774.308594 108.109375 C 798.996094 107.667969 799.363281 106.046875 783.375 92.429688 Z M 783.375 92.429688 " fill-opacity="1" fill-rule="evenodd"/><path fill="#70dbff" d="M 557.59375 206.753906 C 582.597656 227.363281 650.113281 252.242188 683.371094 258.113281 C 695.089844 260.171875 692.699219 271.011719 673.328125 266.648438 C 644.609375 260.191406 545.804688 227.695312 538.921875 199.984375 C 537.726562 195.199219 543.410156 189.570312 550.621094 198.898438 C 553.234375 202.285156 554.359375 203.8125 557.59375 206.753906 Z M 557.59375 206.753906 " fill-opacity="1" fill-rule="evenodd"/><path fill="#73c2fe" d="M 574.300781 159.980469 C 614.808594 206 685.507812 209.367188 744.984375 211.335938 C 757.65625 211.761719 760.308594 221.070312 737.863281 221.53125 C 679.730469 222.726562 586.019531 207.914062 557.007812 154.183594 C 552.039062 144.964844 559.617188 138.082031 568.871094 152.417969 C 570.839844 155.472656 571.964844 157.109375 574.300781 159.980469 Z M 574.300781 159.980469 " fill-opacity="1" fill-rule="evenodd"/><path fill="#bee4ff" d="M 713.617188 187.894531 C 736.851562 193.800781 734.035156 192.550781 758.042969 191.667969 C 779.292969 190.875 761.023438 216.582031 704.859375 196.414062 C 698.882812 194.277344 699.304688 184.800781 709.460938 186.84375 Z M 713.617188 187.894531 " fill-opacity="1" fill-rule="evenodd"/><path fill="#155a9e" d="M 599.023438 142.167969 C 610.6875 152.121094 634.472656 171.792969 650.902344 170.984375 C 666.375 171.828125 652.871094 204.195312 589.640625 148.902344 C 574.960938 136.078125 584.949219 130.371094 592.164062 135.820312 C 594.445312 137.566406 596.855469 140.164062 599.023438 142.167969 Z M 599.023438 142.167969 " fill-opacity="1" fill-rule="evenodd"/><path fill="#2f64b2" d="M 643.304688 128 C 648.492188 125.535156 653.40625 132.085938 658.792969 135.25 C 691.007812 153.449219 720.921875 155.121094 757.972656 155.804688 C 774.011719 156.097656 770.589844 166.070312 747.0625 166.363281 C 716.082031 166.75 664.148438 156.960938 642.089844 136.207031 C 639.460938 133.539062 640.085938 130.28125 643.304688 128 Z M 643.304688 128 " fill-opacity="1" fill-rule="evenodd"/><path fill="#769db6" d="M 702.746094 16.269531 C 732.859375 11.6875 779.238281 61.5 794.765625 83.191406 C 801.332031 92.355469 793.9375 99.332031 785.933594 89.210938 C 764.8125 62.472656 742.445312 31.871094 705.042969 27.476562 C 692.222656 25.964844 693.933594 17.300781 702.746094 16.269531 Z M 702.746094 16.269531 " fill-opacity="1" fill-rule="evenodd"/><path fill="#74baf7" d="M 657.542969 92.410156 C 644.296875 90.902344 621.359375 65.988281 616.242188 53.878906 C 599.832031 15.054688 659.695312 1.234375 653.789062 17.886719 C 651.4375 24.511719 633.078125 18.292969 625.863281 31.375 C 614.679688 51.636719 660.25 81.703125 661.574219 86.835938 C 662.328125 89.816406 660.175781 91.472656 657.542969 92.410156 Z M 657.542969 92.410156 " fill-opacity="1" fill-rule="evenodd"/><path fill="#ebe6e6" d="M 577.464844 473.953125 C 544.847656 467.035156 505.460938 472.316406 478.417969 461 C 449.808594 449.039062 429.480469 423.351562 424.808594 391.628906 C 432.773438 388.648438 467.269531 416.175781 475.804688 423.628906 C 511.125 454.449219 570.324219 442.285156 576.230469 445.894531 C 579.25 447.734375 587.894531 476.164062 577.464844 473.953125 Z M 577.464844 473.953125 " fill-opacity="1" fill-rule="evenodd"/><path fill="#ffffff" d="M 571.097656 472.757812 C 539.84375 467.640625 503.730469 471.582031 478.417969 461 C 449.808594 449.039062 429.480469 423.351562 424.808594 391.628906 C 432.773438 388.648438 467.269531 416.175781 475.804688 423.628906 C 509.285156 452.847656 564.199219 443.445312 574.871094 445.449219 C 574.90625 453.253906 573.785156 462.25 571.097656 472.757812 Z M 571.097656 472.757812 " fill-opacity="1" fill-rule="evenodd"/><path fill="#ebe6e6" d="M 514.492188 319.40625 C 497.53125 306.191406 447.070312 277.835938 442.082031 262.066406 C 435.609375 241.644531 425.582031 239.417969 462.28125 243.1875 C 480.605469 245.082031 458.105469 273.070312 516.644531 299.863281 C 516.808594 299.9375 548.929688 332.210938 548.984375 333.371094 C 546.003906 332.835938 517.03125 321.410156 514.492188 319.40625 Z M 514.492188 319.40625 " fill-opacity="1" fill-rule="evenodd"/><path fill="#ffffff" d="M 514.492188 319.40625 C 502.367188 309.964844 473.101562 292.761719 455.585938 277.964844 C 462.558594 275.207031 471.554688 274.101562 481.25 274.523438 C 487.355469 282.492188 497.804688 291.234375 516.644531 299.863281 C 516.808594 299.9375 547.421875 330.683594 548.914062 333.222656 L 548.875 333.351562 C 545.398438 332.597656 517.011719 321.390625 514.492188 319.40625 Z M 514.492188 319.40625 " fill-opacity="1" fill-rule="evenodd"/><path fill="#ebe6e6" d="M 593.15625 604.359375 C 552.589844 595.34375 576.488281 590.726562 562.304688 556.039062 C 560.28125 551.070312 553.972656 553.371094 533.054688 544.152344 C 505.367188 531.953125 502.976562 529.414062 548.914062 538.6875 C 559.765625 540.878906 562.027344 526.542969 567.105469 548.9375 C 574.59375 582.152344 606.53125 569.933594 604.394531 589.53125 C 604.011719 593.0625 628.53125 652.40625 604.339844 627.085938 C 599.503906 622.007812 592.675781 604.25 593.15625 604.359375 Z M 593.15625 604.359375 " fill-opacity="1" fill-rule="evenodd"/><path fill="#ffffff" d="M 541.113281 547.445312 C 538.71875 546.546875 536.035156 545.460938 533.054688 544.152344 C 506.289062 532.359375 503.179688 529.578125 544.460938 537.785156 C 543.082031 541.226562 541.957031 544.449219 541.113281 547.445312 Z M 586.734375 602.832031 C 574.078125 599.558594 569.8125 596.632812 568.355469 592.179688 C 580.296875 595.546875 590.507812 596.726562 586.734375 602.832031 Z M 586.734375 602.832031 " fill-opacity="1" fill-rule="evenodd"/></svg>