<svg xmlns="http://www.w3.org/2000/svg" xmlns:xlink="http://www.w3.org/1999/xlink" width="500" zoomAndPan="magnify" viewBox="0 0 375 374.999991" height="500" preserveAspectRatio="xMidYMid meet" version="1.0"><defs><clipPath id="1cb3bba754"><path d="M 187.5 0 C 83.945312 0 0 83.945312 0 187.5 C 0 291.054688 83.945312 375 187.5 375 C 291.054688 375 375 291.054688 375 187.5 C 375 83.945312 291.054688 0 187.5 0 Z M 187.5 0 " clip-rule="nonzero"/></clipPath><clipPath id="d1b5cf0ed7"><path d="M 306 132 L 349.242188 132 L 349.242188 171 L 306 171 Z M 306 132 " clip-rule="nonzero"/></clipPath><clipPath id="e0912dd6d0"><path d="M 277 99.613281 L 305 99.613281 L 305 127 L 277 127 Z M 277 99.613281 " clip-rule="nonzero"/></clipPath><clipPath id="43de5f5cc5"><path d="M 267.8125 145 L 304 145 L 304 181.042969 L 267.8125 181.042969 Z M 267.8125 145 " clip-rule="nonzero"/></clipPath><clipPath id="ed7cff5e83"><path d="M 67 278 L 103 278 L 103 310 L 67 310 Z M 67 278 " clip-rule="nonzero"/></clipPath><clipPath id="fe7474c6da"><path d="M 115.886719 313.050781 L 53.136719 314.566406 L 51.625 251.816406 L 114.375 250.300781 Z M 115.886719 313.050781 " clip-rule="nonzero"/></clipPath><clipPath id="84de936a81"><path d="M 115.886719 313.050781 L 53.136719 314.566406 L 51.625 251.816406 L 114.375 250.300781 Z M 115.886719 313.050781 " clip-rule="nonzero"/></clipPath><clipPath id="5b5720f9f5"><path d="M 115.886719 313.050781 L 53.136719 314.566406 L 51.625 251.816406 L 114.375 250.300781 Z M 115.886719 313.050781 " clip-rule="nonzero"/></clipPath><clipPath id="015014a0a2"><path d="M 52 259 L 86 259 L 86 289 L 52 289 Z M 52 259 " clip-rule="nonzero"/></clipPath><clipPath id="6d987fea8b"><path d="M 115.886719 313.050781 L 53.136719 314.566406 L 51.625 251.816406 L 114.375 250.300781 Z M 115.886719 313.050781 " clip-rule="nonzero"/></clipPath><clipPath id="57ad1d95fc"><path d="M 115.886719 313.050781 L 53.136719 314.566406 L 51.625 251.816406 L 114.375 250.300781 Z M 115.886719 313.050781 " clip-rule="nonzero"/></clipPath><clipPath id="29e3d02070"><path d="M 115.886719 313.050781 L 53.136719 314.566406 L 51.625 251.816406 L 114.375 250.300781 Z M 115.886719 313.050781 " clip-rule="nonzero"/></clipPath><clipPath id="c35774b510"><path d="M 87 292 L 109 292 L 109 314 L 87 314 Z M 87 292 " clip-rule="nonzero"/></clipPath><clipPath id="47ce18172c"><path d="M 115.886719 313.050781 L 53.136719 314.566406 L 51.625 251.816406 L 114.375 250.300781 Z M 115.886719 313.050781 " clip-rule="nonzero"/></clipPath><clipPath id="8a53ff9597"><path d="M 115.886719 313.050781 L 53.136719 314.566406 L 51.625 251.816406 L 114.375 250.300781 Z M 115.886719 313.050781 " clip-rule="nonzero"/></clipPath><clipPath id="51005e555e"><path d="M 115.886719 313.050781 L 53.136719 314.566406 L 51.625 251.816406 L 114.375 250.300781 Z M 115.886719 313.050781 " clip-rule="nonzero"/></clipPath><clipPath id="c565c114e7"><path d="M 87 250 L 115 250 L 115 278 L 87 278 Z M 87 250 " clip-rule="nonzero"/></clipPath><clipPath id="7c0e27b10a"><path d="M 115.886719 313.050781 L 53.136719 314.566406 L 51.625 251.816406 L 114.375 250.300781 Z M 115.886719 313.050781 " clip-rule="nonzero"/></clipPath><clipPath id="0fa38698df"><path d="M 115.886719 313.050781 L 53.136719 314.566406 L 51.625 251.816406 L 114.375 250.300781 Z M 115.886719 313.050781 " clip-rule="nonzero"/></clipPath><clipPath id="f4530aec57"><path d="M 115.886719 313.050781 L 53.136719 314.566406 L 51.625 251.816406 L 114.375 250.300781 Z M 115.886719 313.050781 " clip-rule="nonzero"/></clipPath></defs><g clip-path="url(#1cb3bba754)"><rect x="-37.5" width="450" fill="#97c087" y="-37.499999" height="449.999989" fill-opacity="1"/></g><path fill="#000000" d="M 258.113281 28.261719 C 257.035156 28.863281 256.007812 29.523438 255.007812 30.207031 C 233.484375 44.039062 218.28125 65.445312 208.535156 88.886719 C 196.902344 116.871094 193.550781 147.179688 192.933594 177.246094 C 192.578125 194.402344 193.054688 211.558594 193.210938 228.714844 C 193.289062 237.410156 193.289062 246.105469 193.058594 254.792969 C 192.90625 260.609375 192.914062 266.96875 189.839844 272.140625 C 188.742188 273.988281 187.152344 275.566406 184.953125 275.914062 C 181.898438 276.398438 179.152344 274.351562 177.195312 272.238281 C 172.785156 267.484375 170.714844 260.910156 169.597656 254.664062 C 167.15625 241.058594 168.726562 226.878906 163.964844 213.683594 C 158.957031 199.808594 149.023438 188.671875 139.871094 177.398438 C 130.875 166.320312 121.625 153.304688 120.726562 138.550781 C 120.503906 134.914062 120.839844 131.351562 121.773438 127.835938 C 122.699219 124.34375 117.324219 122.863281 116.371094 126.34375 C 107.910156 157.164062 111.402344 190.726562 125.300781 219.433594 C 132.046875 233.363281 141.425781 245.535156 152.195312 256.582031 C 162.414062 267.0625 173.503906 276.652344 183.648438 287.210938 C 194.628906 298.636719 204.5 311.457031 209.183594 326.8125 C 210.234375 330.253906 215.648438 328.789062 214.589844 325.324219 C 209.832031 309.722656 200.414062 296.941406 189.515625 285.28125 C 215.320312 262.460938 232.425781 231.042969 240.449219 197.722656 C 244.597656 180.503906 246.441406 162.6875 245.964844 144.980469 C 245.710938 135.652344 244.714844 126.394531 243.3125 117.175781 C 241.613281 106.035156 239.484375 94.921875 239.023438 83.636719 C 238.265625 64.886719 243.296875 42.976562 260.945312 33.109375 C 264.046875 31.265625 261.269531 26.5 258.113281 28.261719 Z M 134.035156 224.019531 C 126.324219 210.449219 121.238281 195.46875 118.847656 180.058594 C 117.371094 170.542969 117.003906 160.859375 117.730469 151.257812 C 119.957031 157.914062 123.394531 164.257812 127.292969 170.007812 C 135.632812 182.3125 146.550781 192.714844 154.023438 205.632812 C 157.675781 211.949219 160.097656 218.660156 161.226562 225.871094 C 162.296875 232.710938 162.398438 239.667969 162.984375 246.554688 C 163.421875 251.738281 164.105469 256.910156 165.5625 261.882812 C 164.382812 260.753906 163.210938 259.625 162.046875 258.492188 C 151.359375 248.082031 141.441406 237.054688 134.035156 224.019531 Z M 239.820312 134.847656 C 242.539062 169.703125 236.195312 205.652344 220.035156 236.78125 C 213.726562 248.9375 205.902344 260.222656 196.707031 270.300781 C 198.464844 264.878906 198.5625 259.125 198.695312 253.425781 C 199.117188 235.691406 198.617188 217.953125 198.457031 200.21875 C 198.164062 168.117188 198.960938 135.503906 208.738281 104.644531 C 214.914062 85.144531 224.648438 66.082031 238.695312 51.035156 C 235.929688 57.574219 234.289062 64.652344 233.648438 71.617188 C 231.703125 92.867188 238.179688 113.796875 239.820312 134.847656 Z M 239.820312 134.847656 " fill-opacity="1" fill-rule="nonzero"/><path fill="#000000" d="M 294.804688 137.613281 C 299.921875 136.09375 304.605469 133.3125 308.484375 129.429688 C 312.351562 125.550781 315.136719 120.867188 316.65625 115.75 C 318.527344 122.046875 322.300781 127.667969 327.59375 131.875 C 328.175781 132.335938 329.03125 132.242188 329.507812 131.65625 C 329.96875 131.074219 329.875 130.21875 329.289062 129.757812 C 322.125 124.070312 318.027344 115.5625 318.027344 106.398438 C 318.027344 105.652344 317.414062 105.042969 316.667969 105.042969 C 315.921875 105.042969 315.3125 105.652344 315.3125 106.398438 C 315.3125 114.378906 312.203125 121.871094 306.570312 127.519531 C 300.925781 133.148438 293.421875 136.257812 285.453125 136.257812 C 284.707031 136.257812 284.097656 136.867188 284.097656 137.613281 C 284.097656 138.359375 284.707031 138.972656 285.453125 138.972656 C 291.722656 138.972656 297.738281 140.898438 302.824219 144.535156 C 303.070312 144.710938 303.339844 144.792969 303.613281 144.792969 C 304.035156 144.792969 304.453125 144.589844 304.710938 144.222656 C 305.148438 143.613281 305.011719 142.773438 304.398438 142.324219 C 301.453125 140.207031 298.210938 138.632812 294.804688 137.601562 Z M 294.804688 137.613281 " fill-opacity="1" fill-rule="nonzero"/><g clip-path="url(#d1b5cf0ed7)"><path fill="#000000" d="M 347.882812 136.257812 C 342.847656 136.257812 338.085938 135.0625 333.714844 132.6875 C 333.050781 132.335938 332.234375 132.578125 331.867188 133.230469 C 331.515625 133.894531 331.761719 134.710938 332.410156 135.078125 C 334.378906 136.136719 336.414062 136.992188 338.503906 137.613281 C 333.402344 139.136719 328.71875 141.917969 324.824219 145.785156 C 320.957031 149.667969 318.175781 154.347656 316.65625 159.464844 C 315.164062 154.457031 312.460938 149.855469 308.703125 146.027344 C 308.171875 145.488281 307.316406 145.488281 306.789062 146.015625 C 306.257812 146.542969 306.246094 147.398438 306.773438 147.929688 C 312.273438 153.535156 315.296875 160.957031 315.296875 168.828125 C 315.296875 169.574219 315.910156 170.1875 316.65625 170.1875 C 317.402344 170.1875 318.011719 169.574219 318.011719 168.828125 C 318.011719 160.847656 321.121094 153.359375 326.753906 147.710938 C 332.398438 142.078125 339.902344 138.972656 347.871094 138.972656 C 348.617188 138.972656 349.226562 138.359375 349.226562 137.613281 C 349.226562 136.867188 348.617188 136.257812 347.871094 136.257812 Z M 347.882812 136.257812 " fill-opacity="1" fill-rule="nonzero"/></g><g clip-path="url(#e0912dd6d0)"><path fill="#000000" d="M 278.667969 114.542969 C 281.574219 114.542969 284.300781 115.667969 286.351562 117.71875 C 288.398438 119.769531 289.527344 122.507812 289.527344 125.402344 C 289.527344 126.148438 290.136719 126.757812 290.882812 126.757812 C 291.628906 126.757812 292.238281 126.148438 292.238281 125.402344 C 292.238281 122.496094 293.367188 119.769531 295.414062 117.71875 C 297.464844 115.667969 300.191406 114.542969 303.097656 114.542969 C 303.84375 114.542969 304.453125 113.933594 304.453125 113.1875 C 304.453125 112.441406 303.84375 111.828125 303.097656 111.828125 C 300.585938 111.828125 298.226562 111 296.269531 109.414062 C 295.6875 108.9375 294.832031 109.035156 294.355469 109.617188 C 293.882812 110.199219 293.976562 111.054688 294.5625 111.53125 C 295.363281 112.183594 296.242188 112.738281 297.167969 113.1875 C 295.824219 113.835938 294.574219 114.71875 293.488281 115.804688 C 292.402344 116.890625 291.535156 118.125 290.882812 119.46875 C 290.230469 118.125 289.347656 116.890625 288.261719 115.804688 C 287.179688 114.71875 285.941406 113.851562 284.597656 113.199219 C 285.941406 112.546875 287.179688 111.667969 288.261719 110.582031 C 290.828125 108.015625 292.226562 104.609375 292.226562 100.984375 C 292.226562 100.238281 291.617188 99.628906 290.871094 99.628906 C 290.121094 99.628906 289.511719 100.238281 289.511719 100.984375 C 289.511719 103.890625 288.386719 106.617188 286.335938 108.667969 C 284.285156 110.714844 281.558594 111.84375 278.65625 111.84375 C 277.910156 111.84375 277.296875 112.453125 277.296875 113.199219 C 277.296875 113.945312 277.910156 114.558594 278.65625 114.558594 Z M 278.667969 114.542969 " fill-opacity="1" fill-rule="nonzero"/></g><g clip-path="url(#43de5f5cc5)"><path fill="#000000" d="M 301.738281 162.042969 C 293.503906 162.042969 286.8125 155.351562 286.8125 147.113281 C 286.8125 146.367188 286.199219 145.757812 285.453125 145.757812 C 284.707031 145.757812 284.097656 146.367188 284.097656 147.113281 C 284.097656 148.824219 283.8125 150.496094 283.253906 152.09375 C 283.011719 152.800781 283.378906 153.574219 284.082031 153.832031 C 284.53125 153.996094 284.992188 153.902344 285.34375 153.644531 C 287.097656 158.039062 290.585938 161.582031 294.941406 163.414062 C 292.851562 164.28125 290.910156 165.570312 289.253906 167.226562 C 287.613281 168.882812 286.324219 170.796875 285.453125 172.886719 C 284.585938 170.796875 283.296875 168.871094 281.652344 167.214844 C 280 165.570312 278.085938 164.28125 275.996094 163.414062 C 278.085938 162.546875 280.011719 161.257812 281.652344 159.613281 C 282.183594 159.085938 282.183594 158.230469 281.652344 157.699219 C 281.125 157.171875 280.269531 157.171875 279.742188 157.699219 C 276.917969 160.523438 273.160156 162.070312 269.183594 162.070312 C 268.433594 162.070312 267.824219 162.679688 267.824219 163.429688 C 267.824219 164.175781 268.433594 164.785156 269.183594 164.785156 C 273.171875 164.785156 276.917969 166.332031 279.742188 169.15625 C 282.5625 171.976562 284.109375 175.738281 284.109375 179.714844 C 284.109375 180.460938 284.722656 181.070312 285.46875 181.070312 C 286.214844 181.070312 286.824219 180.460938 286.824219 179.714844 C 286.824219 175.722656 288.371094 171.976562 291.195312 169.15625 C 294.019531 166.332031 297.777344 164.785156 301.753906 164.785156 C 302.5 164.785156 303.109375 164.175781 303.109375 163.429688 C 303.109375 162.679688 302.5 162.070312 301.753906 162.070312 Z M 301.738281 162.042969 " fill-opacity="1" fill-rule="nonzero"/></g><g clip-path="url(#ed7cff5e83)"><g clip-path="url(#fe7474c6da)"><g clip-path="url(#84de936a81)"><g clip-path="url(#5b5720f9f5)"><path fill="#000000" d="M 94.378906 284.269531 C 90.464844 285.535156 86.910156 287.769531 83.988281 290.832031 C 81.082031 293.894531 79.023438 297.554688 77.949219 301.523438 C 76.386719 296.707031 73.375 292.449219 69.21875 289.304688 C 68.761719 288.960938 68.101562 289.046875 67.746094 289.507812 C 67.402344 289.964844 67.492188 290.621094 67.949219 290.96875 C 73.578125 295.214844 76.894531 301.695312 77.066406 308.757812 C 77.078125 309.332031 77.5625 309.789062 78.136719 309.777344 C 78.710938 309.761719 79.171875 309.28125 79.15625 308.707031 C 79.007812 302.554688 81.265625 296.726562 85.5 292.269531 C 89.746094 287.824219 95.472656 285.289062 101.609375 285.144531 C 102.1875 285.128906 102.644531 284.648438 102.632812 284.070312 C 102.617188 283.496094 102.136719 283.039062 101.558594 283.050781 C 96.726562 283.167969 92.058594 281.792969 88.070312 279.085938 C 87.878906 278.953125 87.667969 278.898438 87.457031 278.902344 C 87.132812 278.910156 86.8125 279.074219 86.621094 279.363281 C 86.296875 279.839844 86.417969 280.484375 86.898438 280.820312 C 89.207031 282.398438 91.734375 283.550781 94.378906 284.28125 Z M 94.378906 284.269531 " fill-opacity="1" fill-rule="nonzero"/></g></g></g></g><g clip-path="url(#015014a0a2)"><g clip-path="url(#6d987fea8b)"><g clip-path="url(#57ad1d95fc)"><g clip-path="url(#29e3d02070)"><path fill="#000000" d="M 53.503906 286.300781 C 57.382812 286.210938 61.074219 287.039062 64.488281 288.789062 C 65.003906 289.050781 65.628906 288.847656 65.898438 288.335938 C 66.160156 287.820312 65.957031 287.195312 65.445312 286.925781 C 63.910156 286.144531 62.324219 285.523438 60.703125 285.082031 C 64.609375 283.816406 68.164062 281.585938 71.09375 278.53125 C 74.003906 275.46875 76.058594 271.808594 77.136719 267.839844 C 78.378906 271.671875 80.546875 275.164062 83.511719 278.042969 C 83.929688 278.453125 84.589844 278.4375 84.988281 278.019531 C 85.386719 277.601562 85.382812 276.941406 84.964844 276.542969 C 80.625 272.328125 78.152344 266.664062 78.007812 260.597656 C 77.992188 260.023438 77.511719 259.5625 76.9375 259.578125 C 76.359375 259.589844 75.902344 260.074219 75.914062 260.648438 C 76.0625 266.796875 73.808594 272.628906 69.574219 277.082031 C 65.328125 281.527344 59.601562 284.0625 53.460938 284.210938 C 52.886719 284.226562 52.425781 284.707031 52.441406 285.28125 C 52.457031 285.855469 52.9375 286.316406 53.511719 286.300781 Z M 53.503906 286.300781 " fill-opacity="1" fill-rule="nonzero"/></g></g></g></g><g clip-path="url(#c35774b510)"><g clip-path="url(#47ce18172c)"><g clip-path="url(#8a53ff9597)"><g clip-path="url(#51005e555e)"><path fill="#000000" d="M 107.242188 301.75 C 105.003906 301.804688 102.882812 300.988281 101.265625 299.445312 C 99.648438 297.90625 98.726562 295.8125 98.675781 293.585938 C 98.660156 293.011719 98.179688 292.550781 97.601562 292.566406 C 97.027344 292.578125 96.570312 293.058594 96.582031 293.636719 C 96.636719 295.875 95.820312 297.996094 94.277344 299.613281 C 92.738281 301.230469 90.65625 302.148438 88.417969 302.203125 C 87.84375 302.21875 87.382812 302.699219 87.398438 303.273438 C 87.410156 303.851562 87.894531 304.308594 88.46875 304.296875 C 90.402344 304.25 92.238281 304.84375 93.773438 306.03125 C 94.230469 306.386719 94.890625 306.296875 95.246094 305.839844 C 95.601562 305.378906 95.511719 304.722656 95.050781 304.367188 C 94.421875 303.878906 93.734375 303.46875 93.011719 303.140625 C 94.035156 302.613281 94.984375 301.910156 95.800781 301.054688 C 96.617188 300.195312 97.261719 299.226562 97.738281 298.179688 C 98.265625 299.203125 98.96875 300.140625 99.824219 300.957031 C 100.683594 301.773438 101.648438 302.417969 102.699219 302.894531 C 101.675781 303.421875 100.738281 304.125 99.921875 304.980469 C 97.992188 307.007812 96.980469 309.65625 97.046875 312.449219 C 97.0625 313.023438 97.542969 313.484375 98.117188 313.46875 C 98.691406 313.457031 99.152344 312.976562 99.136719 312.398438 C 99.085938 310.160156 99.902344 308.039062 101.441406 306.421875 C 102.984375 304.804688 105.066406 303.886719 107.304688 303.832031 C 107.878906 303.816406 108.339844 303.335938 108.324219 302.761719 C 108.308594 302.183594 107.828125 301.726562 107.253906 301.738281 Z M 107.242188 301.75 " fill-opacity="1" fill-rule="nonzero"/></g></g></g></g><g clip-path="url(#c565c114e7)"><g clip-path="url(#7c0e27b10a)"><g clip-path="url(#0fa38698df)"><g clip-path="url(#f4530aec57)"><path fill="#000000" d="M 88.582031 265.574219 C 94.929688 265.421875 100.210938 270.453125 100.363281 276.800781 C 100.375 277.375 100.859375 277.835938 101.433594 277.820312 C 102.007812 277.808594 102.46875 277.324219 102.453125 276.75 C 102.421875 275.433594 102.609375 274.140625 103.011719 272.898438 C 103.183594 272.347656 102.890625 271.757812 102.339844 271.574219 C 101.992188 271.457031 101.636719 271.539062 101.371094 271.742188 C 99.941406 268.386719 97.1875 265.722656 93.796875 264.390625 C 95.390625 263.683594 96.863281 262.652344 98.105469 261.347656 C 99.339844 260.042969 100.300781 258.542969 100.929688 256.914062 C 101.636719 258.511719 102.667969 259.972656 103.964844 261.214844 C 105.269531 262.453125 106.769531 263.410156 108.394531 264.039062 C 106.800781 264.75 105.339844 265.777344 104.105469 267.074219 C 103.707031 267.492188 103.722656 268.148438 104.140625 268.546875 C 104.558594 268.945312 105.21875 268.929688 105.613281 268.511719 C 107.738281 266.285156 110.605469 265.023438 113.671875 264.949219 C 114.246094 264.933594 114.703125 264.453125 114.691406 263.878906 C 114.675781 263.300781 114.195312 262.84375 113.621094 262.855469 C 110.546875 262.929688 107.628906 261.808594 105.402344 259.6875 C 103.175781 257.5625 101.914062 254.695312 101.839844 251.628906 C 101.824219 251.054688 101.34375 250.597656 100.765625 250.609375 C 100.191406 250.625 99.734375 251.105469 99.746094 251.679688 C 99.820312 254.753906 98.699219 257.671875 96.574219 259.898438 C 94.453125 262.125 91.585938 263.386719 88.519531 263.460938 C 87.945312 263.476562 87.484375 263.957031 87.5 264.535156 C 87.511719 265.109375 87.996094 265.566406 88.570312 265.554688 Z M 88.582031 265.574219 " fill-opacity="1" fill-rule="nonzero"/></g></g></g></g></svg>