<svg xmlns="http://www.w3.org/2000/svg" xmlns:xlink="http://www.w3.org/1999/xlink" width="500" zoomAndPan="magnify" viewBox="0 0 375 374.999991" height="500" preserveAspectRatio="xMidYMid meet" version="1.0"><defs><filter x="0%" y="0%" width="100%" height="100%" id="33ebc36754"><feColorMatrix values="0 0 0 0 1 0 0 0 0 1 0 0 0 0 1 0 0 0 1 0" color-interpolation-filters="sRGB"/></filter><g/><mask id="ef900a69b1"><g filter="url(#33ebc36754)"><rect x="-37.5" width="450" fill="#000000" y="-37.499999" height="449.999989" fill-opacity="0.84"/></g></mask><clipPath id="abc58caeee"><path d="M 0.5 0.382812 L 300.5 0.382812 L 300.5 123.707031 L 0.5 123.707031 Z M 0.5 0.382812 " clip-rule="nonzero"/></clipPath><clipPath id="54abd2816e"><path d="M 17 0.382812 L 284 0.382812 C 293.113281 0.382812 300.5 7.773438 300.5 16.882812 L 300.5 107.207031 C 300.5 116.320312 293.113281 123.707031 284 123.707031 L 17 123.707031 C 7.886719 123.707031 0.5 116.320312 0.5 107.207031 L 0.5 16.882812 C 0.5 7.773438 7.886719 0.382812 17 0.382812 Z M 17 0.382812 " clip-rule="nonzero"/></clipPath><linearGradient x1="0.00201453" gradientTransform="matrix(0.481731, 0, 0, 0.481731, 0.499032, 0.384592)" y1="128" x2="622.75403" gradientUnits="userSpaceOnUse" y2="128" id="b37b479152"><stop stop-opacity="1" stop-color="rgb(80.39856%, 99.998474%, 84.700012%)" offset="0"/><stop stop-opacity="1" stop-color="rgb(80.311584%, 99.891663%, 84.759521%)" offset="0.0078125"/><stop stop-opacity="1" stop-color="rgb(80.136108%, 99.676514%, 84.87854%)" offset="0.015625"/><stop stop-opacity="1" stop-color="rgb(79.960632%, 99.461365%, 84.997559%)" offset="0.0234375"/><stop stop-opacity="1" stop-color="rgb(79.786682%, 99.246216%, 85.118103%)" offset="0.03125"/><stop stop-opacity="1" stop-color="rgb(79.611206%, 99.031067%, 85.237122%)" offset="0.0390625"/><stop stop-opacity="1" stop-color="rgb(79.43573%, 98.817444%, 85.35614%)" offset="0.046875"/><stop stop-opacity="1" stop-color="rgb(79.26178%, 98.602295%, 85.476685%)" offset="0.0546875"/><stop stop-opacity="1" stop-color="rgb(79.086304%, 98.387146%, 85.595703%)" offset="0.0625"/><stop stop-opacity="1" stop-color="rgb(78.910828%, 98.171997%, 85.714722%)" offset="0.0703125"/><stop stop-opacity="1" stop-color="rgb(78.736877%, 97.956848%, 85.835266%)" offset="0.078125"/><stop stop-opacity="1" stop-color="rgb(78.561401%, 97.743225%, 85.954285%)" offset="0.0859375"/><stop stop-opacity="1" stop-color="rgb(78.385925%, 97.528076%, 86.073303%)" offset="0.09375"/><stop stop-opacity="1" stop-color="rgb(78.210449%, 97.312927%, 86.193848%)" offset="0.101562"/><stop stop-opacity="1" stop-color="rgb(78.036499%, 97.097778%, 86.312866%)" offset="0.109375"/><stop stop-opacity="1" stop-color="rgb(77.861023%, 96.882629%, 86.431885%)" offset="0.117188"/><stop stop-opacity="1" stop-color="rgb(77.685547%, 96.669006%, 86.552429%)" offset="0.125"/><stop stop-opacity="1" stop-color="rgb(77.511597%, 96.453857%, 86.671448%)" offset="0.132812"/><stop stop-opacity="1" stop-color="rgb(77.336121%, 96.238708%, 86.790466%)" offset="0.140625"/><stop stop-opacity="1" stop-color="rgb(77.160645%, 96.02356%, 86.911011%)" offset="0.148438"/><stop stop-opacity="1" stop-color="rgb(76.986694%, 95.808411%, 87.030029%)" offset="0.15625"/><stop stop-opacity="1" stop-color="rgb(76.811218%, 95.594788%, 87.149048%)" offset="0.164063"/><stop stop-opacity="1" stop-color="rgb(76.635742%, 95.379639%, 87.269592%)" offset="0.171875"/><stop stop-opacity="1" stop-color="rgb(76.461792%, 95.16449%, 87.388611%)" offset="0.179688"/><stop stop-opacity="1" stop-color="rgb(76.286316%, 94.949341%, 87.507629%)" offset="0.1875"/><stop stop-opacity="1" stop-color="rgb(76.11084%, 94.734192%, 87.628174%)" offset="0.195312"/><stop stop-opacity="1" stop-color="rgb(75.93689%, 94.520569%, 87.747192%)" offset="0.203125"/><stop stop-opacity="1" stop-color="rgb(75.761414%, 94.30542%, 87.866211%)" offset="0.210937"/><stop stop-opacity="1" stop-color="rgb(75.585938%, 94.090271%, 87.986755%)" offset="0.21875"/><stop stop-opacity="1" stop-color="rgb(75.410461%, 93.875122%, 88.105774%)" offset="0.226562"/><stop stop-opacity="1" stop-color="rgb(75.236511%, 93.659973%, 88.224792%)" offset="0.234375"/><stop stop-opacity="1" stop-color="rgb(75.061035%, 93.44635%, 88.345337%)" offset="0.242188"/><stop stop-opacity="1" stop-color="rgb(74.885559%, 93.231201%, 88.464355%)" offset="0.25"/><stop stop-opacity="1" stop-color="rgb(74.711609%, 93.016052%, 88.583374%)" offset="0.257812"/><stop stop-opacity="1" stop-color="rgb(74.536133%, 92.800903%, 88.703918%)" offset="0.265625"/><stop stop-opacity="1" stop-color="rgb(74.360657%, 92.585754%, 88.822937%)" offset="0.273438"/><stop stop-opacity="1" stop-color="rgb(74.186707%, 92.372131%, 88.941956%)" offset="0.28125"/><stop stop-opacity="1" stop-color="rgb(74.01123%, 92.156982%, 89.0625%)" offset="0.289062"/><stop stop-opacity="1" stop-color="rgb(73.835754%, 91.941833%, 89.181519%)" offset="0.296875"/><stop stop-opacity="1" stop-color="rgb(73.661804%, 91.726685%, 89.300537%)" offset="0.304688"/><stop stop-opacity="1" stop-color="rgb(73.486328%, 91.511536%, 89.421082%)" offset="0.3125"/><stop stop-opacity="1" stop-color="rgb(73.310852%, 91.297913%, 89.5401%)" offset="0.320312"/><stop stop-opacity="1" stop-color="rgb(73.136902%, 91.082764%, 89.659119%)" offset="0.328125"/><stop stop-opacity="1" stop-color="rgb(72.961426%, 90.867615%, 89.779663%)" offset="0.335938"/><stop stop-opacity="1" stop-color="rgb(72.78595%, 90.652466%, 89.898682%)" offset="0.34375"/><stop stop-opacity="1" stop-color="rgb(72.610474%, 90.437317%, 90.0177%)" offset="0.351562"/><stop stop-opacity="1" stop-color="rgb(72.436523%, 90.223694%, 90.138245%)" offset="0.359375"/><stop stop-opacity="1" stop-color="rgb(72.261047%, 90.008545%, 90.257263%)" offset="0.367187"/><stop stop-opacity="1" stop-color="rgb(72.085571%, 89.793396%, 90.376282%)" offset="0.375"/><stop stop-opacity="1" stop-color="rgb(71.911621%, 89.578247%, 90.496826%)" offset="0.382813"/><stop stop-opacity="1" stop-color="rgb(71.736145%, 89.363098%, 90.615845%)" offset="0.390625"/><stop stop-opacity="1" stop-color="rgb(71.560669%, 89.149475%, 90.734863%)" offset="0.398438"/><stop stop-opacity="1" stop-color="rgb(71.386719%, 88.934326%, 90.855408%)" offset="0.40625"/><stop stop-opacity="1" stop-color="rgb(71.211243%, 88.719177%, 90.974426%)" offset="0.414062"/><stop stop-opacity="1" stop-color="rgb(71.035767%, 88.504028%, 91.093445%)" offset="0.421875"/><stop stop-opacity="1" stop-color="rgb(70.861816%, 88.288879%, 91.213989%)" offset="0.429688"/><stop stop-opacity="1" stop-color="rgb(70.68634%, 88.075256%, 91.333008%)" offset="0.4375"/><stop stop-opacity="1" stop-color="rgb(70.510864%, 87.860107%, 91.452026%)" offset="0.445312"/><stop stop-opacity="1" stop-color="rgb(70.336914%, 87.644958%, 91.572571%)" offset="0.453125"/><stop stop-opacity="1" stop-color="rgb(70.161438%, 87.42981%, 91.691589%)" offset="0.460938"/><stop stop-opacity="1" stop-color="rgb(69.985962%, 87.214661%, 91.810608%)" offset="0.46875"/><stop stop-opacity="1" stop-color="rgb(69.810486%, 87.001038%, 91.931152%)" offset="0.476562"/><stop stop-opacity="1" stop-color="rgb(69.636536%, 86.785889%, 92.050171%)" offset="0.484375"/><stop stop-opacity="1" stop-color="rgb(69.46106%, 86.57074%, 92.169189%)" offset="0.492188"/><stop stop-opacity="1" stop-color="rgb(69.285583%, 86.355591%, 92.289734%)" offset="0.5"/><stop stop-opacity="1" stop-color="rgb(69.111633%, 86.140442%, 92.408752%)" offset="0.507812"/><stop stop-opacity="1" stop-color="rgb(68.936157%, 85.926819%, 92.527771%)" offset="0.515625"/><stop stop-opacity="1" stop-color="rgb(68.760681%, 85.71167%, 92.648315%)" offset="0.523438"/><stop stop-opacity="1" stop-color="rgb(68.586731%, 85.496521%, 92.767334%)" offset="0.53125"/><stop stop-opacity="1" stop-color="rgb(68.411255%, 85.281372%, 92.886353%)" offset="0.539062"/><stop stop-opacity="1" stop-color="rgb(68.235779%, 85.066223%, 93.006897%)" offset="0.546875"/><stop stop-opacity="1" stop-color="rgb(68.061829%, 84.8526%, 93.125916%)" offset="0.554688"/><stop stop-opacity="1" stop-color="rgb(67.886353%, 84.637451%, 93.244934%)" offset="0.5625"/><stop stop-opacity="1" stop-color="rgb(67.710876%, 84.422302%, 93.365479%)" offset="0.570312"/><stop stop-opacity="1" stop-color="rgb(67.536926%, 84.207153%, 93.484497%)" offset="0.578125"/><stop stop-opacity="1" stop-color="rgb(67.36145%, 83.992004%, 93.603516%)" offset="0.585938"/><stop stop-opacity="1" stop-color="rgb(67.185974%, 83.778381%, 93.72406%)" offset="0.59375"/><stop stop-opacity="1" stop-color="rgb(67.010498%, 83.563232%, 93.843079%)" offset="0.601562"/><stop stop-opacity="1" stop-color="rgb(66.836548%, 83.348083%, 93.962097%)" offset="0.609375"/><stop stop-opacity="1" stop-color="rgb(66.661072%, 83.132935%, 94.082642%)" offset="0.617188"/><stop stop-opacity="1" stop-color="rgb(66.485596%, 82.917786%, 94.20166%)" offset="0.625"/><stop stop-opacity="1" stop-color="rgb(66.311646%, 82.704163%, 94.320679%)" offset="0.632812"/><stop stop-opacity="1" stop-color="rgb(66.136169%, 82.489014%, 94.441223%)" offset="0.640625"/><stop stop-opacity="1" stop-color="rgb(65.960693%, 82.273865%, 94.560242%)" offset="0.648438"/><stop stop-opacity="1" stop-color="rgb(65.786743%, 82.058716%, 94.67926%)" offset="0.65625"/><stop stop-opacity="1" stop-color="rgb(65.611267%, 81.843567%, 94.799805%)" offset="0.664062"/><stop stop-opacity="1" stop-color="rgb(65.435791%, 81.629944%, 94.918823%)" offset="0.671875"/><stop stop-opacity="1" stop-color="rgb(65.261841%, 81.414795%, 95.037842%)" offset="0.679688"/><stop stop-opacity="1" stop-color="rgb(65.086365%, 81.199646%, 95.158386%)" offset="0.6875"/><stop stop-opacity="1" stop-color="rgb(64.910889%, 80.984497%, 95.277405%)" offset="0.695313"/><stop stop-opacity="1" stop-color="rgb(64.736938%, 80.769348%, 95.396423%)" offset="0.703125"/><stop stop-opacity="1" stop-color="rgb(64.561462%, 80.555725%, 95.516968%)" offset="0.710938"/><stop stop-opacity="1" stop-color="rgb(64.385986%, 80.340576%, 95.635986%)" offset="0.71875"/><stop stop-opacity="1" stop-color="rgb(64.21051%, 80.125427%, 95.755005%)" offset="0.726562"/><stop stop-opacity="1" stop-color="rgb(64.03656%, 79.910278%, 95.875549%)" offset="0.734375"/><stop stop-opacity="1" stop-color="rgb(63.861084%, 79.695129%, 95.994568%)" offset="0.742188"/><stop stop-opacity="1" stop-color="rgb(63.685608%, 79.481506%, 96.113586%)" offset="0.75"/><stop stop-opacity="1" stop-color="rgb(63.511658%, 79.266357%, 96.234131%)" offset="0.757812"/><stop stop-opacity="1" stop-color="rgb(63.336182%, 79.051208%, 96.353149%)" offset="0.765625"/><stop stop-opacity="1" stop-color="rgb(63.160706%, 78.83606%, 96.472168%)" offset="0.773438"/><stop stop-opacity="1" stop-color="rgb(62.986755%, 78.620911%, 96.592712%)" offset="0.78125"/><stop stop-opacity="1" stop-color="rgb(62.811279%, 78.407288%, 96.711731%)" offset="0.789062"/><stop stop-opacity="1" stop-color="rgb(62.635803%, 78.192139%, 96.83075%)" offset="0.796875"/><stop stop-opacity="1" stop-color="rgb(62.461853%, 77.97699%, 96.951294%)" offset="0.804687"/><stop stop-opacity="1" stop-color="rgb(62.286377%, 77.761841%, 97.070312%)" offset="0.8125"/><stop stop-opacity="1" stop-color="rgb(62.110901%, 77.546692%, 97.189331%)" offset="0.820312"/><stop stop-opacity="1" stop-color="rgb(61.936951%, 77.333069%, 97.309875%)" offset="0.828125"/><stop stop-opacity="1" stop-color="rgb(61.761475%, 77.11792%, 97.428894%)" offset="0.835938"/><stop stop-opacity="1" stop-color="rgb(61.585999%, 76.902771%, 97.547913%)" offset="0.84375"/><stop stop-opacity="1" stop-color="rgb(61.410522%, 76.687622%, 97.668457%)" offset="0.851562"/><stop stop-opacity="1" stop-color="rgb(61.236572%, 76.472473%, 97.787476%)" offset="0.859375"/><stop stop-opacity="1" stop-color="rgb(61.061096%, 76.25885%, 97.906494%)" offset="0.867188"/><stop stop-opacity="1" stop-color="rgb(60.88562%, 76.043701%, 98.027039%)" offset="0.875"/><stop stop-opacity="1" stop-color="rgb(60.71167%, 75.828552%, 98.146057%)" offset="0.882812"/><stop stop-opacity="1" stop-color="rgb(60.536194%, 75.613403%, 98.265076%)" offset="0.890625"/><stop stop-opacity="1" stop-color="rgb(60.360718%, 75.398254%, 98.38562%)" offset="0.898438"/><stop stop-opacity="1" stop-color="rgb(60.186768%, 75.184631%, 98.504639%)" offset="0.90625"/><stop stop-opacity="1" stop-color="rgb(60.011292%, 74.969482%, 98.623657%)" offset="0.914062"/><stop stop-opacity="1" stop-color="rgb(59.835815%, 74.754333%, 98.744202%)" offset="0.921875"/><stop stop-opacity="1" stop-color="rgb(59.661865%, 74.539185%, 98.86322%)" offset="0.929688"/><stop stop-opacity="1" stop-color="rgb(59.486389%, 74.324036%, 98.982239%)" offset="0.9375"/><stop stop-opacity="1" stop-color="rgb(59.310913%, 74.110413%, 99.102783%)" offset="0.945312"/><stop stop-opacity="1" stop-color="rgb(59.136963%, 73.895264%, 99.221802%)" offset="0.953125"/><stop stop-opacity="1" stop-color="rgb(58.961487%, 73.680115%, 99.34082%)" offset="0.960938"/><stop stop-opacity="1" stop-color="rgb(58.786011%, 73.464966%, 99.461365%)" offset="0.96875"/><stop stop-opacity="1" stop-color="rgb(58.610535%, 73.249817%, 99.580383%)" offset="0.976562"/><stop stop-opacity="1" stop-color="rgb(58.436584%, 73.036194%, 99.699402%)" offset="0.984375"/><stop stop-opacity="1" stop-color="rgb(58.261108%, 72.821045%, 99.819946%)" offset="0.992188"/><stop stop-opacity="1" stop-color="rgb(58.085632%, 72.605896%, 99.938965%)" offset="1"/></linearGradient><clipPath id="2948aabc92"><rect x="0" width="301" y="0" height="124"/></clipPath><clipPath id="b23997361b"><path d="M 104.605469 54.292969 L 270.394531 54.292969 L 270.394531 220.082031 L 104.605469 220.082031 Z M 104.605469 54.292969 " clip-rule="nonzero"/></clipPath><clipPath id="bd2cdfba41"><path d="M 187.5 54.292969 C 141.71875 54.292969 104.605469 91.40625 104.605469 137.1875 C 104.605469 182.96875 141.71875 220.082031 187.5 220.082031 C 233.28125 220.082031 270.394531 182.96875 270.394531 137.1875 C 270.394531 91.40625 233.28125 54.292969 187.5 54.292969 Z M 187.5 54.292969 " clip-rule="nonzero"/></clipPath><clipPath id="a6730846fb"><path d="M 224 103 L 254.832031 103 L 254.832031 132.78125 L 224 132.78125 Z M 224 103 " clip-rule="nonzero"/></clipPath><clipPath id="f4a5db7a00"><path d="M 239 93.765625 L 251 93.765625 L 251 106 L 239 106 Z M 239 93.765625 " clip-rule="nonzero"/></clipPath><clipPath id="1d8ad46d05"><path d="M 223.890625 106.160156 L 231.847656 106.160156 L 231.847656 115 L 223.890625 115 Z M 223.890625 106.160156 " clip-rule="nonzero"/></clipPath><clipPath id="f00fb5d78e"><path d="M 119 140.121094 L 147.820312 140.121094 L 147.820312 168 L 119 168 Z M 119 140.121094 " clip-rule="nonzero"/></clipPath><clipPath id="ef0e220004"><path d="M 133 166 L 145 166 L 145 176.785156 L 133 176.785156 Z M 133 166 " clip-rule="nonzero"/></clipPath><clipPath id="b00ccf822e"><path d="M 118.941406 157 L 126 157 L 126 165 L 118.941406 165 Z M 118.941406 157 " clip-rule="nonzero"/></clipPath></defs><g mask="url(#ef900a69b1)"><g transform="matrix(1, 0, 0, 1, 37, 197)"><g clip-path="url(#2948aabc92)"><g clip-path="url(#abc58caeee)"><g clip-path="url(#54abd2816e)"><path fill="url(#b37b479152)" d="M 0.5 0.382812 L 0.5 123.707031 L 300.5 123.707031 L 300.5 0.382812 Z M 0.5 0.382812 " fill-rule="nonzero"/></g></g></g></g></g><g fill="#5c5d0c" fill-opacity="0.302"><g transform="translate(88.553685, 263.130333)"><g><path d="M 10.390625 0.421875 C 8.585938 0.421875 6.910156 0.128906 5.359375 -0.453125 C 3.816406 -1.046875 2.476562 -1.953125 1.34375 -3.171875 L 2.53125 -5.1875 C 3.769531 -4.039062 5.015625 -3.207031 6.265625 -2.6875 C 7.523438 -2.164062 8.859375 -1.90625 10.265625 -1.90625 C 11.984375 -1.90625 13.375 -2.25 14.4375 -2.9375 C 15.507812 -3.625 16.046875 -4.613281 16.046875 -5.90625 C 16.046875 -6.78125 15.785156 -7.445312 15.265625 -7.90625 C 14.742188 -8.375 14 -8.753906 13.03125 -9.046875 C 12.0625 -9.347656 10.898438 -9.671875 9.546875 -10.015625 C 8.023438 -10.429688 6.75 -10.867188 5.71875 -11.328125 C 4.695312 -11.796875 3.925781 -12.390625 3.40625 -13.109375 C 2.882812 -13.828125 2.625 -14.765625 2.625 -15.921875 C 2.625 -17.359375 2.976562 -18.546875 3.6875 -19.484375 C 4.40625 -20.429688 5.390625 -21.148438 6.640625 -21.640625 C 7.898438 -22.140625 9.304688 -22.390625 10.859375 -22.390625 C 12.546875 -22.390625 14.035156 -22.117188 15.328125 -21.578125 C 16.628906 -21.046875 17.6875 -20.300781 18.5 -19.34375 L 17.109375 -17.40625 C 16.316406 -18.300781 15.378906 -18.96875 14.296875 -19.40625 C 13.210938 -19.84375 12.007812 -20.0625 10.6875 -20.0625 C 9.78125 -20.0625 8.921875 -19.941406 8.109375 -19.703125 C 7.296875 -19.460938 6.628906 -19.066406 6.109375 -18.515625 C 5.585938 -17.972656 5.328125 -17.222656 5.328125 -16.265625 C 5.328125 -15.472656 5.519531 -14.859375 5.90625 -14.421875 C 6.300781 -13.984375 6.894531 -13.613281 7.6875 -13.3125 C 8.476562 -13.019531 9.445312 -12.707031 10.59375 -12.375 C 12.257812 -11.925781 13.710938 -11.46875 14.953125 -11 C 16.191406 -10.539062 17.148438 -9.941406 17.828125 -9.203125 C 18.503906 -8.472656 18.84375 -7.445312 18.84375 -6.125 C 18.84375 -4.070312 18.066406 -2.46875 16.515625 -1.3125 C 14.960938 -0.15625 12.921875 0.421875 10.390625 0.421875 Z M 10.390625 0.421875 "/></g></g></g><g fill="#5c5d0c" fill-opacity="0.302"><g transform="translate(107.263041, 263.130333)"><g><path d="M 2.953125 -9.078125 L 2.953125 -22 L 5.828125 -22 L 5.828125 -9.59375 C 5.828125 -7.082031 6.253906 -5.207031 7.109375 -3.96875 C 7.972656 -2.726562 9.25 -2.109375 10.9375 -2.109375 C 12.0625 -2.109375 13.148438 -2.351562 14.203125 -2.84375 C 15.265625 -3.34375 16.203125 -4.046875 17.015625 -4.953125 C 17.835938 -5.867188 18.457031 -6.9375 18.875 -8.15625 L 18.875 -22 L 21.75 -22 L 21.75 -3.46875 C 21.75 -3.070312 21.832031 -2.78125 22 -2.59375 C 22.164062 -2.414062 22.421875 -2.3125 22.765625 -2.28125 L 22.765625 0 C 22.421875 0.03125 22.148438 0.0507812 21.953125 0.0625 C 21.765625 0.0703125 21.582031 0.078125 21.40625 0.078125 C 20.84375 0.0234375 20.359375 -0.195312 19.953125 -0.59375 C 19.546875 -0.988281 19.328125 -1.46875 19.296875 -2.03125 L 19.21875 -4.984375 C 18.257812 -3.296875 16.957031 -1.972656 15.3125 -1.015625 C 13.664062 -0.0546875 11.882812 0.421875 9.96875 0.421875 C 7.65625 0.421875 5.90625 -0.378906 4.71875 -1.984375 C 3.539062 -3.585938 2.953125 -5.953125 2.953125 -9.078125 Z M 2.953125 -9.078125 "/></g></g></g><g fill="#5c5d0c" fill-opacity="0.302"><g transform="translate(130.660412, 263.130333)"><g><path d="M 10.390625 0.421875 C 8.585938 0.421875 6.910156 0.128906 5.359375 -0.453125 C 3.816406 -1.046875 2.476562 -1.953125 1.34375 -3.171875 L 2.53125 -5.1875 C 3.769531 -4.039062 5.015625 -3.207031 6.265625 -2.6875 C 7.523438 -2.164062 8.859375 -1.90625 10.265625 -1.90625 C 11.984375 -1.90625 13.375 -2.25 14.4375 -2.9375 C 15.507812 -3.625 16.046875 -4.613281 16.046875 -5.90625 C 16.046875 -6.78125 15.785156 -7.445312 15.265625 -7.90625 C 14.742188 -8.375 14 -8.753906 13.03125 -9.046875 C 12.0625 -9.347656 10.898438 -9.671875 9.546875 -10.015625 C 8.023438 -10.429688 6.75 -10.867188 5.71875 -11.328125 C 4.695312 -11.796875 3.925781 -12.390625 3.40625 -13.109375 C 2.882812 -13.828125 2.625 -14.765625 2.625 -15.921875 C 2.625 -17.359375 2.976562 -18.546875 3.6875 -19.484375 C 4.40625 -20.429688 5.390625 -21.148438 6.640625 -21.640625 C 7.898438 -22.140625 9.304688 -22.390625 10.859375 -22.390625 C 12.546875 -22.390625 14.035156 -22.117188 15.328125 -21.578125 C 16.628906 -21.046875 17.6875 -20.300781 18.5 -19.34375 L 17.109375 -17.40625 C 16.316406 -18.300781 15.378906 -18.96875 14.296875 -19.40625 C 13.210938 -19.84375 12.007812 -20.0625 10.6875 -20.0625 C 9.78125 -20.0625 8.921875 -19.941406 8.109375 -19.703125 C 7.296875 -19.460938 6.628906 -19.066406 6.109375 -18.515625 C 5.585938 -17.972656 5.328125 -17.222656 5.328125 -16.265625 C 5.328125 -15.472656 5.519531 -14.859375 5.90625 -14.421875 C 6.300781 -13.984375 6.894531 -13.613281 7.6875 -13.3125 C 8.476562 -13.019531 9.445312 -12.707031 10.59375 -12.375 C 12.257812 -11.925781 13.710938 -11.46875 14.953125 -11 C 16.191406 -10.539062 17.148438 -9.941406 17.828125 -9.203125 C 18.503906 -8.472656 18.84375 -7.445312 18.84375 -6.125 C 18.84375 -4.070312 18.066406 -2.46875 16.515625 -1.3125 C 14.960938 -0.15625 12.921875 0.421875 10.390625 0.421875 Z M 10.390625 0.421875 "/></g></g></g><g fill="#5c5d0c" fill-opacity="0.302"><g transform="translate(149.36977, 263.130333)"><g><path d="M 13.71875 -1.0625 C 13.5 -0.96875 13.148438 -0.804688 12.671875 -0.578125 C 12.191406 -0.359375 11.613281 -0.164062 10.9375 0 C 10.257812 0.164062 9.53125 0.25 8.75 0.25 C 7.925781 0.25 7.15625 0.0976562 6.4375 -0.203125 C 5.71875 -0.515625 5.144531 -0.988281 4.71875 -1.625 C 4.300781 -2.257812 4.09375 -3.039062 4.09375 -3.96875 L 4.09375 -19.71875 L 1.0625 -19.71875 L 1.0625 -22 L 4.09375 -22 L 4.09375 -29.4375 L 6.96875 -29.4375 L 6.96875 -22 L 12.03125 -22 L 12.03125 -19.71875 L 6.96875 -19.71875 L 6.96875 -4.765625 C 7.019531 -3.984375 7.304688 -3.394531 7.828125 -3 C 8.347656 -2.601562 8.945312 -2.40625 9.625 -2.40625 C 10.414062 -2.40625 11.132812 -2.535156 11.78125 -2.796875 C 12.425781 -3.066406 12.820312 -3.257812 12.96875 -3.375 Z M 13.71875 -1.0625 "/></g></g></g><g fill="#5c5d0c" fill-opacity="0.302"><g transform="translate(161.828431, 263.130333)"><g><path d="M 1.390625 -6.328125 C 1.390625 -7.710938 1.785156 -8.90625 2.578125 -9.90625 C 3.367188 -10.90625 4.457031 -11.675781 5.84375 -12.21875 C 7.238281 -12.769531 8.851562 -13.046875 10.6875 -13.046875 C 11.757812 -13.046875 12.867188 -12.960938 14.015625 -12.796875 C 15.171875 -12.628906 16.203125 -12.375 17.109375 -12.03125 L 17.109375 -13.890625 C 17.109375 -15.753906 16.554688 -17.234375 15.453125 -18.328125 C 14.359375 -19.429688 12.835938 -19.984375 10.890625 -19.984375 C 9.710938 -19.984375 8.550781 -19.765625 7.40625 -19.328125 C 6.269531 -18.890625 5.082031 -18.25 3.84375 -17.40625 L 2.75 -19.421875 C 4.1875 -20.410156 5.59375 -21.148438 6.96875 -21.640625 C 8.34375 -22.140625 9.75 -22.390625 11.1875 -22.390625 C 13.894531 -22.390625 16.035156 -21.613281 17.609375 -20.0625 C 19.191406 -18.507812 19.984375 -16.367188 19.984375 -13.640625 L 19.984375 -3.46875 C 19.984375 -3.070312 20.066406 -2.78125 20.234375 -2.59375 C 20.398438 -2.414062 20.664062 -2.3125 21.03125 -2.28125 L 21.03125 0 C 20.71875 0.03125 20.445312 0.0546875 20.21875 0.078125 C 20 0.109375 19.832031 0.109375 19.71875 0.078125 C 19.019531 0.0546875 18.484375 -0.160156 18.109375 -0.578125 C 17.742188 -1.003906 17.550781 -1.457031 17.53125 -1.9375 L 17.484375 -3.546875 C 16.492188 -2.273438 15.210938 -1.296875 13.640625 -0.609375 C 12.066406 0.078125 10.460938 0.421875 8.828125 0.421875 C 7.421875 0.421875 6.144531 0.117188 5 -0.484375 C 3.863281 -1.085938 2.976562 -1.90625 2.34375 -2.9375 C 1.707031 -3.96875 1.390625 -5.097656 1.390625 -6.328125 Z M 16.140625 -4.640625 C 16.441406 -5.035156 16.675781 -5.414062 16.84375 -5.78125 C 17.019531 -6.144531 17.109375 -6.46875 17.109375 -6.75 L 17.109375 -9.96875 C 16.148438 -10.332031 15.15625 -10.613281 14.125 -10.8125 C 13.09375 -11.007812 12.054688 -11.109375 11.015625 -11.109375 C 8.960938 -11.109375 7.300781 -10.695312 6.03125 -9.875 C 4.769531 -9.0625 4.140625 -7.953125 4.140625 -6.546875 C 4.140625 -5.734375 4.347656 -4.96875 4.765625 -4.25 C 5.191406 -3.53125 5.8125 -2.9375 6.625 -2.46875 C 7.445312 -2.007812 8.40625 -1.78125 9.5 -1.78125 C 10.882812 -1.78125 12.171875 -2.046875 13.359375 -2.578125 C 14.554688 -3.109375 15.484375 -3.796875 16.140625 -4.640625 Z M 16.140625 -4.640625 "/></g></g></g><g fill="#5c5d0c" fill-opacity="0.302"><g transform="translate(183.15632, 263.130333)"><g><path d="M 3.171875 0 L 3.171875 -22 L 6.046875 -22 L 6.046875 0 Z M 3.171875 -26.609375 L 3.171875 -30.828125 L 6.046875 -30.828125 L 6.046875 -26.609375 Z M 3.171875 -26.609375 "/></g></g></g><g fill="#5c5d0c" fill-opacity="0.302"><g transform="translate(190.673555, 263.130333)"><g><path d="M 21.671875 0 L 18.796875 0 L 18.796875 -12.296875 C 18.796875 -14.878906 18.414062 -16.769531 17.65625 -17.96875 C 16.894531 -19.164062 15.695312 -19.765625 14.0625 -19.765625 C 12.9375 -19.765625 11.820312 -19.488281 10.71875 -18.9375 C 9.625 -18.394531 8.660156 -17.648438 7.828125 -16.703125 C 7.003906 -15.753906 6.410156 -14.675781 6.046875 -13.46875 L 6.046875 0 L 3.171875 0 L 3.171875 -22 L 5.78125 -22 L 5.78125 -17.015625 C 6.375 -18.085938 7.148438 -19.023438 8.109375 -19.828125 C 9.066406 -20.628906 10.148438 -21.253906 11.359375 -21.703125 C 12.566406 -22.160156 13.820312 -22.390625 15.125 -22.390625 C 16.332031 -22.390625 17.359375 -22.160156 18.203125 -21.703125 C 19.046875 -21.253906 19.71875 -20.613281 20.21875 -19.78125 C 20.726562 -18.957031 21.097656 -17.957031 21.328125 -16.78125 C 21.554688 -15.613281 21.671875 -14.3125 21.671875 -12.875 Z M 21.671875 0 "/></g></g></g><g fill="#5c5d0c" fill-opacity="0.302"><g transform="translate(213.606357, 263.130333)"><g><path d="M 1.390625 -6.328125 C 1.390625 -7.710938 1.785156 -8.90625 2.578125 -9.90625 C 3.367188 -10.90625 4.457031 -11.675781 5.84375 -12.21875 C 7.238281 -12.769531 8.851562 -13.046875 10.6875 -13.046875 C 11.757812 -13.046875 12.867188 -12.960938 14.015625 -12.796875 C 15.171875 -12.628906 16.203125 -12.375 17.109375 -12.03125 L 17.109375 -13.890625 C 17.109375 -15.753906 16.554688 -17.234375 15.453125 -18.328125 C 14.359375 -19.429688 12.835938 -19.984375 10.890625 -19.984375 C 9.710938 -19.984375 8.550781 -19.765625 7.40625 -19.328125 C 6.269531 -18.890625 5.082031 -18.25 3.84375 -17.40625 L 2.75 -19.421875 C 4.1875 -20.410156 5.59375 -21.148438 6.96875 -21.640625 C 8.34375 -22.140625 9.75 -22.390625 11.1875 -22.390625 C 13.894531 -22.390625 16.035156 -21.613281 17.609375 -20.0625 C 19.191406 -18.507812 19.984375 -16.367188 19.984375 -13.640625 L 19.984375 -3.46875 C 19.984375 -3.070312 20.066406 -2.78125 20.234375 -2.59375 C 20.398438 -2.414062 20.664062 -2.3125 21.03125 -2.28125 L 21.03125 0 C 20.71875 0.03125 20.445312 0.0546875 20.21875 0.078125 C 20 0.109375 19.832031 0.109375 19.71875 0.078125 C 19.019531 0.0546875 18.484375 -0.160156 18.109375 -0.578125 C 17.742188 -1.003906 17.550781 -1.457031 17.53125 -1.9375 L 17.484375 -3.546875 C 16.492188 -2.273438 15.210938 -1.296875 13.640625 -0.609375 C 12.066406 0.078125 10.460938 0.421875 8.828125 0.421875 C 7.421875 0.421875 6.144531 0.117188 5 -0.484375 C 3.863281 -1.085938 2.976562 -1.90625 2.34375 -2.9375 C 1.707031 -3.96875 1.390625 -5.097656 1.390625 -6.328125 Z M 16.140625 -4.640625 C 16.441406 -5.035156 16.675781 -5.414062 16.84375 -5.78125 C 17.019531 -6.144531 17.109375 -6.46875 17.109375 -6.75 L 17.109375 -9.96875 C 16.148438 -10.332031 15.15625 -10.613281 14.125 -10.8125 C 13.09375 -11.007812 12.054688 -11.109375 11.015625 -11.109375 C 8.960938 -11.109375 7.300781 -10.695312 6.03125 -9.875 C 4.769531 -9.0625 4.140625 -7.953125 4.140625 -6.546875 C 4.140625 -5.734375 4.347656 -4.96875 4.765625 -4.25 C 5.191406 -3.53125 5.8125 -2.9375 6.625 -2.46875 C 7.445312 -2.007812 8.40625 -1.78125 9.5 -1.78125 C 10.882812 -1.78125 12.171875 -2.046875 13.359375 -2.578125 C 14.554688 -3.109375 15.484375 -3.796875 16.140625 -4.640625 Z M 16.140625 -4.640625 "/></g></g></g><g fill="#5c5d0c" fill-opacity="0.302"><g transform="translate(234.934252, 263.130333)"><g><path d="M 13.9375 0.421875 C 12.21875 0.421875 10.625 -0.0195312 9.15625 -0.90625 C 7.695312 -1.789062 6.5625 -2.910156 5.75 -4.265625 L 5.75 0 L 3.171875 0 L 3.171875 -30.828125 L 6.046875 -30.828125 L 6.046875 -17.40625 C 7.023438 -18.894531 8.203125 -20.097656 9.578125 -21.015625 C 10.960938 -21.929688 12.570312 -22.390625 14.40625 -22.390625 C 15.945312 -22.390625 17.332031 -22.0625 18.5625 -21.40625 C 19.789062 -20.757812 20.835938 -19.894531 21.703125 -18.8125 C 22.578125 -17.726562 23.238281 -16.503906 23.6875 -15.140625 C 24.144531 -13.773438 24.375 -12.375 24.375 -10.9375 C 24.375 -9.382812 24.113281 -7.929688 23.59375 -6.578125 C 23.070312 -5.234375 22.332031 -4.03125 21.375 -2.96875 C 20.414062 -1.914062 19.304688 -1.085938 18.046875 -0.484375 C 16.796875 0.117188 15.425781 0.421875 13.9375 0.421875 Z M 13.265625 -2.109375 C 14.441406 -2.109375 15.535156 -2.347656 16.546875 -2.828125 C 17.566406 -3.304688 18.441406 -3.96875 19.171875 -4.8125 C 19.898438 -5.65625 20.460938 -6.601562 20.859375 -7.65625 C 21.253906 -8.71875 21.453125 -9.8125 21.453125 -10.9375 C 21.453125 -12.488281 21.117188 -13.945312 20.453125 -15.3125 C 19.796875 -16.675781 18.882812 -17.769531 17.71875 -18.59375 C 16.550781 -19.425781 15.175781 -19.84375 13.59375 -19.84375 C 12.46875 -19.84375 11.421875 -19.585938 10.453125 -19.078125 C 9.484375 -18.578125 8.625 -17.910156 7.875 -17.078125 C 7.125 -16.253906 6.515625 -15.347656 6.046875 -14.359375 L 6.046875 -7.515625 C 6.148438 -6.753906 6.441406 -6.039062 6.921875 -5.375 C 7.398438 -4.71875 8 -4.148438 8.71875 -3.671875 C 9.4375 -3.191406 10.1875 -2.8125 10.96875 -2.53125 C 11.757812 -2.25 12.523438 -2.109375 13.265625 -2.109375 Z M 13.265625 -2.109375 "/></g></g></g><g fill="#5c5d0c" fill-opacity="0.302"><g transform="translate(259.303024, 263.130333)"><g><path d="M 3.296875 -30.828125 L 6.171875 -30.828125 L 6.171875 -4.984375 C 6.171875 -3.890625 6.363281 -3.171875 6.75 -2.828125 C 7.144531 -2.492188 7.625 -2.328125 8.1875 -2.328125 C 8.695312 -2.328125 9.203125 -2.378906 9.703125 -2.484375 C 10.210938 -2.597656 10.648438 -2.710938 11.015625 -2.828125 L 11.53125 -0.5 C 11 -0.28125 10.34375 -0.101562 9.5625 0.03125 C 8.789062 0.175781 8.125 0.25 7.5625 0.25 C 6.257812 0.25 5.222656 -0.128906 4.453125 -0.890625 C 3.679688 -1.648438 3.296875 -2.691406 3.296875 -4.015625 Z M 3.296875 -30.828125 "/></g></g></g><g fill="#5c5d0c" fill-opacity="0.302"><g transform="translate(269.100917, 263.130333)"><g><path d="M 12.671875 0.421875 C 11.097656 0.421875 9.632812 0.117188 8.28125 -0.484375 C 6.925781 -1.085938 5.753906 -1.914062 4.765625 -2.96875 C 3.785156 -4.03125 3.019531 -5.25 2.46875 -6.625 C 1.914062 -8.007812 1.640625 -9.488281 1.640625 -11.0625 C 1.640625 -13.125 2.113281 -15.007812 3.0625 -16.71875 C 4.007812 -18.4375 5.3125 -19.8125 6.96875 -20.84375 C 8.625 -21.875 10.507812 -22.390625 12.625 -22.390625 C 14.789062 -22.390625 16.679688 -21.867188 18.296875 -20.828125 C 19.921875 -19.785156 21.195312 -18.410156 22.125 -16.703125 C 23.0625 -15.003906 23.53125 -13.140625 23.53125 -11.109375 C 23.53125 -10.878906 23.53125 -10.660156 23.53125 -10.453125 C 23.53125 -10.242188 23.515625 -10.082031 23.484375 -9.96875 L 4.640625 -9.96875 C 4.785156 -8.394531 5.226562 -6.992188 5.96875 -5.765625 C 6.71875 -4.535156 7.691406 -3.5625 8.890625 -2.84375 C 10.085938 -2.132812 11.390625 -1.78125 12.796875 -1.78125 C 14.234375 -1.78125 15.59375 -2.144531 16.875 -2.875 C 18.15625 -3.601562 19.046875 -4.5625 19.546875 -5.75 L 22.046875 -5.0625 C 21.597656 -4.019531 20.90625 -3.078125 19.96875 -2.234375 C 19.039062 -1.390625 17.953125 -0.734375 16.703125 -0.265625 C 15.453125 0.191406 14.109375 0.421875 12.671875 0.421875 Z M 4.5625 -12.03125 L 20.828125 -12.03125 C 20.710938 -13.632812 20.28125 -15.039062 19.53125 -16.25 C 18.789062 -17.46875 17.820312 -18.421875 16.625 -19.109375 C 15.425781 -19.796875 14.109375 -20.140625 12.671875 -20.140625 C 11.234375 -20.140625 9.921875 -19.796875 8.734375 -19.109375 C 7.554688 -18.421875 6.59375 -17.460938 5.84375 -16.234375 C 5.101562 -15.015625 4.675781 -13.613281 4.5625 -12.03125 Z M 4.5625 -12.03125 "/></g></g></g><g fill="#5c5d0c" fill-opacity="0.502"><g transform="translate(86.686622, 261.263275)"><g><path d="M 10.390625 0.421875 C 8.585938 0.421875 6.910156 0.128906 5.359375 -0.453125 C 3.816406 -1.046875 2.476562 -1.953125 1.34375 -3.171875 L 2.53125 -5.1875 C 3.769531 -4.039062 5.015625 -3.207031 6.265625 -2.6875 C 7.523438 -2.164062 8.859375 -1.90625 10.265625 -1.90625 C 11.984375 -1.90625 13.375 -2.25 14.4375 -2.9375 C 15.507812 -3.625 16.046875 -4.613281 16.046875 -5.90625 C 16.046875 -6.78125 15.785156 -7.445312 15.265625 -7.90625 C 14.742188 -8.375 14 -8.753906 13.03125 -9.046875 C 12.0625 -9.347656 10.898438 -9.671875 9.546875 -10.015625 C 8.023438 -10.429688 6.75 -10.867188 5.71875 -11.328125 C 4.695312 -11.796875 3.925781 -12.390625 3.40625 -13.109375 C 2.882812 -13.828125 2.625 -14.765625 2.625 -15.921875 C 2.625 -17.359375 2.976562 -18.546875 3.6875 -19.484375 C 4.40625 -20.429688 5.390625 -21.148438 6.640625 -21.640625 C 7.898438 -22.140625 9.304688 -22.390625 10.859375 -22.390625 C 12.546875 -22.390625 14.035156 -22.117188 15.328125 -21.578125 C 16.628906 -21.046875 17.6875 -20.300781 18.5 -19.34375 L 17.109375 -17.40625 C 16.316406 -18.300781 15.378906 -18.96875 14.296875 -19.40625 C 13.210938 -19.84375 12.007812 -20.0625 10.6875 -20.0625 C 9.78125 -20.0625 8.921875 -19.941406 8.109375 -19.703125 C 7.296875 -19.460938 6.628906 -19.066406 6.109375 -18.515625 C 5.585938 -17.972656 5.328125 -17.222656 5.328125 -16.265625 C 5.328125 -15.472656 5.519531 -14.859375 5.90625 -14.421875 C 6.300781 -13.984375 6.894531 -13.613281 7.6875 -13.3125 C 8.476562 -13.019531 9.445312 -12.707031 10.59375 -12.375 C 12.257812 -11.925781 13.710938 -11.46875 14.953125 -11 C 16.191406 -10.539062 17.148438 -9.941406 17.828125 -9.203125 C 18.503906 -8.472656 18.84375 -7.445312 18.84375 -6.125 C 18.84375 -4.070312 18.066406 -2.46875 16.515625 -1.3125 C 14.960938 -0.15625 12.921875 0.421875 10.390625 0.421875 Z M 10.390625 0.421875 "/></g></g></g><g fill="#5c5d0c" fill-opacity="0.502"><g transform="translate(105.395978, 261.263275)"><g><path d="M 2.953125 -9.078125 L 2.953125 -22 L 5.828125 -22 L 5.828125 -9.59375 C 5.828125 -7.082031 6.253906 -5.207031 7.109375 -3.96875 C 7.972656 -2.726562 9.25 -2.109375 10.9375 -2.109375 C 12.0625 -2.109375 13.148438 -2.351562 14.203125 -2.84375 C 15.265625 -3.34375 16.203125 -4.046875 17.015625 -4.953125 C 17.835938 -5.867188 18.457031 -6.9375 18.875 -8.15625 L 18.875 -22 L 21.75 -22 L 21.75 -3.46875 C 21.75 -3.070312 21.832031 -2.78125 22 -2.59375 C 22.164062 -2.414062 22.421875 -2.3125 22.765625 -2.28125 L 22.765625 0 C 22.421875 0.03125 22.148438 0.0507812 21.953125 0.0625 C 21.765625 0.0703125 21.582031 0.078125 21.40625 0.078125 C 20.84375 0.0234375 20.359375 -0.195312 19.953125 -0.59375 C 19.546875 -0.988281 19.328125 -1.46875 19.296875 -2.03125 L 19.21875 -4.984375 C 18.257812 -3.296875 16.957031 -1.972656 15.3125 -1.015625 C 13.664062 -0.0546875 11.882812 0.421875 9.96875 0.421875 C 7.65625 0.421875 5.90625 -0.378906 4.71875 -1.984375 C 3.539062 -3.585938 2.953125 -5.953125 2.953125 -9.078125 Z M 2.953125 -9.078125 "/></g></g></g><g fill="#5c5d0c" fill-opacity="0.502"><g transform="translate(128.793349, 261.263275)"><g><path d="M 10.390625 0.421875 C 8.585938 0.421875 6.910156 0.128906 5.359375 -0.453125 C 3.816406 -1.046875 2.476562 -1.953125 1.34375 -3.171875 L 2.53125 -5.1875 C 3.769531 -4.039062 5.015625 -3.207031 6.265625 -2.6875 C 7.523438 -2.164062 8.859375 -1.90625 10.265625 -1.90625 C 11.984375 -1.90625 13.375 -2.25 14.4375 -2.9375 C 15.507812 -3.625 16.046875 -4.613281 16.046875 -5.90625 C 16.046875 -6.78125 15.785156 -7.445312 15.265625 -7.90625 C 14.742188 -8.375 14 -8.753906 13.03125 -9.046875 C 12.0625 -9.347656 10.898438 -9.671875 9.546875 -10.015625 C 8.023438 -10.429688 6.75 -10.867188 5.71875 -11.328125 C 4.695312 -11.796875 3.925781 -12.390625 3.40625 -13.109375 C 2.882812 -13.828125 2.625 -14.765625 2.625 -15.921875 C 2.625 -17.359375 2.976562 -18.546875 3.6875 -19.484375 C 4.40625 -20.429688 5.390625 -21.148438 6.640625 -21.640625 C 7.898438 -22.140625 9.304688 -22.390625 10.859375 -22.390625 C 12.546875 -22.390625 14.035156 -22.117188 15.328125 -21.578125 C 16.628906 -21.046875 17.6875 -20.300781 18.5 -19.34375 L 17.109375 -17.40625 C 16.316406 -18.300781 15.378906 -18.96875 14.296875 -19.40625 C 13.210938 -19.84375 12.007812 -20.0625 10.6875 -20.0625 C 9.78125 -20.0625 8.921875 -19.941406 8.109375 -19.703125 C 7.296875 -19.460938 6.628906 -19.066406 6.109375 -18.515625 C 5.585938 -17.972656 5.328125 -17.222656 5.328125 -16.265625 C 5.328125 -15.472656 5.519531 -14.859375 5.90625 -14.421875 C 6.300781 -13.984375 6.894531 -13.613281 7.6875 -13.3125 C 8.476562 -13.019531 9.445312 -12.707031 10.59375 -12.375 C 12.257812 -11.925781 13.710938 -11.46875 14.953125 -11 C 16.191406 -10.539062 17.148438 -9.941406 17.828125 -9.203125 C 18.503906 -8.472656 18.84375 -7.445312 18.84375 -6.125 C 18.84375 -4.070312 18.066406 -2.46875 16.515625 -1.3125 C 14.960938 -0.15625 12.921875 0.421875 10.390625 0.421875 Z M 10.390625 0.421875 "/></g></g></g><g fill="#5c5d0c" fill-opacity="0.502"><g transform="translate(147.502707, 261.263275)"><g><path d="M 13.71875 -1.0625 C 13.5 -0.96875 13.148438 -0.804688 12.671875 -0.578125 C 12.191406 -0.359375 11.613281 -0.164062 10.9375 0 C 10.257812 0.164062 9.53125 0.25 8.75 0.25 C 7.925781 0.25 7.15625 0.0976562 6.4375 -0.203125 C 5.71875 -0.515625 5.144531 -0.988281 4.71875 -1.625 C 4.300781 -2.257812 4.09375 -3.039062 4.09375 -3.96875 L 4.09375 -19.71875 L 1.0625 -19.71875 L 1.0625 -22 L 4.09375 -22 L 4.09375 -29.4375 L 6.96875 -29.4375 L 6.96875 -22 L 12.03125 -22 L 12.03125 -19.71875 L 6.96875 -19.71875 L 6.96875 -4.765625 C 7.019531 -3.984375 7.304688 -3.394531 7.828125 -3 C 8.347656 -2.601562 8.945312 -2.40625 9.625 -2.40625 C 10.414062 -2.40625 11.132812 -2.535156 11.78125 -2.796875 C 12.425781 -3.066406 12.820312 -3.257812 12.96875 -3.375 Z M 13.71875 -1.0625 "/></g></g></g><g fill="#5c5d0c" fill-opacity="0.502"><g transform="translate(159.961368, 261.263275)"><g><path d="M 1.390625 -6.328125 C 1.390625 -7.710938 1.785156 -8.90625 2.578125 -9.90625 C 3.367188 -10.90625 4.457031 -11.675781 5.84375 -12.21875 C 7.238281 -12.769531 8.851562 -13.046875 10.6875 -13.046875 C 11.757812 -13.046875 12.867188 -12.960938 14.015625 -12.796875 C 15.171875 -12.628906 16.203125 -12.375 17.109375 -12.03125 L 17.109375 -13.890625 C 17.109375 -15.753906 16.554688 -17.234375 15.453125 -18.328125 C 14.359375 -19.429688 12.835938 -19.984375 10.890625 -19.984375 C 9.710938 -19.984375 8.550781 -19.765625 7.40625 -19.328125 C 6.269531 -18.890625 5.082031 -18.25 3.84375 -17.40625 L 2.75 -19.421875 C 4.1875 -20.410156 5.59375 -21.148438 6.96875 -21.640625 C 8.34375 -22.140625 9.75 -22.390625 11.1875 -22.390625 C 13.894531 -22.390625 16.035156 -21.613281 17.609375 -20.0625 C 19.191406 -18.507812 19.984375 -16.367188 19.984375 -13.640625 L 19.984375 -3.46875 C 19.984375 -3.070312 20.066406 -2.78125 20.234375 -2.59375 C 20.398438 -2.414062 20.664062 -2.3125 21.03125 -2.28125 L 21.03125 0 C 20.71875 0.03125 20.445312 0.0546875 20.21875 0.078125 C 20 0.109375 19.832031 0.109375 19.71875 0.078125 C 19.019531 0.0546875 18.484375 -0.160156 18.109375 -0.578125 C 17.742188 -1.003906 17.550781 -1.457031 17.53125 -1.9375 L 17.484375 -3.546875 C 16.492188 -2.273438 15.210938 -1.296875 13.640625 -0.609375 C 12.066406 0.078125 10.460938 0.421875 8.828125 0.421875 C 7.421875 0.421875 6.144531 0.117188 5 -0.484375 C 3.863281 -1.085938 2.976562 -1.90625 2.34375 -2.9375 C 1.707031 -3.96875 1.390625 -5.097656 1.390625 -6.328125 Z M 16.140625 -4.640625 C 16.441406 -5.035156 16.675781 -5.414062 16.84375 -5.78125 C 17.019531 -6.144531 17.109375 -6.46875 17.109375 -6.75 L 17.109375 -9.96875 C 16.148438 -10.332031 15.15625 -10.613281 14.125 -10.8125 C 13.09375 -11.007812 12.054688 -11.109375 11.015625 -11.109375 C 8.960938 -11.109375 7.300781 -10.695312 6.03125 -9.875 C 4.769531 -9.0625 4.140625 -7.953125 4.140625 -6.546875 C 4.140625 -5.734375 4.347656 -4.96875 4.765625 -4.25 C 5.191406 -3.53125 5.8125 -2.9375 6.625 -2.46875 C 7.445312 -2.007812 8.40625 -1.78125 9.5 -1.78125 C 10.882812 -1.78125 12.171875 -2.046875 13.359375 -2.578125 C 14.554688 -3.109375 15.484375 -3.796875 16.140625 -4.640625 Z M 16.140625 -4.640625 "/></g></g></g><g fill="#5c5d0c" fill-opacity="0.502"><g transform="translate(181.289257, 261.263275)"><g><path d="M 3.171875 0 L 3.171875 -22 L 6.046875 -22 L 6.046875 0 Z M 3.171875 -26.609375 L 3.171875 -30.828125 L 6.046875 -30.828125 L 6.046875 -26.609375 Z M 3.171875 -26.609375 "/></g></g></g><g fill="#5c5d0c" fill-opacity="0.502"><g transform="translate(188.806491, 261.263275)"><g><path d="M 21.671875 0 L 18.796875 0 L 18.796875 -12.296875 C 18.796875 -14.878906 18.414062 -16.769531 17.65625 -17.96875 C 16.894531 -19.164062 15.695312 -19.765625 14.0625 -19.765625 C 12.9375 -19.765625 11.820312 -19.488281 10.71875 -18.9375 C 9.625 -18.394531 8.660156 -17.648438 7.828125 -16.703125 C 7.003906 -15.753906 6.410156 -14.675781 6.046875 -13.46875 L 6.046875 0 L 3.171875 0 L 3.171875 -22 L 5.78125 -22 L 5.78125 -17.015625 C 6.375 -18.085938 7.148438 -19.023438 8.109375 -19.828125 C 9.066406 -20.628906 10.148438 -21.253906 11.359375 -21.703125 C 12.566406 -22.160156 13.820312 -22.390625 15.125 -22.390625 C 16.332031 -22.390625 17.359375 -22.160156 18.203125 -21.703125 C 19.046875 -21.253906 19.71875 -20.613281 20.21875 -19.78125 C 20.726562 -18.957031 21.097656 -17.957031 21.328125 -16.78125 C 21.554688 -15.613281 21.671875 -14.3125 21.671875 -12.875 Z M 21.671875 0 "/></g></g></g><g fill="#5c5d0c" fill-opacity="0.502"><g transform="translate(211.739294, 261.263275)"><g><path d="M 1.390625 -6.328125 C 1.390625 -7.710938 1.785156 -8.90625 2.578125 -9.90625 C 3.367188 -10.90625 4.457031 -11.675781 5.84375 -12.21875 C 7.238281 -12.769531 8.851562 -13.046875 10.6875 -13.046875 C 11.757812 -13.046875 12.867188 -12.960938 14.015625 -12.796875 C 15.171875 -12.628906 16.203125 -12.375 17.109375 -12.03125 L 17.109375 -13.890625 C 17.109375 -15.753906 16.554688 -17.234375 15.453125 -18.328125 C 14.359375 -19.429688 12.835938 -19.984375 10.890625 -19.984375 C 9.710938 -19.984375 8.550781 -19.765625 7.40625 -19.328125 C 6.269531 -18.890625 5.082031 -18.25 3.84375 -17.40625 L 2.75 -19.421875 C 4.1875 -20.410156 5.59375 -21.148438 6.96875 -21.640625 C 8.34375 -22.140625 9.75 -22.390625 11.1875 -22.390625 C 13.894531 -22.390625 16.035156 -21.613281 17.609375 -20.0625 C 19.191406 -18.507812 19.984375 -16.367188 19.984375 -13.640625 L 19.984375 -3.46875 C 19.984375 -3.070312 20.066406 -2.78125 20.234375 -2.59375 C 20.398438 -2.414062 20.664062 -2.3125 21.03125 -2.28125 L 21.03125 0 C 20.71875 0.03125 20.445312 0.0546875 20.21875 0.078125 C 20 0.109375 19.832031 0.109375 19.71875 0.078125 C 19.019531 0.0546875 18.484375 -0.160156 18.109375 -0.578125 C 17.742188 -1.003906 17.550781 -1.457031 17.53125 -1.9375 L 17.484375 -3.546875 C 16.492188 -2.273438 15.210938 -1.296875 13.640625 -0.609375 C 12.066406 0.078125 10.460938 0.421875 8.828125 0.421875 C 7.421875 0.421875 6.144531 0.117188 5 -0.484375 C 3.863281 -1.085938 2.976562 -1.90625 2.34375 -2.9375 C 1.707031 -3.96875 1.390625 -5.097656 1.390625 -6.328125 Z M 16.140625 -4.640625 C 16.441406 -5.035156 16.675781 -5.414062 16.84375 -5.78125 C 17.019531 -6.144531 17.109375 -6.46875 17.109375 -6.75 L 17.109375 -9.96875 C 16.148438 -10.332031 15.15625 -10.613281 14.125 -10.8125 C 13.09375 -11.007812 12.054688 -11.109375 11.015625 -11.109375 C 8.960938 -11.109375 7.300781 -10.695312 6.03125 -9.875 C 4.769531 -9.0625 4.140625 -7.953125 4.140625 -6.546875 C 4.140625 -5.734375 4.347656 -4.96875 4.765625 -4.25 C 5.191406 -3.53125 5.8125 -2.9375 6.625 -2.46875 C 7.445312 -2.007812 8.40625 -1.78125 9.5 -1.78125 C 10.882812 -1.78125 12.171875 -2.046875 13.359375 -2.578125 C 14.554688 -3.109375 15.484375 -3.796875 16.140625 -4.640625 Z M 16.140625 -4.640625 "/></g></g></g><g fill="#5c5d0c" fill-opacity="0.502"><g transform="translate(233.067189, 261.263275)"><g><path d="M 13.9375 0.421875 C 12.21875 0.421875 10.625 -0.0195312 9.15625 -0.90625 C 7.695312 -1.789062 6.5625 -2.910156 5.75 -4.265625 L 5.75 0 L 3.171875 0 L 3.171875 -30.828125 L 6.046875 -30.828125 L 6.046875 -17.40625 C 7.023438 -18.894531 8.203125 -20.097656 9.578125 -21.015625 C 10.960938 -21.929688 12.570312 -22.390625 14.40625 -22.390625 C 15.945312 -22.390625 17.332031 -22.0625 18.5625 -21.40625 C 19.789062 -20.757812 20.835938 -19.894531 21.703125 -18.8125 C 22.578125 -17.726562 23.238281 -16.503906 23.6875 -15.140625 C 24.144531 -13.773438 24.375 -12.375 24.375 -10.9375 C 24.375 -9.382812 24.113281 -7.929688 23.59375 -6.578125 C 23.070312 -5.234375 22.332031 -4.03125 21.375 -2.96875 C 20.414062 -1.914062 19.304688 -1.085938 18.046875 -0.484375 C 16.796875 0.117188 15.425781 0.421875 13.9375 0.421875 Z M 13.265625 -2.109375 C 14.441406 -2.109375 15.535156 -2.347656 16.546875 -2.828125 C 17.566406 -3.304688 18.441406 -3.96875 19.171875 -4.8125 C 19.898438 -5.65625 20.460938 -6.601562 20.859375 -7.65625 C 21.253906 -8.71875 21.453125 -9.8125 21.453125 -10.9375 C 21.453125 -12.488281 21.117188 -13.945312 20.453125 -15.3125 C 19.796875 -16.675781 18.882812 -17.769531 17.71875 -18.59375 C 16.550781 -19.425781 15.175781 -19.84375 13.59375 -19.84375 C 12.46875 -19.84375 11.421875 -19.585938 10.453125 -19.078125 C 9.484375 -18.578125 8.625 -17.910156 7.875 -17.078125 C 7.125 -16.253906 6.515625 -15.347656 6.046875 -14.359375 L 6.046875 -7.515625 C 6.148438 -6.753906 6.441406 -6.039062 6.921875 -5.375 C 7.398438 -4.71875 8 -4.148438 8.71875 -3.671875 C 9.4375 -3.191406 10.1875 -2.8125 10.96875 -2.53125 C 11.757812 -2.25 12.523438 -2.109375 13.265625 -2.109375 Z M 13.265625 -2.109375 "/></g></g></g><g fill="#5c5d0c" fill-opacity="0.502"><g transform="translate(257.435961, 261.263275)"><g><path d="M 3.296875 -30.828125 L 6.171875 -30.828125 L 6.171875 -4.984375 C 6.171875 -3.890625 6.363281 -3.171875 6.75 -2.828125 C 7.144531 -2.492188 7.625 -2.328125 8.1875 -2.328125 C 8.695312 -2.328125 9.203125 -2.378906 9.703125 -2.484375 C 10.210938 -2.597656 10.648438 -2.710938 11.015625 -2.828125 L 11.53125 -0.5 C 11 -0.28125 10.34375 -0.101562 9.5625 0.03125 C 8.789062 0.175781 8.125 0.25 7.5625 0.25 C 6.257812 0.25 5.222656 -0.128906 4.453125 -0.890625 C 3.679688 -1.648438 3.296875 -2.691406 3.296875 -4.015625 Z M 3.296875 -30.828125 "/></g></g></g><g fill="#5c5d0c" fill-opacity="0.502"><g transform="translate(267.233854, 261.263275)"><g><path d="M 12.671875 0.421875 C 11.097656 0.421875 9.632812 0.117188 8.28125 -0.484375 C 6.925781 -1.085938 5.753906 -1.914062 4.765625 -2.96875 C 3.785156 -4.03125 3.019531 -5.25 2.46875 -6.625 C 1.914062 -8.007812 1.640625 -9.488281 1.640625 -11.0625 C 1.640625 -13.125 2.113281 -15.007812 3.0625 -16.71875 C 4.007812 -18.4375 5.3125 -19.8125 6.96875 -20.84375 C 8.625 -21.875 10.507812 -22.390625 12.625 -22.390625 C 14.789062 -22.390625 16.679688 -21.867188 18.296875 -20.828125 C 19.921875 -19.785156 21.195312 -18.410156 22.125 -16.703125 C 23.0625 -15.003906 23.53125 -13.140625 23.53125 -11.109375 C 23.53125 -10.878906 23.53125 -10.660156 23.53125 -10.453125 C 23.53125 -10.242188 23.515625 -10.082031 23.484375 -9.96875 L 4.640625 -9.96875 C 4.785156 -8.394531 5.226562 -6.992188 5.96875 -5.765625 C 6.71875 -4.535156 7.691406 -3.5625 8.890625 -2.84375 C 10.085938 -2.132812 11.390625 -1.78125 12.796875 -1.78125 C 14.234375 -1.78125 15.59375 -2.144531 16.875 -2.875 C 18.15625 -3.601562 19.046875 -4.5625 19.546875 -5.75 L 22.046875 -5.0625 C 21.597656 -4.019531 20.90625 -3.078125 19.96875 -2.234375 C 19.039062 -1.390625 17.953125 -0.734375 16.703125 -0.265625 C 15.453125 0.191406 14.109375 0.421875 12.671875 0.421875 Z M 4.5625 -12.03125 L 20.828125 -12.03125 C 20.710938 -13.632812 20.28125 -15.039062 19.53125 -16.25 C 18.789062 -17.46875 17.820312 -18.421875 16.625 -19.109375 C 15.425781 -19.796875 14.109375 -20.140625 12.671875 -20.140625 C 11.234375 -20.140625 9.921875 -19.796875 8.734375 -19.109375 C 7.554688 -18.421875 6.59375 -17.460938 5.84375 -16.234375 C 5.101562 -15.015625 4.675781 -13.613281 4.5625 -12.03125 Z M 4.5625 -12.03125 "/></g></g></g><g fill="#465362" fill-opacity="1"><g transform="translate(84.819556, 259.396214)"><g><path d="M 10.390625 0.421875 C 8.585938 0.421875 6.910156 0.128906 5.359375 -0.453125 C 3.816406 -1.046875 2.476562 -1.953125 1.34375 -3.171875 L 2.53125 -5.1875 C 3.769531 -4.039062 5.015625 -3.207031 6.265625 -2.6875 C 7.523438 -2.164062 8.859375 -1.90625 10.265625 -1.90625 C 11.984375 -1.90625 13.375 -2.25 14.4375 -2.9375 C 15.507812 -3.625 16.046875 -4.613281 16.046875 -5.90625 C 16.046875 -6.78125 15.785156 -7.445312 15.265625 -7.90625 C 14.742188 -8.375 14 -8.753906 13.03125 -9.046875 C 12.0625 -9.347656 10.898438 -9.671875 9.546875 -10.015625 C 8.023438 -10.429688 6.75 -10.867188 5.71875 -11.328125 C 4.695312 -11.796875 3.925781 -12.390625 3.40625 -13.109375 C 2.882812 -13.828125 2.625 -14.765625 2.625 -15.921875 C 2.625 -17.359375 2.976562 -18.546875 3.6875 -19.484375 C 4.40625 -20.429688 5.390625 -21.148438 6.640625 -21.640625 C 7.898438 -22.140625 9.304688 -22.390625 10.859375 -22.390625 C 12.546875 -22.390625 14.035156 -22.117188 15.328125 -21.578125 C 16.628906 -21.046875 17.6875 -20.300781 18.5 -19.34375 L 17.109375 -17.40625 C 16.316406 -18.300781 15.378906 -18.96875 14.296875 -19.40625 C 13.210938 -19.84375 12.007812 -20.0625 10.6875 -20.0625 C 9.78125 -20.0625 8.921875 -19.941406 8.109375 -19.703125 C 7.296875 -19.460938 6.628906 -19.066406 6.109375 -18.515625 C 5.585938 -17.972656 5.328125 -17.222656 5.328125 -16.265625 C 5.328125 -15.472656 5.519531 -14.859375 5.90625 -14.421875 C 6.300781 -13.984375 6.894531 -13.613281 7.6875 -13.3125 C 8.476562 -13.019531 9.445312 -12.707031 10.59375 -12.375 C 12.257812 -11.925781 13.710938 -11.46875 14.953125 -11 C 16.191406 -10.539062 17.148438 -9.941406 17.828125 -9.203125 C 18.503906 -8.472656 18.84375 -7.445312 18.84375 -6.125 C 18.84375 -4.070312 18.066406 -2.46875 16.515625 -1.3125 C 14.960938 -0.15625 12.921875 0.421875 10.390625 0.421875 Z M 10.390625 0.421875 "/></g></g></g><g fill="#465362" fill-opacity="1"><g transform="translate(103.528913, 259.396214)"><g><path d="M 2.953125 -9.078125 L 2.953125 -22 L 5.828125 -22 L 5.828125 -9.59375 C 5.828125 -7.082031 6.253906 -5.207031 7.109375 -3.96875 C 7.972656 -2.726562 9.25 -2.109375 10.9375 -2.109375 C 12.0625 -2.109375 13.148438 -2.351562 14.203125 -2.84375 C 15.265625 -3.34375 16.203125 -4.046875 17.015625 -4.953125 C 17.835938 -5.867188 18.457031 -6.9375 18.875 -8.15625 L 18.875 -22 L 21.75 -22 L 21.75 -3.46875 C 21.75 -3.070312 21.832031 -2.78125 22 -2.59375 C 22.164062 -2.414062 22.421875 -2.3125 22.765625 -2.28125 L 22.765625 0 C 22.421875 0.03125 22.148438 0.0507812 21.953125 0.0625 C 21.765625 0.0703125 21.582031 0.078125 21.40625 0.078125 C 20.84375 0.0234375 20.359375 -0.195312 19.953125 -0.59375 C 19.546875 -0.988281 19.328125 -1.46875 19.296875 -2.03125 L 19.21875 -4.984375 C 18.257812 -3.296875 16.957031 -1.972656 15.3125 -1.015625 C 13.664062 -0.0546875 11.882812 0.421875 9.96875 0.421875 C 7.65625 0.421875 5.90625 -0.378906 4.71875 -1.984375 C 3.539062 -3.585938 2.953125 -5.953125 2.953125 -9.078125 Z M 2.953125 -9.078125 "/></g></g></g><g fill="#465362" fill-opacity="1"><g transform="translate(126.926284, 259.396214)"><g><path d="M 10.390625 0.421875 C 8.585938 0.421875 6.910156 0.128906 5.359375 -0.453125 C 3.816406 -1.046875 2.476562 -1.953125 1.34375 -3.171875 L 2.53125 -5.1875 C 3.769531 -4.039062 5.015625 -3.207031 6.265625 -2.6875 C 7.523438 -2.164062 8.859375 -1.90625 10.265625 -1.90625 C 11.984375 -1.90625 13.375 -2.25 14.4375 -2.9375 C 15.507812 -3.625 16.046875 -4.613281 16.046875 -5.90625 C 16.046875 -6.78125 15.785156 -7.445312 15.265625 -7.90625 C 14.742188 -8.375 14 -8.753906 13.03125 -9.046875 C 12.0625 -9.347656 10.898438 -9.671875 9.546875 -10.015625 C 8.023438 -10.429688 6.75 -10.867188 5.71875 -11.328125 C 4.695312 -11.796875 3.925781 -12.390625 3.40625 -13.109375 C 2.882812 -13.828125 2.625 -14.765625 2.625 -15.921875 C 2.625 -17.359375 2.976562 -18.546875 3.6875 -19.484375 C 4.40625 -20.429688 5.390625 -21.148438 6.640625 -21.640625 C 7.898438 -22.140625 9.304688 -22.390625 10.859375 -22.390625 C 12.546875 -22.390625 14.035156 -22.117188 15.328125 -21.578125 C 16.628906 -21.046875 17.6875 -20.300781 18.5 -19.34375 L 17.109375 -17.40625 C 16.316406 -18.300781 15.378906 -18.96875 14.296875 -19.40625 C 13.210938 -19.84375 12.007812 -20.0625 10.6875 -20.0625 C 9.78125 -20.0625 8.921875 -19.941406 8.109375 -19.703125 C 7.296875 -19.460938 6.628906 -19.066406 6.109375 -18.515625 C 5.585938 -17.972656 5.328125 -17.222656 5.328125 -16.265625 C 5.328125 -15.472656 5.519531 -14.859375 5.90625 -14.421875 C 6.300781 -13.984375 6.894531 -13.613281 7.6875 -13.3125 C 8.476562 -13.019531 9.445312 -12.707031 10.59375 -12.375 C 12.257812 -11.925781 13.710938 -11.46875 14.953125 -11 C 16.191406 -10.539062 17.148438 -9.941406 17.828125 -9.203125 C 18.503906 -8.472656 18.84375 -7.445312 18.84375 -6.125 C 18.84375 -4.070312 18.066406 -2.46875 16.515625 -1.3125 C 14.960938 -0.15625 12.921875 0.421875 10.390625 0.421875 Z M 10.390625 0.421875 "/></g></g></g><g fill="#465362" fill-opacity="1"><g transform="translate(145.635642, 259.396214)"><g><path d="M 13.71875 -1.0625 C 13.5 -0.96875 13.148438 -0.804688 12.671875 -0.578125 C 12.191406 -0.359375 11.613281 -0.164062 10.9375 0 C 10.257812 0.164062 9.53125 0.25 8.75 0.25 C 7.925781 0.25 7.15625 0.0976562 6.4375 -0.203125 C 5.71875 -0.515625 5.144531 -0.988281 4.71875 -1.625 C 4.300781 -2.257812 4.09375 -3.039062 4.09375 -3.96875 L 4.09375 -19.71875 L 1.0625 -19.71875 L 1.0625 -22 L 4.09375 -22 L 4.09375 -29.4375 L 6.96875 -29.4375 L 6.96875 -22 L 12.03125 -22 L 12.03125 -19.71875 L 6.96875 -19.71875 L 6.96875 -4.765625 C 7.019531 -3.984375 7.304688 -3.394531 7.828125 -3 C 8.347656 -2.601562 8.945312 -2.40625 9.625 -2.40625 C 10.414062 -2.40625 11.132812 -2.535156 11.78125 -2.796875 C 12.425781 -3.066406 12.820312 -3.257812 12.96875 -3.375 Z M 13.71875 -1.0625 "/></g></g></g><g fill="#465362" fill-opacity="1"><g transform="translate(158.094303, 259.396214)"><g><path d="M 1.390625 -6.328125 C 1.390625 -7.710938 1.785156 -8.90625 2.578125 -9.90625 C 3.367188 -10.90625 4.457031 -11.675781 5.84375 -12.21875 C 7.238281 -12.769531 8.851562 -13.046875 10.6875 -13.046875 C 11.757812 -13.046875 12.867188 -12.960938 14.015625 -12.796875 C 15.171875 -12.628906 16.203125 -12.375 17.109375 -12.03125 L 17.109375 -13.890625 C 17.109375 -15.753906 16.554688 -17.234375 15.453125 -18.328125 C 14.359375 -19.429688 12.835938 -19.984375 10.890625 -19.984375 C 9.710938 -19.984375 8.550781 -19.765625 7.40625 -19.328125 C 6.269531 -18.890625 5.082031 -18.25 3.84375 -17.40625 L 2.75 -19.421875 C 4.1875 -20.410156 5.59375 -21.148438 6.96875 -21.640625 C 8.34375 -22.140625 9.75 -22.390625 11.1875 -22.390625 C 13.894531 -22.390625 16.035156 -21.613281 17.609375 -20.0625 C 19.191406 -18.507812 19.984375 -16.367188 19.984375 -13.640625 L 19.984375 -3.46875 C 19.984375 -3.070312 20.066406 -2.78125 20.234375 -2.59375 C 20.398438 -2.414062 20.664062 -2.3125 21.03125 -2.28125 L 21.03125 0 C 20.71875 0.03125 20.445312 0.0546875 20.21875 0.078125 C 20 0.109375 19.832031 0.109375 19.71875 0.078125 C 19.019531 0.0546875 18.484375 -0.160156 18.109375 -0.578125 C 17.742188 -1.003906 17.550781 -1.457031 17.53125 -1.9375 L 17.484375 -3.546875 C 16.492188 -2.273438 15.210938 -1.296875 13.640625 -0.609375 C 12.066406 0.078125 10.460938 0.421875 8.828125 0.421875 C 7.421875 0.421875 6.144531 0.117188 5 -0.484375 C 3.863281 -1.085938 2.976562 -1.90625 2.34375 -2.9375 C 1.707031 -3.96875 1.390625 -5.097656 1.390625 -6.328125 Z M 16.140625 -4.640625 C 16.441406 -5.035156 16.675781 -5.414062 16.84375 -5.78125 C 17.019531 -6.144531 17.109375 -6.46875 17.109375 -6.75 L 17.109375 -9.96875 C 16.148438 -10.332031 15.15625 -10.613281 14.125 -10.8125 C 13.09375 -11.007812 12.054688 -11.109375 11.015625 -11.109375 C 8.960938 -11.109375 7.300781 -10.695312 6.03125 -9.875 C 4.769531 -9.0625 4.140625 -7.953125 4.140625 -6.546875 C 4.140625 -5.734375 4.347656 -4.96875 4.765625 -4.25 C 5.191406 -3.53125 5.8125 -2.9375 6.625 -2.46875 C 7.445312 -2.007812 8.40625 -1.78125 9.5 -1.78125 C 10.882812 -1.78125 12.171875 -2.046875 13.359375 -2.578125 C 14.554688 -3.109375 15.484375 -3.796875 16.140625 -4.640625 Z M 16.140625 -4.640625 "/></g></g></g><g fill="#465362" fill-opacity="1"><g transform="translate(179.422192, 259.396214)"><g><path d="M 3.171875 0 L 3.171875 -22 L 6.046875 -22 L 6.046875 0 Z M 3.171875 -26.609375 L 3.171875 -30.828125 L 6.046875 -30.828125 L 6.046875 -26.609375 Z M 3.171875 -26.609375 "/></g></g></g><g fill="#465362" fill-opacity="1"><g transform="translate(186.939426, 259.396214)"><g><path d="M 21.671875 0 L 18.796875 0 L 18.796875 -12.296875 C 18.796875 -14.878906 18.414062 -16.769531 17.65625 -17.96875 C 16.894531 -19.164062 15.695312 -19.765625 14.0625 -19.765625 C 12.9375 -19.765625 11.820312 -19.488281 10.71875 -18.9375 C 9.625 -18.394531 8.660156 -17.648438 7.828125 -16.703125 C 7.003906 -15.753906 6.410156 -14.675781 6.046875 -13.46875 L 6.046875 0 L 3.171875 0 L 3.171875 -22 L 5.78125 -22 L 5.78125 -17.015625 C 6.375 -18.085938 7.148438 -19.023438 8.109375 -19.828125 C 9.066406 -20.628906 10.148438 -21.253906 11.359375 -21.703125 C 12.566406 -22.160156 13.820312 -22.390625 15.125 -22.390625 C 16.332031 -22.390625 17.359375 -22.160156 18.203125 -21.703125 C 19.046875 -21.253906 19.71875 -20.613281 20.21875 -19.78125 C 20.726562 -18.957031 21.097656 -17.957031 21.328125 -16.78125 C 21.554688 -15.613281 21.671875 -14.3125 21.671875 -12.875 Z M 21.671875 0 "/></g></g></g><g fill="#465362" fill-opacity="1"><g transform="translate(209.872228, 259.396214)"><g><path d="M 1.390625 -6.328125 C 1.390625 -7.710938 1.785156 -8.90625 2.578125 -9.90625 C 3.367188 -10.90625 4.457031 -11.675781 5.84375 -12.21875 C 7.238281 -12.769531 8.851562 -13.046875 10.6875 -13.046875 C 11.757812 -13.046875 12.867188 -12.960938 14.015625 -12.796875 C 15.171875 -12.628906 16.203125 -12.375 17.109375 -12.03125 L 17.109375 -13.890625 C 17.109375 -15.753906 16.554688 -17.234375 15.453125 -18.328125 C 14.359375 -19.429688 12.835938 -19.984375 10.890625 -19.984375 C 9.710938 -19.984375 8.550781 -19.765625 7.40625 -19.328125 C 6.269531 -18.890625 5.082031 -18.25 3.84375 -17.40625 L 2.75 -19.421875 C 4.1875 -20.410156 5.59375 -21.148438 6.96875 -21.640625 C 8.34375 -22.140625 9.75 -22.390625 11.1875 -22.390625 C 13.894531 -22.390625 16.035156 -21.613281 17.609375 -20.0625 C 19.191406 -18.507812 19.984375 -16.367188 19.984375 -13.640625 L 19.984375 -3.46875 C 19.984375 -3.070312 20.066406 -2.78125 20.234375 -2.59375 C 20.398438 -2.414062 20.664062 -2.3125 21.03125 -2.28125 L 21.03125 0 C 20.71875 0.03125 20.445312 0.0546875 20.21875 0.078125 C 20 0.109375 19.832031 0.109375 19.71875 0.078125 C 19.019531 0.0546875 18.484375 -0.160156 18.109375 -0.578125 C 17.742188 -1.003906 17.550781 -1.457031 17.53125 -1.9375 L 17.484375 -3.546875 C 16.492188 -2.273438 15.210938 -1.296875 13.640625 -0.609375 C 12.066406 0.078125 10.460938 0.421875 8.828125 0.421875 C 7.421875 0.421875 6.144531 0.117188 5 -0.484375 C 3.863281 -1.085938 2.976562 -1.90625 2.34375 -2.9375 C 1.707031 -3.96875 1.390625 -5.097656 1.390625 -6.328125 Z M 16.140625 -4.640625 C 16.441406 -5.035156 16.675781 -5.414062 16.84375 -5.78125 C 17.019531 -6.144531 17.109375 -6.46875 17.109375 -6.75 L 17.109375 -9.96875 C 16.148438 -10.332031 15.15625 -10.613281 14.125 -10.8125 C 13.09375 -11.007812 12.054688 -11.109375 11.015625 -11.109375 C 8.960938 -11.109375 7.300781 -10.695312 6.03125 -9.875 C 4.769531 -9.0625 4.140625 -7.953125 4.140625 -6.546875 C 4.140625 -5.734375 4.347656 -4.96875 4.765625 -4.25 C 5.191406 -3.53125 5.8125 -2.9375 6.625 -2.46875 C 7.445312 -2.007812 8.40625 -1.78125 9.5 -1.78125 C 10.882812 -1.78125 12.171875 -2.046875 13.359375 -2.578125 C 14.554688 -3.109375 15.484375 -3.796875 16.140625 -4.640625 Z M 16.140625 -4.640625 "/></g></g></g><g fill="#465362" fill-opacity="1"><g transform="translate(231.200123, 259.396214)"><g><path d="M 13.9375 0.421875 C 12.21875 0.421875 10.625 -0.0195312 9.15625 -0.90625 C 7.695312 -1.789062 6.5625 -2.910156 5.75 -4.265625 L 5.75 0 L 3.171875 0 L 3.171875 -30.828125 L 6.046875 -30.828125 L 6.046875 -17.40625 C 7.023438 -18.894531 8.203125 -20.097656 9.578125 -21.015625 C 10.960938 -21.929688 12.570312 -22.390625 14.40625 -22.390625 C 15.945312 -22.390625 17.332031 -22.0625 18.5625 -21.40625 C 19.789062 -20.757812 20.835938 -19.894531 21.703125 -18.8125 C 22.578125 -17.726562 23.238281 -16.503906 23.6875 -15.140625 C 24.144531 -13.773438 24.375 -12.375 24.375 -10.9375 C 24.375 -9.382812 24.113281 -7.929688 23.59375 -6.578125 C 23.070312 -5.234375 22.332031 -4.03125 21.375 -2.96875 C 20.414062 -1.914062 19.304688 -1.085938 18.046875 -0.484375 C 16.796875 0.117188 15.425781 0.421875 13.9375 0.421875 Z M 13.265625 -2.109375 C 14.441406 -2.109375 15.535156 -2.347656 16.546875 -2.828125 C 17.566406 -3.304688 18.441406 -3.96875 19.171875 -4.8125 C 19.898438 -5.65625 20.460938 -6.601562 20.859375 -7.65625 C 21.253906 -8.71875 21.453125 -9.8125 21.453125 -10.9375 C 21.453125 -12.488281 21.117188 -13.945312 20.453125 -15.3125 C 19.796875 -16.675781 18.882812 -17.769531 17.71875 -18.59375 C 16.550781 -19.425781 15.175781 -19.84375 13.59375 -19.84375 C 12.46875 -19.84375 11.421875 -19.585938 10.453125 -19.078125 C 9.484375 -18.578125 8.625 -17.910156 7.875 -17.078125 C 7.125 -16.253906 6.515625 -15.347656 6.046875 -14.359375 L 6.046875 -7.515625 C 6.148438 -6.753906 6.441406 -6.039062 6.921875 -5.375 C 7.398438 -4.71875 8 -4.148438 8.71875 -3.671875 C 9.4375 -3.191406 10.1875 -2.8125 10.96875 -2.53125 C 11.757812 -2.25 12.523438 -2.109375 13.265625 -2.109375 Z M 13.265625 -2.109375 "/></g></g></g><g fill="#465362" fill-opacity="1"><g transform="translate(255.568896, 259.396214)"><g><path d="M 3.296875 -30.828125 L 6.171875 -30.828125 L 6.171875 -4.984375 C 6.171875 -3.890625 6.363281 -3.171875 6.75 -2.828125 C 7.144531 -2.492188 7.625 -2.328125 8.1875 -2.328125 C 8.695312 -2.328125 9.203125 -2.378906 9.703125 -2.484375 C 10.210938 -2.597656 10.648438 -2.710938 11.015625 -2.828125 L 11.53125 -0.5 C 11 -0.28125 10.34375 -0.101562 9.5625 0.03125 C 8.789062 0.175781 8.125 0.25 7.5625 0.25 C 6.257812 0.25 5.222656 -0.128906 4.453125 -0.890625 C 3.679688 -1.648438 3.296875 -2.691406 3.296875 -4.015625 Z M 3.296875 -30.828125 "/></g></g></g><g fill="#465362" fill-opacity="1"><g transform="translate(265.366789, 259.396214)"><g><path d="M 12.671875 0.421875 C 11.097656 0.421875 9.632812 0.117188 8.28125 -0.484375 C 6.925781 -1.085938 5.753906 -1.914062 4.765625 -2.96875 C 3.785156 -4.03125 3.019531 -5.25 2.46875 -6.625 C 1.914062 -8.007812 1.640625 -9.488281 1.640625 -11.0625 C 1.640625 -13.125 2.113281 -15.007812 3.0625 -16.71875 C 4.007812 -18.4375 5.3125 -19.8125 6.96875 -20.84375 C 8.625 -21.875 10.507812 -22.390625 12.625 -22.390625 C 14.789062 -22.390625 16.679688 -21.867188 18.296875 -20.828125 C 19.921875 -19.785156 21.195312 -18.410156 22.125 -16.703125 C 23.0625 -15.003906 23.53125 -13.140625 23.53125 -11.109375 C 23.53125 -10.878906 23.53125 -10.660156 23.53125 -10.453125 C 23.53125 -10.242188 23.515625 -10.082031 23.484375 -9.96875 L 4.640625 -9.96875 C 4.785156 -8.394531 5.226562 -6.992188 5.96875 -5.765625 C 6.71875 -4.535156 7.691406 -3.5625 8.890625 -2.84375 C 10.085938 -2.132812 11.390625 -1.78125 12.796875 -1.78125 C 14.234375 -1.78125 15.59375 -2.144531 16.875 -2.875 C 18.15625 -3.601562 19.046875 -4.5625 19.546875 -5.75 L 22.046875 -5.0625 C 21.597656 -4.019531 20.90625 -3.078125 19.96875 -2.234375 C 19.039062 -1.390625 17.953125 -0.734375 16.703125 -0.265625 C 15.453125 0.191406 14.109375 0.421875 12.671875 0.421875 Z M 4.5625 -12.03125 L 20.828125 -12.03125 C 20.710938 -13.632812 20.28125 -15.039062 19.53125 -16.25 C 18.789062 -17.46875 17.820312 -18.421875 16.625 -19.109375 C 15.425781 -19.796875 14.109375 -20.140625 12.671875 -20.140625 C 11.234375 -20.140625 9.921875 -19.796875 8.734375 -19.109375 C 7.554688 -18.421875 6.59375 -17.460938 5.84375 -16.234375 C 5.101562 -15.015625 4.675781 -13.613281 4.5625 -12.03125 Z M 4.5625 -12.03125 "/></g></g></g><g fill="#5c5d0c" fill-opacity="0.302"><g transform="translate(141.698213, 297.630331)"><g><path d="M 10.390625 0.421875 C 8.585938 0.421875 6.910156 0.128906 5.359375 -0.453125 C 3.816406 -1.046875 2.476562 -1.953125 1.34375 -3.171875 L 2.53125 -5.1875 C 3.769531 -4.039062 5.015625 -3.207031 6.265625 -2.6875 C 7.523438 -2.164062 8.859375 -1.90625 10.265625 -1.90625 C 11.984375 -1.90625 13.375 -2.25 14.4375 -2.9375 C 15.507812 -3.625 16.046875 -4.613281 16.046875 -5.90625 C 16.046875 -6.78125 15.785156 -7.445312 15.265625 -7.90625 C 14.742188 -8.375 14 -8.753906 13.03125 -9.046875 C 12.0625 -9.347656 10.898438 -9.671875 9.546875 -10.015625 C 8.023438 -10.429688 6.75 -10.867188 5.71875 -11.328125 C 4.695312 -11.796875 3.925781 -12.390625 3.40625 -13.109375 C 2.882812 -13.828125 2.625 -14.765625 2.625 -15.921875 C 2.625 -17.359375 2.976562 -18.546875 3.6875 -19.484375 C 4.40625 -20.429688 5.390625 -21.148438 6.640625 -21.640625 C 7.898438 -22.140625 9.304688 -22.390625 10.859375 -22.390625 C 12.546875 -22.390625 14.035156 -22.117188 15.328125 -21.578125 C 16.628906 -21.046875 17.6875 -20.300781 18.5 -19.34375 L 17.109375 -17.40625 C 16.316406 -18.300781 15.378906 -18.96875 14.296875 -19.40625 C 13.210938 -19.84375 12.007812 -20.0625 10.6875 -20.0625 C 9.78125 -20.0625 8.921875 -19.941406 8.109375 -19.703125 C 7.296875 -19.460938 6.628906 -19.066406 6.109375 -18.515625 C 5.585938 -17.972656 5.328125 -17.222656 5.328125 -16.265625 C 5.328125 -15.472656 5.519531 -14.859375 5.90625 -14.421875 C 6.300781 -13.984375 6.894531 -13.613281 7.6875 -13.3125 C 8.476562 -13.019531 9.445312 -12.707031 10.59375 -12.375 C 12.257812 -11.925781 13.710938 -11.46875 14.953125 -11 C 16.191406 -10.539062 17.148438 -9.941406 17.828125 -9.203125 C 18.503906 -8.472656 18.84375 -7.445312 18.84375 -6.125 C 18.84375 -4.070312 18.066406 -2.46875 16.515625 -1.3125 C 14.960938 -0.15625 12.921875 0.421875 10.390625 0.421875 Z M 10.390625 0.421875 "/></g></g></g><g fill="#5c5d0c" fill-opacity="0.302"><g transform="translate(160.407569, 297.630331)"><g><path d="M 13.71875 -1.0625 C 13.5 -0.96875 13.148438 -0.804688 12.671875 -0.578125 C 12.191406 -0.359375 11.613281 -0.164062 10.9375 0 C 10.257812 0.164062 9.53125 0.25 8.75 0.25 C 7.925781 0.25 7.15625 0.0976562 6.4375 -0.203125 C 5.71875 -0.515625 5.144531 -0.988281 4.71875 -1.625 C 4.300781 -2.257812 4.09375 -3.039062 4.09375 -3.96875 L 4.09375 -19.71875 L 1.0625 -19.71875 L 1.0625 -22 L 4.09375 -22 L 4.09375 -29.4375 L 6.96875 -29.4375 L 6.96875 -22 L 12.03125 -22 L 12.03125 -19.71875 L 6.96875 -19.71875 L 6.96875 -4.765625 C 7.019531 -3.984375 7.304688 -3.394531 7.828125 -3 C 8.347656 -2.601562 8.945312 -2.40625 9.625 -2.40625 C 10.414062 -2.40625 11.132812 -2.535156 11.78125 -2.796875 C 12.425781 -3.066406 12.820312 -3.257812 12.96875 -3.375 Z M 13.71875 -1.0625 "/></g></g></g><g fill="#5c5d0c" fill-opacity="0.302"><g transform="translate(172.866232, 297.630331)"><g><path d="M 12.671875 0.421875 C 11.097656 0.421875 9.632812 0.117188 8.28125 -0.484375 C 6.925781 -1.085938 5.753906 -1.914062 4.765625 -2.96875 C 3.785156 -4.03125 3.019531 -5.25 2.46875 -6.625 C 1.914062 -8.007812 1.640625 -9.488281 1.640625 -11.0625 C 1.640625 -13.125 2.113281 -15.007812 3.0625 -16.71875 C 4.007812 -18.4375 5.3125 -19.8125 6.96875 -20.84375 C 8.625 -21.875 10.507812 -22.390625 12.625 -22.390625 C 14.789062 -22.390625 16.679688 -21.867188 18.296875 -20.828125 C 19.921875 -19.785156 21.195312 -18.410156 22.125 -16.703125 C 23.0625 -15.003906 23.53125 -13.140625 23.53125 -11.109375 C 23.53125 -10.878906 23.53125 -10.660156 23.53125 -10.453125 C 23.53125 -10.242188 23.515625 -10.082031 23.484375 -9.96875 L 4.640625 -9.96875 C 4.785156 -8.394531 5.226562 -6.992188 5.96875 -5.765625 C 6.71875 -4.535156 7.691406 -3.5625 8.890625 -2.84375 C 10.085938 -2.132812 11.390625 -1.78125 12.796875 -1.78125 C 14.234375 -1.78125 15.59375 -2.144531 16.875 -2.875 C 18.15625 -3.601562 19.046875 -4.5625 19.546875 -5.75 L 22.046875 -5.0625 C 21.597656 -4.019531 20.90625 -3.078125 19.96875 -2.234375 C 19.039062 -1.390625 17.953125 -0.734375 16.703125 -0.265625 C 15.453125 0.191406 14.109375 0.421875 12.671875 0.421875 Z M 4.5625 -12.03125 L 20.828125 -12.03125 C 20.710938 -13.632812 20.28125 -15.039062 19.53125 -16.25 C 18.789062 -17.46875 17.820312 -18.421875 16.625 -19.109375 C 15.425781 -19.796875 14.109375 -20.140625 12.671875 -20.140625 C 11.234375 -20.140625 9.921875 -19.796875 8.734375 -19.109375 C 7.554688 -18.421875 6.59375 -17.460938 5.84375 -16.234375 C 5.101562 -15.015625 4.675781 -13.613281 4.5625 -12.03125 Z M 4.5625 -12.03125 "/></g></g></g><g fill="#5c5d0c" fill-opacity="0.302"><g transform="translate(195.967969, 297.630331)"><g><path d="M 14.40625 0.421875 C 12.570312 0.421875 10.929688 -0.0546875 9.484375 -1.015625 C 8.035156 -1.972656 6.890625 -3.15625 6.046875 -4.5625 L 6.046875 9 L 3.171875 9 L 3.171875 -22 L 5.75 -22 L 5.75 -17.734375 C 6.613281 -19.117188 7.78125 -20.238281 9.25 -21.09375 C 10.71875 -21.957031 12.28125 -22.390625 13.9375 -22.390625 C 15.457031 -22.390625 16.847656 -22.070312 18.109375 -21.4375 C 19.378906 -20.800781 20.476562 -19.945312 21.40625 -18.875 C 22.34375 -17.8125 23.070312 -16.59375 23.59375 -15.21875 C 24.113281 -13.851562 24.375 -12.441406 24.375 -10.984375 C 24.375 -8.921875 23.957031 -7.023438 23.125 -5.296875 C 22.289062 -3.566406 21.128906 -2.179688 19.640625 -1.140625 C 18.148438 -0.0976562 16.40625 0.421875 14.40625 0.421875 Z M 13.59375 -2.109375 C 14.8125 -2.109375 15.894531 -2.351562 16.84375 -2.84375 C 17.800781 -3.34375 18.625 -4.015625 19.3125 -4.859375 C 20.007812 -5.703125 20.539062 -6.648438 20.90625 -7.703125 C 21.269531 -8.765625 21.453125 -9.859375 21.453125 -10.984375 C 21.453125 -12.160156 21.25 -13.285156 20.84375 -14.359375 C 20.4375 -15.429688 19.851562 -16.375 19.09375 -17.1875 C 18.332031 -18.007812 17.457031 -18.65625 16.46875 -19.125 C 15.488281 -19.601562 14.421875 -19.84375 13.265625 -19.84375 C 12.523438 -19.84375 11.757812 -19.703125 10.96875 -19.421875 C 10.1875 -19.140625 9.4375 -18.738281 8.71875 -18.21875 C 8 -17.695312 7.398438 -17.113281 6.921875 -16.46875 C 6.441406 -15.820312 6.148438 -15.132812 6.046875 -14.40625 L 6.046875 -7.640625 C 6.492188 -6.597656 7.097656 -5.660156 7.859375 -4.828125 C 8.617188 -4.003906 9.5 -3.34375 10.5 -2.84375 C 11.5 -2.351562 12.53125 -2.109375 13.59375 -2.109375 Z M 13.59375 -2.109375 "/></g></g></g><g fill="#5c5d0c" fill-opacity="0.302"><g transform="translate(220.336742, 297.630331)"><g><path d="M 10.390625 0.421875 C 8.585938 0.421875 6.910156 0.128906 5.359375 -0.453125 C 3.816406 -1.046875 2.476562 -1.953125 1.34375 -3.171875 L 2.53125 -5.1875 C 3.769531 -4.039062 5.015625 -3.207031 6.265625 -2.6875 C 7.523438 -2.164062 8.859375 -1.90625 10.265625 -1.90625 C 11.984375 -1.90625 13.375 -2.25 14.4375 -2.9375 C 15.507812 -3.625 16.046875 -4.613281 16.046875 -5.90625 C 16.046875 -6.78125 15.785156 -7.445312 15.265625 -7.90625 C 14.742188 -8.375 14 -8.753906 13.03125 -9.046875 C 12.0625 -9.347656 10.898438 -9.671875 9.546875 -10.015625 C 8.023438 -10.429688 6.75 -10.867188 5.71875 -11.328125 C 4.695312 -11.796875 3.925781 -12.390625 3.40625 -13.109375 C 2.882812 -13.828125 2.625 -14.765625 2.625 -15.921875 C 2.625 -17.359375 2.976562 -18.546875 3.6875 -19.484375 C 4.40625 -20.429688 5.390625 -21.148438 6.640625 -21.640625 C 7.898438 -22.140625 9.304688 -22.390625 10.859375 -22.390625 C 12.546875 -22.390625 14.035156 -22.117188 15.328125 -21.578125 C 16.628906 -21.046875 17.6875 -20.300781 18.5 -19.34375 L 17.109375 -17.40625 C 16.316406 -18.300781 15.378906 -18.96875 14.296875 -19.40625 C 13.210938 -19.84375 12.007812 -20.0625 10.6875 -20.0625 C 9.78125 -20.0625 8.921875 -19.941406 8.109375 -19.703125 C 7.296875 -19.460938 6.628906 -19.066406 6.109375 -18.515625 C 5.585938 -17.972656 5.328125 -17.222656 5.328125 -16.265625 C 5.328125 -15.472656 5.519531 -14.859375 5.90625 -14.421875 C 6.300781 -13.984375 6.894531 -13.613281 7.6875 -13.3125 C 8.476562 -13.019531 9.445312 -12.707031 10.59375 -12.375 C 12.257812 -11.925781 13.710938 -11.46875 14.953125 -11 C 16.191406 -10.539062 17.148438 -9.941406 17.828125 -9.203125 C 18.503906 -8.472656 18.84375 -7.445312 18.84375 -6.125 C 18.84375 -4.070312 18.066406 -2.46875 16.515625 -1.3125 C 14.960938 -0.15625 12.921875 0.421875 10.390625 0.421875 Z M 10.390625 0.421875 "/></g></g></g><g fill="#5c5d0c" fill-opacity="0.502"><g transform="translate(139.83115, 295.763273)"><g><path d="M 10.390625 0.421875 C 8.585938 0.421875 6.910156 0.128906 5.359375 -0.453125 C 3.816406 -1.046875 2.476562 -1.953125 1.34375 -3.171875 L 2.53125 -5.1875 C 3.769531 -4.039062 5.015625 -3.207031 6.265625 -2.6875 C 7.523438 -2.164062 8.859375 -1.90625 10.265625 -1.90625 C 11.984375 -1.90625 13.375 -2.25 14.4375 -2.9375 C 15.507812 -3.625 16.046875 -4.613281 16.046875 -5.90625 C 16.046875 -6.78125 15.785156 -7.445312 15.265625 -7.90625 C 14.742188 -8.375 14 -8.753906 13.03125 -9.046875 C 12.0625 -9.347656 10.898438 -9.671875 9.546875 -10.015625 C 8.023438 -10.429688 6.75 -10.867188 5.71875 -11.328125 C 4.695312 -11.796875 3.925781 -12.390625 3.40625 -13.109375 C 2.882812 -13.828125 2.625 -14.765625 2.625 -15.921875 C 2.625 -17.359375 2.976562 -18.546875 3.6875 -19.484375 C 4.40625 -20.429688 5.390625 -21.148438 6.640625 -21.640625 C 7.898438 -22.140625 9.304688 -22.390625 10.859375 -22.390625 C 12.546875 -22.390625 14.035156 -22.117188 15.328125 -21.578125 C 16.628906 -21.046875 17.6875 -20.300781 18.5 -19.34375 L 17.109375 -17.40625 C 16.316406 -18.300781 15.378906 -18.96875 14.296875 -19.40625 C 13.210938 -19.84375 12.007812 -20.0625 10.6875 -20.0625 C 9.78125 -20.0625 8.921875 -19.941406 8.109375 -19.703125 C 7.296875 -19.460938 6.628906 -19.066406 6.109375 -18.515625 C 5.585938 -17.972656 5.328125 -17.222656 5.328125 -16.265625 C 5.328125 -15.472656 5.519531 -14.859375 5.90625 -14.421875 C 6.300781 -13.984375 6.894531 -13.613281 7.6875 -13.3125 C 8.476562 -13.019531 9.445312 -12.707031 10.59375 -12.375 C 12.257812 -11.925781 13.710938 -11.46875 14.953125 -11 C 16.191406 -10.539062 17.148438 -9.941406 17.828125 -9.203125 C 18.503906 -8.472656 18.84375 -7.445312 18.84375 -6.125 C 18.84375 -4.070312 18.066406 -2.46875 16.515625 -1.3125 C 14.960938 -0.15625 12.921875 0.421875 10.390625 0.421875 Z M 10.390625 0.421875 "/></g></g></g><g fill="#5c5d0c" fill-opacity="0.502"><g transform="translate(158.540506, 295.763273)"><g><path d="M 13.71875 -1.0625 C 13.5 -0.96875 13.148438 -0.804688 12.671875 -0.578125 C 12.191406 -0.359375 11.613281 -0.164062 10.9375 0 C 10.257812 0.164062 9.53125 0.25 8.75 0.25 C 7.925781 0.25 7.15625 0.0976562 6.4375 -0.203125 C 5.71875 -0.515625 5.144531 -0.988281 4.71875 -1.625 C 4.300781 -2.257812 4.09375 -3.039062 4.09375 -3.96875 L 4.09375 -19.71875 L 1.0625 -19.71875 L 1.0625 -22 L 4.09375 -22 L 4.09375 -29.4375 L 6.96875 -29.4375 L 6.96875 -22 L 12.03125 -22 L 12.03125 -19.71875 L 6.96875 -19.71875 L 6.96875 -4.765625 C 7.019531 -3.984375 7.304688 -3.394531 7.828125 -3 C 8.347656 -2.601562 8.945312 -2.40625 9.625 -2.40625 C 10.414062 -2.40625 11.132812 -2.535156 11.78125 -2.796875 C 12.425781 -3.066406 12.820312 -3.257812 12.96875 -3.375 Z M 13.71875 -1.0625 "/></g></g></g><g fill="#5c5d0c" fill-opacity="0.502"><g transform="translate(170.999168, 295.763273)"><g><path d="M 12.671875 0.421875 C 11.097656 0.421875 9.632812 0.117188 8.28125 -0.484375 C 6.925781 -1.085938 5.753906 -1.914062 4.765625 -2.96875 C 3.785156 -4.03125 3.019531 -5.25 2.46875 -6.625 C 1.914062 -8.007812 1.640625 -9.488281 1.640625 -11.0625 C 1.640625 -13.125 2.113281 -15.007812 3.0625 -16.71875 C 4.007812 -18.4375 5.3125 -19.8125 6.96875 -20.84375 C 8.625 -21.875 10.507812 -22.390625 12.625 -22.390625 C 14.789062 -22.390625 16.679688 -21.867188 18.296875 -20.828125 C 19.921875 -19.785156 21.195312 -18.410156 22.125 -16.703125 C 23.0625 -15.003906 23.53125 -13.140625 23.53125 -11.109375 C 23.53125 -10.878906 23.53125 -10.660156 23.53125 -10.453125 C 23.53125 -10.242188 23.515625 -10.082031 23.484375 -9.96875 L 4.640625 -9.96875 C 4.785156 -8.394531 5.226562 -6.992188 5.96875 -5.765625 C 6.71875 -4.535156 7.691406 -3.5625 8.890625 -2.84375 C 10.085938 -2.132812 11.390625 -1.78125 12.796875 -1.78125 C 14.234375 -1.78125 15.59375 -2.144531 16.875 -2.875 C 18.15625 -3.601562 19.046875 -4.5625 19.546875 -5.75 L 22.046875 -5.0625 C 21.597656 -4.019531 20.90625 -3.078125 19.96875 -2.234375 C 19.039062 -1.390625 17.953125 -0.734375 16.703125 -0.265625 C 15.453125 0.191406 14.109375 0.421875 12.671875 0.421875 Z M 4.5625 -12.03125 L 20.828125 -12.03125 C 20.710938 -13.632812 20.28125 -15.039062 19.53125 -16.25 C 18.789062 -17.46875 17.820312 -18.421875 16.625 -19.109375 C 15.425781 -19.796875 14.109375 -20.140625 12.671875 -20.140625 C 11.234375 -20.140625 9.921875 -19.796875 8.734375 -19.109375 C 7.554688 -18.421875 6.59375 -17.460938 5.84375 -16.234375 C 5.101562 -15.015625 4.675781 -13.613281 4.5625 -12.03125 Z M 4.5625 -12.03125 "/></g></g></g><g fill="#5c5d0c" fill-opacity="0.502"><g transform="translate(194.100906, 295.763273)"><g><path d="M 14.40625 0.421875 C 12.570312 0.421875 10.929688 -0.0546875 9.484375 -1.015625 C 8.035156 -1.972656 6.890625 -3.15625 6.046875 -4.5625 L 6.046875 9 L 3.171875 9 L 3.171875 -22 L 5.75 -22 L 5.75 -17.734375 C 6.613281 -19.117188 7.78125 -20.238281 9.25 -21.09375 C 10.71875 -21.957031 12.28125 -22.390625 13.9375 -22.390625 C 15.457031 -22.390625 16.847656 -22.070312 18.109375 -21.4375 C 19.378906 -20.800781 20.476562 -19.945312 21.40625 -18.875 C 22.34375 -17.8125 23.070312 -16.59375 23.59375 -15.21875 C 24.113281 -13.851562 24.375 -12.441406 24.375 -10.984375 C 24.375 -8.921875 23.957031 -7.023438 23.125 -5.296875 C 22.289062 -3.566406 21.128906 -2.179688 19.640625 -1.140625 C 18.148438 -0.0976562 16.40625 0.421875 14.40625 0.421875 Z M 13.59375 -2.109375 C 14.8125 -2.109375 15.894531 -2.351562 16.84375 -2.84375 C 17.800781 -3.34375 18.625 -4.015625 19.3125 -4.859375 C 20.007812 -5.703125 20.539062 -6.648438 20.90625 -7.703125 C 21.269531 -8.765625 21.453125 -9.859375 21.453125 -10.984375 C 21.453125 -12.160156 21.25 -13.285156 20.84375 -14.359375 C 20.4375 -15.429688 19.851562 -16.375 19.09375 -17.1875 C 18.332031 -18.007812 17.457031 -18.65625 16.46875 -19.125 C 15.488281 -19.601562 14.421875 -19.84375 13.265625 -19.84375 C 12.523438 -19.84375 11.757812 -19.703125 10.96875 -19.421875 C 10.1875 -19.140625 9.4375 -18.738281 8.71875 -18.21875 C 8 -17.695312 7.398438 -17.113281 6.921875 -16.46875 C 6.441406 -15.820312 6.148438 -15.132812 6.046875 -14.40625 L 6.046875 -7.640625 C 6.492188 -6.597656 7.097656 -5.660156 7.859375 -4.828125 C 8.617188 -4.003906 9.5 -3.34375 10.5 -2.84375 C 11.5 -2.351562 12.53125 -2.109375 13.59375 -2.109375 Z M 13.59375 -2.109375 "/></g></g></g><g fill="#5c5d0c" fill-opacity="0.502"><g transform="translate(218.469679, 295.763273)"><g><path d="M 10.390625 0.421875 C 8.585938 0.421875 6.910156 0.128906 5.359375 -0.453125 C 3.816406 -1.046875 2.476562 -1.953125 1.34375 -3.171875 L 2.53125 -5.1875 C 3.769531 -4.039062 5.015625 -3.207031 6.265625 -2.6875 C 7.523438 -2.164062 8.859375 -1.90625 10.265625 -1.90625 C 11.984375 -1.90625 13.375 -2.25 14.4375 -2.9375 C 15.507812 -3.625 16.046875 -4.613281 16.046875 -5.90625 C 16.046875 -6.78125 15.785156 -7.445312 15.265625 -7.90625 C 14.742188 -8.375 14 -8.753906 13.03125 -9.046875 C 12.0625 -9.347656 10.898438 -9.671875 9.546875 -10.015625 C 8.023438 -10.429688 6.75 -10.867188 5.71875 -11.328125 C 4.695312 -11.796875 3.925781 -12.390625 3.40625 -13.109375 C 2.882812 -13.828125 2.625 -14.765625 2.625 -15.921875 C 2.625 -17.359375 2.976562 -18.546875 3.6875 -19.484375 C 4.40625 -20.429688 5.390625 -21.148438 6.640625 -21.640625 C 7.898438 -22.140625 9.304688 -22.390625 10.859375 -22.390625 C 12.546875 -22.390625 14.035156 -22.117188 15.328125 -21.578125 C 16.628906 -21.046875 17.6875 -20.300781 18.5 -19.34375 L 17.109375 -17.40625 C 16.316406 -18.300781 15.378906 -18.96875 14.296875 -19.40625 C 13.210938 -19.84375 12.007812 -20.0625 10.6875 -20.0625 C 9.78125 -20.0625 8.921875 -19.941406 8.109375 -19.703125 C 7.296875 -19.460938 6.628906 -19.066406 6.109375 -18.515625 C 5.585938 -17.972656 5.328125 -17.222656 5.328125 -16.265625 C 5.328125 -15.472656 5.519531 -14.859375 5.90625 -14.421875 C 6.300781 -13.984375 6.894531 -13.613281 7.6875 -13.3125 C 8.476562 -13.019531 9.445312 -12.707031 10.59375 -12.375 C 12.257812 -11.925781 13.710938 -11.46875 14.953125 -11 C 16.191406 -10.539062 17.148438 -9.941406 17.828125 -9.203125 C 18.503906 -8.472656 18.84375 -7.445312 18.84375 -6.125 C 18.84375 -4.070312 18.066406 -2.46875 16.515625 -1.3125 C 14.960938 -0.15625 12.921875 0.421875 10.390625 0.421875 Z M 10.390625 0.421875 "/></g></g></g><g fill="#465362" fill-opacity="1"><g transform="translate(137.964084, 293.896212)"><g><path d="M 10.390625 0.421875 C 8.585938 0.421875 6.910156 0.128906 5.359375 -0.453125 C 3.816406 -1.046875 2.476562 -1.953125 1.34375 -3.171875 L 2.53125 -5.1875 C 3.769531 -4.039062 5.015625 -3.207031 6.265625 -2.6875 C 7.523438 -2.164062 8.859375 -1.90625 10.265625 -1.90625 C 11.984375 -1.90625 13.375 -2.25 14.4375 -2.9375 C 15.507812 -3.625 16.046875 -4.613281 16.046875 -5.90625 C 16.046875 -6.78125 15.785156 -7.445312 15.265625 -7.90625 C 14.742188 -8.375 14 -8.753906 13.03125 -9.046875 C 12.0625 -9.347656 10.898438 -9.671875 9.546875 -10.015625 C 8.023438 -10.429688 6.75 -10.867188 5.71875 -11.328125 C 4.695312 -11.796875 3.925781 -12.390625 3.40625 -13.109375 C 2.882812 -13.828125 2.625 -14.765625 2.625 -15.921875 C 2.625 -17.359375 2.976562 -18.546875 3.6875 -19.484375 C 4.40625 -20.429688 5.390625 -21.148438 6.640625 -21.640625 C 7.898438 -22.140625 9.304688 -22.390625 10.859375 -22.390625 C 12.546875 -22.390625 14.035156 -22.117188 15.328125 -21.578125 C 16.628906 -21.046875 17.6875 -20.300781 18.5 -19.34375 L 17.109375 -17.40625 C 16.316406 -18.300781 15.378906 -18.96875 14.296875 -19.40625 C 13.210938 -19.84375 12.007812 -20.0625 10.6875 -20.0625 C 9.78125 -20.0625 8.921875 -19.941406 8.109375 -19.703125 C 7.296875 -19.460938 6.628906 -19.066406 6.109375 -18.515625 C 5.585938 -17.972656 5.328125 -17.222656 5.328125 -16.265625 C 5.328125 -15.472656 5.519531 -14.859375 5.90625 -14.421875 C 6.300781 -13.984375 6.894531 -13.613281 7.6875 -13.3125 C 8.476562 -13.019531 9.445312 -12.707031 10.59375 -12.375 C 12.257812 -11.925781 13.710938 -11.46875 14.953125 -11 C 16.191406 -10.539062 17.148438 -9.941406 17.828125 -9.203125 C 18.503906 -8.472656 18.84375 -7.445312 18.84375 -6.125 C 18.84375 -4.070312 18.066406 -2.46875 16.515625 -1.3125 C 14.960938 -0.15625 12.921875 0.421875 10.390625 0.421875 Z M 10.390625 0.421875 "/></g></g></g><g fill="#465362" fill-opacity="1"><g transform="translate(156.67344, 293.896212)"><g><path d="M 13.71875 -1.0625 C 13.5 -0.96875 13.148438 -0.804688 12.671875 -0.578125 C 12.191406 -0.359375 11.613281 -0.164062 10.9375 0 C 10.257812 0.164062 9.53125 0.25 8.75 0.25 C 7.925781 0.25 7.15625 0.0976562 6.4375 -0.203125 C 5.71875 -0.515625 5.144531 -0.988281 4.71875 -1.625 C 4.300781 -2.257812 4.09375 -3.039062 4.09375 -3.96875 L 4.09375 -19.71875 L 1.0625 -19.71875 L 1.0625 -22 L 4.09375 -22 L 4.09375 -29.4375 L 6.96875 -29.4375 L 6.96875 -22 L 12.03125 -22 L 12.03125 -19.71875 L 6.96875 -19.71875 L 6.96875 -4.765625 C 7.019531 -3.984375 7.304688 -3.394531 7.828125 -3 C 8.347656 -2.601562 8.945312 -2.40625 9.625 -2.40625 C 10.414062 -2.40625 11.132812 -2.535156 11.78125 -2.796875 C 12.425781 -3.066406 12.820312 -3.257812 12.96875 -3.375 Z M 13.71875 -1.0625 "/></g></g></g><g fill="#465362" fill-opacity="1"><g transform="translate(169.132103, 293.896212)"><g><path d="M 12.671875 0.421875 C 11.097656 0.421875 9.632812 0.117188 8.28125 -0.484375 C 6.925781 -1.085938 5.753906 -1.914062 4.765625 -2.96875 C 3.785156 -4.03125 3.019531 -5.25 2.46875 -6.625 C 1.914062 -8.007812 1.640625 -9.488281 1.640625 -11.0625 C 1.640625 -13.125 2.113281 -15.007812 3.0625 -16.71875 C 4.007812 -18.4375 5.3125 -19.8125 6.96875 -20.84375 C 8.625 -21.875 10.507812 -22.390625 12.625 -22.390625 C 14.789062 -22.390625 16.679688 -21.867188 18.296875 -20.828125 C 19.921875 -19.785156 21.195312 -18.410156 22.125 -16.703125 C 23.0625 -15.003906 23.53125 -13.140625 23.53125 -11.109375 C 23.53125 -10.878906 23.53125 -10.660156 23.53125 -10.453125 C 23.53125 -10.242188 23.515625 -10.082031 23.484375 -9.96875 L 4.640625 -9.96875 C 4.785156 -8.394531 5.226562 -6.992188 5.96875 -5.765625 C 6.71875 -4.535156 7.691406 -3.5625 8.890625 -2.84375 C 10.085938 -2.132812 11.390625 -1.78125 12.796875 -1.78125 C 14.234375 -1.78125 15.59375 -2.144531 16.875 -2.875 C 18.15625 -3.601562 19.046875 -4.5625 19.546875 -5.75 L 22.046875 -5.0625 C 21.597656 -4.019531 20.90625 -3.078125 19.96875 -2.234375 C 19.039062 -1.390625 17.953125 -0.734375 16.703125 -0.265625 C 15.453125 0.191406 14.109375 0.421875 12.671875 0.421875 Z M 4.5625 -12.03125 L 20.828125 -12.03125 C 20.710938 -13.632812 20.28125 -15.039062 19.53125 -16.25 C 18.789062 -17.46875 17.820312 -18.421875 16.625 -19.109375 C 15.425781 -19.796875 14.109375 -20.140625 12.671875 -20.140625 C 11.234375 -20.140625 9.921875 -19.796875 8.734375 -19.109375 C 7.554688 -18.421875 6.59375 -17.460938 5.84375 -16.234375 C 5.101562 -15.015625 4.675781 -13.613281 4.5625 -12.03125 Z M 4.5625 -12.03125 "/></g></g></g><g fill="#465362" fill-opacity="1"><g transform="translate(192.233841, 293.896212)"><g><path d="M 14.40625 0.421875 C 12.570312 0.421875 10.929688 -0.0546875 9.484375 -1.015625 C 8.035156 -1.972656 6.890625 -3.15625 6.046875 -4.5625 L 6.046875 9 L 3.171875 9 L 3.171875 -22 L 5.75 -22 L 5.75 -17.734375 C 6.613281 -19.117188 7.78125 -20.238281 9.25 -21.09375 C 10.71875 -21.957031 12.28125 -22.390625 13.9375 -22.390625 C 15.457031 -22.390625 16.847656 -22.070312 18.109375 -21.4375 C 19.378906 -20.800781 20.476562 -19.945312 21.40625 -18.875 C 22.34375 -17.8125 23.070312 -16.59375 23.59375 -15.21875 C 24.113281 -13.851562 24.375 -12.441406 24.375 -10.984375 C 24.375 -8.921875 23.957031 -7.023438 23.125 -5.296875 C 22.289062 -3.566406 21.128906 -2.179688 19.640625 -1.140625 C 18.148438 -0.0976562 16.40625 0.421875 14.40625 0.421875 Z M 13.59375 -2.109375 C 14.8125 -2.109375 15.894531 -2.351562 16.84375 -2.84375 C 17.800781 -3.34375 18.625 -4.015625 19.3125 -4.859375 C 20.007812 -5.703125 20.539062 -6.648438 20.90625 -7.703125 C 21.269531 -8.765625 21.453125 -9.859375 21.453125 -10.984375 C 21.453125 -12.160156 21.25 -13.285156 20.84375 -14.359375 C 20.4375 -15.429688 19.851562 -16.375 19.09375 -17.1875 C 18.332031 -18.007812 17.457031 -18.65625 16.46875 -19.125 C 15.488281 -19.601562 14.421875 -19.84375 13.265625 -19.84375 C 12.523438 -19.84375 11.757812 -19.703125 10.96875 -19.421875 C 10.1875 -19.140625 9.4375 -18.738281 8.71875 -18.21875 C 8 -17.695312 7.398438 -17.113281 6.921875 -16.46875 C 6.441406 -15.820312 6.148438 -15.132812 6.046875 -14.40625 L 6.046875 -7.640625 C 6.492188 -6.597656 7.097656 -5.660156 7.859375 -4.828125 C 8.617188 -4.003906 9.5 -3.34375 10.5 -2.84375 C 11.5 -2.351562 12.53125 -2.109375 13.59375 -2.109375 Z M 13.59375 -2.109375 "/></g></g></g><g fill="#465362" fill-opacity="1"><g transform="translate(216.602613, 293.896212)"><g><path d="M 10.390625 0.421875 C 8.585938 0.421875 6.910156 0.128906 5.359375 -0.453125 C 3.816406 -1.046875 2.476562 -1.953125 1.34375 -3.171875 L 2.53125 -5.1875 C 3.769531 -4.039062 5.015625 -3.207031 6.265625 -2.6875 C 7.523438 -2.164062 8.859375 -1.90625 10.265625 -1.90625 C 11.984375 -1.90625 13.375 -2.25 14.4375 -2.9375 C 15.507812 -3.625 16.046875 -4.613281 16.046875 -5.90625 C 16.046875 -6.78125 15.785156 -7.445312 15.265625 -7.90625 C 14.742188 -8.375 14 -8.753906 13.03125 -9.046875 C 12.0625 -9.347656 10.898438 -9.671875 9.546875 -10.015625 C 8.023438 -10.429688 6.75 -10.867188 5.71875 -11.328125 C 4.695312 -11.796875 3.925781 -12.390625 3.40625 -13.109375 C 2.882812 -13.828125 2.625 -14.765625 2.625 -15.921875 C 2.625 -17.359375 2.976562 -18.546875 3.6875 -19.484375 C 4.40625 -20.429688 5.390625 -21.148438 6.640625 -21.640625 C 7.898438 -22.140625 9.304688 -22.390625 10.859375 -22.390625 C 12.546875 -22.390625 14.035156 -22.117188 15.328125 -21.578125 C 16.628906 -21.046875 17.6875 -20.300781 18.5 -19.34375 L 17.109375 -17.40625 C 16.316406 -18.300781 15.378906 -18.96875 14.296875 -19.40625 C 13.210938 -19.84375 12.007812 -20.0625 10.6875 -20.0625 C 9.78125 -20.0625 8.921875 -19.941406 8.109375 -19.703125 C 7.296875 -19.460938 6.628906 -19.066406 6.109375 -18.515625 C 5.585938 -17.972656 5.328125 -17.222656 5.328125 -16.265625 C 5.328125 -15.472656 5.519531 -14.859375 5.90625 -14.421875 C 6.300781 -13.984375 6.894531 -13.613281 7.6875 -13.3125 C 8.476562 -13.019531 9.445312 -12.707031 10.59375 -12.375 C 12.257812 -11.925781 13.710938 -11.46875 14.953125 -11 C 16.191406 -10.539062 17.148438 -9.941406 17.828125 -9.203125 C 18.503906 -8.472656 18.84375 -7.445312 18.84375 -6.125 C 18.84375 -4.070312 18.066406 -2.46875 16.515625 -1.3125 C 14.960938 -0.15625 12.921875 0.421875 10.390625 0.421875 Z M 10.390625 0.421875 "/></g></g></g><g clip-path="url(#b23997361b)"><g clip-path="url(#bd2cdfba41)"><path fill="#82a3a1" d="M 104.605469 54.292969 L 270.394531 54.292969 L 270.394531 220.082031 L 104.605469 220.082031 Z M 104.605469 54.292969 " fill-opacity="1" fill-rule="nonzero"/></g></g><path fill="#011936" d="M 217.558594 66.796875 C 217.078125 67.0625 216.625 67.355469 216.179688 67.660156 C 206.640625 73.789062 199.898438 83.277344 195.582031 93.667969 C 190.425781 106.070312 188.9375 119.503906 188.664062 132.828125 C 188.507812 140.433594 188.71875 148.039062 188.785156 155.640625 C 188.820312 159.496094 188.820312 163.347656 188.71875 167.199219 C 188.652344 169.777344 188.65625 172.59375 187.292969 174.886719 C 186.804688 175.707031 186.101562 176.40625 185.128906 176.5625 C 183.773438 176.777344 182.554688 175.867188 181.6875 174.933594 C 179.734375 172.824219 178.816406 169.910156 178.320312 167.140625 C 177.238281 161.113281 177.933594 154.828125 175.824219 148.980469 C 173.605469 142.828125 169.199219 137.894531 165.140625 132.894531 C 161.15625 127.984375 157.054688 122.21875 156.65625 115.679688 C 156.558594 114.066406 156.707031 112.488281 157.121094 110.929688 C 157.53125 109.382812 155.148438 108.726562 154.726562 110.269531 C 150.976562 123.929688 152.523438 138.804688 158.683594 151.527344 C 161.675781 157.703125 165.832031 163.097656 170.605469 167.992188 C 175.136719 172.636719 180.050781 176.890625 184.546875 181.566406 C 189.417969 186.632812 193.792969 192.3125 195.867188 199.121094 C 196.332031 200.644531 198.734375 199.996094 198.265625 198.460938 C 196.15625 191.546875 191.980469 185.878906 187.148438 180.710938 C 198.589844 170.597656 206.171875 156.671875 209.726562 141.90625 C 211.566406 134.273438 212.382812 126.375 212.171875 118.527344 C 212.058594 114.394531 211.617188 110.292969 210.996094 106.207031 C 210.242188 101.265625 209.296875 96.339844 209.09375 91.339844 C 208.757812 83.03125 210.988281 73.320312 218.8125 68.945312 C 220.1875 68.128906 218.957031 66.015625 217.558594 66.796875 Z M 162.554688 153.558594 C 159.136719 147.546875 156.882812 140.90625 155.824219 134.074219 C 155.167969 129.859375 155.003906 125.566406 155.328125 121.308594 C 156.316406 124.261719 157.839844 127.074219 159.566406 129.621094 C 163.265625 135.074219 168.105469 139.6875 171.417969 145.410156 C 173.035156 148.210938 174.109375 151.183594 174.609375 154.382812 C 175.082031 157.414062 175.128906 160.496094 175.386719 163.546875 C 175.582031 165.847656 175.886719 168.136719 176.53125 170.339844 C 176.007812 169.839844 175.488281 169.339844 174.972656 168.839844 C 170.234375 164.226562 165.839844 159.335938 162.554688 153.558594 Z M 209.449219 114.035156 C 210.652344 129.484375 207.839844 145.417969 200.679688 159.214844 C 197.882812 164.605469 194.414062 169.605469 190.335938 174.074219 C 191.117188 171.667969 191.160156 169.121094 191.21875 166.59375 C 191.40625 158.734375 191.183594 150.871094 191.113281 143.011719 C 190.984375 128.78125 191.335938 114.328125 195.667969 100.652344 C 198.40625 92.007812 202.722656 83.558594 208.949219 76.890625 C 207.722656 79.789062 206.996094 82.925781 206.710938 86.011719 C 205.851562 95.429688 208.722656 104.707031 209.449219 114.035156 Z M 209.449219 114.035156 " fill-opacity="1" fill-rule="nonzero"/><g clip-path="url(#a6730846fb)"><path fill="#011936" d="M 224.933594 117.964844 C 237.804688 119.136719 238.765625 120.082031 239.949219 132.839844 C 241.136719 120.082031 242.09375 119.136719 254.96875 117.964844 C 242.09375 116.796875 241.136719 115.839844 239.949219 103.089844 C 238.765625 115.839844 237.804688 116.796875 224.933594 117.964844 " fill-opacity="1" fill-rule="nonzero"/></g><g clip-path="url(#f4a5db7a00)"><path fill="#011936" d="M 245.257812 105.050781 C 245.707031 100.195312 246.078125 99.835938 250.976562 99.386719 C 246.078125 98.941406 245.707031 98.570312 245.257812 93.710938 C 244.8125 98.574219 244.445312 98.941406 239.539062 99.386719 C 244.445312 99.835938 244.8125 100.195312 245.257812 105.050781 " fill-opacity="1" fill-rule="nonzero"/></g><g clip-path="url(#1d8ad46d05)"><path fill="#011936" d="M 227.472656 106.949219 C 227.175781 110.101562 226.9375 110.335938 223.75 110.632812 C 226.9375 110.921875 227.175781 111.15625 227.472656 114.308594 C 227.761719 111.15625 228.003906 110.921875 231.191406 110.632812 C 228.003906 110.335938 227.761719 110.101562 227.472656 106.949219 " fill-opacity="1" fill-rule="nonzero"/></g><g clip-path="url(#f00fb5d78e)"><path fill="#011936" d="M 119.9375 154.015625 C 131.929688 152.921875 132.824219 152.039062 133.925781 140.152344 C 135.035156 152.039062 135.929688 152.921875 147.925781 154.015625 C 135.929688 155.101562 135.035156 155.996094 133.925781 167.875 C 132.824219 155.996094 131.929688 155.101562 119.9375 154.015625 " fill-opacity="1" fill-rule="nonzero"/></g><g clip-path="url(#ef0e220004)"><path fill="#011936" d="M 138.875 166.046875 C 139.292969 170.570312 139.636719 170.90625 144.203125 171.324219 C 139.636719 171.738281 139.292969 172.085938 138.875 176.613281 C 138.460938 172.082031 138.117188 171.738281 133.546875 171.324219 C 138.117188 170.90625 138.460938 170.570312 138.875 166.046875 " fill-opacity="1" fill-rule="nonzero"/></g><g clip-path="url(#b00ccf822e)"><path fill="#011936" d="M 122.300781 164.277344 C 122.023438 161.339844 121.800781 161.121094 118.832031 160.84375 C 121.800781 160.574219 122.023438 160.359375 122.300781 157.417969 C 122.574219 160.359375 122.796875 160.574219 125.765625 160.84375 C 122.796875 161.121094 122.574219 161.339844 122.300781 164.277344 " fill-opacity="1" fill-rule="nonzero"/></g></svg>