<svg xmlns="http://www.w3.org/2000/svg" xmlns:xlink="http://www.w3.org/1999/xlink" width="1152" zoomAndPan="magnify" viewBox="0 0 864 863.999991" height="1152" preserveAspectRatio="xMidYMid meet" version="1.0"><defs><clipPath id="e89c281ae9"><path d="M 86.398438 0 L 634 0 L 634 864 L 86.398438 864 Z M 86.398438 0 " clip-rule="nonzero"/></clipPath><clipPath id="8c4dd28cab"><path d="M 86.398438 0 L 547 0 L 547 864 L 86.398438 864 Z M 86.398438 0 " clip-rule="nonzero"/></clipPath><clipPath id="d0d6e4c6b0"><path d="M 388 230 L 791.398438 230 L 791.398438 634 L 388 634 Z M 388 230 " clip-rule="nonzero"/></clipPath></defs><g clip-path="url(#e89c281ae9)"><path fill="#a5c3dc" d="M 575.582031 863.777344 L 143.949219 863.777344 C 112.167969 863.777344 86.398438 838 86.398438 806.207031 L 86.398438 57.792969 C 86.398438 26 112.167969 0.222656 143.949219 0.222656 L 575.582031 0.222656 C 607.367188 0.222656 633.132812 26 633.132812 57.792969 L 633.132812 806.207031 C 633.132812 838 607.367188 863.777344 575.582031 863.777344 Z M 575.582031 863.777344 " fill-opacity="1" fill-rule="nonzero"/></g><g clip-path="url(#8c4dd28cab)"><path fill="#d7e6f0" d="M 489.257812 863.777344 L 143.949219 863.777344 C 112.167969 863.777344 86.398438 838 86.398438 806.207031 L 86.398438 57.792969 C 86.398438 26 112.167969 0.222656 143.949219 0.222656 L 489.257812 0.222656 C 521.042969 0.222656 546.808594 26 546.808594 57.792969 L 546.808594 806.207031 C 546.808594 838 521.042969 863.777344 489.257812 863.777344 Z M 489.257812 863.777344 " fill-opacity="1" fill-rule="nonzero"/></g><path fill="#555a6e" d="M 460.480469 806.207031 L 172.726562 806.207031 C 156.832031 806.207031 143.949219 793.320312 143.949219 777.421875 L 143.949219 144.148438 C 143.949219 128.25 156.832031 115.363281 172.726562 115.363281 L 460.480469 115.363281 C 476.375 115.363281 489.257812 128.25 489.257812 144.148438 L 489.257812 777.421875 C 489.257812 793.320312 476.375 806.207031 460.480469 806.207031 Z M 460.480469 806.207031 " fill-opacity="1" fill-rule="nonzero"/><path fill="#555a6e" d="M 359.765625 72.1875 L 273.441406 72.1875 C 265.496094 72.1875 259.054688 65.742188 259.054688 57.792969 C 259.054688 49.847656 265.496094 43.402344 273.441406 43.402344 L 359.765625 43.402344 C 367.714844 43.402344 374.15625 49.847656 374.15625 57.792969 C 374.15625 65.742188 367.714844 72.1875 359.765625 72.1875 Z M 359.765625 72.1875 " fill-opacity="1" fill-rule="nonzero"/><g clip-path="url(#d0d6e4c6b0)"><path fill="#2387c3" d="M 791.398438 432 C 791.398438 435.296875 791.320312 438.59375 791.15625 441.886719 C 790.996094 445.179688 790.753906 448.46875 790.429688 451.75 C 790.105469 455.03125 789.703125 458.304688 789.21875 461.566406 C 788.734375 464.828125 788.171875 468.074219 787.53125 471.308594 C 786.886719 474.542969 786.164062 477.761719 785.363281 480.960938 C 784.5625 484.15625 783.683594 487.335938 782.726562 490.492188 C 781.769531 493.648438 780.734375 496.777344 779.625 499.882812 C 778.515625 502.988281 777.328125 506.0625 776.066406 509.109375 C 774.804688 512.15625 773.46875 515.167969 772.0625 518.148438 C 770.652344 521.132812 769.167969 524.074219 767.617188 526.984375 C 766.0625 529.894531 764.4375 532.761719 762.742188 535.589844 C 761.046875 538.417969 759.285156 541.203125 757.453125 543.945312 C 755.621094 546.6875 753.722656 549.382812 751.761719 552.03125 C 749.796875 554.679688 747.769531 557.277344 745.679688 559.828125 C 743.585938 562.375 741.433594 564.871094 739.21875 567.316406 C 737.007812 569.757812 734.734375 572.148438 732.402344 574.480469 C 730.070312 576.8125 727.683594 579.082031 725.242188 581.296875 C 722.800781 583.511719 720.304688 585.667969 717.757812 587.757812 C 715.207031 589.851562 712.609375 591.878906 709.960938 593.84375 C 707.316406 595.808594 704.621094 597.707031 701.878906 599.539062 C 699.136719 601.371094 696.355469 603.132812 693.527344 604.828125 C 690.699219 606.523438 687.832031 608.148438 684.925781 609.703125 C 682.015625 611.257812 679.074219 612.738281 676.09375 614.148438 C 673.113281 615.558594 670.101562 616.894531 667.054688 618.15625 C 664.007812 619.417969 660.933594 620.605469 657.832031 621.714844 C 654.726562 622.828125 651.597656 623.863281 648.441406 624.820312 C 645.289062 625.777344 642.113281 626.65625 638.914062 627.457031 C 635.71875 628.257812 632.5 628.980469 629.269531 629.625 C 626.035156 630.265625 622.789062 630.832031 619.527344 631.316406 C 616.265625 631.796875 612.996094 632.203125 609.714844 632.523438 C 606.433594 632.847656 603.148438 633.089844 599.855469 633.253906 C 596.5625 633.414062 593.269531 633.496094 589.972656 633.496094 C 586.675781 633.496094 583.378906 633.414062 580.085938 633.253906 C 576.796875 633.089844 573.507812 632.847656 570.226562 632.523438 C 566.949219 632.203125 563.675781 631.796875 560.414062 631.316406 C 557.15625 630.832031 553.90625 630.265625 550.675781 629.625 C 547.441406 628.980469 544.226562 628.257812 541.027344 627.457031 C 537.832031 626.65625 534.65625 625.777344 531.5 624.820312 C 528.34375 623.863281 525.214844 622.828125 522.113281 621.714844 C 519.007812 620.605469 515.933594 619.417969 512.886719 618.15625 C 509.84375 616.894531 506.828125 615.558594 503.847656 614.148438 C 500.871094 612.738281 497.925781 611.257812 495.019531 609.703125 C 492.113281 608.148438 489.242188 606.523438 486.417969 604.828125 C 483.589844 603.132812 480.804688 601.371094 478.0625 599.539062 C 475.324219 597.707031 472.628906 595.808594 469.980469 593.84375 C 467.332031 591.878906 464.734375 589.851562 462.1875 587.757812 C 459.636719 585.667969 457.144531 583.511719 454.699219 581.296875 C 452.257812 579.082031 449.871094 576.8125 447.539062 574.480469 C 445.207031 572.148438 442.9375 569.757812 440.722656 567.316406 C 438.507812 564.871094 436.355469 562.375 434.265625 559.828125 C 432.171875 557.277344 430.144531 554.679688 428.183594 552.03125 C 426.21875 549.382812 424.320312 546.6875 422.488281 543.945312 C 420.65625 541.203125 418.894531 538.417969 417.199219 535.589844 C 415.503906 532.761719 413.882812 529.894531 412.328125 526.984375 C 410.773438 524.074219 409.292969 521.132812 407.882812 518.148438 C 406.472656 515.167969 405.136719 512.15625 403.875 509.109375 C 402.613281 506.0625 401.429688 502.988281 400.316406 499.882812 C 399.207031 496.777344 398.171875 493.648438 397.214844 490.492188 C 396.257812 487.335938 395.378906 484.15625 394.578125 480.960938 C 393.777344 477.761719 393.054688 474.542969 392.414062 471.308594 C 391.769531 468.074219 391.207031 464.828125 390.722656 461.566406 C 390.238281 458.304688 389.835938 455.03125 389.511719 451.75 C 389.191406 448.46875 388.945312 445.179688 388.785156 441.886719 C 388.625 438.59375 388.542969 435.296875 388.542969 432 C 388.542969 428.703125 388.625 425.40625 388.785156 422.113281 C 388.945312 418.820312 389.191406 415.53125 389.511719 412.25 C 389.835938 408.96875 390.238281 405.695312 390.722656 402.433594 C 391.207031 399.171875 391.769531 395.925781 392.414062 392.691406 C 393.054688 389.457031 393.777344 386.238281 394.578125 383.039062 C 395.378906 379.839844 396.257812 376.664062 397.214844 373.507812 C 398.171875 370.351562 399.207031 367.222656 400.316406 364.117188 C 401.429688 361.011719 402.613281 357.9375 403.875 354.890625 C 405.136719 351.84375 406.472656 348.832031 407.882812 345.847656 C 409.292969 342.867188 410.773438 339.925781 412.328125 337.015625 C 413.882812 334.105469 415.503906 331.238281 417.199219 328.410156 C 418.894531 325.582031 420.65625 322.796875 422.488281 320.054688 C 424.320312 317.3125 426.21875 314.617188 428.183594 311.96875 C 430.144531 309.320312 432.171875 306.722656 434.265625 304.171875 C 436.355469 301.625 438.507812 299.128906 440.722656 296.683594 C 442.9375 294.242188 445.207031 291.851562 447.539062 289.519531 C 449.871094 287.1875 452.257812 284.917969 454.699219 282.703125 C 457.144531 280.488281 459.636719 278.332031 462.1875 276.242188 C 464.734375 274.148438 467.332031 272.121094 469.980469 270.15625 C 472.628906 268.191406 475.324219 266.292969 478.0625 264.460938 C 480.804688 262.628906 483.589844 260.867188 486.417969 259.171875 C 489.242188 257.476562 492.113281 255.851562 495.019531 254.296875 C 497.925781 252.742188 500.871094 251.261719 503.851562 249.851562 C 506.828125 248.441406 509.84375 247.105469 512.886719 245.84375 C 515.933594 244.582031 519.007812 243.394531 522.113281 242.28125 C 525.214844 241.171875 528.34375 240.136719 531.5 239.179688 C 534.65625 238.222656 537.832031 237.34375 541.027344 236.542969 C 544.226562 235.742188 547.441406 235.019531 550.675781 234.375 C 553.90625 233.734375 557.15625 233.167969 560.414062 232.683594 C 563.675781 232.203125 566.949219 231.796875 570.226562 231.476562 C 573.507812 231.152344 576.796875 230.910156 580.085938 230.746094 C 583.378906 230.585938 586.675781 230.503906 589.972656 230.503906 C 593.269531 230.503906 596.5625 230.585938 599.855469 230.746094 C 603.148438 230.910156 606.433594 231.152344 609.714844 231.476562 C 612.996094 231.796875 616.265625 232.203125 619.527344 232.683594 C 622.789062 233.167969 626.035156 233.734375 629.269531 234.375 C 632.5 235.019531 635.714844 235.742188 638.914062 236.542969 C 642.113281 237.34375 645.289062 238.222656 648.441406 239.179688 C 651.597656 240.136719 654.726562 241.171875 657.832031 242.28125 C 660.933594 243.394531 664.007812 244.582031 667.054688 245.84375 C 670.101562 247.105469 673.113281 248.441406 676.09375 249.851562 C 679.074219 251.261719 682.015625 252.742188 684.925781 254.296875 C 687.832031 255.851562 690.699219 257.476562 693.527344 259.171875 C 696.355469 260.867188 699.136719 262.628906 701.878906 264.460938 C 704.621094 266.292969 707.3125 268.191406 709.960938 270.15625 C 712.609375 272.121094 715.207031 274.148438 717.757812 276.242188 C 720.304688 278.332031 722.800781 280.488281 725.242188 282.703125 C 727.683594 284.917969 730.070312 287.1875 732.402344 289.519531 C 734.734375 291.851562 737.007812 294.242188 739.21875 296.683594 C 741.433594 299.128906 743.585938 301.625 745.679688 304.171875 C 747.769531 306.722656 749.796875 309.320312 751.761719 311.96875 C 753.722656 314.617188 755.621094 317.3125 757.453125 320.054688 C 759.285156 322.796875 761.046875 325.582031 762.742188 328.410156 C 764.4375 331.238281 766.0625 334.105469 767.617188 337.015625 C 769.167969 339.925781 770.652344 342.867188 772.0625 345.847656 C 773.46875 348.832031 774.804688 351.84375 776.066406 354.890625 C 777.328125 357.9375 778.515625 361.011719 779.625 364.117188 C 780.734375 367.222656 781.769531 370.351562 782.726562 373.507812 C 783.683594 376.664062 784.5625 379.839844 785.363281 383.039062 C 786.164062 386.238281 786.886719 389.457031 787.53125 392.691406 C 788.171875 395.925781 788.734375 399.171875 789.21875 402.433594 C 789.703125 405.695312 790.105469 408.96875 790.429688 412.25 C 790.753906 415.53125 790.996094 418.820312 791.15625 422.113281 C 791.320312 425.40625 791.398438 428.703125 791.398438 432 Z M 791.398438 432 " fill-opacity="1" fill-rule="nonzero"/></g><path fill="#463c4b" d="M 314.054688 410.652344 L 288.75 431.5625 L 240.433594 373.84375 L 234.371094 366.601562 C 233.097656 365.078125 230.828125 364.875 229.304688 366.152344 L 220.125 373.84375 L 175.40625 411.296875 L 143.949219 374.429688 L 143.949219 446.390625 L 157.472656 456.832031 L 172.648438 469.542969 C 174.171875 470.816406 176.4375 470.613281 177.714844 469.09375 L 187.976562 456.832031 L 232.0625 404.167969 L 282.765625 446.640625 L 285.941406 449.296875 C 287.457031 450.566406 289.710938 450.375 290.992188 448.867188 L 292.855469 446.671875 L 319.085938 415.761719 C 321.929688 412.410156 317.441406 407.859375 314.054688 410.652344 Z M 314.054688 410.652344 " fill-opacity="1" fill-rule="nonzero"/><path fill="#5ad7ff" d="M 541.957031 336.105469 C 536.691406 330.835938 528.148438 330.835938 522.882812 336.105469 L 503.644531 355.347656 L 484.40625 336.105469 C 479.140625 330.835938 470.597656 330.835938 465.332031 336.105469 C 460.066406 341.375 460.066406 349.917969 465.332031 355.183594 L 484.570312 374.429688 L 465.332031 393.675781 C 460.066406 398.945312 460.066406 407.488281 465.332031 412.753906 C 467.964844 415.390625 471.417969 416.707031 474.871094 416.707031 C 478.320312 416.707031 481.773438 415.390625 484.40625 412.753906 L 503.644531 393.511719 L 522.882812 412.753906 C 525.515625 415.390625 528.96875 416.707031 532.421875 416.707031 C 535.871094 416.707031 539.324219 415.390625 541.957031 412.753906 C 547.226562 407.484375 547.226562 398.941406 541.957031 393.675781 L 522.71875 374.429688 L 541.957031 355.183594 C 547.226562 349.917969 547.226562 341.371094 541.957031 336.105469 Z M 541.957031 336.105469 " fill-opacity="1" fill-rule="nonzero"/><path fill="#5ad7ff" d="M 695.371094 374.429688 L 714.609375 355.183594 C 719.878906 349.914062 719.878906 341.371094 714.609375 336.105469 C 709.34375 330.835938 700.800781 330.835938 695.535156 336.105469 L 676.296875 355.347656 L 657.058594 336.105469 C 651.792969 330.835938 643.25 330.835938 637.984375 336.105469 C 632.71875 341.375 632.71875 349.917969 637.984375 355.183594 L 657.222656 374.429688 L 637.984375 393.675781 C 632.71875 398.945312 632.71875 407.488281 637.984375 412.753906 C 640.617188 415.390625 644.070312 416.707031 647.523438 416.707031 C 650.972656 416.707031 654.425781 415.390625 657.058594 412.753906 L 676.296875 393.511719 L 695.535156 412.753906 C 698.167969 415.390625 701.621094 416.707031 705.074219 416.707031 C 708.523438 416.707031 711.976562 415.390625 714.609375 412.753906 C 719.878906 407.484375 719.878906 398.941406 714.609375 393.675781 Z M 695.371094 374.429688 " fill-opacity="1" fill-rule="nonzero"/><path fill="#463c4b" d="M 705.074219 531.847656 C 701.621094 531.847656 698.167969 530.53125 695.535156 527.894531 L 676.296875 508.652344 L 657.058594 527.894531 C 651.792969 533.164062 643.25 533.164062 637.984375 527.894531 L 618.746094 508.652344 L 599.507812 527.894531 C 594.242188 533.164062 585.699219 533.164062 580.433594 527.894531 L 561.195312 508.652344 L 541.957031 527.894531 C 536.691406 533.164062 528.148438 533.164062 522.882812 527.894531 L 503.644531 508.652344 L 484.40625 527.894531 C 479.140625 533.164062 470.597656 533.164062 465.332031 527.894531 C 460.066406 522.625 460.066406 514.082031 465.332031 508.816406 L 494.109375 480.03125 C 499.375 474.761719 507.917969 474.761719 513.183594 480.03125 L 532.421875 499.273438 L 551.660156 480.03125 C 556.925781 474.761719 565.46875 474.761719 570.734375 480.03125 L 589.972656 499.273438 L 609.210938 480.03125 C 614.476562 474.761719 623.019531 474.761719 628.285156 480.03125 L 647.523438 499.273438 L 666.761719 480.03125 C 672.027344 474.761719 680.570312 474.761719 685.835938 480.03125 L 714.609375 508.816406 C 719.878906 514.085938 719.878906 522.628906 714.609375 527.894531 C 711.976562 530.53125 708.523438 531.847656 705.074219 531.847656 Z M 705.074219 531.847656 " fill-opacity="1" fill-rule="nonzero"/></svg>