<svg xmlns="http://www.w3.org/2000/svg" xmlns:xlink="http://www.w3.org/1999/xlink" width="1152" zoomAndPan="magnify" viewBox="0 0 864 863.999991" height="1152" preserveAspectRatio="xMidYMid meet" version="1.0"><defs><clipPath id="f38d647b97"><path d="M 515 333.164062 L 847.382812 333.164062 L 847.382812 571.714844 L 515 571.714844 Z M 515 333.164062 " clip-rule="nonzero"/></clipPath><clipPath id="636f4f0fac"><path d="M 19 319.089844 L 470 319.089844 L 470 565 L 19 565 Z M 19 319.089844 " clip-rule="nonzero"/></clipPath><clipPath id="9752dca91f"><path d="M 26.332031 453.25 L 51.640625 453.25 L 51.640625 548.5625 L 26.332031 548.5625 Z M 26.332031 453.25 " clip-rule="nonzero"/></clipPath><clipPath id="d2f34a7004"><path d="M 70.664062 537.785156 C 70.925781 533.21875 71.023438 528.472656 70.925781 523.5625 C 70.398438 497.015625 64.257812 474.199219 57.15625 456.21875 C 55.796875 455.292969 53.539062 454.046875 50.511719 453.570312 C 48.964844 453.328125 43.773438 452.511719 40.121094 455.449219 C 38.113281 457.0625 37.945312 458.707031 35.449219 459.738281 C 34.984375 459.929688 33.386719 460.570312 31.457031 460.265625 C 28.414062 459.789062 28.011719 457.511719 25.097656 456.140625 C 22.253906 454.808594 18.640625 455.097656 15.882812 456.566406 C 11.894531 458.679688 10.703125 462.703125 10.480469 463.511719 C 11.542969 480.714844 13.605469 499.375 17.144531 519.1875 C 18.71875 527.996094 20.484375 536.460938 22.382812 544.566406 C 23.265625 545.457031 25.421875 547.378906 28.792969 548.144531 C 29.566406 548.316406 34.363281 549.332031 38.289062 546.65625 C 41.339844 544.582031 40.59375 542.503906 43.832031 540.640625 C 44.394531 540.316406 47.5 538.609375 50.722656 539.566406 C 53.28125 540.320312 53.15625 541.941406 55.707031 543.367188 C 59.65625 545.578125 65.960938 545.046875 68.953125 541.484375 C 70.09375 540.128906 70.5 538.636719 70.664062 537.785156 Z M 70.664062 537.785156 " clip-rule="nonzero"/></clipPath><clipPath id="45fb424bdf"><path d="M 587 612.101562 L 648.828125 612.101562 L 648.828125 650.539062 L 587 650.539062 Z M 587 612.101562 " clip-rule="nonzero"/></clipPath></defs><path fill="#357739" d="M 466.34375 591.855469 C 466.34375 588.769531 466.34375 585.6875 466.34375 582.605469 C 434.433594 578.863281 402.519531 575.121094 370.605469 571.378906 C 370.605469 574.464844 370.605469 577.546875 370.605469 580.628906 C 375.003906 585.628906 379.398438 590.625 383.796875 595.625 C 368.21875 596.8125 352.640625 598 337.058594 599.191406 C 337.058594 602.273438 337.058594 605.359375 337.058594 608.4375 C 356.390625 615.175781 377.53125 621.664062 400.382812 627.457031 C 418.273438 631.996094 435.410156 635.648438 451.644531 638.59375 C 451.644531 635.511719 451.644531 632.425781 451.644531 629.34375 C 450.136719 624.007812 448.628906 618.675781 447.121094 613.339844 C 450.496094 610.945312 454.621094 607.53125 458.683594 602.832031 C 462.082031 598.898438 464.558594 595.074219 466.34375 591.855469 " fill-opacity="1" fill-rule="nonzero"/><path fill="#49a54f" d="M 623.03125 470.796875 C 596.023438 482.339844 569.019531 493.886719 542.015625 505.433594 C 551.863281 515.339844 561.710938 525.246094 571.5625 535.152344 C 621.074219 530.929688 662.015625 495.246094 672.28125 448.09375 C 681.6875 404.863281 663.695312 359.398438 626.664062 333.234375 C 618.070312 331.394531 609.203125 329.652344 600.074219 328.046875 C 583.277344 325.089844 567.125 322.84375 551.71875 321.171875 C 567.660156 349.253906 583.601562 377.335938 599.546875 405.414062 C 607.371094 427.210938 615.199219 449 623.03125 470.796875 " fill-opacity="1" fill-rule="nonzero"/><g clip-path="url(#f38d647b97)"><path fill="#357739" d="M 597.191406 526.539062 C 569.847656 504.832031 542.503906 483.128906 515.15625 461.421875 C 543.203125 451.460938 571.253906 441.496094 599.296875 431.535156 C 587.871094 418.917969 576.441406 406.304688 565.011719 393.691406 C 588.71875 384.886719 612.421875 376.082031 636.125 367.277344 C 632.972656 355.929688 629.816406 344.582031 626.664062 333.234375 C 673.765625 341.566406 714.101562 349.714844 745.976562 356.542969 C 806.375 369.476562 821.273438 374.410156 832.863281 389.214844 C 854.492188 416.839844 847.082031 456.460938 841.457031 486.503906 C 835.289062 519.492188 829.859375 548.519531 807.125 563.585938 C 782.746094 579.738281 756.179688 568.109375 681.257812 552.945312 C 635.492188 543.683594 597.429688 538.308594 571.5625 535.152344 C 580.105469 532.28125 588.644531 529.410156 597.191406 526.539062 " fill-opacity="1" fill-rule="nonzero"/></g><path fill="#49a54f" d="M 786.46875 546.761719 C 800.53125 547.980469 816.546875 504.347656 822.574219 471.070312 C 823.542969 465.710938 833.546875 408.585938 818.082031 402.605469 C 812.363281 400.394531 799.773438 411.925781 774.820312 435.074219 C 752.898438 455.417969 750.046875 460.679688 749.070312 466.71875 C 747.753906 474.785156 750.546875 479.429688 763.925781 506.71875 C 781.585938 542.742188 782.492188 546.417969 786.46875 546.761719 " fill-opacity="1" fill-rule="nonzero"/><g clip-path="url(#636f4f0fac)"><path fill="#357739" d="M 403.964844 449.652344 C 415.382812 440.015625 426.753906 430.417969 438.214844 420.824219 C 426.269531 414.679688 414.28125 408.492188 402.335938 402.351562 C 399.191406 400.695312 396 399.082031 392.855469 397.433594 C 403.71875 387.964844 414.664062 378.503906 425.605469 369.039062 L 450.222656 347.761719 C 448.734375 345.769531 447.253906 343.695312 445.808594 341.664062 C 440.285156 334.1875 434.882812 326.675781 429.398438 319.160156 C 401 323.960938 371.027344 329.109375 339.273438 334.546875 C 315.363281 338.671875 290.382812 343.09375 266.875 349.128906 C 229.546875 358.683594 195.820312 372.308594 175.476562 395.28125 C 174.75 396.0625 174.015625 396.929688 173.234375 397.921875 C 172.453125 398.828125 171.761719 399.738281 171.066406 400.652344 C 170.554688 401.328125 170.09375 401.964844 169.582031 402.636719 C 169.117188 403.273438 168.691406 403.957031 168.265625 404.636719 C 167.609375 405.59375 166.949219 406.632812 166.324219 407.71875 C 165.65625 408.839844 164.980469 410.050781 164.300781 411.339844 C 163.089844 413.636719 161.945312 416.109375 160.914062 418.796875 C 156.585938 429.953125 155.589844 440.179688 155.539062 447.25 C 153.632812 447.574219 149.5625 448.28125 144.554688 449.171875 C 143.40625 449.382812 142.308594 449.554688 141.117188 449.804688 C 137.089844 450.472656 132.597656 451.234375 128.316406 451.972656 L 125.894531 452.421875 C 124.074219 452.75 122.292969 453.039062 120.46875 453.367188 C 114.621094 454.367188 109.824219 455.230469 107.707031 455.582031 C 91.296875 458.449219 74.847656 461.273438 59.539062 463.96875 C 45.199219 466.527344 28.875 469.402344 19.757812 470.960938 C 19.441406 479.351562 19.695312 489.667969 21.457031 501.183594 C 21.546875 501.652344 21.597656 502.074219 21.691406 502.542969 C 21.84375 503.347656 21.953125 504.109375 22.109375 504.832031 C 22.195312 505.382812 22.289062 505.851562 22.378906 506.316406 C 24.550781 517.945312 27.734375 527.683594 30.859375 535.359375 C 44.1875 533.441406 57.5625 531.480469 70.980469 529.484375 C 76.859375 528.613281 82.660156 527.738281 88.542969 526.867188 C 115 522.886719 141.246094 518.847656 167.339844 514.71875 C 171.054688 522.355469 177.839844 533.816406 189.726562 543.683594 C 229.878906 577.039062 292.265625 561.980469 321.828125 555.003906 C 357.433594 546.621094 399.878906 537.566406 448.539062 527.578125 C 455.523438 521.933594 462.550781 516.246094 469.496094 510.558594 C 436.324219 499.816406 403.066406 489.066406 369.894531 478.324219 C 381.222656 468.761719 392.636719 459.210938 403.964844 449.652344 " fill-opacity="1" fill-rule="nonzero"/></g><path fill="#49a54f" d="M 68.933594 541.476562 C 70.117188 540.140625 70.476562 538.65625 70.667969 537.792969 C 70.785156 535.582031 70.945312 532.789062 70.980469 529.484375 C 70.984375 527.683594 71 525.71875 70.945312 523.578125 C 70.503906 511.78125 68.859375 507.351562 66.617188 497.890625 C 65.644531 493.972656 64.621094 489.082031 63.515625 482.386719 C 62.765625 477.726562 61.644531 470.109375 59.539062 463.96875 C 58.089844 459.679688 56.210938 456.152344 53.714844 454.796875 C 52.1875 453.933594 50.539062 453.5625 50.539062 453.5625 C 49.960938 453.433594 44.238281 452.140625 40.144531 455.441406 C 38.101562 457.054688 37.945312 458.671875 35.4375 459.746094 C 34.960938 459.921875 33.410156 460.5625 31.460938 460.296875 C 28.441406 459.785156 28.023438 457.492188 25.0625 456.148438 C 22.273438 454.8125 18.609375 455.089844 15.90625 456.570312 C 15.300781 456.859375 14.9375 457.253906 14.488281 457.636719 C 14.449219 457.59375 14.410156 457.550781 14.410156 457.550781 C 11.878906 459.582031 8.195312 463 5.355469 468.113281 C 0.0117188 477.648438 0.9375 487.382812 4.277344 504.246094 C 4.753906 506.878906 5.34375 509.726562 5.960938 512.785156 C 11.542969 539.648438 17.050781 544.488281 21.429688 546.480469 C 24.21875 547.816406 26.878906 548.09375 28.800781 548.148438 C 29.585938 548.328125 34.367188 549.347656 38.289062 546.660156 C 41.328125 544.578125 40.601562 542.472656 43.835938 540.617188 C 44.359375 540.316406 47.496094 538.621094 50.734375 539.570312 C 53.273438 540.339844 53.160156 541.921875 55.734375 543.363281 C 59.675781 545.578125 65.953125 545.070312 68.933594 541.476562 " fill-opacity="1" fill-rule="nonzero"/><g clip-path="url(#9752dca91f)"><g clip-path="url(#d2f34a7004)"><path fill="#357739" d="M 46.671875 553.78125 C 46.640625 553.78125 46.605469 553.78125 46.570312 553.78125 C 43.917969 553.726562 41.808594 551.535156 41.863281 548.878906 C 42.863281 499.910156 27.082031 453.6875 26.921875 453.226562 C 26.050781 450.714844 27.378906 447.980469 29.890625 447.109375 C 32.394531 446.246094 35.136719 447.578125 36.003906 450.082031 C 36.675781 452.03125 52.507812 498.40625 51.476562 549.078125 C 51.421875 551.691406 49.277344 553.78125 46.671875 553.78125 " fill-opacity="1" fill-rule="nonzero"/></g></g><path fill="#357739" d="M 19.488281 536.878906 C 20.648438 538.902344 21.714844 540.425781 22.601562 540.207031 C 25.84375 539.40625 23.421875 516.023438 23.207031 513.988281 C 21.441406 497.378906 16.605469 473.175781 11.855469 472.929688 C 10.664062 472.871094 9.859375 474.34375 9.203125 475.550781 C 6.257812 480.964844 7.871094 487.5625 10.671875 504.175781 C 13.148438 518.863281 14.253906 527.746094 19.488281 536.878906 " fill-opacity="1" fill-rule="nonzero"/><path fill="#49a54f" d="M 466.34375 582.605469 L 370.605469 571.378906 L 383.796875 586.375 L 337.058594 599.191406 L 451.644531 629.34375 L 447.121094 604.089844 L 466.34375 582.605469 " fill-opacity="1" fill-rule="nonzero"/><path fill="#357739" d="M 494.113281 604.339844 C 503.449219 606.800781 514.050781 609.007812 525.773438 610.5 C 543.863281 612.796875 560.046875 612.796875 573.519531 611.878906 C 573.519531 608.863281 573.519531 605.851562 573.519531 602.832031 C 568.824219 594.710938 564.132812 586.582031 559.445312 578.460938 C 537.667969 584.074219 515.890625 589.683594 494.113281 595.292969 C 494.113281 598.3125 494.113281 601.328125 494.113281 604.339844 " fill-opacity="1" fill-rule="nonzero"/><path fill="#49a54f" d="M 494.113281 595.292969 C 503.84375 596.871094 514.011719 598.269531 524.589844 599.4375 C 541.820312 601.332031 558.171875 602.390625 573.519531 602.832031 C 572.796875 599.726562 571.894531 596.445312 570.753906 593.03125 C 567.570312 583.523438 563.429688 575.644531 559.445312 569.414062 C 537.667969 569.414062 515.890625 569.414062 494.113281 569.414062 L 494.113281 595.292969 " fill-opacity="1" fill-rule="nonzero"/><g clip-path="url(#45fb424bdf)"><path fill="#357739" d="M 639.167969 650.539062 C 633.714844 650.300781 627.703125 649.738281 621.261719 648.65625 C 609.664062 646.710938 599.722656 643.609375 591.671875 640.441406 C 590.199219 636.832031 588.722656 633.230469 587.246094 629.621094 C 593.304688 628.332031 599.367188 627.046875 605.433594 625.757812 C 606.121094 621.324219 606.804688 616.890625 607.492188 612.453125 C 621.238281 616.011719 634.980469 619.570312 648.726562 623.128906 C 648.652344 627.554688 648.570312 631.980469 648.496094 636.40625 C 645.386719 641.117188 642.273438 645.828125 639.167969 650.539062 " fill-opacity="1" fill-rule="nonzero"/></g><path fill="#49a54f" d="M 637.65625 639.160156 C 633.347656 638.527344 628.992188 637.839844 624.585938 637.09375 C 611.609375 634.902344 599.160156 632.382812 587.246094 629.621094 C 594.785156 626.574219 602.320312 623.527344 609.859375 620.480469 C 609.074219 617.804688 608.28125 615.128906 607.492188 612.453125 C 621.238281 616.011719 634.980469 619.570312 648.726562 623.128906 C 645.039062 628.472656 641.34375 633.816406 637.65625 639.160156 " fill-opacity="1" fill-rule="nonzero"/></svg>