<svg xmlns="http://www.w3.org/2000/svg" xmlns:xlink="http://www.w3.org/1999/xlink" width="500" zoomAndPan="magnify" viewBox="0 0 375 374.999991" height="500" preserveAspectRatio="xMidYMid meet" version="1.0"><path fill="#64a139" d="M 32.222656 77.851562 C 31.882812 77.851562 31.539062 77.757812 31.214844 77.570312 C 30.28125 77.011719 29.96875 75.8125 30.53125 74.882812 C 33.0625 70.640625 35.8125 66.597656 38.703125 62.867188 C 39.375 62.011719 40.601562 61.859375 41.457031 62.511719 C 42.3125 63.179688 42.464844 64.40625 41.8125 65.261719 C 39.015625 68.867188 36.359375 72.785156 33.902344 76.886719 C 33.546875 77.507812 32.890625 77.851562 32.222656 77.851562 Z M 32.222656 77.851562 " fill-opacity="1" fill-rule="nonzero"/><path fill="#64a139" d="M 4.496094 218.398438 C 3.503906 218.398438 2.648438 217.636719 2.539062 216.625 C 0.00390625 191.058594 2.289062 162.507812 9.363281 131.765625 C 14.195312 110.691406 19.945312 94.339844 27.453125 80.320312 C 27.964844 79.359375 29.164062 79 30.109375 79.511719 C 31.074219 80.027344 31.429688 81.222656 30.917969 82.171875 C 23.582031 95.878906 17.941406 111.917969 13.183594 132.652344 C 6.222656 162.972656 3.953125 191.105469 6.441406 216.238281 C 6.546875 217.324219 5.753906 218.273438 4.683594 218.382812 C 4.621094 218.398438 4.558594 218.398438 4.496094 218.398438 Z M 4.496094 218.398438 " fill-opacity="1" fill-rule="nonzero"/><path fill="#64a139" d="M 11.460938 253.289062 C 10.621094 253.289062 9.84375 252.746094 9.578125 251.90625 C 8.414062 248.160156 5.941406 236.410156 4.324219 227.691406 C 4.125 226.621094 4.839844 225.59375 5.894531 225.390625 C 6.96875 225.207031 7.992188 225.90625 8.195312 226.960938 C 10 236.675781 12.34375 247.554688 13.339844 250.726562 C 13.667969 251.765625 13.074219 252.871094 12.050781 253.179688 C 11.847656 253.257812 11.644531 253.289062 11.460938 253.289062 Z M 11.460938 253.289062 " fill-opacity="1" fill-rule="nonzero"/><path fill="#64a139" d="M 227.355469 375 C 226.421875 375 225.597656 374.347656 225.429688 373.398438 C 225.226562 372.328125 225.925781 371.300781 226.996094 371.097656 C 236.523438 369.296875 245.929688 366.761719 254.941406 363.578125 C 255.96875 363.21875 257.085938 363.746094 257.445312 364.773438 C 257.800781 365.800781 257.273438 366.917969 256.246094 367.277344 C 247.046875 370.523438 237.441406 373.121094 227.726562 374.953125 C 227.605469 374.984375 227.480469 375 227.355469 375 Z M 227.355469 375 " fill-opacity="1" fill-rule="nonzero"/><path fill="#64a139" d="M 275.101562 359.226562 C 274.371094 359.226562 273.671875 358.820312 273.328125 358.121094 C 272.847656 357.140625 273.25 355.960938 274.230469 355.496094 C 325.007812 330.71875 362.726562 283.300781 375.144531 228.671875 C 375.378906 227.613281 376.433594 226.945312 377.492188 227.195312 C 378.546875 227.425781 379.21875 228.484375 378.96875 229.542969 C 372.78125 256.785156 359.976562 283.144531 341.929688 305.777344 C 323.964844 328.328125 301.132812 346.746094 275.941406 359.039062 C 275.675781 359.164062 275.378906 359.226562 275.101562 359.226562 Z M 275.101562 359.226562 " fill-opacity="1" fill-rule="nonzero"/><path fill="#64a139" d="M 299.765625 36.851562 C 299.394531 36.851562 299.019531 36.742188 298.691406 36.523438 C 290.175781 30.945312 281.054688 26.046875 271.589844 21.960938 C 270.59375 21.527344 270.125 20.375 270.5625 19.382812 C 270.996094 18.386719 272.148438 17.921875 273.140625 18.355469 C 282.824219 22.519531 292.132812 27.539062 300.839844 33.230469 C 301.738281 33.820312 302.003906 35.046875 301.414062 35.949219 C 301.039062 36.539062 300.402344 36.851562 299.765625 36.851562 Z M 299.765625 36.851562 " fill-opacity="1" fill-rule="nonzero"/><path fill="#64a139" d="M 256.542969 16.148438 C 256.339844 16.148438 256.140625 16.117188 255.9375 16.054688 C 251.601562 14.625 247.125 13.335938 242.632812 12.214844 C 241.574219 11.953125 240.9375 10.878906 241.203125 9.824219 C 241.46875 8.765625 242.539062 8.128906 243.597656 8.394531 C 248.179688 9.542969 252.75 10.863281 257.179688 12.308594 C 258.207031 12.652344 258.78125 13.753906 258.4375 14.796875 C 258.144531 15.621094 257.367188 16.148438 256.542969 16.148438 Z M 256.542969 16.148438 " fill-opacity="1" fill-rule="nonzero"/><path fill="#64a139" d="M 243.097656 12.261719 C 242.945312 12.261719 242.773438 12.246094 242.617188 12.199219 C 212.542969 4.664062 179.082031 3.964844 145.820312 10.210938 C 144.75 10.414062 143.722656 9.714844 143.519531 8.640625 C 143.320312 7.570312 144.019531 6.542969 145.089844 6.339844 C 178.894531 0 212.949219 0.714844 243.566406 8.394531 C 244.621094 8.65625 245.257812 9.730469 244.996094 10.785156 C 244.777344 11.65625 243.984375 12.261719 243.097656 12.261719 Z M 243.097656 12.261719 " fill-opacity="1" fill-rule="nonzero"/><path fill="#64a139" d="M 190.316406 368.175781 C 164.503906 368.175781 138.640625 362.921875 114.800781 352.386719 C 69.167969 332.210938 33.605469 293.386719 19.679688 248.550781 C 9.671875 216.285156 9.59375 178.097656 19.480469 135.078125 C 23.582031 117.203125 30.933594 91 47.207031 69.96875 C 62.265625 50.511719 85.238281 35.140625 113.617188 25.519531 C 144.035156 15.199219 176.066406 10.894531 206.28125 13.054688 C 239.324219 15.417969 269.117188 25.164062 294.824219 41.980469 C 309.199219 51.398438 321.914062 62.695312 332.605469 75.550781 C 366.769531 116.675781 380.585938 174.863281 368.632812 227.410156 C 362.789062 253.148438 350.695312 278.046875 333.648438 299.417969 C 316.675781 320.710938 295.117188 338.117188 271.308594 349.726562 C 246.175781 362.007812 218.277344 368.160156 190.316406 368.175781 Z M 190.863281 16.382812 C 166.148438 16.382812 140.488281 20.671875 114.9375 29.34375 C 87.320312 38.714844 65.019531 53.621094 50.4375 72.441406 C 34.632812 92.832031 27.453125 118.476562 23.441406 135.976562 C 13.730469 178.300781 13.761719 215.753906 23.566406 247.335938 C 37.152344 291.089844 71.871094 328.964844 116.445312 348.671875 C 165 370.136719 222.242188 369.171875 269.550781 346.089844 C 317.421875 322.730469 352.996094 278.03125 364.699219 226.511719 C 376.371094 175.160156 362.882812 118.304688 329.496094 78.128906 C 319.070312 65.570312 306.667969 54.554688 292.617188 45.351562 C 263.273438 26.15625 228.148438 16.382812 190.863281 16.382812 Z M 190.863281 16.382812 " fill-opacity="1" fill-rule="nonzero"/><path fill="#64a139" d="M 27.5625 265.847656 C 27.046875 265.847656 26.535156 265.660156 26.148438 265.273438 C 25.355469 264.496094 25.339844 263.207031 26.117188 262.414062 C 29.394531 259.054688 32.222656 255.558594 33.902344 253.460938 C 34.230469 253.042969 34.523438 252.699219 34.742188 252.417969 C 39 247.183594 37.945312 239.96875 36.808594 232.339844 C 36.125 227.738281 35.425781 223 36 218.660156 C 36.667969 213.515625 35.082031 210.113281 33.0625 205.792969 C 32.097656 203.726562 30.996094 201.378906 30.09375 198.628906 C 28.476562 193.746094 29.132812 189.550781 31.726562 188.199219 C 33.328125 187.359375 35.9375 187.328125 39.359375 191.914062 C 40.507812 193.46875 41.300781 194.789062 41.984375 195.953125 C 43.367188 198.300781 44.207031 199.699219 47.019531 201.207031 C 47.953125 201.707031 48.902344 202.15625 49.832031 202.589844 C 53.332031 204.222656 56.9375 205.917969 59.21875 210.316406 C 59.90625 211.636719 60.308594 213.019531 60.652344 214.234375 C 61.382812 216.71875 61.878906 218.179688 63.679688 219.050781 C 64.613281 219.5 65.671875 219.578125 66.898438 219.671875 C 68.761719 219.8125 70.878906 219.96875 73.023438 221.445312 C 74.53125 222.484375 75.664062 224.054688 76.769531 225.5625 C 77.714844 226.851562 78.679688 228.1875 79.703125 228.875 C 81.957031 230.363281 82.597656 230.304688 82.613281 230.289062 C 82.84375 230.148438 83.371094 229.214844 83.777344 228.515625 C 84.089844 227.957031 84.445312 227.335938 84.878906 226.667969 C 85.363281 225.921875 85.625 225.421875 85.859375 225.019531 C 86.464844 223.898438 86.792969 223.386719 88.609375 221.597656 C 89.140625 221.085938 89.652344 220.621094 90.132812 220.183594 C 91.53125 218.925781 92.542969 218.023438 93.382812 216.285156 C 95.621094 211.605469 95.230469 204.503906 94.921875 198.785156 L 94.84375 197.199219 C 94.609375 192.503906 95.714844 189.816406 96.894531 186.988281 C 97.5 185.527344 98.121094 184.035156 98.667969 182.042969 C 99.351562 179.542969 98.992188 177.039062 98.621094 174.398438 C 98.339844 172.425781 98.042969 170.371094 98.167969 168.210938 C 98.449219 163.050781 101.339844 159.460938 104.152344 155.996094 C 105.566406 154.253906 106.886719 152.609375 107.898438 150.773438 C 109.640625 147.648438 109.46875 144.496094 109.296875 141.152344 C 109.140625 138.261719 109 135.277344 109.996094 132.109375 C 110.835938 129.417969 112.4375 127.074219 113.960938 124.804688 C 115.390625 122.6875 116.742188 120.683594 117.472656 118.492188 C 118.855469 114.328125 118.171875 111.746094 117.113281 107.832031 C 116.992188 107.347656 116.851562 106.851562 116.710938 106.339844 C 114.347656 97.183594 119.929688 94.914062 124.855469 92.910156 C 126.65625 92.179688 128.507812 91.417969 130.246094 90.332031 C 137.863281 85.542969 140.304688 77.261719 141.796875 69.007812 C 142.230469 66.597656 144.28125 63.488281 146.457031 60.195312 C 148.214844 57.519531 151.492188 52.546875 151.027344 51.164062 C 150.886719 51.023438 150.109375 50.761719 149.660156 50.605469 C 148.449219 50.199219 146.800781 49.640625 146.085938 48.023438 C 145.589844 46.90625 145.679688 45.617188 146.363281 44.09375 C 147.796875 40.890625 151.679688 41.046875 154.011719 41.15625 C 154.601562 41.1875 155.144531 41.203125 155.519531 41.171875 C 156.808594 41.078125 158.707031 41.125 161.097656 41.1875 C 166.804688 41.34375 180.167969 41.683594 181.304688 37.859375 C 181.492188 37.253906 181.273438 36.789062 180.652344 35.714844 C 179.921875 34.472656 178.832031 32.578125 179.78125 30.136719 C 180.417969 28.535156 182.328125 27.449219 184.550781 26.1875 C 185.671875 25.566406 187.195312 24.695312 187.582031 24.199219 C 189.945312 21.230469 189.121094 19.675781 186.835938 16.164062 L 186.464844 15.589844 C 185.859375 14.65625 186.136719 13.398438 187.070312 12.792969 C 188.003906 12.183594 189.261719 12.449219 189.867188 13.398438 L 190.226562 13.957031 C 192.355469 17.25 195.011719 21.339844 190.738281 26.71875 C 189.851562 27.835938 188.234375 28.738281 186.527344 29.699219 C 185.53125 30.261719 183.882812 31.191406 183.496094 31.675781 C 183.324219 32.171875 183.480469 32.5625 184.117188 33.664062 C 184.847656 34.921875 185.859375 36.664062 185.160156 38.996094 C 183.121094 45.789062 170.316406 45.445312 160.960938 45.195312 C 158.769531 45.132812 156.886719 45.085938 155.800781 45.164062 C 155.191406 45.210938 154.523438 45.179688 153.808594 45.148438 C 152.597656 45.101562 150.34375 45.011719 150.03125 45.695312 C 149.910156 45.988281 149.847656 46.191406 149.816406 46.316406 C 150.078125 46.457031 150.5625 46.609375 150.917969 46.734375 C 152.210938 47.171875 154.152344 47.824219 154.835938 49.828125 C 155.9375 53.09375 152.953125 57.613281 149.816406 62.386719 C 148.042969 65.074219 146.039062 68.105469 145.757812 69.691406 C 144.171875 78.410156 141.34375 88.078125 132.378906 93.71875 C 130.339844 94.992188 128.226562 95.863281 126.363281 96.625 C 121.390625 98.644531 119.121094 99.578125 120.613281 105.296875 C 120.734375 105.796875 120.875 106.277344 121 106.757812 C 122.105469 110.878906 123.066406 114.4375 121.296875 119.765625 C 120.394531 122.488281 118.808594 124.820312 117.285156 127.058594 C 115.855469 129.1875 114.503906 131.175781 113.820312 133.320312 C 113.042969 135.792969 113.167969 138.292969 113.308594 140.9375 C 113.492188 144.511719 113.695312 148.582031 111.410156 152.71875 C 110.230469 154.863281 108.722656 156.726562 107.261719 158.515625 C 104.757812 161.605469 102.382812 164.542969 102.179688 168.382812 C 102.085938 170.15625 102.335938 171.925781 102.597656 173.792969 C 103.019531 176.730469 103.453125 179.777344 102.535156 183.085938 C 101.929688 185.308594 101.214844 187.003906 100.59375 188.496094 C 99.476562 191.199219 98.667969 193.15625 98.851562 196.933594 L 98.929688 198.503906 C 99.273438 204.675781 99.691406 212.367188 97.003906 217.960938 C 95.820312 220.433594 94.359375 221.738281 92.808594 223.121094 C 92.355469 223.527344 91.890625 223.945312 91.410156 224.414062 C 89.949219 225.84375 89.808594 226.074219 89.371094 226.882812 C 89.140625 227.304688 88.8125 227.894531 88.269531 228.765625 C 87.894531 229.355469 87.585938 229.898438 87.273438 230.425781 C 86.324219 232.105469 85.425781 233.675781 83.527344 234.125 C 81.910156 234.515625 80.140625 233.941406 77.4375 232.136719 C 75.820312 231.050781 74.621094 229.417969 73.472656 227.847656 C 72.523438 226.558594 71.640625 225.328125 70.707031 224.675781 C 69.460938 223.820312 68.125 223.714844 66.585938 223.605469 C 65.15625 223.496094 63.542969 223.371094 61.925781 222.609375 C 58.398438 220.914062 57.527344 217.914062 56.75 215.273438 C 56.421875 214.140625 56.113281 213.066406 55.597656 212.085938 C 53.953125 208.902344 51.371094 207.703125 48.109375 206.167969 C 47.128906 205.714844 46.132812 205.234375 45.109375 204.691406 C 41.300781 202.652344 39.996094 200.460938 38.503906 197.914062 C 37.835938 196.777344 37.152344 195.613281 36.125 194.246094 C 34.773438 192.425781 33.902344 191.929688 33.574219 191.804688 C 33.265625 192.410156 33 194.417969 33.949219 197.277344 C 34.773438 199.792969 35.78125 201.921875 36.746094 203.988281 C 38.859375 208.511719 40.851562 212.773438 40.027344 219.097656 C 39.527344 222.875 40.164062 227.148438 40.835938 231.65625 C 42.03125 239.816406 43.289062 248.253906 37.898438 254.890625 C 37.664062 255.171875 37.382812 255.511719 37.074219 255.917969 C 35.347656 258.078125 32.441406 261.683594 29.023438 265.164062 C 28.617188 265.644531 28.089844 265.847656 27.5625 265.847656 Z M 27.5625 265.847656 " fill-opacity="1" fill-rule="nonzero"/><path fill="#64a139" d="M 140.628906 105.082031 C 139.667969 105.082031 138.828125 104.394531 138.640625 103.433594 C 137.289062 96.300781 143.257812 90.285156 148.527344 84.984375 C 150.902344 82.589844 153.140625 80.335938 154.355469 78.332031 C 155.953125 75.675781 155.660156 74.570312 155.023438 72.132812 C 154.742188 71.074219 154.414062 69.863281 154.199219 68.339844 C 153.546875 63.753906 153.640625 57.722656 157.789062 54.972656 C 158.519531 54.492188 159.46875 54.523438 160.152344 55.066406 C 161.550781 56.152344 162.777344 58.515625 164.347656 61.75 C 164.84375 62.757812 165.3125 63.722656 165.667969 64.328125 C 166.925781 66.472656 168.015625 69.300781 168.980469 72.96875 C 169.351562 72.9375 169.742188 73.03125 170.066406 73.203125 C 172.925781 74.742188 173.441406 76.808594 173.363281 78.269531 C 173.066406 83.925781 162.886719 89.398438 161.019531 90.160156 C 157.757812 91.511719 155.425781 92.988281 152.488281 95.085938 C 151.355469 95.894531 150.078125 97.417969 148.867188 98.894531 C 146.535156 101.691406 144.128906 104.597656 140.941406 105.082031 C 140.832031 105.066406 140.722656 105.082031 140.628906 105.082031 Z M 158.785156 59.804688 C 157.601562 62.152344 157.960938 65.960938 158.207031 67.761719 C 158.394531 69.054688 158.660156 70.09375 158.9375 71.105469 C 159.683594 73.902344 160.320312 76.3125 157.820312 80.445312 C 156.359375 82.871094 153.949219 85.296875 151.402344 87.859375 C 147.75 91.527344 143.722656 95.582031 142.742188 99.640625 C 143.753906 98.707031 144.796875 97.464844 145.773438 96.300781 C 147.15625 94.636719 148.601562 92.910156 150.15625 91.792969 C 153.34375 89.523438 155.890625 87.921875 159.5 86.429688 C 162.375 85.25 169.210938 80.601562 169.335938 78.066406 C 169.335938 77.976562 169.351562 77.742188 169.070312 77.429688 C 168.667969 77.554688 168.21875 77.585938 167.71875 77.632812 C 166.726562 77.710938 165.808594 77.058594 165.574219 76.078125 C 164.582031 71.742188 163.460938 68.570312 162.1875 66.378906 C 161.75 65.632812 161.253906 64.609375 160.726562 63.535156 C 160.214844 62.511719 159.46875 60.972656 158.785156 59.804688 Z M 170.546875 75.007812 Z M 170.546875 75.007812 Z M 170.546875 75.007812 Z M 170.546875 75.007812 Z M 170.546875 75.007812 " fill-opacity="1" fill-rule="nonzero"/><path fill="#64a139" d="M 131.648438 186.800781 C 127.511719 186.800781 122.957031 184.265625 120.890625 182.511719 C 116.710938 178.96875 115.5625 172.640625 118.078125 167.328125 C 118.265625 164.496094 119.105469 157.347656 122.632812 155.296875 C 124.015625 154.488281 125.648438 154.503906 127.234375 155.34375 C 129.59375 156.585938 129.332031 159.648438 129.128906 161.886719 C 129.066406 162.539062 129.003906 163.347656 129.050781 163.675781 C 129.425781 166.222656 130.839844 168.242188 132.035156 169.734375 C 132.484375 170.292969 133.167969 170.964844 133.898438 171.679688 C 136.667969 174.367188 141.28125 178.859375 137.644531 183.941406 C 136.511719 185.511719 134.832031 186.488281 132.796875 186.738281 C 132.410156 186.769531 132.019531 186.800781 131.648438 186.800781 Z M 121.34375 169.984375 C 120.144531 173.402344 120.984375 177.289062 123.503906 179.417969 C 125.382812 181.019531 129.503906 183.054688 132.285156 182.714844 C 133.214844 182.605469 133.871094 182.230469 134.335938 181.578125 C 135.71875 179.652344 134.445312 177.863281 131.054688 174.585938 C 130.234375 173.792969 129.457031 173.03125 128.847656 172.285156 C 127.339844 170.402344 125.523438 167.792969 125.011719 164.28125 C 124.886719 163.472656 124.980469 162.539062 125.058594 161.542969 C 125.117188 160.765625 125.242188 159.398438 125.105469 158.839844 C 124.792969 158.714844 124.683594 158.777344 124.636719 158.808594 C 123.285156 159.585938 122.152344 164.589844 122.042969 168.523438 C 122.042969 169.097656 121.761719 169.625 121.34375 169.984375 Z M 121.34375 169.984375 " fill-opacity="1" fill-rule="nonzero"/><path fill="#64a139" d="M 123.332031 249.296875 C 118.574219 249.296875 113.679688 247.679688 108.785156 244.492188 C 108.164062 244.089844 107.324219 243.621094 106.421875 243.125 C 104.757812 242.207031 102.972656 241.246094 101.511719 240.09375 C 101.027344 240.0625 100.546875 239.847656 100.191406 239.457031 C 99.304688 238.507812 98.511719 237.4375 98.636719 235.976562 C 96.769531 229.914062 99.519531 225.964844 102.195312 222.144531 C 103.640625 220.0625 105.148438 217.914062 106.109375 215.242188 C 109.0625 207.050781 118.171875 195.457031 128.351562 196.640625 C 130.308594 196.871094 131.769531 197.617188 132.703125 198.859375 C 134.382812 201.097656 133.839844 204.175781 133.324219 207.160156 C 133.125 208.359375 132.90625 209.617188 132.859375 210.703125 C 132.640625 215.507812 133.417969 216.96875 135.097656 220.167969 C 135.6875 221.304688 136.371094 222.59375 137.117188 224.257812 C 140.195312 231.066406 140.273438 237.949219 137.304688 242.675781 C 135.484375 245.582031 131.679688 249.078125 123.859375 249.28125 C 123.6875 249.296875 123.519531 249.296875 123.332031 249.296875 Z M 102.894531 235.867188 C 103.886719 237.125 106.53125 238.585938 108.363281 239.582031 C 109.328125 240.109375 110.246094 240.605469 110.992188 241.105469 C 115.375 243.949219 119.648438 245.332031 123.75 245.238281 C 128.507812 245.113281 132.003906 243.5 133.871094 240.53125 C 136.105469 236.953125 135.953125 231.5 133.433594 225.9375 C 132.734375 224.382812 132.082031 223.152344 131.507812 222.066406 C 129.734375 218.675781 128.554688 216.4375 128.800781 210.550781 C 128.863281 209.195312 129.097656 207.828125 129.332031 206.492188 C 129.6875 204.457031 130.078125 202.15625 129.457031 201.316406 C 129.222656 200.992188 128.695312 200.789062 127.886719 200.695312 C 119.601562 199.746094 112.09375 210.609375 109.917969 216.640625 C 108.769531 219.8125 107.042969 222.285156 105.519531 224.476562 C 102.816406 228.359375 100.949219 231.035156 102.894531 235.867188 Z M 102.894531 235.867188 " fill-opacity="1" fill-rule="nonzero"/><path fill="#64a139" d="M 158.582031 245.828125 C 157.648438 245.828125 156.699219 245.707031 155.769531 245.441406 C 150.839844 244.074219 149.863281 238.121094 149.007812 232.882812 C 148.617188 230.488281 148.199219 228.019531 147.484375 226.542969 C 145.402344 222.28125 144.421875 219.222656 146.023438 217.0625 C 147.6875 214.839844 151.183594 215.070312 154.386719 215.601562 C 161.269531 216.734375 162.28125 219.359375 163.382812 223.574219 C 163.570312 224.273438 163.757812 225.035156 164.019531 225.84375 C 164.128906 225.859375 164.253906 225.875 164.363281 225.921875 C 165.417969 226.230469 169.398438 227.164062 171.621094 227.566406 C 172.148438 227.660156 172.632812 227.972656 172.925781 228.40625 C 173.238281 228.859375 173.347656 229.402344 173.253906 229.929688 C 172.507812 233.878906 169.492188 240.933594 164.285156 244.167969 C 162.453125 245.253906 160.539062 245.828125 158.582031 245.828125 Z M 149.273438 219.46875 C 149.195312 219.78125 149.226562 220.929688 151.105469 224.738281 C 152.101562 226.757812 152.535156 229.402344 153 232.214844 C 153.671875 236.253906 154.429688 240.839844 156.855469 241.523438 C 158.675781 242.039062 160.398438 241.757812 162.109375 240.699219 C 165.171875 238.804688 167.59375 234.6875 168.746094 231.09375 C 167.519531 230.832031 166.164062 230.519531 165.078125 230.257812 C 164.890625 230.691406 164.535156 231.066406 164.066406 231.28125 C 163.042969 231.75 161.84375 231.296875 161.378906 230.289062 C 160.335938 228.019531 159.839844 226.105469 159.453125 224.566406 C 158.582031 221.226562 158.347656 220.339844 153.714844 219.578125 C 150.4375 219.035156 149.472656 219.375 149.273438 219.46875 Z M 149.273438 219.46875 " fill-opacity="1" fill-rule="nonzero"/><path fill="#64a139" d="M 123.796875 274.085938 C 120.003906 274.085938 116.320312 272.484375 115.109375 269.933594 C 114.503906 268.675781 113.664062 265.367188 118.917969 262.007812 C 122.320312 259.832031 126.828125 259.570312 131.195312 259.304688 C 134.039062 259.132812 136.730469 258.976562 138.859375 258.308594 C 141.160156 257.578125 143.132812 256.679688 145.042969 255.792969 C 148.570312 254.160156 152.238281 252.464844 157.460938 252.265625 C 159.359375 252.1875 164.410156 252 165.0625 255.355469 C 166.164062 261.0625 149.085938 268.429688 148.914062 268.503906 C 145.710938 269.65625 142.433594 270.027344 139.261719 270.386719 C 135.207031 270.851562 131.382812 271.273438 128.085938 273.292969 C 127.964844 273.371094 127.824219 273.433594 127.667969 273.496094 C 126.441406 273.882812 125.117188 274.085938 123.796875 274.085938 Z M 127.046875 271.550781 Z M 158.613281 256.289062 C 158.316406 256.289062 157.992188 256.289062 157.632812 256.304688 C 153.203125 256.476562 150.21875 257.859375 146.753906 259.460938 C 144.71875 260.390625 142.621094 261.371094 140.085938 262.164062 C 137.492188 262.988281 134.414062 263.160156 131.445312 263.34375 C 127.605469 263.578125 123.628906 263.8125 121.109375 265.414062 C 119.429688 266.484375 118.5 267.605469 118.761719 268.179688 C 119.367188 269.453125 123.050781 270.632812 126.207031 269.6875 C 130.203125 267.324219 134.585938 266.828125 138.8125 266.34375 C 141.890625 266.003906 144.78125 265.660156 147.546875 264.683594 C 151.449219 263.285156 158.9375 258.667969 160.726562 256.445312 C 160.304688 256.351562 159.636719 256.289062 158.613281 256.289062 Z M 158.613281 256.289062 " fill-opacity="1" fill-rule="nonzero"/><path fill="#64a139" d="M 102.351562 269.78125 C 98.386719 269.78125 94.113281 267.308594 90.832031 265.414062 C 90.101562 264.992188 89.449219 264.605469 88.875 264.308594 C 87.367188 263.515625 85.796875 262.785156 84.289062 262.070312 C 79.734375 259.925781 75.027344 257.71875 71.15625 253.492188 C 70.832031 253.132812 63.214844 244.726562 66.261719 240.546875 C 68.390625 237.625 73.191406 239.816406 74.761719 240.53125 C 78.945312 242.425781 83.109375 243.390625 87.132812 244.320312 C 90.753906 245.160156 94.5 246.03125 98.136719 247.570312 C 98.199219 247.601562 98.277344 247.632812 98.339844 247.664062 C 102.519531 249.980469 112.699219 257.53125 109.761719 264.542969 C 108.722656 267.027344 107.105469 268.660156 104.960938 269.375 C 104.121094 269.65625 103.25 269.78125 102.351562 269.78125 Z M 69.585938 243.09375 C 69.710938 244.289062 71.15625 247.492188 74.140625 250.742188 C 77.46875 254.378906 81.617188 256.335938 86.015625 258.386719 C 87.570312 259.117188 89.171875 259.863281 90.753906 260.703125 C 91.378906 261.03125 92.078125 261.433594 92.855469 261.882812 C 96.023438 263.71875 100.796875 266.46875 103.671875 265.503906 C 104.679688 265.164062 105.441406 264.324219 106.035156 262.941406 C 107.539062 259.335938 100.484375 253.476562 96.460938 251.222656 C 93.164062 249.855469 89.792969 249.0625 86.21875 248.238281 C 81.988281 247.257812 77.621094 246.25 73.085938 244.183594 C 71.109375 243.296875 70.070312 243.125 69.585938 243.09375 Z M 69.585938 243.09375 " fill-opacity="1" fill-rule="nonzero"/><path fill="#64a139" d="M 227.136719 231.066406 C 226.160156 231.066406 225.164062 230.832031 224.167969 230.289062 C 221.945312 229.042969 221.183594 226.757812 220.578125 224.910156 C 219.988281 223.136719 219.585938 222.019531 218.558594 221.566406 C 216.304688 220.574219 212.558594 221.492188 209.25 222.296875 C 207.042969 222.84375 204.941406 223.355469 203.109375 223.386719 C 198.445312 223.496094 196.816406 222.160156 194.902344 220.121094 C 194.1875 219.359375 193.457031 218.570312 192.214844 217.777344 C 190.972656 216.984375 189.105469 217.214844 187.132812 217.464844 C 184.878906 217.761719 182.328125 218.085938 180.292969 216.671875 C 176.890625 214.324219 177.121094 206.242188 178.675781 203.121094 C 183.183594 194.042969 192.324219 197.230469 198.757812 199.792969 C 203.328125 190.625 218.574219 193.4375 224.558594 194.554688 C 226.78125 194.976562 229.109375 195.535156 231.347656 196.09375 C 236.742188 197.429688 242.320312 198.816406 247.464844 198.222656 C 250.542969 197.867188 253.855469 195.96875 257.070312 194.121094 C 261.6875 191.480469 266.472656 188.726562 271.527344 189.738281 C 272.597656 189.957031 273.3125 190.980469 273.125 192.054688 C 273.109375 192.179688 273.15625 192.535156 273.171875 192.769531 C 273.171875 192.785156 273.171875 192.816406 273.1875 192.832031 C 277.089844 194.507812 279.09375 196.5625 279.296875 199.0625 C 279.683594 203.988281 272.613281 207.96875 266.925781 211.171875 C 266.613281 211.339844 266.320312 211.511719 266.023438 211.683594 C 267.59375 212.539062 268.773438 212.785156 271.601562 212.910156 C 272.179688 212.941406 272.722656 213.207031 273.09375 213.671875 C 273.453125 214.125 273.609375 214.714844 273.515625 215.289062 C 272.304688 222.191406 262.355469 224.148438 257.753906 224.023438 C 255.316406 223.945312 253.109375 223.621094 250.980469 223.292969 C 246.425781 222.59375 242.835938 222.035156 238.871094 224.335938 C 238.046875 224.800781 237.039062 225.625 235.980469 226.511719 C 233.554688 228.5 230.402344 231.066406 227.136719 231.066406 Z M 216.070312 217.09375 C 217.515625 217.09375 218.914062 217.308594 220.191406 217.871094 C 222.910156 219.066406 223.75 221.597656 224.417969 223.636719 C 224.960938 225.28125 225.351562 226.308594 226.128906 226.742188 C 227.867188 227.707031 230.355469 225.875 233.433594 223.371094 C 234.628906 222.390625 235.761719 221.476562 236.867188 220.835938 C 242.058594 217.839844 246.90625 218.585938 251.617188 219.300781 C 253.621094 219.609375 255.703125 219.921875 257.894531 220 C 260.941406 220.089844 266.054688 219.035156 268.386719 216.703125 C 265.558594 216.269531 264.113281 215.335938 261.5 213.65625 L 261.082031 213.378906 C 260.507812 213.003906 260.164062 212.382812 260.148438 211.699219 C 260.132812 211.015625 260.476562 210.378906 261.035156 209.988281 C 262.046875 209.304688 263.398438 208.542969 264.96875 207.65625 C 268.371094 205.730469 275.472656 201.753906 275.285156 199.390625 C 275.226562 198.644531 273.949219 197.382812 270.53125 196.125 C 269.644531 195.800781 269.101562 194.882812 269.226562 193.949219 C 269.242188 193.886719 269.226562 193.746094 269.210938 193.59375 C 266.054688 193.65625 262.667969 195.597656 259.09375 197.648438 C 255.515625 199.699219 251.832031 201.8125 247.933594 202.265625 C 242.074219 202.933594 236.136719 201.472656 230.386719 200.042969 C 228.101562 199.484375 225.941406 198.9375 223.828125 198.550781 C 214.640625 196.855469 203.839844 195.816406 201.882812 202.996094 C 201.726562 203.554688 201.351562 204.019531 200.839844 204.269531 C 200.328125 204.535156 199.722656 204.550781 199.191406 204.347656 L 198.152344 203.929688 C 190.675781 200.929688 185.160156 199.25 182.328125 204.953125 C 181.226562 207.160156 181.597656 212.664062 182.625 213.363281 C 183.386719 213.890625 185.035156 213.671875 186.648438 213.472656 C 189.011719 213.175781 191.933594 212.785156 194.4375 214.386719 C 196.101562 215.460938 197.109375 216.515625 197.902344 217.371094 C 199.222656 218.769531 199.816406 219.40625 203.0625 219.347656 C 204.445312 219.316406 206.328125 218.863281 208.316406 218.367188 C 210.800781 217.761719 213.523438 217.09375 216.070312 217.09375 Z M 216.070312 217.09375 " fill-opacity="1" fill-rule="nonzero"/><path fill="#64a139" d="M 188.871094 333.066406 C 187.425781 333.066406 185.949219 332.710938 184.441406 331.871094 C 182.78125 330.9375 182.003906 329.539062 181.382812 328.40625 C 180.992188 327.691406 180.652344 327.066406 180.152344 326.648438 C 179.269531 325.886719 177.960938 325.453125 176.59375 324.96875 C 175.769531 324.691406 174.914062 324.394531 174.109375 324.023438 C 171.902344 322.996094 164.597656 319.140625 163.617188 312.878906 C 163.289062 310.796875 163.601562 307.671875 166.851562 304.46875 C 167.78125 301.78125 169.816406 299.914062 171.792969 298.113281 C 173.5625 296.496094 175.226562 294.972656 176.066406 292.953125 C 176.890625 290.964844 176.90625 289.019531 176.9375 286.96875 C 176.96875 284.3125 177 281.5625 178.832031 278.902344 C 179.625 277.753906 180.621094 277.101562 181.429688 276.585938 C 182.375 275.964844 182.953125 275.59375 183.324219 274.550781 C 183.605469 273.773438 183.386719 272.25 183.183594 270.898438 C 182.859375 268.707031 182.515625 266.4375 183.589844 264.589844 C 185.949219 260.46875 190.488281 261.199219 193.800781 261.730469 C 196.039062 262.085938 198.136719 262.429688 199.039062 261.527344 C 199.457031 261.105469 199.441406 259.738281 199.425781 258.542969 C 199.394531 256.738281 199.363281 254.6875 200.574219 253.054688 C 202.253906 250.789062 206.125 249.328125 209.527344 248.035156 C 210.632812 247.617188 211.65625 247.226562 212.449219 246.871094 C 219.445312 243.699219 223.390625 243.109375 229.71875 247.773438 C 230.339844 248.238281 230.992188 248.78125 231.613281 249.328125 C 232.671875 250.242188 234.660156 251.9375 235.40625 251.8125 C 235.515625 251.796875 235.746094 251.578125 235.996094 251.144531 C 236.570312 250.148438 236.324219 248.113281 236.105469 246.140625 C 235.761719 243.15625 235.359375 239.785156 237.363281 237.328125 C 238.5625 235.851562 240.128906 235.011719 241.886719 234.886719 C 246.316406 234.578125 250.949219 238.882812 253.996094 241.726562 C 254.476562 242.175781 254.910156 242.582031 255.285156 242.90625 C 260.242188 247.226562 262.230469 248.472656 268.914062 249.714844 C 270.871094 250.089844 273.125 250.195312 275.503906 250.320312 C 280.695312 250.585938 286.585938 250.878906 290.796875 254.160156 C 294.777344 257.269531 301.414062 262.460938 298.460938 270.230469 C 297.714844 272.203125 296.410156 273.679688 295.164062 275.109375 C 294.09375 276.324219 293.097656 277.472656 292.585938 278.777344 C 292.089844 280.085938 292.074219 281.699219 292.074219 283.394531 C 292.074219 285.042969 292.074219 286.75 291.621094 288.445312 C 290.984375 290.886719 289.632812 292.9375 288.34375 294.941406 C 287.425781 296.355469 286.554688 297.695312 285.964844 299.09375 C 285.667969 299.808594 285.453125 300.648438 285.203125 301.53125 C 284.582031 303.863281 283.820312 306.769531 281.144531 308.511719 C 277.773438 310.703125 273.839844 310.34375 270.375 310.019531 C 266.738281 309.675781 263.597656 309.382812 261.40625 311.695312 C 260.925781 312.210938 260.707031 312.800781 260.445312 313.546875 C 259.929688 314.960938 259.230469 316.902344 256.511719 318.210938 C 253.449219 319.6875 249.78125 318.941406 246.535156 318.285156 C 245.585938 318.101562 244.699219 317.914062 243.921875 317.820312 C 241.078125 317.449219 238.3125 316.886719 235.640625 316.34375 C 230.121094 315.226562 224.898438 314.183594 219.273438 314.695312 C 213.816406 315.210938 210.773438 318.007812 206.917969 321.550781 C 205.472656 322.871094 203.980469 324.253906 202.253906 325.589844 C 201.632812 326.089844 200.980469 326.617188 200.3125 327.175781 C 197.21875 329.773438 193.253906 333.066406 188.871094 333.066406 Z M 189.773438 265.351562 C 188.453125 265.351562 187.613281 265.675781 187.101562 266.59375 C 186.742188 267.230469 186.992188 268.925781 187.195312 270.292969 C 187.472656 272.203125 187.769531 274.195312 187.132812 275.933594 C 186.292969 278.234375 184.753906 279.230469 183.636719 279.960938 C 182.996094 280.363281 182.5 280.691406 182.160156 281.1875 C 181.023438 282.835938 181.007812 284.667969 180.976562 287 C 180.945312 289.238281 180.914062 291.773438 179.796875 294.476562 C 178.613281 297.320312 176.4375 299.324219 174.511719 301.082031 C 172.664062 302.777344 171.078125 304.238281 170.5625 306.085938 C 170.472656 306.460938 170.269531 306.785156 169.988281 307.035156 C 168.109375 308.773438 167.332031 310.46875 167.59375 312.242188 C 168.125 315.644531 172.351562 318.738281 175.800781 320.339844 C 176.421875 320.617188 177.136719 320.867188 177.882812 321.132812 C 179.46875 321.675781 181.289062 322.296875 182.75 323.539062 C 183.820312 324.457031 184.398438 325.515625 184.910156 326.445312 C 185.4375 327.410156 185.765625 327.984375 186.386719 328.328125 C 189.835938 330.253906 193.253906 327.78125 197.714844 324.085938 C 198.414062 323.507812 199.097656 322.933594 199.753906 322.421875 C 201.351562 321.175781 202.78125 319.855469 204.152344 318.597656 C 208.222656 314.851562 212.0625 311.308594 218.867188 310.6875 C 225.085938 310.113281 230.835938 311.261719 236.402344 312.394531 C 239.011719 312.925781 241.699219 313.46875 244.421875 313.828125 C 245.335938 313.949219 246.300781 314.136719 247.3125 314.339844 C 249.921875 314.867188 252.890625 315.472656 254.726562 314.585938 C 255.953125 313.996094 256.171875 313.390625 256.605469 312.195312 C 256.945312 311.230469 257.382812 310.050781 258.4375 308.929688 C 261.984375 305.199219 266.628906 305.621094 270.71875 306.007812 C 273.808594 306.289062 276.71875 306.566406 278.910156 305.136719 C 280.277344 304.238281 280.742188 302.511719 281.269531 300.507812 C 281.535156 299.527344 281.800781 298.5 282.203125 297.539062 C 282.933594 295.796875 283.945312 294.242188 284.921875 292.734375 C 286.105469 290.933594 287.207031 289.238281 287.691406 287.4375 C 288 286.238281 288 284.855469 288.015625 283.394531 C 288.015625 281.40625 288.03125 279.339844 288.792969 277.332031 C 289.554688 275.34375 290.84375 273.867188 292.101562 272.453125 C 293.160156 271.242188 294.171875 270.105469 294.667969 268.816406 C 296.269531 264.605469 293.78125 261.652344 288.296875 257.378906 C 285.09375 254.875 280.121094 254.625 275.285156 254.378906 C 272.878906 254.253906 270.390625 254.128906 268.152344 253.710938 C 260.769531 252.324219 258.066406 250.742188 252.609375 245.96875 C 252.207031 245.628906 251.742188 245.191406 251.210938 244.695312 C 248.972656 242.613281 244.839844 238.742188 242.136719 238.929688 C 241.699219 238.960938 241.125 239.101562 240.472656 239.890625 C 239.554688 241.027344 239.835938 243.390625 240.101562 245.691406 C 240.410156 248.316406 240.722656 251.019531 239.492188 253.179688 C 238.625 254.6875 237.472656 255.574219 236.074219 255.824219 C 233.449219 256.289062 231.070312 254.238281 228.957031 252.433594 C 228.367188 251.921875 227.804688 251.441406 227.292969 251.066406 C 222.507812 247.539062 220.300781 247.773438 214.113281 250.585938 C 213.210938 250.988281 212.109375 251.410156 210.957031 251.84375 C 208.503906 252.777344 204.789062 254.175781 203.808594 255.496094 C 203.421875 256.023438 203.4375 257.332031 203.46875 258.496094 C 203.496094 260.390625 203.542969 262.769531 201.898438 264.402344 C 199.535156 266.765625 196.148438 266.222656 193.148438 265.738281 C 191.777344 265.503906 190.660156 265.351562 189.773438 265.351562 Z M 168.621094 305.558594 Z M 168.621094 305.558594 " fill-opacity="1" fill-rule="nonzero"/><path fill="#64a139" d="M 263.179688 328.542969 C 262.355469 328.542969 261.609375 328.046875 261.300781 327.269531 C 260.039062 324.097656 260.539062 321.117188 262.699219 318.878906 C 266.195312 315.257812 272.941406 314.648438 277.183594 316.171875 C 277.945312 316.453125 278.472656 317.152344 278.519531 317.960938 C 278.769531 322.3125 275.363281 326.382812 270.917969 327.007812 C 270.640625 327.035156 270.375 327.023438 270.125 326.960938 C 267.84375 327.722656 265.324219 328.421875 263.289062 328.542969 C 263.257812 328.542969 263.226562 328.542969 263.179688 328.542969 Z M 272.347656 319.4375 C 269.707031 319.4375 266.988281 320.261719 265.605469 321.691406 C 264.890625 322.4375 264.578125 323.277344 264.671875 324.269531 C 266.878906 323.835938 269.503906 322.902344 270.5 322.546875 C 270.933594 322.390625 271.386719 322.390625 271.804688 322.53125 C 273.003906 321.921875 273.933594 320.835938 274.308594 319.59375 C 273.6875 319.484375 273.019531 319.4375 272.347656 319.4375 Z M 272.347656 319.4375 " fill-opacity="1" fill-rule="nonzero"/><path fill="#64a139" d="M 320.949219 300.351562 C 319.894531 300.351562 318.882812 300.070312 317.964844 299.527344 C 317.265625 299.109375 316.878906 298.316406 316.988281 297.507812 C 317.296875 295.253906 318.757812 293.21875 320.171875 291.257812 C 321.167969 289.890625 322.191406 288.460938 322.597656 287.21875 C 323.0625 285.820312 322.90625 284.109375 322.769531 282.308594 C 322.566406 279.867188 322.332031 277.101562 323.699219 274.644531 C 324.664062 272.917969 326.03125 272.035156 327.152344 271.335938 C 328.488281 270.480469 329.046875 270.089844 329.25 268.800781 C 329.34375 268.242188 329.03125 267.480469 328.660156 266.609375 C 327.945312 264.898438 326.871094 262.304688 328.890625 259.476562 C 331.644531 255.621094 337.363281 255.933594 341.09375 258.433594 C 345.597656 261.464844 345.101562 264.355469 343.765625 268.753906 C 342.398438 273.214844 332.402344 296.386719 323.453125 299.855469 C 322.613281 300.179688 321.773438 300.351562 320.949219 300.351562 Z M 334.96875 260.609375 C 333.847656 260.609375 332.808594 260.953125 332.1875 261.839844 C 331.519531 262.769531 331.6875 263.390625 332.386719 265.070312 C 332.886719 266.265625 333.492188 267.757812 333.226562 269.453125 C 332.730469 272.578125 330.757812 273.835938 329.3125 274.753906 C 328.410156 275.328125 327.695312 275.792969 327.230469 276.617188 C 326.46875 278 326.621094 279.929688 326.792969 281.964844 C 326.964844 284 327.167969 286.300781 326.4375 288.476562 C 325.828125 290.3125 324.617188 291.988281 323.453125 293.621094 C 322.832031 294.476562 322.207031 295.347656 321.742188 296.15625 C 321.820312 296.125 321.898438 296.109375 321.976562 296.078125 C 328.613281 293.496094 338.09375 273.464844 339.878906 267.574219 C 341.09375 263.609375 341.03125 263.285156 338.824219 261.792969 C 337.828125 261.121094 336.335938 260.609375 334.96875 260.609375 Z M 334.96875 260.609375 " fill-opacity="1" fill-rule="nonzero"/></svg>