<svg xmlns="http://www.w3.org/2000/svg" xmlns:xlink="http://www.w3.org/1999/xlink" width="500" zoomAndPan="magnify" viewBox="0 0 375 374.999991" height="500" preserveAspectRatio="xMidYMid meet" version="1.0"><defs><clipPath id="265d4023c0"><path d="M 67 4 L 319 4 L 319 310 L 67 310 Z M 67 4 " clip-rule="nonzero"/></clipPath><clipPath id="8be88b293f"><path d="M 173.992188 -13.796875 L 376.367188 260.035156 L 202.660156 388.414062 L 0.285156 114.582031 Z M 173.992188 -13.796875 " clip-rule="nonzero"/></clipPath><clipPath id="1a3fcc1f22"><path d="M 173.992188 -13.796875 L 376.367188 260.035156 L 202.660156 388.414062 L 0.285156 114.582031 Z M 173.992188 -13.796875 " clip-rule="nonzero"/></clipPath></defs><g clip-path="url(#265d4023c0)"><g clip-path="url(#8be88b293f)"><g clip-path="url(#1a3fcc1f22)"><path fill="#000000" d="M 274.089844 121.640625 C 277.0625 127.242188 279.964844 132.894531 283.003906 138.441406 C 288.851562 149.292969 288.097656 153.296875 278.054688 159.234375 C 233.042969 186.027344 187.945312 212.78125 142.855469 239.472656 C 139.839844 241.277344 137.152344 243.742188 133.945312 245 C 131.574219 245.957031 128.636719 245.421875 125.929688 245.566406 C 126.648438 242.808594 126.511719 239.25 128.214844 237.460938 C 142.796875 222.386719 157.507812 207.484375 172.515625 192.835938 C 200.238281 165.824219 228.109375 139.019531 256.121094 112.328125 C 258.214844 110.355469 261.621094 109.796875 264.429688 108.570312 Z M 160.734375 217.085938 L 161.589844 217.886719 C 200.300781 195.269531 239.023438 172.589844 278.507812 149.511719 L 260.964844 118.664062 C 227.226562 151.820312 193.9375 184.429688 160.734375 217.085938 Z M 76.019531 186.289062 C 74.5 186.457031 71.863281 187.554688 70.683594 186.675781 C 69.125 185.496094 67.660156 182.652344 67.9375 180.804688 C 68.710938 176.042969 70 171.324219 71.773438 166.832031 C 92.851562 112.320312 118.484375 60.015625 147.132812 9.140625 C 149.386719 5.085938 152.410156 2.214844 156.730469 5.332031 C 166.246094 12.25 175.519531 19.558594 184.636719 27.089844 C 190.042969 31.527344 189.238281 36.257812 185.089844 41.765625 C 149.738281 88.3125 114.636719 135.046875 79.449219 181.738281 Z M 88.039062 147.863281 L 90.621094 149.5625 C 119.277344 111.039062 147.871094 72.507812 177.378906 32.769531 L 153.042969 15.484375 C 131.039062 60.28125 109.554688 104.058594 88.039062 147.863281 Z M 310.390625 308.992188 C 308.113281 309.136719 305.738281 309.511719 303.410156 309.378906 C 252.03125 306.03125 200.65625 302.679688 149.285156 299.273438 C 145.542969 299.015625 141.683594 299.535156 138.070312 298.8125 C 136.203125 298.4375 134.710938 296.203125 133.054688 294.824219 C 134.371094 293.375 135.480469 291.070312 137.058594 290.699219 C 143.835938 289.03125 150.765625 287.996094 157.617188 286.644531 C 205.023438 277.230469 252.457031 267.847656 299.863281 258.429688 C 316.589844 255.082031 318.734375 255.832031 318.222656 272.863281 C 317.90625 283.917969 314.457031 294.902344 312.351562 305.898438 C 312.171875 306.878906 311.253906 307.71875 310.390625 308.992188 Z M 184.109375 291.199219 L 183.78125 292.980469 C 223.015625 295.542969 262.207031 298.191406 301.476562 300.515625 C 303.4375 300.660156 307.097656 298.21875 307.339844 296.609375 C 308.871094 286.195312 309.65625 275.695312 310.746094 264.757812 C 267.078125 273.851562 225.605469 282.542969 184.109375 291.199219 Z M 184.109375 291.199219 " fill-opacity="1" fill-rule="nonzero"/></g></g></g></svg>