<svg xmlns="http://www.w3.org/2000/svg" xmlns:xlink="http://www.w3.org/1999/xlink" width="500" zoomAndPan="magnify" viewBox="0 0 375 374.999991" height="500" preserveAspectRatio="xMidYMid meet" version="1.0"><path fill="#000000" d="M 171.632812 220.207031 C 137.953125 238.34375 106.867188 255.179688 75.777344 270.726562 C 65.414062 275.90625 53.757812 279.144531 42.097656 283.03125 C 35.621094 284.972656 29.144531 284.328125 25.90625 277.851562 C 22.667969 272.019531 25.90625 266.191406 29.792969 262.304688 C 38.210938 253.886719 46.632812 245.464844 56.347656 238.34375 C 86.140625 218.265625 118.523438 202.074219 157.382812 196.242188 C 152.851562 192.359375 148.964844 189.117188 145.726562 186.527344 C 117.226562 167.097656 92.617188 142.488281 69.949219 116.582031 C 63.472656 108.808594 57.640625 99.742188 52.460938 91.320312 C 48.574219 85.492188 46.632812 78.367188 51.164062 72.539062 C 56.347656 66.0625 63.472656 69.300781 69.949219 71.242188 C 110.75 86.789062 143.132812 112.046875 165.804688 148.964844 C 167.746094 152.203125 169.6875 154.792969 173.574219 160.621094 C 174.871094 152.203125 175.519531 147.019531 176.164062 141.839844 C 179.402344 108.160156 182.640625 75.128906 186.527344 41.449219 C 187.824219 33.03125 190.414062 23.964844 193.652344 16.191406 C 196.242188 7.773438 201.425781 0 211.789062 0 C 218.910156 0 227.332031 7.773438 227.980469 20.078125 C 229.273438 36.269531 229.921875 53.109375 227.332031 69.300781 C 223.445312 93.910156 216.96875 117.875 211.789062 141.839844 C 211.140625 145.078125 210.492188 148.964844 209.84375 154.792969 C 216.320312 151.554688 220.207031 148.964844 224.742188 146.371094 C 251.296875 130.828125 277.203125 115.285156 303.757812 100.386719 C 312.824219 95.207031 323.835938 91.96875 334.195312 89.378906 C 338.082031 88.082031 344.558594 90.671875 347.796875 93.265625 C 352.332031 97.796875 349.742188 104.273438 345.855469 108.808594 C 338.082031 117.226562 330.957031 125.648438 321.890625 133.417969 C 297.28125 154.144531 268.78125 169.042969 238.34375 179.402344 C 231.867188 181.347656 225.386719 183.9375 216.96875 187.175781 C 235.105469 194.949219 251.941406 201.425781 268.78125 208.550781 C 289.507812 217.617188 305.699219 231.21875 318.652344 249.351562 C 322.539062 254.535156 328.367188 260.363281 322.539062 267.488281 C 317.359375 273.316406 310.878906 268.78125 305.699219 266.191406 C 272.667969 251.296875 240.285156 235.105469 212.433594 211.140625 C 210.492188 209.84375 208.550781 208.550781 205.957031 207.253906 C 205.3125 209.195312 204.664062 210.492188 205.3125 211.140625 C 215.027344 250.648438 209.195312 289.507812 198.835938 327.71875 C 196.242188 337.433594 194.300781 347.148438 191.710938 356.21875 C 191.0625 358.808594 191.0625 361.398438 189.765625 363.34375 C 187.175781 367.226562 183.9375 373.703125 180.050781 373.703125 C 172.925781 375 170.984375 367.875 170.335938 362.046875 C 169.042969 340.027344 167.746094 318.003906 167.746094 295.335938 C 167.746094 279.144531 170.984375 262.304688 172.28125 246.113281 C 172.925781 237.695312 172.28125 229.273438 171.632812 220.207031 Z M 164.507812 187.175781 C 167.097656 150.257812 103.625 88.730469 59.585938 82.902344 C 87.433594 125.648438 123.703125 156.089844 164.507812 187.175781 Z M 211.140625 11.011719 C 202.074219 18.78125 199.480469 28.496094 198.1875 37.566406 C 193.652344 78.367188 190.414062 119.820312 186.527344 160.621094 C 186.527344 162.566406 187.175781 165.15625 187.824219 167.097656 C 189.121094 167.097656 189.765625 167.746094 191.0625 167.746094 C 193.003906 162.566406 195.597656 158.03125 196.890625 152.851562 C 202.71875 130.828125 208.550781 108.808594 213.082031 86.789062 C 216.320312 70.597656 218.265625 54.402344 219.558594 37.566406 C 220.207031 29.144531 218.910156 19.429688 211.140625 11.011719 Z M 203.367188 176.164062 C 246.761719 173.574219 324.480469 129.535156 334.195312 102.332031 C 316.710938 104.273438 229.273438 152.851562 203.367188 176.164062 Z M 193.652344 206.605469 C 182.640625 223.445312 174.222656 318.003906 181.347656 352.980469 C 194.949219 303.757812 208.550781 257.125 193.652344 206.605469 Z M 38.859375 270.726562 C 66.0625 268.132812 148.316406 226.035156 161.917969 208.550781 C 112.046875 215.671875 72.539062 237.046875 38.859375 270.726562 Z M 301.8125 250.648438 C 283.679688 223.445312 253.886719 215.027344 225.386719 205.3125 C 247.410156 226.035156 273.964844 238.988281 301.8125 250.648438 Z M 301.8125 250.648438 " fill-opacity="1" fill-rule="nonzero"/></svg>