<svg xmlns="http://www.w3.org/2000/svg" xmlns:xlink="http://www.w3.org/1999/xlink" width="500" zoomAndPan="magnify" viewBox="0 0 375 374.999991" height="500" preserveAspectRatio="xMidYMid meet" version="1.0"><path fill="#000000" d="M 373.027344 162.703125 C 373.125 160.6875 237.066406 99.613281 226.96875 96.246094 C 221.039062 93.828125 218.78125 95.171875 218.992188 101.796875 C 219.394531 114.417969 220.074219 127.035156 220.859375 139.636719 C 221.421875 148.609375 221.578125 148.546875 212.757812 149.332031 C 146.164062 154.886719 9.925781 170.871094 8.445312 171.566406 C 1.464844 174.433594 -0.0273438 174.808594 3.097656 182.902344 C 8.507812 195.421875 11.839844 208.640625 16.308594 221.472656 C 16.921875 223.230469 7.617188 242.222656 2.121094 253.195312 C 0.464844 256.503906 3.15625 260.316406 6.828125 259.867188 C 77.988281 251.0625 153.957031 235.652344 225.269531 231.167969 C 229.304688 230.863281 229.789062 231.410156 230.367188 235.554688 C 231.25 241.855469 235.554688 265.007812 237.285156 277.0625 C 237.878906 281.222656 242.046875 278.140625 244.246094 277.199219 C 253.945312 270.671875 357.433594 185.671875 366.460938 175.386719 C 372.152344 168.910156 374.976562 167.867188 373.027344 162.703125 Z M 366.808594 168.980469 C 348.390625 187.066406 261.816406 257.777344 243.78125 272.152344 C 242.332031 273.308594 240.191406 272.449219 239.914062 270.617188 C 238.066406 258.21875 235.371094 246.339844 233.761719 231.910156 C 233.101562 225.996094 231.839844 224.9375 225.871094 225.308594 C 169.464844 229.746094 24.660156 251.648438 17.113281 252.921875 C 14.726562 253.296875 13.945312 252.117188 14.945312 249.917969 C 17.480469 244.328125 24.714844 230.714844 27.535156 225.441406 C 28.339844 223.929688 28.421875 222.140625 27.746094 220.570312 C 24.34375 212.675781 16.460938 191.589844 12.289062 181.761719 C 11.1875 179.160156 12.902344 176.234375 15.707031 175.929688 C 44.648438 172.75 170.132812 158.976562 222.273438 153.324219 C 229.328125 153.328125 226.089844 145.074219 226.371094 140.625 C 225.628906 129.515625 224.839844 118.402344 224.097656 107.292969 C 223.992188 104.722656 223.84375 100.671875 227.660156 101.929688 C 238.558594 104.328125 335.6875 146.488281 365.984375 162.980469 C 368.210938 164.1875 368.625 167.207031 366.808594 168.980469 Z M 61.210938 223.386719 C 53.074219 224.890625 42.03125 221.242188 39.863281 213.328125 C 36.738281 201.914062 42.574219 186.09375 61.546875 189.292969 C 63.773438 189.664062 64.992188 187.378906 62.914062 186.570312 C 47.433594 180.535156 36.925781 191.710938 34.847656 205.3125 C 33.558594 213.746094 36.496094 222.367188 46.316406 226.277344 C 52.53125 228.96875 62.429688 230.070312 68.042969 227.121094 C 75.324219 223.300781 78.675781 214.578125 75.320312 209.976562 C 67.109375 198.703125 56.398438 213.304688 61.210938 223.386719 Z M 67.101562 221.851562 C 62.832031 220.421875 63.703125 211.792969 68.078125 210.828125 C 75.5625 211.015625 70.671875 222.226562 67.101562 221.851562 Z M 168.875 193.378906 C 161.9375 193.402344 161.699219 201.890625 164.046875 206.734375 C 165.15625 209.546875 164.527344 210.183594 161.546875 210.203125 C 156.816406 210.125 150.777344 208.257812 150.011719 202.925781 C 147.730469 193.050781 153.363281 178.121094 165.695312 181.574219 C 167.261719 181.636719 167.152344 179.894531 166.667969 179 C 162.746094 174.441406 155.167969 177.089844 151.464844 180.824219 C 146.71875 185.8125 145.386719 191.984375 145.050781 196.980469 C 141.832031 219.0625 176.980469 221.066406 174.648438 198.96875 C 173.984375 195.386719 171.914062 193.269531 168.875 193.378906 Z M 171.421875 202.679688 C 169.847656 209.398438 165.285156 200.96875 168.8125 198.726562 C 170.800781 197.871094 171.714844 201.195312 171.421875 202.679688 Z M 96.675781 186.277344 C 88.53125 187.195312 84.070312 198.445312 83.703125 205.660156 C 83.507812 213.601562 87.3125 218.707031 93.765625 221.957031 C 105.714844 227.828125 115.183594 213.222656 114.890625 202.667969 C 114.648438 191.269531 108.835938 184.902344 96.675781 186.277344 Z M 98.875 218.617188 C 94.515625 217.730469 90.285156 215.640625 88.992188 210.78125 C 86.511719 204.050781 89.324219 189.660156 99.5 190.246094 C 106.800781 190.664062 110.929688 196.5 110.703125 203.71875 C 111.148438 210.339844 106.398438 219.714844 98.875 218.617188 Z M 270.011719 193.585938 C 267.6875 184.996094 267.613281 175.988281 266.441406 167.203125 C 265.722656 164.378906 269.449219 161.441406 271.363281 164.324219 C 273.226562 167.664062 296.289062 181.300781 296.421875 178.394531 C 296.675781 172.910156 295.238281 167.597656 294.511719 162.21875 C 294.339844 160.273438 292.566406 157.320312 295.167969 156.300781 C 299.648438 154.667969 300.527344 179.449219 301.714844 183.25 C 302.136719 186.269531 300.441406 186.507812 298.359375 186.007812 C 296.683594 185.605469 280.148438 177.964844 276.167969 175.414062 C 272.925781 173.335938 271.195312 173.054688 271.753906 178.203125 C 272.347656 182.628906 272.640625 186.261719 273.796875 190.378906 C 274.476562 192.769531 271.207031 196.390625 270.011719 193.585938 Z M 334.871094 180.125 C 335.058594 181.75 334.402344 182.914062 333.117188 183.941406 C 319.824219 194.652344 306.421875 205.246094 293.316406 216.1875 C 288.972656 219.890625 284.558594 223.46875 279.75 226.554688 C 275.78125 229.105469 272.25 232.191406 268.761719 235.351562 C 267.921875 235.851562 266.859375 234.921875 267.171875 233.96875 C 282.039062 216.117188 303.03125 203.578125 320.375 188.019531 C 323.175781 186.277344 332.535156 174.785156 334.871094 180.125 Z M 192.476562 191.257812 C 185.558594 189.125 201.085938 185.464844 196.589844 177.625 C 193.15625 171.636719 188.1875 172.035156 183.398438 177.753906 C 181.863281 179.589844 181.773438 180.1875 180.28125 178.351562 C 178.488281 176.230469 176.492188 178.785156 177.054688 181.339844 C 179.144531 190.773438 180.113281 194.296875 180.992188 200.871094 C 181.730469 205.796875 186.4375 207.929688 185.917969 200.210938 C 182.527344 186.519531 206.046875 206.355469 208.382812 199.425781 C 211.035156 195.511719 195.234375 192.96875 192.476562 191.257812 Z M 186.320312 187.253906 C 184.679688 186.402344 185.128906 183.25 185.585938 182.015625 C 187.59375 176.59375 192.113281 175.242188 194.167969 178.710938 C 196.296875 181.878906 188.367188 188.011719 186.320312 187.253906 Z M 252.214844 196.972656 C 249.320312 198.910156 246.738281 198.601562 244.632812 197.117188 C 241.265625 194.746094 238.492188 183.007812 235.808594 174.199219 C 234.089844 168.558594 248.890625 164.808594 252.503906 164.261719 C 263.773438 165.855469 248.460938 169.394531 245.605469 171.109375 C 240.585938 172.367188 240.207031 182.300781 244.730469 181.195312 C 248.039062 180.167969 251.378906 179.242188 254.195312 177.042969 C 254.628906 176.703125 255.714844 176.703125 256.1875 177.015625 C 258.332031 179.226562 254.824219 182.324219 252.761719 183.085938 C 249.945312 184.820312 242.089844 185.863281 244.886719 190.453125 C 246.527344 193.238281 248.804688 194.148438 250.964844 192.867188 C 252.707031 191.835938 254.023438 190.410156 255.066406 188.664062 C 255.636719 187.710938 256.742188 187.484375 257.660156 188.011719 C 260.828125 190.046875 254 195.601562 252.214844 196.972656 Z M 233.058594 194.113281 C 234.171875 195.121094 233.769531 196.3125 233.210938 197.488281 C 231.292969 201.527344 227.652344 202.976562 223.632812 203.503906 C 221.441406 203.765625 219.96875 203.085938 218.875 201.90625 C 216.441406 199.285156 214.632812 189.378906 211.644531 180.5625 C 209.40625 173.941406 226.886719 169.25 228.8125 172.300781 C 227.308594 175.507812 223.28125 176.195312 220.355469 177.613281 C 217.128906 178.714844 217.101562 186.535156 221.3125 185.34375 C 223.902344 185.0625 229.046875 180.796875 230.605469 184.042969 C 231.207031 188.214844 224.921875 188.25 222.355469 190.0625 C 216.6875 192.433594 222.078125 201.3125 227.054688 198.097656 C 229.597656 197.613281 230.5625 191.976562 233.058594 194.113281 Z M 235.96875 120.839844 C 237.996094 114.605469 263.480469 126.058594 269.140625 126.851562 C 271.644531 126.847656 283.097656 133.507812 275.957031 134.226562 C 262.738281 132.550781 251.394531 125.496094 238.34375 123.175781 C 237.363281 122.964844 235.808594 122 235.96875 120.839844 Z M 345.640625 171.363281 C 345.894531 173.808594 342.144531 174.359375 342.554688 171.683594 C 342.230469 169.792969 345.734375 169.101562 345.640625 171.363281 Z M 345.640625 171.363281 " fill-opacity="1" fill-rule="nonzero"/></svg>