<svg xmlns="http://www.w3.org/2000/svg" xmlns:xlink="http://www.w3.org/1999/xlink" width="500" zoomAndPan="magnify" viewBox="0 0 375 374.999991" height="500" preserveAspectRatio="xMidYMid meet" version="1.0"><path fill="#64a139" d="M 98.675781 144.984375 C 96.53125 138.019531 94.917969 131.433594 92.695312 125.003906 C 92.003906 123.011719 89.707031 121.632812 88.09375 120.027344 C 87.40625 120.179688 86.714844 120.332031 86.023438 120.484375 C 86.023438 127.070312 85.335938 133.730469 86.410156 140.085938 C 86.792969 142.457031 86.714844 143.835938 86.410156 146.132812 C 85.796875 150.574219 86.867188 155.246094 87.558594 159.761719 C 88.707031 166.730469 90.394531 173.621094 91.316406 180.585938 C 91.929688 184.722656 91.007812 189.085938 91.851562 193.222656 C 94.152344 204.476562 95.300781 215.882812 95.914062 227.367188 C 96.070312 229.972656 97.296875 232.421875 97.832031 235.023438 C 99.367188 243.371094 92.464844 244.902344 85.871094 248.5 C 73.144531 234.335938 60.339844 219.636719 46.921875 205.472656 C 41.785156 200.035156 35.882812 194.90625 29.363281 191.304688 C 25.609375 189.238281 19.78125 189.546875 15.257812 190.464844 C 12.34375 191.078125 10.425781 193.832031 10.8125 198.65625 C 11.808594 210.449219 19.398438 217.875 25.914062 226.371094 C 36.417969 240.15625 49.761719 250.566406 64.175781 259.523438 C 67.855469 261.820312 73.453125 261.210938 78.203125 261.59375 C 81.425781 261.898438 84.644531 261.667969 89.320312 261.667969 C 87.253906 263.660156 86.253906 265.34375 84.953125 265.726562 C 79.046875 267.335938 73.453125 267.945312 66.933594 266.261719 C 53.59375 262.664062 44.238281 254.011719 33.8125 246.050781 C 25.300781 239.464844 18.019531 231.65625 12.191406 223.539062 C 6.210938 215.269531 0 205.164062 2.453125 193.296875 C 3.527344 188.089844 6.285156 185.488281 12.039062 183.648438 C 18.859375 181.507812 25.453125 180.203125 31.664062 182.882812 C 37.644531 185.488281 43.472656 189.46875 48.074219 194.140625 C 59.496094 205.699219 70.15625 218.027344 81.117188 229.972656 C 82.726562 231.734375 84.492188 233.339844 88.09375 234.640625 C 87.636719 230.8125 87.253906 226.910156 86.792969 223.082031 C 85.566406 212.589844 84.414062 202.027344 82.957031 191.613281 C 82.269531 186.40625 80.886719 181.199219 79.816406 176.070312 C 78.128906 168.335938 75.828125 160.679688 78.28125 152.640625 C 78.511719 151.953125 77.820312 150.957031 77.515625 150.117188 C 74.066406 139.933594 78.433594 129.980469 78.128906 119.796875 C 78.050781 116.886719 79.429688 113.671875 80.886719 110.992188 C 82.113281 108.695312 84.796875 105.09375 86.023438 105.402344 C 89.015625 106.089844 92.464844 108.160156 94.074219 110.683594 C 99.828125 119.796875 105.804688 128.984375 110.023438 138.9375 C 113.78125 147.742188 115.238281 157.617188 117.921875 166.882812 C 119.070312 170.863281 121.0625 174.539062 122.519531 178.445312 C 123.441406 180.894531 123.976562 183.496094 124.589844 186.101562 C 124.746094 186.867188 124.054688 187.9375 124.4375 188.472656 C 129.5 196.285156 130.878906 205.164062 131.796875 214.199219 C 131.875 214.734375 132.257812 215.195312 133.410156 217.414062 C 134.328125 210.140625 135.554688 204.550781 135.707031 198.886719 C 135.863281 187.554688 138.085938 177.140625 146.136719 168.566406 C 148.820312 165.65625 155.871094 166.039062 158.019531 169.945312 C 164.308594 181.351562 168.371094 193.527344 168.292969 206.695312 C 168.292969 207.539062 168.371094 208.457031 168.832031 209.144531 C 169.289062 209.835938 170.210938 210.140625 171.128906 210.675781 C 172.816406 198.582031 174.503906 186.867188 176.191406 175.226562 C 177.1875 168.335938 178.261719 161.445312 179.257812 154.554688 C 180.636719 144.910156 181.40625 135.183594 183.320312 125.613281 C 185.007812 117.347656 186.925781 108.925781 190.375 101.265625 C 194.746094 91.390625 206.628906 91.542969 212.378906 100.882812 C 216.597656 107.699219 221.273438 114.359375 225.261719 121.328125 C 227.40625 125.003906 228.328125 129.367188 230.015625 133.347656 C 234.613281 144.296875 235.996094 155.859375 237.222656 167.496094 C 237.453125 169.640625 236.53125 171.9375 234.84375 174.078125 C 235.839844 176.835938 236.839844 179.667969 238.21875 183.574219 C 240.824219 179.667969 244.199219 176.375 245.5 172.472656 C 247.800781 165.582031 253.9375 164.96875 258.535156 165.121094 C 263.671875 165.351562 266.203125 170.789062 268.121094 175.917969 C 271.648438 185.257812 272.183594 194.753906 272.261719 204.476562 C 272.261719 205.855469 273.332031 207.15625 274.253906 209.144531 C 276.476562 205.011719 278.546875 201.488281 280.386719 197.816406 C 285.90625 186.867188 293.574219 177.984375 305.304688 173.390625 C 310.75 171.246094 319.71875 175.6875 320.640625 181.351562 C 321.867188 188.398438 322.328125 195.519531 323.246094 203.558594 C 328.84375 197.277344 334.441406 191.078125 339.960938 184.796875 C 344.867188 179.210938 350.847656 176.453125 358.4375 177.066406 C 367.179688 177.832031 375 192.683594 371.625 200.570312 C 366.871094 211.75 359.589844 221.089844 351.691406 229.894531 C 344.867188 237.476562 336.972656 244.058594 329.304688 250.796875 C 328.382812 251.640625 326.082031 250.875 325.085938 251.945312 C 322.710938 253.398438 320.179688 254.703125 317.957031 256.308594 C 315.503906 258.070312 313.28125 260.214844 310.902344 262.128906 C 309.90625 262.96875 308.910156 264.195312 307.757812 264.347656 C 300.933594 265.421875 294.113281 266.261719 287.289062 267.257812 C 286.367188 267.410156 285.292969 267.410156 284.679688 267.945312 C 281.921875 270.472656 279.621094 271.46875 276.785156 267.640625 C 274.101562 263.890625 272.261719 261.132812 275.171875 256.15625 C 279.621094 248.5 284.222656 251.640625 288.746094 252.40625 C 292.578125 251.179688 296.488281 250.261719 300.09375 248.578125 C 304.84375 246.355469 309.675781 243.90625 313.96875 240.84375 C 318.570312 237.628906 322.328125 233.339844 326.925781 230.046875 C 328.921875 228.59375 332.675781 229.359375 334.210938 227.75 C 337.199219 224.613281 338.886719 220.246094 341.648438 216.800781 C 344.179688 213.585938 347.628906 211.136719 350.160156 207.84375 C 353.839844 203.019531 356.980469 197.816406 360.507812 192.457031 C 349.238281 182.5 345.558594 197.816406 339.195312 199.269531 C 336.972656 204.859375 336.28125 211.136719 332.832031 214.277344 C 328.613281 218.105469 322.097656 220.246094 316.269531 221.167969 C 314.660156 221.394531 309.371094 213.96875 310.210938 211.671875 C 313.28125 203.25 311.363281 195.519531 309.675781 187.476562 C 309.371094 185.945312 309.445312 184.414062 309.214844 181.199219 C 303.390625 187.476562 297.792969 192.300781 293.652344 198.199219 C 289.816406 203.632812 287.976562 210.523438 284.375 216.191406 C 281.691406 220.476562 277.933594 224.304688 274.023438 227.597656 C 272.796875 228.59375 268.886719 227.828125 267.277344 226.601562 C 265.128906 224.917969 262.90625 222.007812 262.601562 219.40625 C 261.527344 211.597656 258.84375 204.246094 260.53125 195.746094 C 261.757812 189.621094 258.6875 182.730469 257.539062 176.148438 C 256.773438 175.765625 256.007812 175.304688 255.238281 174.921875 C 252.632812 178.0625 249.183594 180.816406 247.648438 184.339844 C 244.503906 191.535156 242.28125 199.191406 240.058594 206.695312 C 237.679688 214.660156 235.382812 222.699219 233.925781 230.8125 C 232.929688 236.25 230.015625 237.550781 222.578125 235.332031 C 222.578125 226.753906 221.503906 218.332031 222.882812 210.371094 C 224.035156 203.558594 224.648438 196.285156 225.03125 189.929688 C 225.414062 183.957031 230.089844 176.835938 224.953125 170.023438 C 223.191406 167.726562 225.492188 162.59375 225.183594 158.84375 C 224.109375 147.664062 221.042969 137.253906 216.597656 126.6875 C 213.53125 119.414062 206.246094 116.273438 204.253906 109 C 203.714844 107.238281 202.71875 105.554688 201.261719 102.492188 C 199.347656 107.316406 197.046875 111.375 196.050781 115.738281 C 193.59375 126.839844 191.523438 137.941406 189.683594 149.195312 C 188.839844 154.402344 189.148438 159.761719 188.457031 165.046875 C 188 169.027344 186.617188 173.007812 186.082031 176.988281 C 185.316406 182.347656 185.160156 187.859375 184.164062 193.144531 C 183.015625 199.269531 180.945312 205.164062 179.71875 211.214844 C 178.566406 216.800781 178.414062 222.542969 176.957031 227.980469 C 176.191406 230.660156 173.738281 233.722656 171.285156 234.71875 C 169.902344 235.253906 166.453125 232.117188 164.921875 229.972656 C 160.242188 223.617188 160.472656 216.113281 159.707031 208.535156 C 158.710938 198.351562 155.105469 188.472656 152.652344 178.445312 C 151.578125 178.289062 150.507812 178.214844 149.433594 178.0625 C 147.285156 182.882812 143.835938 187.632812 143.375 192.683594 C 142.070312 207.078125 142.148438 221.550781 141.230469 235.945312 C 141.074219 238.316406 138.851562 240.460938 137.394531 243.0625 C 129.652344 239.3125 128.195312 231.960938 125.664062 225.53125 C 122.902344 218.640625 120.910156 211.519531 118.917969 204.324219 C 117.382812 198.65625 117.078125 192.609375 114.929688 187.25 C 111.941406 179.898438 113.089844 171.015625 106.035156 164.890625 C 103.660156 162.824219 104.195312 157.542969 103.046875 153.789062 C 101.894531 151.109375 100.285156 148.277344 98.675781 144.984375 " fill-opacity="1" fill-rule="nonzero"/><path fill="#64a139" d="M 166.070312 265.804688 C 168.292969 265.496094 170.058594 264.730469 171.589844 265.113281 C 176.269531 266.261719 180.40625 269.019531 185.773438 267.027344 C 189.914062 265.496094 193.824219 267.410156 195.359375 271.773438 C 197.277344 277.136719 193.289062 279.890625 189.226562 280.886719 C 183.167969 282.339844 177.1875 283.335938 170.824219 279.738281 C 167.296875 277.746094 161.394531 277.519531 157.636719 279.125 C 147.746094 283.261719 140.539062 277.976562 132.410156 274.453125 C 126.429688 271.851562 120.066406 271.238281 114.394531 275.988281 C 112.9375 277.210938 111.019531 277.902344 108.488281 279.277344 C 108.335938 271.546875 112.171875 268.941406 117.996094 267.105469 C 125.664062 264.65625 132.71875 267.640625 140.003906 267.945312 C 144.910156 268.175781 149.894531 268.023438 154.644531 268.558594 C 158.25 267.640625 161.929688 266.722656 166.070312 265.804688 " fill-opacity="1" fill-rule="nonzero"/><path fill="#64a139" d="M 223.726562 263.964844 C 227.867188 262.203125 231.699219 261.054688 235.535156 259.753906 C 237.835938 258.988281 240.058594 257.917969 242.972656 256.769531 C 245.042969 257.457031 248.414062 257.839844 250.714844 259.601562 C 253.167969 261.363281 254.625 264.5 256.464844 267.027344 C 253.09375 269.402344 248.339844 274.453125 246.730469 273.613281 C 241.4375 270.855469 236.683594 272.539062 231.699219 272.769531 C 223.496094 273.078125 223.191406 272.769531 223.726562 263.964844 " fill-opacity="1" fill-rule="nonzero"/></svg>