<svg xmlns="http://www.w3.org/2000/svg" xmlns:xlink="http://www.w3.org/1999/xlink" width="500" zoomAndPan="magnify" viewBox="0 0 375 374.999991" height="500" preserveAspectRatio="xMidYMid meet" version="1.0"><path fill="#000000" d="M 286.203125 175.539062 C 283.617188 154.597656 272.007812 140.714844 253.265625 131.847656 C 242.683594 126.84375 231.425781 123.933594 220.539062 119.914062 C 213.675781 117.375 206.824219 116.660156 199.734375 117.113281 C 195.640625 117.375 191.640625 118.074219 187.886719 115.476562 C 186.128906 114.261719 183.902344 114.960938 181.871094 115.34375 C 170.238281 117.53125 159.785156 122.511719 149.992188 128.972656 C 138.769531 136.386719 131.5625 147.273438 125.480469 158.828125 C 114.273438 180.140625 112.320312 201.8125 124.921875 223.410156 C 127.214844 227.332031 129.84375 231.097656 132.664062 234.664062 C 138.027344 241.441406 142.359375 249.195312 149.285156 254.570312 C 159.105469 262.203125 170.246094 267.792969 182.019531 271.375 C 199.390625 276.660156 217.128906 276.824219 234.5625 271.078125 C 250.824219 265.710938 265.054688 257.328125 273.097656 241.402344 C 278.652344 230.40625 283.453125 219.015625 285.875 206.84375 C 286.984375 201.269531 287.988281 195.609375 287.230469 189.527344 C 287.199219 185.054688 286.789062 180.304688 286.203125 175.539062 Z M 259.230469 239.988281 C 253.101562 251.082031 242.527344 256.878906 231.300781 260.765625 C 218.277344 265.277344 204.605469 266.722656 190.835938 263.804688 C 175.785156 260.609375 162.234375 254.550781 152.03125 242.542969 C 143.910156 232.996094 135.679688 223.445312 131.339844 211.421875 C 127.09375 199.652344 127.3125 187.644531 131.09375 175.824219 C 134.460938 165.296875 139.761719 155.59375 146.835938 147.175781 C 156.785156 135.332031 169.488281 127.550781 184.960938 124.921875 C 188.066406 124.394531 191.328125 124.105469 193.867188 126.917969 C 195.347656 128.554688 197.351562 128.875 199.527344 128.542969 C 208.125 127.238281 215.96875 129.375 224.144531 132.257812 C 233.398438 135.53125 242.574219 138.910156 251.488281 142.933594 C 261.71875 147.554688 268.414062 155.058594 271.449219 166.464844 C 273.378906 173.722656 273.542969 180.796875 273.871094 190.257812 C 275.1875 207.113281 268.144531 223.839844 259.230469 239.988281 Z M 259.230469 239.988281 " fill-opacity="1" fill-rule="nonzero"/><path fill="#000000" d="M 197.925781 306.863281 C 194.640625 307.980469 192.816406 310.785156 193.324219 315.066406 C 193.875 319.636719 193.925781 324.089844 193.25 328.667969 C 192.050781 336.789062 190.710938 344.875 189.109375 352.921875 C 188.042969 358.285156 186.972656 363.660156 186.292969 369.078125 C 185.742188 373.476562 187.671875 374.796875 192.019531 373.871094 C 196.265625 372.964844 198.015625 369.710938 198.945312 366.167969 C 202.863281 351.160156 206.027344 336.007812 206.554688 320.441406 C 206.554688 317.703125 206.867188 314.925781 206.480469 312.253906 C 205.863281 307.964844 201.773438 305.554688 197.925781 306.863281 Z M 197.925781 306.863281 " fill-opacity="1" fill-rule="nonzero"/><path fill="#000000" d="M 118.644531 271.546875 C 116.171875 272.617188 113.90625 274.226562 111.671875 275.78125 C 103.570312 281.410156 97.273438 289.019531 90.09375 295.652344 C 85.417969 299.976562 80.777344 304.347656 76.160156 308.746094 C 74.96875 309.878906 74.105469 311.277344 75.015625 313.011719 C 75.902344 314.6875 77.464844 314.859375 79.550781 314.621094 C 84.425781 314.515625 88.84375 312.207031 92.722656 308.902344 C 103.453125 299.753906 114.085938 290.492188 124.765625 281.285156 C 127.109375 279.265625 128.027344 276.90625 126.394531 274.046875 C 124.957031 271.515625 121.621094 270.265625 118.644531 271.546875 Z M 118.644531 271.546875 " fill-opacity="1" fill-rule="nonzero"/><path fill="#000000" d="M 209.183594 52.875 C 209.28125 56.515625 209.214844 60.183594 209.628906 63.789062 C 210.011719 67.175781 212.453125 68.992188 215.691406 69.304688 C 219.175781 69.640625 220.390625 66.988281 221.105469 64.25 C 221.558594 62.507812 221.738281 60.652344 221.722656 58.84375 C 221.566406 45.378906 222.222656 31.96875 223.570312 18.578125 C 224.054688 13.753906 221.917969 11.265625 217.351562 10.691406 C 213.390625 10.1875 210.933594 12.34375 210.777344 17.394531 C 210.464844 27.414062 208.574219 37.34375 209.175781 46.0625 C 209.175781 49.234375 209.132812 51.058594 209.183594 52.875 Z M 209.183594 52.875 " fill-opacity="1" fill-rule="nonzero"/><path fill="#000000" d="M 373.898438 186.996094 C 373.050781 185.507812 371.640625 184.757812 369.921875 184.75 C 369.019531 184.75 368.113281 184.914062 367.210938 185.046875 C 353.011719 187.109375 338.816406 189.191406 324.871094 192.664062 C 322.003906 193.382812 319.183594 194.335938 316.417969 195.371094 C 314.171875 196.207031 312.398438 197.710938 312.464844 200.382812 C 312.53125 203.144531 314.757812 204.148438 316.859375 205.035156 C 318.09375 205.554688 319.472656 205.726562 320.671875 206.019531 C 321.960938 205.734375 323.097656 205.570312 324.171875 205.230469 C 332.027344 202.78125 340.054688 201.371094 348.207031 200.261719 C 354.492188 199.40625 360.628906 197.433594 366.808594 195.894531 C 369.273438 195.28125 371.550781 194.242188 373.101562 192.082031 C 374.234375 190.511719 374.949219 188.835938 373.898438 186.996094 Z M 373.898438 186.996094 " fill-opacity="1" fill-rule="nonzero"/><path fill="#000000" d="M 112.03125 90.015625 C 112.984375 92.835938 114.109375 95.570312 115.925781 97.945312 C 117.355469 99.8125 119.148438 101.152344 121.449219 101.226562 C 124.59375 101.046875 127.191406 97.570312 126.214844 94.109375 C 122.558594 81.179688 118.011719 68.566406 111.414062 56.804688 C 110.28125 54.773438 108.226562 53.550781 105.878906 53.121094 C 103.4375 52.679688 101.359375 53.359375 99.953125 55.523438 C 98.738281 57.386719 98.433594 59.402344 99.78125 61.277344 C 105.992188 69.953125 108.6875 80.121094 112.03125 90.015625 Z M 112.03125 90.015625 " fill-opacity="1" fill-rule="nonzero"/><path fill="#000000" d="M 309.761719 266.453125 C 306.507812 264.53125 302.84375 264.914062 301.101562 267.398438 C 298.921875 270.503906 301.066406 272.492188 303.195312 274.324219 C 306.382812 277.070312 308.578125 280.480469 310.320312 284.253906 C 313.382812 290.878906 316.746094 297.371094 318.003906 304.695312 C 318.304688 306.460938 319.019531 308.21875 319.859375 309.8125 C 320.886719 311.777344 322.71875 312.765625 324.976562 312.535156 C 327.261719 312.304688 328.757812 310.929688 329.398438 308.792969 C 329.785156 307.503906 329.851562 306.117188 330.179688 303.96875 C 327.953125 293.648438 324.609375 283.070312 317.617188 273.996094 C 315.398438 271.113281 312.964844 268.351562 309.761719 266.453125 Z M 309.761719 266.453125 " fill-opacity="1" fill-rule="nonzero"/><path fill="#000000" d="M 306.582031 103.90625 C 310.902344 100.996094 314.773438 97.496094 318.675781 93.789062 C 318.945312 94.609375 319.257812 95.046875 319.167969 95.359375 C 318.71875 96.835938 317.542969 98.644531 319.703125 99.425781 C 322.019531 100.257812 322.777344 98.109375 323.507812 96.449219 C 323.761719 95.859375 323.984375 94.964844 323.722656 94.46875 C 321.59375 90.441406 324.269531 88.214844 326.6875 85.726562 C 327.929688 84.445312 328.9375 82.847656 329.710938 81.230469 C 330.6875 79.175781 331.617188 76.851562 329.429688 74.960938 C 327.261719 73.085938 324.730469 73.09375 322.488281 74.710938 C 312.867188 81.625 303.851562 89.316406 294.824219 96.976562 C 292.21875 99.1875 292.65625 101.679688 295.316406 103.921875 C 298.683594 106.757812 302.242188 106.832031 306.582031 103.90625 Z M 306.582031 103.90625 " fill-opacity="1" fill-rule="nonzero"/><path fill="#000000" d="M 47.5 190.875 C 44.9375 190.734375 42.570312 191.671875 40.152344 192.261719 C 31.109375 194.480469 22.0625 196.660156 12.621094 195.566406 C 9.902344 195.566406 7.15625 195.335938 4.476562 195.640625 C 2.332031 195.878906 0.683594 197.300781 0.3125 199.585938 C -0.0234375 201.691406 1.355469 203.085938 3 203.925781 C 4.808594 204.847656 6.785156 205.445312 8.726562 206.070312 C 17.328125 208.839844 25.882812 206.777344 34.402344 205.625 C 40.382812 204.8125 45.75 202.371094 50.167969 198.105469 C 51.527344 196.808594 52.914062 195.402344 52.019531 193.398438 C 51.222656 191.582031 49.421875 190.980469 47.5 190.875 Z M 47.5 190.875 " fill-opacity="1" fill-rule="nonzero"/><path fill="#000000" d="M 230.644531 193.40625 C 225.296875 190.0625 220.226562 192.125 219.058594 198.589844 C 217.613281 206.628906 213.40625 212.898438 207.425781 218.101562 C 200.777344 223.878906 187.828125 221.71875 185.9375 210.992188 C 185.304688 207.394531 184.960938 203.800781 184.535156 200.1875 C 183.941406 195.132812 180.007812 191.960938 175.765625 192.78125 C 171.921875 193.527344 170.222656 196.71875 171.503906 202.027344 C 172.941406 207.992188 174.878906 213.820312 177.523438 219.410156 C 182.191406 229.289062 190.648438 232.683594 200.121094 233.472656 C 220.554688 232.832031 232.355469 214.246094 232.820312 197.300781 C 232.886719 195.558594 232.179688 194.367188 230.644531 193.40625 Z M 230.644531 193.40625 " fill-opacity="1" fill-rule="nonzero"/><path fill="#000000" d="M 178.980469 168.148438 C 181.640625 167.246094 184.433594 166.078125 184.089844 162.683594 C 183.777344 159.617188 181.960938 157.179688 178.9375 156.011719 C 177.902344 155.617188 176.710938 155.632812 176.144531 155.542969 C 170.394531 155.519531 167.113281 157.851562 167.15625 161.515625 C 167.195312 165.140625 171.558594 168.964844 175.667969 168.847656 C 176.777344 168.824219 177.910156 168.511719 178.980469 168.148438 Z M 178.980469 168.148438 " fill-opacity="1" fill-rule="nonzero"/><path fill="#000000" d="M 222.484375 165.042969 C 226.429688 165.242188 229.125 162.957031 229.363281 159.222656 C 229.652344 154.753906 226.652344 151.648438 221.910156 151.492188 C 217.054688 151.328125 213.59375 153.800781 213.578125 157.441406 C 213.554688 161.328125 217.621094 164.804688 222.484375 165.042969 Z M 222.484375 165.042969 " fill-opacity="1" fill-rule="nonzero"/></svg>