<svg xmlns="http://www.w3.org/2000/svg" xmlns:xlink="http://www.w3.org/1999/xlink" width="1024" zoomAndPan="magnify" viewBox="0 0 768 576" height="768" preserveAspectRatio="xMidYMid meet" version="1.0"><defs><clipPath id="99b4b59955"><path d="M 96 0 L 672 0 L 672 576 L 96 576 Z M 96 0 " clip-rule="nonzero"/></clipPath></defs><g clip-path="url(#99b4b59955)"><path fill="#38b6ff" d="M 672.015625 287.933594 C 672.015625 292.648438 671.902344 297.363281 671.667969 302.074219 C 671.4375 306.78125 671.089844 311.484375 670.628906 316.175781 C 670.167969 320.867188 669.589844 325.546875 668.898438 330.210938 C 668.207031 334.875 667.398438 339.519531 666.480469 344.144531 C 665.558594 348.769531 664.527344 353.367188 663.382812 357.941406 C 662.234375 362.515625 660.980469 367.058594 659.609375 371.570312 C 658.242188 376.082031 656.761719 380.558594 655.175781 384.996094 C 653.585938 389.4375 651.890625 393.835938 650.085938 398.191406 C 648.28125 402.546875 646.371094 406.855469 644.355469 411.121094 C 642.339844 415.382812 640.21875 419.59375 637.996094 423.75 C 635.773438 427.910156 633.449219 432.011719 631.027344 436.054688 C 628.601562 440.097656 626.078125 444.082031 623.460938 448.003906 C 620.839844 451.921875 618.125 455.777344 615.316406 459.5625 C 612.507812 463.351562 609.609375 467.066406 606.617188 470.710938 C 603.625 474.355469 600.546875 477.925781 597.378906 481.421875 C 594.214844 484.914062 590.964844 488.328125 587.628906 491.660156 C 584.296875 494.996094 580.882812 498.246094 577.386719 501.414062 C 573.894531 504.578125 570.324219 507.660156 566.679688 510.648438 C 563.035156 513.640625 559.320312 516.542969 555.53125 519.351562 C 551.746094 522.160156 547.890625 524.871094 543.96875 527.492188 C 540.050781 530.113281 536.066406 532.632812 532.023438 535.058594 C 527.976562 537.484375 523.875 539.804688 519.71875 542.027344 C 515.558594 544.25 511.347656 546.371094 507.085938 548.386719 C 502.824219 550.402344 498.515625 552.3125 494.160156 554.117188 C 489.800781 555.921875 485.40625 557.617188 480.964844 559.207031 C 476.523438 560.796875 472.050781 562.273438 467.539062 563.644531 C 463.023438 565.011719 458.480469 566.269531 453.910156 567.414062 C 449.335938 568.558594 444.734375 569.59375 440.109375 570.511719 C 435.484375 571.433594 430.839844 572.238281 426.175781 572.929688 C 421.511719 573.621094 416.835938 574.199219 412.140625 574.660156 C 407.449219 575.125 402.75 575.46875 398.039062 575.703125 C 393.328125 575.933594 388.617188 576.050781 383.902344 576.050781 C 379.1875 576.050781 374.476562 575.933594 369.765625 575.703125 C 365.054688 575.46875 360.355469 575.125 355.664062 574.660156 C 350.96875 574.199219 346.292969 573.621094 341.628906 572.929688 C 336.964844 572.238281 332.320312 571.433594 327.695312 570.511719 C 323.070312 569.59375 318.46875 568.558594 313.894531 567.414062 C 309.324219 566.269531 304.78125 565.011719 300.265625 563.644531 C 295.753906 562.273438 291.277344 560.796875 286.839844 559.207031 C 282.398438 557.617188 278.003906 555.921875 273.644531 554.117188 C 269.289062 552.3125 264.980469 550.402344 260.71875 548.386719 C 256.457031 546.371094 252.246094 544.25 248.085938 542.027344 C 243.929688 539.804688 239.828125 537.484375 235.78125 535.058594 C 231.738281 532.632812 227.753906 530.113281 223.835938 527.492188 C 219.914062 524.875 216.058594 522.160156 212.273438 519.351562 C 208.484375 516.542969 204.769531 513.640625 201.125 510.648438 C 197.480469 507.660156 193.910156 504.578125 190.417969 501.414062 C 186.921875 498.246094 183.507812 494.996094 180.175781 491.660156 C 176.839844 488.328125 173.589844 484.914062 170.425781 481.421875 C 167.257812 477.925781 164.179688 474.355469 161.1875 470.710938 C 158.195312 467.066406 155.296875 463.351562 152.488281 459.5625 C 149.679688 455.777344 146.964844 451.921875 144.34375 448.003906 C 141.722656 444.082031 139.203125 440.097656 136.777344 436.054688 C 134.355469 432.011719 132.03125 427.910156 129.808594 423.75 C 127.585938 419.59375 125.464844 415.382812 123.449219 411.121094 C 121.433594 406.855469 119.523438 402.546875 117.71875 398.191406 C 115.914062 393.835938 114.21875 389.4375 112.628906 384.996094 C 111.042969 380.558594 109.5625 376.082031 108.195312 371.570312 C 106.824219 367.058594 105.566406 362.515625 104.421875 357.941406 C 103.277344 353.367188 102.246094 348.769531 101.324219 344.144531 C 100.40625 339.519531 99.597656 334.875 98.90625 330.210938 C 98.214844 325.546875 97.636719 320.867188 97.175781 316.175781 C 96.714844 311.484375 96.367188 306.78125 96.136719 302.074219 C 95.902344 297.363281 95.789062 292.648438 95.789062 287.933594 C 95.789062 283.21875 95.902344 278.507812 96.136719 273.796875 C 96.367188 269.089844 96.714844 264.386719 97.175781 259.695312 C 97.636719 255.003906 98.214844 250.324219 98.90625 245.660156 C 99.597656 240.996094 100.40625 236.351562 101.324219 231.726562 C 102.246094 227.101562 103.277344 222.503906 104.421875 217.929688 C 105.566406 213.355469 106.824219 208.8125 108.195312 204.300781 C 109.5625 199.789062 111.042969 195.3125 112.628906 190.871094 C 114.21875 186.433594 115.914062 182.035156 117.71875 177.679688 C 119.523438 173.320312 121.433594 169.011719 123.449219 164.75 C 125.464844 160.488281 127.585938 156.277344 129.808594 152.117188 C 132.03125 147.960938 134.355469 143.859375 136.777344 139.816406 C 139.203125 135.769531 141.722656 131.789062 144.34375 127.867188 C 146.964844 123.945312 149.679688 120.09375 152.488281 116.304688 C 155.296875 112.519531 158.195312 108.800781 161.1875 105.15625 C 164.179688 101.511719 167.257812 97.941406 170.425781 94.449219 C 173.589844 90.957031 176.839844 87.542969 180.175781 84.207031 C 183.507812 80.875 186.921875 77.625 190.417969 74.457031 C 193.910156 71.289062 197.480469 68.210938 201.125 65.21875 C 204.769531 62.230469 208.484375 59.328125 212.273438 56.519531 C 216.058594 53.710938 219.914062 50.996094 223.835938 48.375 C 227.753906 45.757812 231.738281 43.234375 235.78125 40.8125 C 239.828125 38.386719 243.929688 36.0625 248.085938 33.839844 C 252.246094 31.617188 256.457031 29.5 260.71875 27.484375 C 264.980469 25.46875 269.289062 23.554688 273.644531 21.753906 C 278.003906 19.949219 282.398438 18.25 286.839844 16.664062 C 291.277344 15.074219 295.753906 13.597656 300.265625 12.226562 C 304.78125 10.859375 309.324219 9.601562 313.894531 8.457031 C 318.46875 7.308594 323.070312 6.277344 327.695312 5.355469 C 332.320312 4.4375 336.964844 3.632812 341.628906 2.9375 C 346.292969 2.246094 350.96875 1.671875 355.664062 1.207031 C 360.355469 0.746094 365.054688 0.398438 369.765625 0.167969 C 374.476562 -0.0625 379.1875 -0.179688 383.902344 -0.179688 C 388.617188 -0.179688 393.328125 -0.0625 398.039062 0.167969 C 402.75 0.398438 407.449219 0.746094 412.140625 1.207031 C 416.835938 1.671875 421.511719 2.246094 426.175781 2.9375 C 430.839844 3.632812 435.484375 4.4375 440.109375 5.355469 C 444.734375 6.277344 449.335938 7.308594 453.910156 8.457031 C 458.480469 9.601562 463.023438 10.859375 467.539062 12.226562 C 472.050781 13.59375 476.523438 15.074219 480.964844 16.664062 C 485.40625 18.25 489.800781 19.949219 494.160156 21.753906 C 498.515625 23.554688 502.824219 25.46875 507.085938 27.484375 C 511.347656 29.5 515.558594 31.617188 519.71875 33.839844 C 523.875 36.0625 527.976562 38.386719 532.023438 40.8125 C 536.066406 43.234375 540.050781 45.757812 543.96875 48.375 C 547.890625 50.996094 551.746094 53.710938 555.53125 56.519531 C 559.320312 59.328125 563.035156 62.226562 566.679688 65.21875 C 570.324219 68.210938 573.894531 71.289062 577.386719 74.457031 C 580.882812 77.625 584.296875 80.875 587.628906 84.207031 C 590.964844 87.542969 594.214844 90.957031 597.378906 94.449219 C 600.546875 97.941406 603.625 101.511719 606.617188 105.15625 C 609.609375 108.800781 612.507812 112.519531 615.316406 116.304688 C 618.125 120.09375 620.839844 123.945312 623.460938 127.867188 C 626.078125 131.789062 628.601562 135.769531 631.027344 139.816406 C 633.449219 143.859375 635.773438 147.960938 637.996094 152.117188 C 640.21875 156.277344 642.339844 160.488281 644.355469 164.75 C 646.371094 169.011719 648.28125 173.320312 650.085938 177.679688 C 651.890625 182.035156 653.585938 186.433594 655.175781 190.871094 C 656.761719 195.3125 658.242188 199.789062 659.609375 204.300781 C 660.980469 208.8125 662.234375 213.355469 663.382812 217.929688 C 664.527344 222.503906 665.558594 227.101562 666.480469 231.726562 C 667.398438 236.351562 668.207031 240.996094 668.898438 245.660156 C 669.589844 250.324219 670.167969 255.003906 670.628906 259.695312 C 671.089844 264.386719 671.4375 269.089844 671.667969 273.796875 C 671.902344 278.507812 672.015625 283.21875 672.015625 287.933594 Z M 672.015625 287.933594 " fill-opacity="1" fill-rule="nonzero"/></g></svg>